<!-- Generator: Adobe Illustrator 19.0.0, SVG Export Plug-In  -->
<svg version="1.1"
	 xmlns="http://www.w3.org/2000/svg" xmlns:xlink="http://www.w3.org/1999/xlink" xmlns:a="http://ns.adobe.com/AdobeSVGViewerExtensions/3.0/"
	 x="0px" y="0px" width="281.269px" height="281.268px" viewBox="0 0 281.269 281.268"
	 style="enable-background:new 0 0 281.269 281.268;" xml:space="preserve">
<style type="text/css">
	.st0{fill:#C20B19;}
	.st1{fill:#FFFFFF;}
</style>
<defs>
</defs>
<g id="XMLID_64_">
	<circle id="XMLID_68_" class="st0" cx="140.634" cy="140.634" r="134.965"/>
	<path id="XMLID_65_" class="st1" d="M140.634,281.268C63.088,281.268,0,218.18,0,140.634S63.088,0,140.634,0
		s140.634,63.088,140.634,140.634S218.18,281.268,140.634,281.268z M140.634,11.339c-71.294,0-129.295,58.001-129.295,129.295
		S69.34,269.93,140.634,269.93S269.93,211.928,269.93,140.634S211.928,11.339,140.634,11.339z"/>
</g>
<g id="XMLID_42_">
	<path id="XMLID_61_" class="st1" d="M61.251,138.557c0,10.584-6.433,16.196-14.28,16.196c-8.121,0-13.824-6.296-13.824-15.604
		c0-9.763,6.068-16.151,14.28-16.151C55.822,122.999,61.251,129.432,61.251,138.557z M37.39,139.059
		c0,6.57,3.559,12.456,9.81,12.456c6.296,0,9.854-5.794,9.854-12.775c0-6.113-3.194-12.501-9.809-12.501
		C40.675,126.238,37.39,132.307,37.39,139.059z"/>
	<path id="XMLID_59_" class="st1" d="M66.41,154.251v-30.75h4.334l9.854,15.558c2.281,3.604,4.061,6.844,5.521,9.992l0.091-0.045
		c-0.365-4.106-0.456-7.848-0.456-12.638v-12.866h3.741v30.75H85.48l-9.763-15.604c-2.145-3.421-4.198-6.935-5.749-10.265
		l-0.137,0.045c0.228,3.878,0.319,7.574,0.319,12.684v13.14H66.41z"/>
	<path id="XMLID_56_" class="st1" d="M96.432,123.912c2.418-0.365,5.292-0.639,8.44-0.639c5.703,0,9.764,1.323,12.456,3.833
		c2.737,2.509,4.334,6.068,4.334,11.041c0,5.019-1.551,9.125-4.425,11.953c-2.875,2.875-7.619,4.426-13.596,4.426
		c-2.829,0-5.201-0.137-7.208-0.365V123.912z M100.401,151.104c1.004,0.183,2.464,0.228,4.015,0.228
		c8.486,0,13.094-4.745,13.094-13.048c0.046-7.254-4.061-11.862-12.455-11.862c-2.053,0-3.604,0.183-4.654,0.411V151.104z"/>
	<path id="XMLID_54_" class="st1" d="M130.789,123.501v18.204c0,6.889,3.057,9.809,7.163,9.809c4.563,0,7.482-3.011,7.482-9.809
		v-18.204h4.015v17.93c0,9.444-4.973,13.322-11.634,13.322c-6.296,0-11.041-3.604-11.041-13.14v-18.113H130.789z"/>
	<path id="XMLID_52_" class="st1" d="M156.34,123.501h3.969v27.42h13.14v3.331H156.34V123.501z"/>
	<path id="XMLID_49_" class="st1" d="M182.849,144.579l-3.194,9.672h-4.106l10.448-30.75h4.791l10.494,30.75h-4.243l-3.285-9.672
		H182.849z M192.932,141.477l-3.011-8.851c-0.685-2.008-1.141-3.833-1.597-5.612h-0.091c-0.457,1.825-0.958,3.695-1.551,5.566
		l-3.011,8.897H192.932z"/>
	<path id="XMLID_46_" class="st1" d="M205.8,123.912c2.418-0.365,5.292-0.639,8.44-0.639c5.703,0,9.764,1.323,12.456,3.833
		c2.737,2.509,4.334,6.068,4.334,11.041c0,5.019-1.551,9.125-4.425,11.953c-2.875,2.875-7.619,4.426-13.596,4.426
		c-2.829,0-5.201-0.137-7.208-0.365V123.912z M209.769,151.104c1.004,0.183,2.464,0.228,4.015,0.228
		c8.486,0,13.094-4.745,13.094-13.048c0.046-7.254-4.061-11.862-12.455-11.862c-2.053,0-3.604,0.183-4.654,0.411V151.104z"/>
	<path id="XMLID_43_" class="st1" d="M262.466,138.557c0,10.584-6.433,16.196-14.28,16.196c-8.121,0-13.824-6.296-13.824-15.604
		c0-9.763,6.068-16.151,14.28-16.151C257.037,122.999,262.466,129.432,262.466,138.557z M238.605,139.059
		c0,6.57,3.559,12.456,9.81,12.456c6.296,0,9.854-5.794,9.854-12.775c0-6.113-3.194-12.501-9.809-12.501
		C241.89,126.238,238.605,132.307,238.605,139.059z"/>
</g>
</svg>