<!-- Generator: Adobe Illustrator 19.0.0, SVG Export Plug-In  -->
<svg version="1.1"
	 xmlns="http://www.w3.org/2000/svg" xmlns:xlink="http://www.w3.org/1999/xlink" xmlns:a="http://ns.adobe.com/AdobeSVGViewerExtensions/3.0/"
	 x="0px" y="0px" width="795.674px" height="559.653px" viewBox="0 0 795.674 559.653"
	 style="enable-background:new 0 0 795.674 559.653;" xml:space="preserve">
<style type="text/css">
	.st0{fill:#A3A3A3;}
	.st1{fill:#FFFFFF;}
</style>
<defs>
</defs>
<g id="XMLID_16_">
	<path id="XMLID_18_" class="st0" d="M0.349,279.795c0-21.155-0.911-42.359,0.212-63.455c1.721-32.349,4.201-64.692,7.606-96.906
		c2.101-19.879,8.058-39.1,17.131-57.051c14.056-27.809,37.377-44.025,67.247-50.541c13.344-2.911,27.192-4.003,40.876-4.766
		c34.431-1.92,68.895-3.288,103.355-4.664c16.199-0.647,32.416-0.956,48.628-1.155c42.167-0.519,84.335-1.12,126.504-1.246
		c29.322-0.088,58.65,0.372,87.969,0.925c28.654,0.54,57.312,1.231,85.947,2.362c29.536,1.166,59.061,2.713,88.564,4.538
		c17.768,1.1,35.325,3.693,51.624,11.65c26.616,12.992,43.278,34.184,52.244,62.13c6.332,19.734,10.357,39.823,11.744,60.479
		c1.694,25.223,4.357,50.42,4.978,75.667c0.903,36.709,0.861,73.463,0.252,110.182c-0.417,25.131-2.198,50.254-3.893,75.345
		c-1.81,26.804-5.28,53.307-14.573,78.831c-14.615,40.14-43.555,62.248-85.224,67.464c-22.477,2.814-45.212,3.804-67.865,4.902
		c-29.92,1.451-59.868,2.391-89.813,3.198c-28.656,0.772-57.323,1.235-85.988,1.572c-26.338,0.309-52.683,0.52-79.021,0.316
		c-29.963-0.232-59.926-0.799-89.88-1.537c-34.096-0.841-68.189-1.88-102.272-3.138c-15.931-0.588-31.912-1.232-47.731-3.055
		c-15.399-1.775-30.962-3.856-45.85-7.979c-32.139-8.901-53.368-29.991-64.327-61.613c-7.22-20.833-11.74-42.142-13.238-64.119
		c-1.746-25.607-4.056-51.19-5.11-76.824c-0.842-20.471-0.17-41.005-0.17-61.511C0.299,279.795,0.324,279.795,0.349,279.795z
		 M315.816,382.914c71.572-37.107,142.705-73.986,214.493-111.205c-71.97-37.548-143.006-74.61-214.493-111.906
		C315.816,234.444,315.816,308.327,315.816,382.914z"/>
	<path id="XMLID_17_" class="st1" d="M315.816,382.914c0-74.587,0-148.47,0-223.111c71.487,37.296,142.523,74.357,214.493,111.906
		C458.521,308.928,387.389,345.807,315.816,382.914z"/>
</g>
</svg>