<!-- Generator: Adobe Illustrator 19.0.0, SVG Export Plug-In  -->
<svg version="1.1"
	 xmlns="http://www.w3.org/2000/svg" xmlns:xlink="http://www.w3.org/1999/xlink" xmlns:a="http://ns.adobe.com/AdobeSVGViewerExtensions/3.0/"
	 x="0px" y="0px" width="371.313px" height="310.278px" viewBox="0 0 371.313 310.278"
	 style="enable-background:new 0 0 371.313 310.278;" xml:space="preserve">
<defs>
</defs>
<path id="XMLID_16_" d="M117.973,230.016c-0.702,0.751-1.603,1.127-2.704,1.127c-1.202,0-2.58,0.025-4.131,0.075
	c-1.554,0.052-3.08,0.176-4.582,0.376c0,4.708,0,9.516,0,14.421c0,4.908,0,10.291,0,16.15c0,5.858,0,12.419,0,19.68
	c0,7.263,0,15.549,0,24.862c-0.202,0.901-0.653,1.629-1.352,2.179c-0.702,0.552-1.453,0.85-2.253,0.901
	c-0.803,0.049-1.578-0.15-2.329-0.602c-0.751-0.45-1.277-1.225-1.577-2.328c0.199-12.92,0.3-25.563,0.3-37.933
	c0-12.368,0-24.761,0-37.181c-1.202,0-2.08,0-2.629,0c-0.552,0-1.002,0.026-1.352,0.075c-0.352,0.052-0.702,0.101-1.052,0.15
	c-0.352,0.052-0.977,0.126-1.878,0.225c-1.202-0.3-2.103-0.8-2.704-1.502c-0.601-0.7-0.951-1.477-1.051-2.329
	c-0.099-0.85,0.075-1.676,0.526-2.479c0.451-0.8,1.178-1.451,2.178-1.953c0.803-0.301,2.403-0.549,4.807-0.751
	c2.404-0.199,4.958-0.324,7.662-0.375c2.704-0.049,5.258-0.023,7.662,0.075c2.404,0.101,3.955,0.202,4.657,0.3
	c1.202,0.301,2.052,0.878,2.554,1.728c0.5,0.853,0.676,1.728,0.526,2.629C119.1,228.439,118.673,229.265,117.973,230.016z
	 M85.225,268.475c-2.305-4.756-4.758-9.464-7.361-14.122c-2.606-4.657-4.559-9.337-5.859-14.046
	c-0.401-1.601-0.601-3.155-0.601-4.657c0-1.502,0.699-2.653,2.103-3.456c1.401-1,2.578-1.126,3.53-0.375
	c0.951,0.751,1.676,1.678,2.179,2.779c0.8,0.901,1.652,1.427,2.554,1.577c0.901,0.15,1.702,0,2.403-0.451
	c0.7-0.451,1.202-1.15,1.502-2.103c0.3-0.951,0.3-2.028,0-3.23c-0.901-3.103-2.53-5.206-4.882-6.31
	c-2.354-1.101-4.758-1.352-7.211-0.751c-2.455,0.601-4.633,1.904-6.535,3.906c-1.904,2.005-2.906,4.559-3.005,7.662
	c-0.202,4.507,0.7,9.265,2.704,14.271c2.002,5.009,4.256,9.99,6.76,14.948c2.502,4.958,4.808,9.791,6.911,14.497
	c2.103,4.709,3.204,9.065,3.305,13.07c0,3.005-0.751,5.31-2.253,6.91c-1.502,1.604-3.181,2.455-5.033,2.554
	c-1.854,0.102-3.53-0.601-5.033-2.103c-1.502-1.503-2.204-3.854-2.103-7.061c0-1.401-0.327-2.528-0.977-3.381
	c-0.653-0.85-1.404-1.326-2.253-1.427c-0.852-0.099-1.678,0.15-2.479,0.751c-0.803,0.601-1.303,1.652-1.502,3.155
	c-0.202,3.004,0.049,5.81,0.751,8.412c0.7,2.605,2.202,4.859,4.507,6.761c1.702,1.303,3.73,2.154,6.084,2.554
	c2.352,0.401,4.657,0.301,6.911-0.301c2.253-0.601,4.281-1.676,6.084-3.229c1.803-1.552,3.005-3.629,3.605-6.234
	c1.502-5.507,1.653-10.791,0.451-15.85C89.281,278.141,87.528,273.232,85.225,268.475z M26.941,246.391
	c1.101,4.758,1.676,9.741,1.728,14.947c0.049,5.209-0.376,10.392-1.277,15.548c-0.901,5.16-2.279,9.941-4.131,14.347
	c-1.854,4.408-4.207,8.239-7.061,11.493c-2.854,3.255-6.136,5.534-9.84,6.835c-1.202,0.301-2.554,0.301-4.056,0
	c-1.502-0.301-2.253-1.15-2.253-2.554c-0.101-15.121-0.051-29.22,0.15-42.289c0.2-13.07,0.3-25.764,0.3-38.083
	c-0.101-0.7,0.023-1.552,0.375-2.554c0.35-1,1.127-1.502,2.329-1.502c4.207-0.301,7.887,0.601,11.042,2.704
	c3.155,2.103,5.784,4.958,7.887,8.563S25.838,241.635,26.941,246.391z M21.308,257.282c-0.352-4.105-1.052-7.962-2.103-11.567
	c-1.052-3.605-2.479-6.659-4.282-9.164c-1.303-1.702-2.629-3.054-3.981-4.056c-1.352-1-2.58-1.502-3.681-1.502
	c0,11.417,0.023,22.834,0.075,34.252c0.049,11.417,0.023,22.886-0.075,34.402c2.704-1.702,5.033-4.105,6.986-7.211
	c1.953-3.104,3.504-6.584,4.657-10.44c1.15-3.854,1.927-7.911,2.329-12.169C21.632,265.571,21.657,261.39,21.308,257.282z
	 M1.102,125.383c0.5,1.704,1.401,2.854,2.704,3.455c1.3,0.601,2.502,0.8,3.605,0.601c5.007-1.803,9.964-2.728,14.873-2.779
	c4.906-0.049,9.915-0.075,15.022-0.075h0.15c1.502-0.3,2.704-0.977,3.605-2.028c0.901-1.052,1.427-2.202,1.577-3.456
	c0.15-1.251-0.126-2.479-0.826-3.681c-0.702-1.202-1.903-2.051-3.605-2.554c-4.107-0.8-8.389-1.075-12.844-0.826
	c-4.458,0.251-8.788,0.927-12.995,2.028c0-16.825-0.052-33.726-0.15-50.702c-0.101-16.976-0.052-33.775,0.15-50.401
	c-0.601-1.702-1.453-2.953-2.554-3.756c-1.104-0.8-2.204-1.176-3.305-1.127c-1.103,0.052-2.155,0.502-3.155,1.352
	c-1.002,0.852-1.652,2.08-1.953,3.681c0,9.816,0.023,19.304,0.075,28.468c0.049,9.164,0.075,18.229,0.075,27.191
	c0,8.964-0.026,17.952-0.075,26.966C1.426,106.755,1.302,115.971,1.102,125.383z M44.142,102.323
	c-0.451-4.756-0.676-9.99-0.676-15.699s0.324-11.492,0.976-17.351c0.65-5.859,1.827-10.967,3.531-15.323
	c1.702-4.357,4.08-7.586,7.136-9.69c3.054-2.103,6.985-2.303,11.792-0.601c2.202,1.502,4.005,3.605,5.408,6.31
	c1.401,2.704,2.479,5.76,3.23,9.164c0.751,3.406,1.202,7.086,1.352,11.042c0.15,3.958,0.125,7.938-0.075,11.943
	c-0.202,4.007-0.577,7.913-1.126,11.718c-0.552,3.807-1.178,7.312-1.878,10.516c-0.502,2.305-1.202,5.107-2.103,8.413
	c-0.901,3.305-2.129,6.335-3.681,9.089c-1.554,2.755-3.432,4.958-5.633,6.61c-2.205,1.652-4.859,1.977-7.962,0.977
	c-1.303-0.5-2.455-1.401-3.455-2.704c-1.002-1.301-1.878-2.779-2.629-4.432c-0.751-1.653-1.352-3.329-1.803-5.033
	c-0.451-1.702-0.826-3.204-1.127-4.507C45.017,110.563,44.593,107.081,44.142,102.323z M50.301,87.601
	c0.049,4.258,0.174,7.788,0.376,10.591c0.098,0.901,0.274,2.43,0.525,4.582c0.249,2.155,0.601,4.432,1.052,6.835
	c0.451,2.403,1,4.657,1.652,6.76c0.65,2.103,1.451,3.582,2.404,4.432c0.951,0.852,2.028,0.826,3.23-0.075s2.554-3.155,4.056-6.76
	c0.8-1.901,1.451-3.805,1.953-5.708c0.5-1.901,0.951-3.854,1.352-5.859c0.601-2.704,1.176-6.284,1.728-10.741
	c0.549-4.455,0.901-9.063,1.051-13.821c0.15-4.756-0.026-9.289-0.526-13.596c-0.502-4.305-1.502-7.711-3.004-10.215
	c-0.601-0.801-1.303-1.502-2.103-2.104c-0.803-0.601-1.678-1-2.629-1.202c-0.953-0.2-1.878-0.174-2.779,0.075
	c-0.901,0.251-1.704,0.878-2.404,1.878c-1.603,2.204-2.831,5.284-3.681,9.239c-0.852,3.958-1.453,8.164-1.803,12.619
	C50.4,78.989,50.25,83.345,50.301,87.601z M57.586,299.571c-0.702-0.549-1.603-0.774-2.704-0.676l0.15-0.301
	c-2.305,1.003-4.732,1.728-7.286,2.179c-2.554,0.45-5.033,0.728-7.436,0.826c0.098-4.808,0.15-9.338,0.15-13.596
	c0-4.256-0.052-8.788-0.15-13.596c2.303,0.202,4.631,0.052,6.985-0.45c2.352-0.5,4.23-1.451,5.633-2.854
	c0.801-2.002,0.7-3.605-0.3-4.808c-1.002-1.202-2.204-1.551-3.605-1.051c-1.404,0-2.831,0.15-4.281,0.451
	c-1.453,0.3-2.93,0.451-4.432,0.451c-0.202-5.808-0.301-11.542-0.301-17.201c0-5.657,0-11.241,0-16.75
	c2.303-0.5,4.481-0.624,6.535-0.375c2.051,0.251,4.229,0.427,6.535,0.526c1.901,0.401,3.404-0.049,4.507-1.352
	c1.101-1.3,0.901-2.953-0.601-4.958c-0.601-0.601-1.753-1.127-3.455-1.578c-1.704-0.451-3.582-0.8-5.633-1.051
	c-2.054-0.249-4.126-0.301-6.218-0.15c-2.094,0.15-3.899,0.578-5.415,1.277c-1.519,0.702-2.601,1.728-3.247,3.08
	c-0.647,1.352-0.519,3.131,0.383,5.333c0,6.511,0.023,12.746,0.075,18.703c0.049,5.96,0.075,11.844,0.075,17.652
	c0,5.81-0.026,11.643-0.075,17.501c-0.052,5.859-0.127,11.943-0.226,18.253c0.293,1.104,0.784,2.08,1.47,2.93
	c0.685,0.852,1.57,1.378,2.65,1.577c3.162,0.199,6.495,0.049,10.002-0.45c3.504-0.5,6.708-1.401,9.614-2.704
	c0.901-0.602,1.502-1.353,1.803-2.254c0.301-0.901,0.35-1.751,0.15-2.554C58.736,300.799,58.285,300.123,57.586,299.571z
	 M322.95,293.412c-2.054,0.15-3.781,0.777-5.183,1.878c-1.404,1.104-2.329,2.605-2.779,4.507c-0.451,1.903,0.023,3.906,1.427,6.009
	c1.601,2.306,3.479,3.455,5.634,3.455c2.152,0,4.004-0.649,5.559-1.952c1.551-1.301,2.554-3.08,3.004-5.334
	c0.451-2.253-0.176-4.48-1.878-6.685C326.931,293.889,325.002,293.262,322.95,293.412z M343.231,293.412
	c-2.054,0.15-3.781,0.777-5.183,1.878c-1.404,1.104-2.329,2.605-2.779,4.507c-0.451,1.903,0.023,3.906,1.427,6.009
	c1.601,2.306,3.479,3.455,5.634,3.455c2.152,0,4.004-0.649,5.559-1.952c1.551-1.301,2.554-3.08,3.004-5.334
	c0.451-2.253-0.176-4.48-1.878-6.685C347.211,293.889,345.282,293.262,343.231,293.412z M369.293,295.29
	c-1.803-1.401-3.731-2.028-5.783-1.878c-2.054,0.15-3.781,0.777-5.183,1.878c-1.404,1.104-2.329,2.605-2.779,4.507
	c-0.451,1.903,0.023,3.906,1.427,6.009c1.601,2.306,3.479,3.455,5.634,3.455c2.152,0,4.004-0.649,5.559-1.952
	c1.551-1.301,2.554-3.08,3.004-5.334C371.622,299.722,370.995,297.494,369.293,295.29z M272.946,53h-23c-8.284,0-15-6.716-15-15V15
	c0-8.284-6.716-15-15-15h-22c-8.284,0-15,6.716-15,15v23c0,8.284-6.716,15-15,15h-23c-8.284,0-15,6.716-15,15v22
	c0,8.284,6.716,15,15,15h23c8.284,0,15,6.716,15,15v23c0,8.284,6.716,15,15,15h22c8.284,0,15-6.716,15-15v-23
	c0-8.284,6.716-15,15-15h23c8.284,0,15-6.716,15-15V68C287.946,59.716,281.23,53,272.946,53z M142.911,304.304
	c0.099,1.403-0.101,2.554-0.601,3.455c-0.502,0.901-1.126,1.479-1.878,1.728c-0.751,0.249-1.528,0.124-2.329-0.375
	c-0.803-0.5-1.403-1.503-1.802-3.005c-0.502-5.007-1.078-9.563-1.728-13.671c-0.652-4.105-1.329-8.563-2.028-13.37
	c-1.104-0.199-2.354-0.226-3.756-0.075c-1.404,0.15-2.854,0.728-4.356,1.728c-0.401,4.206-0.676,8.39-0.826,12.544
	c-0.15,4.157-0.226,8.288-0.226,12.394c-0.3,1.404-0.803,2.43-1.502,3.08c-0.702,0.652-1.427,0.925-2.179,0.826
	c-0.751-0.099-1.453-0.525-2.103-1.277c-0.652-0.751-1.028-1.826-1.126-3.229c0.5-13.119,1.401-26.188,2.704-39.209
	c1.3-13.018,2.803-25.989,4.507-38.909c0.199-0.901,0.676-1.652,1.427-2.253c0.751-0.601,1.578-0.951,2.479-1.052
	c0.901-0.099,1.777,0.101,2.629,0.601c0.85,0.502,1.427,1.404,1.728,2.704c1.803,13.22,3.655,26.064,5.559,38.533
	C139.404,277.938,141.207,290.884,142.911,304.304z M131.493,270.803c-0.601-3.504-1.152-7.035-1.652-10.591
	c-0.502-3.554-1.002-7.136-1.502-10.741l-0.3-3.155c-0.202,1.002-0.326,2.004-0.375,3.004c-0.052,1.002-0.127,1.953-0.226,2.854
	l-1.953,19.229c1-0.199,1.976-0.35,2.929-0.45C129.364,270.854,130.39,270.803,131.493,270.803z M203.751,304.304
	c0.099,1.403-0.101,2.554-0.601,3.455c-0.502,0.901-1.126,1.479-1.878,1.728c-0.751,0.249-1.528,0.124-2.329-0.375
	c-0.803-0.5-1.403-1.503-1.802-3.005c-0.502-5.007-1.078-9.563-1.728-13.671c-0.652-4.105-1.329-8.563-2.028-13.37
	c-1.104-0.199-2.354-0.226-3.756-0.075c-1.404,0.15-2.854,0.728-4.356,1.728c-0.401,4.206-0.676,8.39-0.826,12.544
	c-0.15,4.157-0.226,8.288-0.226,12.394c-0.3,1.404-0.803,2.43-1.502,3.08c-0.702,0.652-1.427,0.925-2.179,0.826
	c-0.751-0.099-1.453-0.525-2.103-1.277c-0.652-0.751-1.028-1.826-1.126-3.229c0.5-13.119,1.401-26.188,2.704-39.209
	c1.3-13.018,2.803-25.989,4.507-38.909c0.199-0.901,0.676-1.652,1.427-2.253c0.751-0.601,1.578-0.951,2.479-1.052
	c0.901-0.099,1.777,0.101,2.629,0.601c0.85,0.502,1.427,1.404,1.728,2.704c1.803,13.22,3.655,26.064,5.559,38.533
	C200.244,277.938,202.047,290.884,203.751,304.304z M192.333,270.803c-0.601-3.504-1.152-7.035-1.652-10.591
	c-0.502-3.554-1.002-7.136-1.502-10.741l-0.3-3.155c-0.202,1.002-0.326,2.004-0.375,3.004c-0.052,1.002-0.127,1.953-0.226,2.854
	l-1.953,19.229c1-0.199,1.976-0.35,2.929-0.45C190.204,270.854,191.23,270.803,192.333,270.803z M157.031,236.25
	c0.601-2.403,1.352-4.056,2.253-4.958c1.3-0.699,2.378-0.425,3.23,0.826c0.85,1.254,1.578,2.88,2.178,4.883
	c0.601,2.004,1.052,4.082,1.352,6.234c0.301,2.155,0.601,3.831,0.901,5.032c0.099,1.303,0.549,2.179,1.352,2.629
	c0.8,0.451,1.601,0.551,2.404,0.3c0.8-0.249,1.551-0.8,2.253-1.652c0.699-0.85,1.051-1.878,1.051-3.08
	c0-2.403-0.375-5.333-1.126-8.788s-1.93-6.558-3.53-9.314c-1.604-2.753-3.605-4.681-6.009-5.784c-2.403-1.101-5.208-0.5-8.413,1.803
	c-2.504,2.305-4.307,5.708-5.408,10.215c-1.103,4.507-1.904,9.765-2.404,15.774c-0.702,5.408-1.103,11.117-1.202,17.126
	c-0.101,6.009,0.125,11.718,0.676,17.126c0.549,5.408,1.427,10.191,2.629,14.347c1.202,4.157,2.803,7.037,4.807,8.638
	c2.103,1.503,4.004,2.228,5.708,2.179c1.702-0.052,3.23-0.625,4.582-1.728c1.352-1.102,2.528-2.604,3.53-4.507
	c1-1.901,1.878-3.906,2.629-6.01c0.751-2.103,1.326-4.206,1.728-6.31c0.399-2.103,0.7-3.955,0.901-5.558
	c0-1.301-0.326-2.378-0.976-3.23c-0.653-0.85-1.404-1.375-2.253-1.577c-0.852-0.199-1.653-0.075-2.404,0.376
	c-0.751,0.45-1.178,1.328-1.277,2.629c-0.3,1.201-0.601,2.88-0.901,5.032c-0.3,2.155-0.751,4.232-1.352,6.234
	c-0.601,2.005-1.329,3.605-2.178,4.808c-0.852,1.201-1.93,1.403-3.23,0.601c-0.901-0.5-1.629-1.826-2.178-3.981
	c-0.552-2.152-1.002-4.48-1.352-6.985c-0.352-2.502-0.601-4.856-0.751-7.061c-0.15-2.202-0.225-3.554-0.225-4.056
	c-0.202-6.61-0.176-13.27,0.075-19.98C154.35,251.776,155.327,244.363,157.031,236.25z M234.395,246.391
	c1.101,4.758,1.676,9.741,1.728,14.947c0.049,5.209-0.376,10.392-1.277,15.548c-0.901,5.16-2.279,9.941-4.131,14.347
	c-1.854,4.408-4.207,8.239-7.061,11.493c-2.854,3.255-6.136,5.534-9.84,6.835c-1.202,0.301-2.554,0.301-4.056,0
	c-1.502-0.301-2.253-1.15-2.253-2.554c-0.101-15.121-0.051-29.22,0.15-42.289c0.2-13.07,0.3-25.764,0.3-38.083
	c-0.101-0.7,0.023-1.552,0.375-2.554c0.35-1,1.127-1.502,2.329-1.502c4.207-0.301,7.887,0.601,11.042,2.704
	c3.155,2.103,5.784,4.958,7.887,8.563S233.292,241.635,234.395,246.391z M228.762,257.282c-0.352-4.105-1.052-7.962-2.103-11.567
	c-1.052-3.605-2.479-6.659-4.282-9.164c-1.303-1.702-2.629-3.054-3.981-4.056c-1.352-1-2.58-1.502-3.681-1.502
	c0,11.417,0.023,22.834,0.075,34.252c0.049,11.417,0.023,22.886-0.075,34.402c2.704-1.702,5.033-4.105,6.986-7.211
	c1.953-3.104,3.504-6.584,4.657-10.44c1.15-3.854,1.927-7.911,2.329-12.169C229.086,265.571,229.112,261.39,228.762,257.282z
	 M274.43,250.447c0.148,3.958,0.123,7.938-0.076,11.943c-0.201,4.007-0.578,7.913-1.127,11.717
	c-0.551,3.808-1.178,7.313-1.877,10.517c-0.502,2.305-1.203,5.107-2.104,8.412c-0.902,3.306-2.129,6.336-3.682,9.089
	c-1.553,2.756-3.432,4.958-5.633,6.61c-2.203,1.652-4.859,1.977-7.961,0.977c-1.303-0.5-2.457-1.401-3.457-2.704
	c-1.002-1.301-1.877-2.779-2.629-4.432c-0.75-1.652-1.352-3.329-1.802-5.033c-0.451-1.701-0.826-3.204-1.127-4.507
	c-0.401-2.201-0.826-5.683-1.277-10.44c-0.451-4.756-0.676-9.99-0.676-15.699s0.324-11.492,0.976-17.351
	c0.65-5.859,1.827-10.967,3.53-15.323c1.701-4.357,4.08-7.586,7.137-9.69c3.053-2.103,6.984-2.303,11.793-0.601
	c2.201,1.502,4.004,3.605,5.408,6.31c1.4,2.704,2.479,5.76,3.229,9.164C273.828,242.812,274.28,246.492,274.43,250.447z
	 M266.692,244.513c-0.502-4.305-1.502-7.711-3.004-10.215c-0.602-0.801-1.303-1.502-2.104-2.104c-0.803-0.601-1.678-1-2.629-1.202
	c-0.953-0.2-1.877-0.174-2.779,0.075c-0.9,0.251-1.703,0.878-2.402,1.878c-1.604,2.204-2.832,5.284-3.682,9.239
	c-0.852,3.958-1.453,8.164-1.803,12.619c-0.352,4.458-0.502,8.814-0.451,13.069c0.051,4.259,0.174,7.789,0.377,10.592
	c0.098,0.901,0.273,2.429,0.525,4.582c0.248,2.154,0.602,4.432,1.051,6.835c0.451,2.403,1,4.657,1.652,6.76
	c0.65,2.104,1.451,3.582,2.404,4.432c0.951,0.853,2.027,0.827,3.23-0.074c1.201-0.901,2.553-3.155,4.055-6.761
	c0.801-1.901,1.451-3.805,1.953-5.709c0.5-1.901,0.951-3.854,1.354-5.858c0.6-2.704,1.176-6.284,1.727-10.741
	c0.549-4.455,0.902-9.063,1.053-13.821C267.367,253.353,267.192,248.82,266.692,244.513z"/>
</svg>