<!-- Generator: Adobe Illustrator 19.0.0, SVG Export Plug-In  -->
<svg version="1.1"
	 xmlns="http://www.w3.org/2000/svg" xmlns:xlink="http://www.w3.org/1999/xlink" xmlns:a="http://ns.adobe.com/AdobeSVGViewerExtensions/3.0/"
	 x="0px" y="0px" width="699.893px" height="101.231px" viewBox="0 0 699.893 101.231"
	 style="enable-background:new 0 0 699.893 101.231;" xml:space="preserve">
<style type="text/css">
	.st0{fill:#868685;}
</style>
<defs>
</defs>
<path id="XMLID_16_" class="st0" d="M30.455,3.003c-9.436,0-17.015,3.527-22.734,10.58C2.574,19.875,0,27.359,0,36.031
	c0,7.435,2.002,14.013,6.006,19.731c4.765,6.959,11.439,10.438,20.017,10.438c7.721,0,14.345-3.478,19.875-10.438h0.286
	c-1.526,8.772-5.433,17.015-11.724,24.736c-5.72,7.055-12.726,12.964-21.019,17.729l1.144,3.003
	c12.772-5.147,23.496-13.345,32.171-24.593C56,64.628,60.624,51.855,60.624,38.32c0-9.437-2.527-17.491-7.578-24.165
	C47.42,6.72,39.892,3.003,30.455,3.003z M42.966,52.689c-3.575,4.243-7.985,6.363-13.226,6.363c-5.911,0-10.724-3.05-14.441-9.151
	c-3.146-5.337-4.718-11.389-4.718-18.158c0-6.577,1.738-11.962,5.219-16.157c3.478-4.193,7.792-6.291,12.939-6.291
	c5.052,0,9.388,2.145,13.012,6.435c4.383,5.053,6.577,12.01,6.577,20.876C48.328,43.087,46.541,48.449,42.966,52.689z
	 M105.949,35.031c-7.531,0-14.061,3.481-19.589,10.438h-0.286c1.524-8.769,5.433-17.015,11.724-24.736
	c5.72-7.052,12.725-12.961,21.019-17.729L117.674,0c-12.775,5.244-23.498,13.44-32.171,24.593
	C76.16,36.604,71.49,49.378,71.49,62.912c0,9.437,2.525,17.494,7.578,24.165c5.623,7.435,13.106,11.152,22.449,11.152
	c9.53,0,17.157-3.525,22.876-10.58c5.147-6.291,7.721-13.773,7.721-22.448c0-7.435-2.002-14.013-6.006-19.731
	C121.341,38.512,114.622,35.031,105.949,35.031z M116.244,85.646c-3.528,4.195-7.913,6.291-13.154,6.291
	c-4.861,0-9.151-2.145-12.868-6.435c-4.289-5.147-6.434-12.104-6.434-20.875c0-6.482,1.787-11.843,5.361-16.086
	c3.575-4.24,7.935-6.363,13.083-6.363c6.006,0,10.867,3.052,14.584,9.151c3.146,5.339,4.719,11.392,4.719,18.158
	C121.534,76.066,119.769,81.453,116.244,85.646z M182.588,43.324c5.337-2.478,9.15-4.908,11.439-7.292
	c3.146-3.146,4.718-7.243,4.718-12.296c0-6.291-2.431-11.39-7.292-15.299c-4.576-3.622-10.057-5.433-16.442-5.433
	c-6.674,0-12.489,1.908-17.444,5.719c-5.339,4.1-8.007,9.437-8.007,16.014c0,4.482,1.62,8.579,4.861,12.296
	c2.002,2.384,5.434,5.291,10.294,8.722c-7.149,2.86-12.392,6.148-15.727,9.866c-4.29,4.481-6.434,10.151-6.434,17.014
	c0,8.199,3.096,14.634,9.294,19.303c5.623,4.193,12.676,6.29,21.161,6.29c8.865,0,16.107-2.097,21.733-6.29
	c6.195-4.669,9.294-11.343,9.294-20.018c0-6.577-2.145-12.296-6.435-17.157C194.645,51.427,189.641,47.613,182.588,43.324z
	 M164.572,30.027c-2.384-2.478-3.575-5.434-3.575-8.865c0-3.717,1.238-6.767,3.717-9.15c2.478-2.382,5.72-3.575,9.723-3.575
	c4.29,0,7.65,1.358,10.08,4.075c2.431,2.717,3.646,6.363,3.646,10.939c0,3.909-0.764,7.102-2.288,9.579
	c-1.525,2.479-4.289,4.91-8.293,7.292C170.624,35.366,166.288,31.934,164.572,30.027z M187.521,87.648
	c-3.385,3.431-7.842,5.147-13.369,5.147c-6.197,0-11.009-2.095-14.441-6.291c-3.242-3.908-4.861-9.055-4.861-15.442
	c0-5.527,1.38-10.294,4.146-14.298c2.763-4.003,6.624-6.577,11.582-7.72c8.482,5.147,13.962,8.961,16.442,11.438
	c3.717,3.718,5.576,8.247,5.576,13.583C192.596,79.69,190.903,84.216,187.521,87.648z M284.676,35.031
	c-7.531,0-14.061,3.481-19.589,10.438h-0.286c1.524-8.769,5.433-17.015,11.724-24.736c5.72-7.052,12.725-12.961,21.019-17.729
	L296.401,0c-12.775,5.244-23.498,13.44-32.171,24.593c-9.343,12.011-14.013,24.785-14.013,38.319c0,9.437,2.525,17.494,7.578,24.165
	c5.623,7.435,13.106,11.152,22.449,11.152c9.53,0,17.157-3.525,22.876-10.58c5.147-6.291,7.721-13.773,7.721-22.448
	c0-7.435-2.002-14.013-6.006-19.731C300.069,38.512,293.349,35.031,284.676,35.031z M294.971,85.646
	c-3.528,4.195-7.913,6.291-13.154,6.291c-4.861,0-9.151-2.145-12.868-6.435c-4.289-5.147-6.434-12.104-6.434-20.875
	c0-6.482,1.787-11.843,5.361-16.086c3.575-4.24,7.935-6.363,13.083-6.363c6.006,0,10.867,3.052,14.584,9.151
	c3.146,5.339,4.719,11.392,4.719,18.158C300.261,76.066,298.496,81.453,294.971,85.646z M352.163,3.003
	c-9.436,0-17.015,3.527-22.734,10.58c-5.147,6.291-7.721,13.775-7.721,22.448c0,7.435,2.002,14.013,6.006,19.731
	c4.765,6.959,11.439,10.438,20.017,10.438c7.721,0,14.345-3.478,19.875-10.438h0.286c-1.526,8.772-5.433,17.015-11.724,24.736
	c-5.72,7.055-12.726,12.964-21.019,17.729l1.144,3.003c12.772-5.147,23.496-13.345,32.171-24.593
	c9.245-12.01,13.869-24.783,13.869-38.319c0-9.437-2.527-17.491-7.578-24.165C369.128,6.72,361.6,3.003,352.163,3.003z
	 M364.674,52.689c-3.575,4.243-7.985,6.363-13.226,6.363c-5.911,0-10.724-3.05-14.441-9.151c-3.146-5.337-4.718-11.389-4.718-18.158
	c0-6.577,1.738-11.962,5.219-16.157c3.478-4.193,7.792-6.291,12.939-6.291c5.052,0,9.388,2.145,13.012,6.435
	c4.383,5.053,6.577,12.01,6.577,20.876C370.036,43.087,368.248,48.449,364.674,52.689z M449.391,66.344
	c0,9.436-5.672,17.254-17.016,23.449c-10.105,5.433-21.447,8.243-34.03,8.435l-0.715-4.575
	c25.739-2.764,38.605-11.724,38.605-26.881c0-5.623-2.86-9.723-8.58-12.296c-4.669-2.192-11.915-3.525-21.731-4.004l0.857-5.433
	c17.349-0.38,26.024-7.006,26.024-19.874c0-4.955-1.358-8.984-4.075-12.082c-2.717-3.097-6.412-4.647-11.081-4.647
	c-7.532,0-13.87,5.959-19.017,17.872h-2.86c2.002-7.528,3.478-13.963,4.432-19.302c6.291-2.667,12.63-4.003,19.018-4.003
	c7.242,0,13.344,1.716,18.299,5.147c5.624,3.814,8.436,9.247,8.436,16.3c0,5.719-2.239,10.63-6.72,14.727
	c-4.099,3.717-9.105,6.101-15.013,7.149v0.287C441.002,46.994,449.391,53.571,449.391,66.344z M556.912,58.194
	c0,11.439-5.576,21.114-16.729,29.025c-9.533,6.769-20.497,10.867-32.887,12.297l-1-3.575c10.388-2.668,18.872-6.528,25.45-11.582
	c8.006-6.195,12.011-13.44,12.011-21.733c0-6.291-1.956-11.152-5.863-14.584c-3.909-3.431-9.008-5.147-15.299-5.147
	c-2.194,0-8.199,1.194-18.016,3.575c0-4.669,0.237-10.009,0.715-16.014l2.002-25.164h46.613l-1.143,9.723h-38.748l-1.145,12.583
	c-0.382,4.003-0.478,7.673-0.285,11.009c7.242-2.478,13.011-3.718,17.301-3.718c7.435,0,13.676,1.955,18.731,5.863
	C554.146,45.136,556.912,50.951,556.912,58.194z M580.788,5.291h55.62l-11.153,23.592c-11.724,24.785-18.159,44.659-19.302,59.623
	l-0.572,7.435h-12.869v-1.287c0-15.06,7.339-35.268,22.021-60.624l10.008-17.301h-29.168c-4.861,0-8.388,1.121-10.579,3.36
	c-2.194,2.241-3.911,6.316-5.148,12.225h-2.86C578.595,21.829,579.931,12.822,580.788,5.291z M699.893,58.194
	c0,11.439-5.576,21.114-16.729,29.025c-9.533,6.769-20.497,10.867-32.887,12.297l-1-3.575c10.388-2.668,18.872-6.528,25.45-11.582
	c8.006-6.195,12.011-13.44,12.011-21.733c0-6.291-1.956-11.152-5.863-14.584c-3.909-3.431-9.008-5.147-15.299-5.147
	c-2.194,0-8.199,1.194-18.016,3.575c0-4.669,0.237-10.009,0.715-16.014l2.002-25.164h46.612l-1.143,9.723h-38.748l-1.145,12.583
	c-0.382,4.003-0.478,7.673-0.285,11.009c7.242-2.478,13.011-3.718,17.301-3.718c7.435,0,13.676,1.955,18.731,5.863
	C697.127,45.136,699.893,50.951,699.893,58.194z"/>
</svg>