<!-- Generator: Adobe Illustrator 20.1.0, SVG Export Plug-In  -->
<svg version="1.1"
	 xmlns="http://www.w3.org/2000/svg" xmlns:xlink="http://www.w3.org/1999/xlink" xmlns:a="http://ns.adobe.com/AdobeSVGViewerExtensions/3.0/"
	 x="0px" y="0px" width="463.477px" height="191.99px" viewBox="0 0 463.477 191.99"
	 style="overflow:scroll;enable-background:new 0 0 463.477 191.99;" xml:space="preserve">
<style type="text/css">
	.st0{fill:url(#SVGID_1_);}
	.st1{fill:#FFFFFF;}
	.st2{fill:#FFFFFF;stroke:#222220;stroke-width:0.2412;}
	.st3{fill:url(#SVGID_2_);}
</style>
<defs>
</defs>
<g>
	<linearGradient id="SVGID_1_" gradientUnits="userSpaceOnUse" x1="231.7384" y1="191.9904" x2="231.7384" y2="0">
		<stop  offset="0" style="stop-color:#4F80C1"/>
		<stop  offset="1" style="stop-color:#4F80C1;stop-opacity:0.5969"/>
	</linearGradient>
	<rect class="st0" width="463.477" height="191.99"/>
	<g>
		<path class="st1" d="M100.598,104.285c1.142-0.233,2.776-0.363,4.332-0.363c2.413,0,3.969,0.441,5.059,1.427
			c0.882,0.778,1.375,1.972,1.375,3.32c0,2.309-1.453,3.839-3.294,4.462v0.077c1.349,0.468,2.153,1.713,2.568,3.528
			c0.571,2.438,0.986,4.124,1.349,4.799h-2.334c-0.285-0.493-0.674-1.997-1.167-4.177c-0.519-2.412-1.452-3.32-3.501-3.397h-2.127
			v7.574h-2.257V104.285z M102.855,112.249h2.309c2.413,0,3.943-1.323,3.943-3.32c0-2.257-1.634-3.243-4.021-3.269
			c-1.089,0-1.868,0.104-2.231,0.207V112.249z"/>
		<path class="st1" d="M115.848,115.673c0.052,3.087,2.023,4.357,4.306,4.357c1.634,0,2.62-0.285,3.476-0.648l0.389,1.635
			c-0.804,0.363-2.179,0.778-4.177,0.778c-3.865,0-6.173-2.542-6.173-6.33c0-3.787,2.231-6.77,5.888-6.77
			c4.099,0,5.188,3.605,5.188,5.914c0,0.467-0.052,0.83-0.078,1.063H115.848z M122.54,114.038c0.026-1.452-0.597-3.709-3.165-3.709
			c-2.309,0-3.32,2.127-3.502,3.709H122.54z"/>
		<path class="st1" d="M127.258,119.2c0.674,0.441,1.868,0.908,3.009,0.908c1.66,0,2.438-0.83,2.438-1.867
			c0-1.09-0.648-1.687-2.334-2.309c-2.257-0.805-3.32-2.05-3.32-3.555c0-2.022,1.634-3.683,4.332-3.683
			c1.271,0,2.387,0.362,3.087,0.777l-0.57,1.66c-0.493-0.311-1.401-0.726-2.568-0.726c-1.349,0-2.101,0.778-2.101,1.712
			c0,1.037,0.752,1.504,2.387,2.127c2.179,0.83,3.294,1.92,3.294,3.787c0,2.205-1.712,3.762-4.695,3.762
			c-1.375,0-2.646-0.338-3.528-0.856L127.258,119.2z"/>
		<path class="st1" d="M137.839,113.079c0-1.608-0.052-2.905-0.104-4.099h2.049l0.104,2.152h0.052
			c0.934-1.53,2.413-2.438,4.462-2.438c3.035,0,5.317,2.567,5.317,6.381c0,4.514-2.75,6.744-5.707,6.744
			c-1.66,0-3.113-0.727-3.865-1.972h-0.052v6.822h-2.257V113.079z M140.096,116.425c0,0.338,0.052,0.648,0.104,0.934
			c0.415,1.583,1.79,2.672,3.424,2.672c2.413,0,3.813-1.971,3.813-4.851c0-2.516-1.323-4.669-3.735-4.669
			c-1.556,0-3.009,1.115-3.45,2.827c-0.078,0.285-0.156,0.623-0.156,0.935V116.425z"/>
		<path class="st1" d="M163.956,115.154c0,4.643-3.217,6.666-6.251,6.666c-3.398,0-6.018-2.49-6.018-6.459
			c0-4.202,2.75-6.666,6.226-6.666C161.518,108.695,163.956,111.315,163.956,115.154z M153.996,115.283
			c0,2.75,1.582,4.825,3.813,4.825c2.179,0,3.813-2.049,3.813-4.877c0-2.127-1.064-4.824-3.761-4.824
			C155.163,110.407,153.996,112.898,153.996,115.283z"/>
		<path class="st1" d="M166.832,112.378c0-1.297-0.026-2.36-0.104-3.397h2.023l0.13,2.075h0.052c0.623-1.193,2.075-2.36,4.15-2.36
			c1.738,0,4.436,1.037,4.436,5.343v7.497h-2.283v-7.237c0-2.023-0.752-3.709-2.905-3.709c-1.505,0-2.672,1.063-3.061,2.334
			c-0.104,0.285-0.156,0.675-0.156,1.063v7.549h-2.283V112.378z"/>
		<path class="st1" d="M192.068,103.118v15.175c0,1.115,0.026,2.386,0.104,3.242h-2.049l-0.104-2.179h-0.052
			c-0.7,1.4-2.23,2.464-4.28,2.464c-3.035,0-5.37-2.567-5.37-6.381c-0.026-4.177,2.568-6.744,5.629-6.744
			c1.919,0,3.216,0.907,3.787,1.919h0.052v-7.496H192.068z M189.786,114.091c0-0.286-0.026-0.675-0.104-0.96
			c-0.337-1.453-1.583-2.646-3.294-2.646c-2.36,0-3.761,2.075-3.761,4.852c0,2.542,1.245,4.643,3.709,4.643
			c1.53,0,2.931-1.012,3.346-2.724c0.078-0.312,0.104-0.622,0.104-0.985V114.091z"/>
		<path class="st1" d="M197.123,115.673c0.052,3.087,2.023,4.357,4.306,4.357c1.634,0,2.62-0.285,3.476-0.648l0.389,1.635
			c-0.804,0.363-2.179,0.778-4.177,0.778c-3.865,0-6.173-2.542-6.173-6.33c0-3.787,2.231-6.77,5.888-6.77
			c4.099,0,5.188,3.605,5.188,5.914c0,0.467-0.052,0.83-0.078,1.063H197.123z M203.816,114.038c0.026-1.452-0.597-3.709-3.165-3.709
			c-2.309,0-3.32,2.127-3.502,3.709H203.816z"/>
		<path class="st1" d="M208.845,112.378c0-1.297-0.026-2.36-0.104-3.397h1.997l0.104,2.023h0.078
			c0.701-1.193,1.868-2.309,3.943-2.309c1.712,0,3.009,1.037,3.554,2.516h0.052c0.389-0.7,0.882-1.245,1.401-1.634
			c0.752-0.571,1.583-0.882,2.776-0.882c1.66,0,4.124,1.089,4.124,5.447v7.393h-2.23v-7.107c0-2.412-0.882-3.865-2.724-3.865
			c-1.297,0-2.309,0.96-2.698,2.075c-0.104,0.312-0.182,0.727-0.182,1.142v7.756h-2.231v-7.522c0-1.997-0.882-3.45-2.62-3.45
			c-1.427,0-2.464,1.142-2.827,2.283c-0.13,0.337-0.182,0.726-0.182,1.115v7.574h-2.231V112.378z"/>
		<path class="st1" d="M241.835,115.154c0,4.643-3.217,6.666-6.251,6.666c-3.399,0-6.019-2.49-6.019-6.459
			c0-4.202,2.75-6.666,6.226-6.666C239.397,108.695,241.835,111.315,241.835,115.154z M231.874,115.283
			c0,2.75,1.582,4.825,3.813,4.825c2.179,0,3.813-2.049,3.813-4.877c0-2.127-1.063-4.824-3.761-4.824
			C233.041,110.407,231.874,112.898,231.874,115.283z"/>
		<path class="st1" d="M244.4,119.2c0.675,0.441,1.868,0.908,3.01,0.908c1.66,0,2.438-0.83,2.438-1.867
			c0-1.09-0.648-1.687-2.334-2.309c-2.257-0.805-3.32-2.05-3.32-3.555c0-2.022,1.634-3.683,4.332-3.683
			c1.271,0,2.386,0.362,3.087,0.777l-0.571,1.66c-0.492-0.311-1.4-0.726-2.567-0.726c-1.35,0-2.102,0.778-2.102,1.712
			c0,1.037,0.752,1.504,2.387,2.127c2.179,0.83,3.294,1.92,3.294,3.787c0,2.205-1.712,3.762-4.695,3.762
			c-1.374,0-2.646-0.338-3.527-0.856L244.4,119.2z"/>
		<path class="st1" d="M260.479,112.898c0-1.479-0.025-2.75-0.104-3.917h1.997l0.078,2.464h0.104
			c0.57-1.686,1.945-2.749,3.476-2.749c0.26,0,0.441,0.025,0.648,0.077v2.153c-0.233-0.052-0.467-0.078-0.777-0.078
			c-1.608,0-2.75,1.22-3.062,2.932c-0.052,0.312-0.104,0.674-0.104,1.063v6.692h-2.257V112.898z"/>
		<path class="st1" d="M275.782,121.535l-0.182-1.582h-0.078c-0.7,0.985-2.049,1.867-3.839,1.867c-2.542,0-3.839-1.79-3.839-3.605
			c0-3.035,2.697-4.695,7.548-4.669v-0.26c0-1.037-0.285-2.905-2.853-2.905c-1.168,0-2.387,0.363-3.269,0.934l-0.52-1.504
			c1.038-0.675,2.542-1.115,4.125-1.115c3.839,0,4.772,2.619,4.772,5.136v4.695c0,1.089,0.052,2.152,0.208,3.009H275.782z
			 M275.444,115.128c-2.49-0.052-5.317,0.389-5.317,2.827c0,1.479,0.986,2.18,2.153,2.18c1.634,0,2.672-1.038,3.035-2.102
			c0.077-0.233,0.129-0.493,0.129-0.727V115.128z M276.585,103.559l-3.164,3.71h-1.635l2.283-3.71H276.585z"/>
		<path class="st1" d="M281.329,113.079c0-1.608-0.052-2.905-0.104-4.099h2.049l0.104,2.152h0.052
			c0.934-1.53,2.412-2.438,4.461-2.438c3.035,0,5.318,2.567,5.318,6.381c0,4.514-2.75,6.744-5.707,6.744
			c-1.66,0-3.113-0.727-3.865-1.972h-0.052v6.822h-2.257V113.079z M283.586,116.425c0,0.338,0.052,0.648,0.104,0.934
			c0.415,1.583,1.79,2.672,3.424,2.672c2.413,0,3.813-1.971,3.813-4.851c0-2.516-1.323-4.669-3.735-4.669
			c-1.557,0-3.009,1.115-3.45,2.827c-0.077,0.285-0.155,0.623-0.155,0.935V116.425z"/>
		<path class="st1" d="M298.627,105.452c0.026,0.778-0.545,1.401-1.452,1.401c-0.805,0-1.375-0.623-1.375-1.401
			c0-0.804,0.597-1.427,1.427-1.427C298.082,104.025,298.627,104.648,298.627,105.452z M296.085,121.535v-12.555h2.283v12.555
			H296.085z"/>
		<path class="st1" d="M312.996,103.118v15.175c0,1.115,0.026,2.386,0.104,3.242h-2.049l-0.104-2.179h-0.052
			c-0.701,1.4-2.231,2.464-4.28,2.464c-3.035,0-5.37-2.567-5.37-6.381c-0.025-4.177,2.568-6.744,5.629-6.744
			c1.92,0,3.217,0.907,3.788,1.919h0.052v-7.496H312.996z M310.714,114.091c0-0.286-0.026-0.675-0.104-0.96
			c-0.337-1.453-1.582-2.646-3.294-2.646c-2.36,0-3.762,2.075-3.762,4.852c0,2.542,1.245,4.643,3.71,4.643
			c1.53,0,2.931-1.012,3.346-2.724c0.078-0.312,0.104-0.622,0.104-0.985V114.091z"/>
		<path class="st1" d="M328.142,115.154c0,4.643-3.216,6.666-6.251,6.666c-3.398,0-6.019-2.49-6.019-6.459
			c0-4.202,2.75-6.666,6.226-6.666C325.704,108.695,328.142,111.315,328.142,115.154z M318.181,115.283
			c0,2.75,1.583,4.825,3.813,4.825c2.179,0,3.813-2.049,3.813-4.877c0-2.127-1.063-4.824-3.762-4.824
			C319.349,110.407,318.181,112.898,318.181,115.283z"/>
		<path class="st1" d="M337.346,108.981l2.75,7.419c0.285,0.83,0.597,1.815,0.804,2.567h0.052c0.233-0.752,0.493-1.712,0.805-2.62
			l2.49-7.366h2.412l-3.424,8.949c-1.635,4.306-2.75,6.511-4.307,7.859c-1.115,0.986-2.23,1.375-2.801,1.479l-0.571-1.919
			c0.571-0.182,1.323-0.545,1.998-1.115c0.622-0.493,1.4-1.375,1.919-2.543c0.104-0.233,0.182-0.415,0.182-0.544
			c0-0.13-0.052-0.312-0.155-0.597l-4.644-11.569H337.346z"/>
		<path class="st1" d="M48.705,150.321c0.674,0.441,1.868,0.908,3.009,0.908c1.66,0,2.438-0.83,2.438-1.867
			c0-1.09-0.648-1.687-2.334-2.309c-2.257-0.805-3.32-2.05-3.32-3.555c0-2.022,1.634-3.683,4.332-3.683
			c1.271,0,2.386,0.362,3.086,0.777l-0.57,1.66c-0.493-0.311-1.401-0.726-2.568-0.726c-1.349,0-2.101,0.778-2.101,1.712
			c0,1.037,0.752,1.504,2.387,2.127c2.179,0.83,3.294,1.92,3.294,3.787c0,2.205-1.712,3.762-4.695,3.762
			c-1.375,0-2.646-0.338-3.528-0.856L48.705,150.321z"/>
		<path class="st1" d="M61.828,136.573c0.026,0.778-0.544,1.401-1.453,1.401c-0.804,0-1.375-0.623-1.375-1.401
			c0-0.804,0.597-1.427,1.427-1.427C61.283,135.147,61.828,135.77,61.828,136.573z M59.286,152.656v-12.555h2.283v12.555H59.286z"/>
		<path class="st1" d="M66.625,146.794c0.052,3.087,2.023,4.357,4.306,4.357c1.634,0,2.62-0.285,3.476-0.648l0.389,1.635
			c-0.804,0.363-2.179,0.778-4.177,0.778c-3.865,0-6.173-2.542-6.173-6.33c0-3.787,2.231-6.77,5.888-6.77
			c4.099,0,5.188,3.605,5.188,5.914c0,0.467-0.052,0.83-0.078,1.063H66.625z M73.318,145.159c0.026-1.452-0.597-3.709-3.165-3.709
			c-2.309,0-3.32,2.127-3.502,3.709H73.318z"/>
		<path class="st1" d="M78.347,143.499c0-1.297-0.026-2.36-0.104-3.397h1.997l0.104,2.023h0.078
			c0.701-1.193,1.868-2.309,3.943-2.309c1.712,0,3.009,1.037,3.554,2.516h0.052c0.389-0.7,0.882-1.245,1.401-1.634
			c0.752-0.571,1.583-0.882,2.776-0.882c1.66,0,4.124,1.089,4.124,5.447v7.393h-2.23v-7.107c0-2.412-0.882-3.865-2.724-3.865
			c-1.297,0-2.309,0.96-2.698,2.075c-0.104,0.312-0.182,0.727-0.182,1.142v7.756h-2.231v-7.522c0-1.997-0.882-3.45-2.62-3.45
			c-1.427,0-2.464,1.142-2.827,2.283c-0.13,0.337-0.182,0.726-0.182,1.115v7.574h-2.231V143.499z"/>
		<path class="st1" d="M99.975,144.2c0-1.608-0.052-2.905-0.104-4.099h2.049l0.104,2.152h0.052c0.934-1.53,2.413-2.438,4.462-2.438
			c3.035,0,5.317,2.567,5.317,6.381c0,4.514-2.75,6.744-5.707,6.744c-1.66,0-3.113-0.727-3.865-1.972h-0.052v6.822h-2.257V144.2z
			 M102.232,147.546c0,0.338,0.052,0.648,0.104,0.934c0.415,1.583,1.79,2.672,3.424,2.672c2.413,0,3.813-1.971,3.813-4.851
			c0-2.516-1.323-4.669-3.735-4.669c-1.556,0-3.009,1.115-3.45,2.827c-0.078,0.285-0.156,0.623-0.156,0.935V147.546z"/>
		<path class="st1" d="M114.732,144.019c0-1.479-0.026-2.75-0.104-3.917h1.997l0.078,2.464h0.104
			c0.571-1.686,1.945-2.749,3.476-2.749c0.259,0,0.441,0.025,0.648,0.077v2.153c-0.233-0.052-0.467-0.078-0.778-0.078
			c-1.608,0-2.75,1.22-3.061,2.932c-0.052,0.312-0.104,0.674-0.104,1.063v6.692h-2.257V144.019z"/>
		<path class="st1" d="M124.224,146.794c0.052,3.087,2.023,4.357,4.306,4.357c1.634,0,2.62-0.285,3.476-0.648l0.389,1.635
			c-0.804,0.363-2.179,0.778-4.177,0.778c-3.865,0-6.173-2.542-6.173-6.33c0-3.787,2.231-6.77,5.888-6.77
			c4.099,0,5.188,3.605,5.188,5.914c0,0.467-0.052,0.83-0.078,1.063H124.224z M130.916,145.159c0.026-1.452-0.597-3.709-3.165-3.709
			c-2.309,0-3.32,2.127-3.502,3.709H130.916z"/>
		<path class="st1" d="M148.395,152.656l-0.182-1.582h-0.078c-0.7,0.985-2.049,1.867-3.839,1.867c-2.542,0-3.839-1.79-3.839-3.605
			c0-3.035,2.698-4.695,7.549-4.669v-0.26c0-1.037-0.286-2.905-2.854-2.905c-1.167,0-2.387,0.363-3.269,0.934l-0.519-1.504
			c1.038-0.675,2.542-1.115,4.125-1.115c3.839,0,4.773,2.619,4.773,5.136v4.695c0,1.089,0.052,2.152,0.208,3.009H148.395z
			 M148.058,146.249c-2.49-0.052-5.318,0.389-5.318,2.827c0,1.479,0.986,2.18,2.153,2.18c1.634,0,2.672-1.038,3.035-2.102
			c0.078-0.233,0.13-0.493,0.13-0.727V146.249z"/>
		<path class="st1" d="M150.882,156.288c1.038-0.078,1.946-0.363,2.49-0.96c0.623-0.727,0.856-1.712,0.856-4.721v-10.506h2.282
			v11.388c0,2.438-0.389,4.021-1.504,5.162c-1.012,1.012-2.672,1.427-3.891,1.427L150.882,156.288z M156.771,136.573
			c0.026,0.753-0.519,1.401-1.427,1.401c-0.856,0-1.401-0.648-1.401-1.401c0-0.804,0.597-1.427,1.453-1.427
			C156.226,135.147,156.771,135.77,156.771,136.573z"/>
		<path class="st1" d="M170.751,149.232c0,1.297,0.026,2.438,0.104,3.424h-2.023l-0.13-2.049h-0.052
			c-0.597,1.011-1.92,2.334-4.15,2.334c-1.972,0-4.332-1.089-4.332-5.499v-7.341h2.283v6.952c0,2.386,0.726,3.994,2.801,3.994
			c1.531,0,2.594-1.063,3.009-2.075c0.129-0.337,0.208-0.752,0.208-1.167v-7.704h2.283V149.232z"/>
		<path class="st1" d="M174.224,150.321c0.674,0.441,1.868,0.908,3.009,0.908c1.66,0,2.438-0.83,2.438-1.867
			c0-1.09-0.648-1.687-2.334-2.309c-2.257-0.805-3.32-2.05-3.32-3.555c0-2.022,1.634-3.683,4.332-3.683
			c1.271,0,2.386,0.362,3.086,0.777l-0.57,1.66c-0.493-0.311-1.401-0.726-2.568-0.726c-1.349,0-2.101,0.778-2.101,1.712
			c0,1.037,0.752,1.504,2.387,2.127c2.179,0.83,3.294,1.92,3.294,3.787c0,2.205-1.712,3.762-4.695,3.762
			c-1.375,0-2.646-0.338-3.528-0.856L174.224,150.321z"/>
		<path class="st1" d="M187.554,136.496v3.605h3.269v1.737h-3.269v6.771c0,1.557,0.441,2.438,1.712,2.438
			c0.597,0,1.038-0.078,1.323-0.155l0.104,1.712c-0.441,0.182-1.142,0.312-2.023,0.312c-1.063,0-1.92-0.338-2.464-0.96
			c-0.648-0.675-0.882-1.79-0.882-3.269v-6.849h-1.946v-1.737h1.946v-3.009L187.554,136.496z"/>
		<path class="st1" d="M200.34,152.656l-0.182-1.582h-0.078c-0.7,0.985-2.049,1.867-3.839,1.867c-2.542,0-3.839-1.79-3.839-3.605
			c0-3.035,2.698-4.695,7.549-4.669v-0.26c0-1.037-0.286-2.905-2.854-2.905c-1.167,0-2.386,0.363-3.269,0.934l-0.519-1.504
			c1.038-0.675,2.542-1.115,4.125-1.115c3.839,0,4.773,2.619,4.773,5.136v4.695c0,1.089,0.052,2.152,0.208,3.009H200.34z
			 M200.003,146.249c-2.49-0.052-5.318,0.389-5.318,2.827c0,1.479,0.986,2.18,2.153,2.18c1.634,0,2.672-1.038,3.035-2.102
			c0.078-0.233,0.13-0.493,0.13-0.727V146.249z M201.144,134.68l-3.165,3.71h-1.634l2.283-3.71H201.144z"/>
		<path class="st1" d="M205.888,143.499c0-1.297-0.026-2.36-0.104-3.397h2.023l0.13,2.075h0.052c0.623-1.193,2.075-2.36,4.15-2.36
			c1.738,0,4.436,1.037,4.436,5.343v7.497h-2.283v-7.237c0-2.023-0.752-3.709-2.905-3.709c-1.505,0-2.672,1.063-3.061,2.334
			c-0.104,0.285-0.156,0.675-0.156,1.063v7.549h-2.283V143.499z"/>
		<path class="st1" d="M231.124,134.239v15.175c0,1.115,0.026,2.386,0.104,3.242h-2.049l-0.104-2.179h-0.052
			c-0.7,1.4-2.23,2.464-4.28,2.464c-3.035,0-5.37-2.567-5.37-6.381c-0.026-4.177,2.568-6.744,5.629-6.744
			c1.919,0,3.216,0.907,3.787,1.919h0.052v-7.496H231.124z M228.841,145.212c0-0.286-0.026-0.675-0.104-0.96
			c-0.337-1.453-1.583-2.646-3.294-2.646c-2.36,0-3.761,2.075-3.761,4.852c0,2.542,1.245,4.643,3.709,4.643
			c1.53,0,2.931-1.012,3.346-2.724c0.078-0.312,0.104-0.622,0.104-0.985V145.212z"/>
		<path class="st1" d="M246.269,146.275c0,4.643-3.216,6.666-6.251,6.666c-3.398,0-6.018-2.49-6.018-6.459
			c0-4.202,2.75-6.666,6.225-6.666C243.831,139.816,246.269,142.436,246.269,146.275z M236.309,146.404
			c0,2.75,1.582,4.825,3.813,4.825c2.179,0,3.813-2.049,3.813-4.877c0-2.127-1.063-4.824-3.762-4.824
			C237.476,141.528,236.309,144.019,236.309,146.404z"/>
		<path class="st1" d="M249.145,143.499c0-1.297-0.025-2.36-0.104-3.397h2.023l0.129,2.075h0.053c0.622-1.193,2.075-2.36,4.15-2.36
			c1.737,0,4.436,1.037,4.436,5.343v7.497h-2.283v-7.237c0-2.023-0.752-3.709-2.905-3.709c-1.504,0-2.672,1.063-3.061,2.334
			c-0.104,0.285-0.155,0.675-0.155,1.063v7.549h-2.283V143.499z"/>
		<path class="st1" d="M274.9,146.275c0,4.643-3.216,6.666-6.251,6.666c-3.398,0-6.019-2.49-6.019-6.459
			c0-4.202,2.75-6.666,6.226-6.666C272.462,139.816,274.9,142.436,274.9,146.275z M264.939,146.404c0,2.75,1.583,4.825,3.813,4.825
			c2.179,0,3.813-2.049,3.813-4.877c0-2.127-1.063-4.824-3.762-4.824C266.107,141.528,264.939,144.019,264.939,146.404z"/>
		<path class="st1" d="M277.464,150.321c0.675,0.441,1.868,0.908,3.01,0.908c1.66,0,2.438-0.83,2.438-1.867
			c0-1.09-0.648-1.687-2.334-2.309c-2.257-0.805-3.32-2.05-3.32-3.555c0-2.022,1.634-3.683,4.332-3.683
			c1.271,0,2.386,0.362,3.087,0.777l-0.571,1.66c-0.492-0.311-1.4-0.726-2.567-0.726c-1.35,0-2.102,0.778-2.102,1.712
			c0,1.037,0.752,1.504,2.387,2.127c2.179,0.83,3.294,1.92,3.294,3.787c0,2.205-1.712,3.762-4.695,3.762
			c-1.374,0-2.646-0.338-3.527-0.856L277.464,150.321z"/>
		<path class="st1" d="M300.496,152.656l-0.182-1.582h-0.078c-0.7,0.985-2.049,1.867-3.839,1.867c-2.542,0-3.839-1.79-3.839-3.605
			c0-3.035,2.697-4.695,7.548-4.669v-0.26c0-1.037-0.285-2.905-2.854-2.905c-1.167,0-2.386,0.363-3.268,0.934l-0.52-1.504
			c1.038-0.675,2.543-1.115,4.125-1.115c3.839,0,4.772,2.619,4.772,5.136v4.695c0,1.089,0.052,2.152,0.208,3.009H300.496z
			 M300.159,146.249c-2.49-0.052-5.318,0.389-5.318,2.827c0,1.479,0.986,2.18,2.153,2.18c1.634,0,2.672-1.038,3.035-2.102
			c0.077-0.233,0.13-0.493,0.13-0.727V146.249z"/>
		<path class="st1" d="M306.043,134.239h2.283v18.417h-2.283V134.239z"/>
		<path class="st1" d="M317.662,143.499c0-1.297-0.026-2.36-0.104-3.397h1.997l0.104,2.023h0.078c0.7-1.193,1.868-2.309,3.943-2.309
			c1.712,0,3.009,1.037,3.554,2.516h0.052c0.389-0.7,0.882-1.245,1.4-1.634c0.752-0.571,1.582-0.882,2.775-0.882
			c1.66,0,4.125,1.089,4.125,5.447v7.393h-2.231v-7.107c0-2.412-0.882-3.865-2.724-3.865c-1.297,0-2.309,0.96-2.697,2.075
			c-0.104,0.312-0.182,0.727-0.182,1.142v7.756h-2.23v-7.522c0-1.997-0.883-3.45-2.62-3.45c-1.427,0-2.465,1.142-2.828,2.283
			c-0.129,0.337-0.182,0.726-0.182,1.115v7.574h-2.23V143.499z"/>
		<path class="st1" d="M346.243,152.656l-0.182-1.582h-0.078c-0.7,0.985-2.049,1.867-3.839,1.867c-2.542,0-3.839-1.79-3.839-3.605
			c0-3.035,2.697-4.695,7.548-4.669v-0.26c0-1.037-0.285-2.905-2.853-2.905c-1.168,0-2.387,0.363-3.269,0.934l-0.52-1.504
			c1.038-0.675,2.542-1.115,4.125-1.115c3.839,0,4.772,2.619,4.772,5.136v4.695c0,1.089,0.052,2.152,0.208,3.009H346.243z
			 M345.905,146.249c-2.49-0.052-5.317,0.389-5.317,2.827c0,1.479,0.986,2.18,2.153,2.18c1.634,0,2.672-1.038,3.035-2.102
			c0.077-0.233,0.129-0.493,0.129-0.727V146.249z M347.046,134.68l-3.164,3.71h-1.635l2.283-3.71H347.046z"/>
		<path class="st1" d="M352.854,140.102l1.79,2.697c0.467,0.7,0.856,1.349,1.271,2.05h0.078c0.415-0.753,0.83-1.401,1.245-2.075
			l1.764-2.672h2.465l-4.28,6.069l4.41,6.485h-2.595l-1.841-2.827c-0.493-0.727-0.908-1.427-1.35-2.18h-0.052
			c-0.415,0.753-0.855,1.427-1.323,2.18l-1.815,2.827h-2.517l4.462-6.407l-4.254-6.147H352.854z"/>
		<path class="st1" d="M366.339,136.573c0.026,0.778-0.545,1.401-1.452,1.401c-0.805,0-1.375-0.623-1.375-1.401
			c0-0.804,0.597-1.427,1.427-1.427C365.794,135.147,366.339,135.77,366.339,136.573z M363.797,152.656v-12.555h2.283v12.555
			H363.797z"/>
		<path class="st1" d="M369.866,143.499c0-1.297-0.025-2.36-0.104-3.397h1.997l0.104,2.023h0.078c0.7-1.193,1.868-2.309,3.943-2.309
			c1.712,0,3.009,1.037,3.554,2.516h0.052c0.389-0.7,0.882-1.245,1.4-1.634c0.752-0.571,1.582-0.882,2.775-0.882
			c1.66,0,4.125,1.089,4.125,5.447v7.393h-2.231v-7.107c0-2.412-0.882-3.865-2.724-3.865c-1.297,0-2.309,0.96-2.697,2.075
			c-0.104,0.312-0.182,0.727-0.182,1.142v7.756h-2.231v-7.522c0-1.997-0.882-3.45-2.619-3.45c-1.427,0-2.465,1.142-2.828,2.283
			c-0.129,0.337-0.182,0.726-0.182,1.115v7.574h-2.23V143.499z"/>
		<path class="st1" d="M402.856,146.275c0,4.643-3.216,6.666-6.251,6.666c-3.398,0-6.019-2.49-6.019-6.459
			c0-4.202,2.75-6.666,6.226-6.666C400.418,139.816,402.856,142.436,402.856,146.275z M392.895,146.404
			c0,2.75,1.583,4.825,3.813,4.825c2.179,0,3.813-2.049,3.813-4.877c0-2.127-1.063-4.824-3.762-4.824
			C394.063,141.528,392.895,144.019,392.895,146.404z"/>
	</g>
	<g>
		<g>
			<path class="st2" d="M46.736,37.11c-1.973,2.345-4.433,3.518-7.377,3.518h-2.831v6.391h-9.179V26.387h-2.016l2.016-8.707h10.895
				c3.403,0,6.134,1.087,8.192,3.26c2.059,2.145,3.088,4.933,3.088,8.364C49.524,32.249,48.595,34.852,46.736,37.11z M39.959,27.439
				c-0.315-0.529-0.772-0.794-1.373-0.794h-2.016v5.361h1.759c0.686,0,1.215-0.314,1.587-0.943c0.343-0.543,0.515-1.172,0.515-1.888
				C40.431,28.547,40.274,27.968,39.959,27.439z"/>
			<path class="st2" d="M60.204,47.019h-8.579V33.593H49.61l2.059-8.021h8.536v13.211h2.059L60.204,47.019z M57.33,23.471h-6.005
				l3.817-5.576h7.635L57.33,23.471z"/>
			<path class="st2" d="M85.425,47.019h-8.579v-3.646l-1.501,3.646H71.27c-1.745,0-3.532-0.843-5.361-2.53
				c-2.316-2.146-3.475-4.918-3.475-8.321c0-3.003,0.958-5.548,2.874-7.635c1.944-2.116,4.375-3.175,7.292-3.175
				c1.401,0,2.816,0.215,4.247,0.644v-1.286H75.26l1.844-8.193h8.321v22.262h2.016L85.425,47.019z M74.016,32.95
				c-0.916,0-1.659,0.278-2.23,0.836c-0.572,0.558-0.858,1.294-0.858,2.209c0,2.202,1.687,3.203,5.062,3.003l0.729-0.043
				c0.086-0.772,0.129-1.387,0.129-1.845C76.847,34.337,75.903,32.95,74.016,32.95z"/>
			<path class="st2" d="M97.22,38.054c0.8,1.487,2.544,2.23,5.233,2.23c1.258,0,3.417-0.328,6.477-0.986l-1.973,7.463
				c-1.173,0.144-2.173,0.251-3.002,0.322c-0.83,0.071-1.501,0.107-2.016,0.107c-3.975,0-7.234-0.844-9.779-2.531
				c-2.975-1.973-4.461-4.847-4.461-8.621c0-3.231,1.029-5.861,3.088-7.893c2.087-2.001,4.775-3.002,8.064-3.002
				c3.26,0,5.947,1.144,8.063,3.432c2.087,2.259,3.131,5.047,3.131,8.363v1.115H97.22z M100.651,31.908
				c-0.486-0.478-1.115-0.717-1.887-0.717c-0.801,0-1.458,0.232-1.973,0.696c-0.515,0.464-0.772,1.09-0.772,1.877h5.361
				C101.38,33.006,101.137,32.387,100.651,31.908z"/>
			<path class="st2" d="M132.992,47.019h-8.278V35.181c0-1.115-0.772-1.673-2.316-1.673c-0.257,0-0.873,0.114-1.844,0.343v13.168
				h-8.278V33.593h-2.016l2.016-8.021h8.278v3.731l1.715-3.731h4.718c4.003,0,6.005,1.987,6.005,5.962v7.249h2.059L132.992,47.019z"
				/>
			<path class="st2" d="M154.995,44.402c-2.23,2.059-5.004,3.088-8.321,3.088c-3.26,0-5.977-1.043-8.15-3.131
				c-2.173-2.087-3.26-4.762-3.26-8.021c0-3.23,1.129-5.89,3.389-7.978c2.173-2.059,4.875-3.088,8.106-3.088
				c3.26,0,6.005,1.029,8.235,3.088c2.23,2.059,3.346,4.704,3.346,7.935C158.341,39.613,157.225,42.315,154.995,44.402z
				 M148.99,34.086c-0.601-0.585-1.358-0.879-2.273-0.879c-0.887,0-1.651,0.337-2.295,1.008c-0.644,0.673-0.965,1.452-0.965,2.338
				c0,0.429,0.093,0.836,0.279,1.223c0.186,0.386,0.443,0.715,0.772,0.986c0.328,0.272,0.7,0.486,1.115,0.644
				s0.851,0.235,1.309,0.235c1.973,0,2.959-1.1,2.959-3.303C149.891,35.424,149.591,34.673,148.99,34.086z"/>
			<path class="st2" d="M173.868,45.646c-1.487,1.145-3.432,1.716-5.833,1.716c-2.345,0-5.133-0.571-8.364-1.716l1.759-6.905
				c2.173,1.315,3.76,1.973,4.761,1.973c0.886,0,1.33-0.356,1.33-1.072c0-0.229-0.672-0.585-2.016-1.072
				c-1.659-0.571-2.917-1.2-3.774-1.887c-1.344-1.087-2.016-2.474-2.016-4.161c0-1.115,0.186-2.123,0.558-3.023
				c0.372-0.901,0.901-1.666,1.587-2.295c0.687-0.629,1.508-1.107,2.466-1.437s2.009-0.493,3.153-0.493
				c2.688,0,5.333,0.758,7.935,2.272l-2.016,6.306c-1.602-1.172-2.888-1.759-3.86-1.759c-0.744,0-1.115,0.301-1.115,0.9
				c0,0.315,0.686,0.729,2.059,1.244c1.63,0.63,2.902,1.287,3.817,1.974c1.373,1.087,2.059,2.444,2.059,4.074
				C176.356,42.63,175.526,44.417,173.868,45.646z"/>
			<path class="st2" d="M222.336,44.402c-2.116,1.859-4.833,2.788-8.149,2.788c-0.458,0-0.908-0.021-1.351-0.064
				c-0.444-0.043-0.894-0.094-1.351-0.15c-0.144-0.028-0.308-0.071-0.494-0.129c-0.186-0.057-0.393-0.113-0.622-0.171v7.334h-8.536
				V33.422h-2.016l2.016-7.85h8.536v3.475l1.93-3.475h3.817c2.859,0,5.175,1.144,6.948,3.432c1.63,2.116,2.445,4.646,2.445,7.592
				C225.51,39.913,224.452,42.515,222.336,44.402z M212.471,33.722l-2.102,0.129v1.887c0,2.517,1.215,3.775,3.646,3.775
				c1.744,0,2.617-0.987,2.617-2.96C216.631,34.494,215.244,33.55,212.471,33.722z"/>
			<path class="st2" d="M240.307,34.408c-0.343-0.114-0.743-0.172-1.2-0.172c-0.458,0-0.873,0.107-1.244,0.322
				c-0.372,0.214-0.687,0.5-0.943,0.857c-0.258,0.358-0.451,0.766-0.579,1.223c-0.129,0.458-0.193,0.93-0.193,1.415v8.965h-8.321
				V33.636h-2.016l2.016-8.063h8.321v2.102c0.571-0.8,1.458-1.43,2.659-1.887c1.144-0.457,2.216-0.672,3.217-0.644l0.772,0.043
				L240.307,34.408z"/>
			<path class="st2" d="M251.931,38.054c0.801,1.487,2.545,2.23,5.232,2.23c1.258,0,3.418-0.328,6.477-0.986l-1.973,7.463
				c-1.172,0.144-2.174,0.251-3.002,0.322c-0.83,0.071-1.502,0.107-2.016,0.107c-3.975,0-7.234-0.844-9.779-2.531
				c-2.976-1.973-4.462-4.847-4.462-8.621c0-3.231,1.029-5.861,3.089-7.893c2.088-2.001,4.775-3.002,8.064-3.002
				c3.26,0,5.947,1.144,8.063,3.432c2.088,2.259,3.131,5.047,3.131,8.363v1.115H251.931z M255.363,31.908
				c-0.486-0.478-1.115-0.717-1.887-0.717c-0.801,0-1.459,0.232-1.973,0.696c-0.516,0.464-0.773,1.09-0.773,1.877h5.361
				C256.091,33.006,255.849,32.387,255.363,31.908z"/>
			<path class="st2" d="M280.155,45.646c-1.487,1.145-3.432,1.716-5.834,1.716c-2.345,0-5.133-0.571-8.363-1.716l1.758-6.905
				c2.173,1.315,3.761,1.973,4.762,1.973c0.886,0,1.329-0.356,1.329-1.072c0-0.229-0.672-0.585-2.016-1.072
				c-1.658-0.571-2.917-1.2-3.774-1.887c-1.345-1.087-2.016-2.474-2.016-4.161c0-1.115,0.186-2.123,0.558-3.023
				c0.371-0.901,0.9-1.666,1.587-2.295c0.686-0.629,1.508-1.107,2.466-1.437s2.009-0.493,3.152-0.493
				c2.688,0,5.333,0.758,7.936,2.272l-2.016,6.306c-1.602-1.172-2.889-1.759-3.86-1.759c-0.744,0-1.115,0.301-1.115,0.9
				c0,0.315,0.687,0.729,2.059,1.244c1.63,0.63,2.902,1.287,3.817,1.974c1.373,1.087,2.059,2.444,2.059,4.074
				C282.642,42.63,281.813,44.417,280.155,45.646z"/>
			<path class="st2" d="M305.675,47.019h-8.235V42.9l-2.145,4.118h-3.989c-1.859,0-3.389-0.614-4.589-1.845
				c-1.201-1.229-1.802-2.788-1.802-4.675v-7.163h-2.017l2.017-7.764h8.278v10.337c0,1.916,0.786,2.874,2.358,2.874h1.888V25.572
				h8.235v13.211h2.059L305.675,47.019z"/>
			<path class="st2" d="M329.696,44.402c-2.117,1.859-4.833,2.788-8.15,2.788c-0.457,0-0.908-0.021-1.351-0.064
				c-0.444-0.043-0.895-0.094-1.352-0.15c-0.144-0.028-0.308-0.071-0.493-0.129c-0.187-0.057-0.394-0.113-0.622-0.171v7.334h-8.535
				V33.422h-2.017l2.017-7.85h8.535v3.475l1.931-3.475h3.817c2.859,0,5.175,1.144,6.948,3.432c1.63,2.116,2.445,4.646,2.445,7.592
				C332.87,39.913,331.811,42.515,329.696,44.402z M319.829,33.722l-2.102,0.129v1.887c0,2.517,1.216,3.775,3.646,3.775
				c1.743,0,2.616-0.987,2.616-2.96C323.991,34.494,322.603,33.55,319.829,33.722z"/>
			<path class="st2" d="M355.945,47.019h-8.235V42.9l-2.145,4.118h-3.989c-1.859,0-3.389-0.614-4.589-1.845
				c-1.201-1.229-1.802-2.788-1.802-4.675v-7.163h-2.017l2.017-7.764h8.278v10.337c0,1.916,0.786,2.874,2.358,2.874h1.888V25.572
				h8.235v13.211h2.059L355.945,47.019z"/>
			<path class="st2" d="M367.741,38.054c0.8,1.487,2.545,2.23,5.232,2.23c1.258,0,3.417-0.328,6.477-0.986l-1.973,7.463
				c-1.173,0.144-2.174,0.251-3.002,0.322c-0.83,0.071-1.502,0.107-2.017,0.107c-3.975,0-7.234-0.844-9.779-2.531
				c-2.975-1.973-4.461-4.847-4.461-8.621c0-3.231,1.029-5.861,3.088-7.893c2.088-2.001,4.775-3.002,8.064-3.002
				c3.26,0,5.947,1.144,8.063,3.432c2.087,2.259,3.131,5.047,3.131,8.363v1.115H367.741z M371.172,31.908
				c-0.487-0.478-1.115-0.717-1.888-0.717c-0.801,0-1.458,0.232-1.973,0.696c-0.516,0.464-0.772,1.09-0.772,1.877h5.361
				C371.901,33.006,371.658,32.387,371.172,31.908z"/>
			<path class="st2" d="M395.963,45.646c-1.487,1.145-3.432,1.716-5.834,1.716c-2.345,0-5.133-0.571-8.363-1.716l1.758-6.905
				c2.173,1.315,3.761,1.973,4.762,1.973c0.886,0,1.329-0.356,1.329-1.072c0-0.229-0.672-0.585-2.016-1.072
				c-1.658-0.571-2.917-1.2-3.774-1.887c-1.345-1.087-2.016-2.474-2.016-4.161c0-1.115,0.186-2.123,0.558-3.023
				c0.371-0.901,0.9-1.666,1.587-2.295c0.686-0.629,1.508-1.107,2.466-1.437s2.009-0.493,3.152-0.493
				c2.688,0,5.333,0.758,7.936,2.272l-2.016,6.306c-1.602-1.172-2.889-1.759-3.86-1.759c-0.744,0-1.115,0.301-1.115,0.9
				c0,0.315,0.687,0.729,2.059,1.244c1.63,0.63,2.902,1.287,3.817,1.974c1.373,1.087,2.059,2.444,2.059,4.074
				C398.451,42.63,397.621,44.417,395.963,45.646z"/>
			<path class="st2" d="M411.061,33.593h-1.501v13.426h-8.536V33.593h-2.916l2.016-8.021h0.9v-2.874l8.536-2.102v4.976h3.517
				L411.061,33.593z"/>
			<path class="st2" d="M432.421,44.402c-2.23,2.059-5.004,3.088-8.321,3.088c-3.26,0-5.977-1.043-8.149-3.131
				c-2.173-2.087-3.26-4.762-3.26-8.021c0-3.23,1.129-5.89,3.389-7.978c2.173-2.059,4.875-3.088,8.106-3.088
				c3.26,0,6.005,1.029,8.235,3.088s3.346,4.704,3.346,7.935C435.767,39.613,434.652,42.315,432.421,44.402z M426.416,34.086
				c-0.601-0.585-1.358-0.879-2.273-0.879c-0.887,0-1.651,0.337-2.295,1.008c-0.643,0.673-0.965,1.452-0.965,2.338
				c0,0.429,0.093,0.836,0.279,1.223c0.186,0.386,0.442,0.715,0.771,0.986c0.329,0.272,0.7,0.486,1.115,0.644
				c0.414,0.157,0.851,0.235,1.309,0.235c1.973,0,2.959-1.1,2.959-3.303C427.317,35.424,427.017,34.673,426.416,34.086z"/>
			<path class="st2" d="M101.617,71.157c-1.487,1.145-3.432,1.716-5.833,1.716c-2.345,0-5.133-0.571-8.364-1.716l1.759-6.905
				c2.173,1.315,3.76,1.973,4.761,1.973c0.886,0,1.33-0.356,1.33-1.072c0-0.229-0.672-0.585-2.016-1.072
				c-1.659-0.571-2.917-1.2-3.774-1.887c-1.344-1.087-2.016-2.474-2.016-4.161c0-1.115,0.186-2.123,0.558-3.023
				c0.372-0.901,0.901-1.666,1.587-2.295c0.687-0.629,1.508-1.107,2.466-1.437s2.009-0.493,3.153-0.493
				c2.688,0,5.333,0.758,7.935,2.272l-2.016,6.306c-1.602-1.172-2.888-1.759-3.86-1.759c-0.744,0-1.115,0.301-1.115,0.9
				c0,0.315,0.686,0.729,2.059,1.244c1.63,0.63,2.902,1.287,3.817,1.974c1.373,1.087,2.059,2.444,2.059,4.074
				C104.104,68.142,103.274,69.929,101.617,71.157z"/>
			<path class="st2" d="M114.956,72.53h-8.578V59.105h-2.016l2.059-8.021h8.536v13.211h2.059L114.956,72.53z M115.042,49.325h-8.536
				l1.887-7.292h8.622L115.042,49.325z"/>
			<path class="st2" d="M139.19,72.53h-8.278V60.692c0-1.115-0.772-1.673-2.316-1.673c-0.257,0-0.873,0.114-1.844,0.343V72.53
				h-8.278V59.105h-2.016l2.016-8.021h8.278v3.731l1.715-3.731h4.718c4.003,0,6.005,1.987,6.005,5.962v7.249h2.059L139.19,72.53z"/>
			<path class="st2" d="M178.35,59.362c-0.6-0.343-1.173-0.515-1.715-0.515c-1.087,0-1.959,0.293-2.617,0.879
				c-0.658,0.587-0.986,1.409-0.986,2.467c0,1.916,1.172,2.874,3.517,2.874c0.714,0,1.287-0.058,1.716-0.172l1.587,7.592
				c-1.516,0.258-2.617,0.386-3.303,0.386c-3.517,0-6.377-1.058-8.579-3.174c-2.202-2.115-3.303-4.918-3.303-8.407
				c0-2.888,1.201-5.404,3.603-7.549c2.316-2.059,4.947-3.088,7.892-3.088c1.43,0,2.845,0.286,4.247,0.857L178.35,59.362z"/>
			<path class="st2" d="M200.954,69.914c-2.23,2.059-5.004,3.088-8.321,3.088c-3.26,0-5.977-1.043-8.15-3.131
				c-2.173-2.087-3.26-4.762-3.26-8.021c0-3.23,1.129-5.89,3.389-7.978c2.173-2.059,4.875-3.088,8.106-3.088
				c3.26,0,6.005,1.029,8.235,3.088c2.23,2.059,3.346,4.704,3.346,7.935C204.299,65.125,203.184,67.827,200.954,69.914z
				 M194.949,59.598c-0.601-0.585-1.358-0.879-2.273-0.879c-0.887,0-1.651,0.337-2.295,1.008c-0.644,0.673-0.965,1.452-0.965,2.338
				c0,0.429,0.093,0.836,0.279,1.223c0.186,0.386,0.443,0.715,0.772,0.986c0.328,0.272,0.7,0.486,1.115,0.644
				s0.851,0.235,1.309,0.235c1.973,0,2.959-1.1,2.959-3.303C195.85,60.936,195.549,60.185,194.949,59.598z"/>
			<path class="st2" d="M239.815,72.53h-8.236V60.949c0-1.287-0.887-1.93-2.659-1.93c-0.343,0-0.858,0.085-1.544,0.257V72.53h-8.278
				V60.992c0-0.258-0.079-0.515-0.236-0.772c-0.157-0.257-0.364-0.485-0.622-0.686c-0.258-0.2-0.544-0.357-0.858-0.473
				c-0.315-0.113-0.615-0.171-0.901-0.171c-0.144,0-0.529,0.071-1.158,0.214c-0.029,0-0.157,0.029-0.386,0.086v13.34h-8.278V58.848
				h-2.016l2.016-7.764h8.278v3.989l1.672-3.989h5.147c1.143,0,2.258,0.443,3.346,1.33c1,0.801,1.729,1.758,2.188,2.873l1.93-4.203
				h5.018c1.716,0,3.088,0.629,4.118,1.888c0.973,1.144,1.459,2.588,1.459,4.332v6.991h2.059L239.815,72.53z"/>
			<path class="st2" d="M263.835,69.914c-2.117,1.859-4.833,2.788-8.15,2.788c-0.457,0-0.908-0.021-1.351-0.064
				c-0.444-0.043-0.895-0.094-1.352-0.15c-0.144-0.028-0.308-0.071-0.493-0.129c-0.187-0.057-0.394-0.113-0.622-0.171v7.334h-8.535
				V58.934h-2.017l2.017-7.85h8.535v3.475l1.931-3.475h3.817c2.859,0,5.175,1.144,6.948,3.432c1.63,2.116,2.445,4.646,2.445,7.592
				C267.009,65.425,265.951,68.026,263.835,69.914z M253.969,59.233l-2.102,0.129v1.887c0,2.517,1.216,3.775,3.646,3.775
				c1.743,0,2.616-0.987,2.616-2.96C258.13,60.006,256.743,59.062,253.969,59.233z"/>
			<path class="st2" d="M281.806,59.92c-0.343-0.114-0.744-0.172-1.201-0.172s-0.872,0.107-1.243,0.322
				c-0.372,0.214-0.687,0.5-0.944,0.857c-0.257,0.358-0.45,0.766-0.579,1.223c-0.128,0.458-0.192,0.93-0.192,1.415v8.965h-8.321
				V59.148h-2.017l2.017-8.063h8.321v2.102c0.571-0.8,1.458-1.43,2.659-1.887c1.144-0.457,2.216-0.672,3.217-0.644l0.772,0.043
				L281.806,59.92z"/>
			<path class="st2" d="M303.638,69.914c-2.23,2.059-5.004,3.088-8.321,3.088c-3.26,0-5.977-1.043-8.149-3.131
				c-2.173-2.087-3.26-4.762-3.26-8.021c0-3.23,1.129-5.89,3.389-7.978c2.173-2.059,4.875-3.088,8.106-3.088
				c3.26,0,6.005,1.029,8.235,3.088s3.346,4.704,3.346,7.935C306.984,65.125,305.869,67.827,303.638,69.914z M297.633,59.598
				c-0.601-0.585-1.358-0.879-2.273-0.879c-0.887,0-1.651,0.337-2.295,1.008c-0.643,0.673-0.965,1.452-0.965,2.338
				c0,0.429,0.093,0.836,0.279,1.223c0.186,0.386,0.442,0.715,0.771,0.986c0.329,0.272,0.7,0.486,1.115,0.644
				c0.414,0.157,0.851,0.235,1.309,0.235c1.973,0,2.959-1.1,2.959-3.303C298.534,60.936,298.234,60.185,297.633,59.598z"/>
			<path class="st2" d="M342.499,72.53h-8.235V60.949c0-1.287-0.887-1.93-2.66-1.93c-0.343,0-0.857,0.085-1.544,0.257V72.53h-8.278
				V60.992c0-0.258-0.079-0.515-0.235-0.772c-0.158-0.257-0.365-0.485-0.622-0.686c-0.258-0.2-0.544-0.357-0.858-0.473
				c-0.314-0.113-0.615-0.171-0.9-0.171c-0.144,0-0.529,0.071-1.158,0.214c-0.028,0-0.157,0.029-0.386,0.086v13.34h-8.278V58.848
				h-2.017l2.017-7.764h8.278v3.989l1.673-3.989h5.146c1.144,0,2.259,0.443,3.346,1.33c1.001,0.801,1.73,1.758,2.188,2.873
				l1.931-4.203h5.019c1.716,0,3.088,0.629,4.117,1.888c0.972,1.144,1.459,2.588,1.459,4.332v6.991h2.059L342.499,72.53z"/>
			<path class="st2" d="M354.594,72.53h-8.578V59.105h-2.017l2.06-8.021h8.535v13.211h2.059L354.594,72.53z M354.68,49.325h-8.535
				l1.887-7.292h8.621L354.68,49.325z"/>
			<path class="st2" d="M371.28,71.157c-1.487,1.145-3.432,1.716-5.834,1.716c-2.345,0-5.133-0.571-8.363-1.716l1.758-6.905
				c2.173,1.315,3.761,1.973,4.762,1.973c0.886,0,1.329-0.356,1.329-1.072c0-0.229-0.672-0.585-2.016-1.072
				c-1.658-0.571-2.917-1.2-3.774-1.887c-1.345-1.087-2.016-2.474-2.016-4.161c0-1.115,0.186-2.123,0.558-3.023
				c0.371-0.901,0.9-1.666,1.587-2.295c0.686-0.629,1.508-1.107,2.466-1.437s2.009-0.493,3.152-0.493
				c2.688,0,5.333,0.758,7.936,2.272l-2.016,6.306c-1.602-1.172-2.889-1.759-3.86-1.759c-0.744,0-1.115,0.301-1.115,0.9
				c0,0.315,0.687,0.729,2.059,1.244c1.63,0.63,2.902,1.287,3.817,1.974c1.373,1.087,2.059,2.444,2.059,4.074
				C373.767,68.142,372.938,69.929,371.28,71.157z"/>
			<path class="st2" d="M394.527,69.914c-2.23,2.059-5.004,3.088-8.321,3.088c-3.26,0-5.977-1.043-8.149-3.131
				c-2.173-2.087-3.26-4.762-3.26-8.021c0-3.23,1.129-5.89,3.389-7.978c2.173-2.059,4.875-3.088,8.106-3.088
				c3.26,0,6.005,1.029,8.235,3.088s3.346,4.704,3.346,7.935C397.872,65.125,396.757,67.827,394.527,69.914z M388.522,59.598
				c-0.601-0.585-1.358-0.879-2.273-0.879c-0.887,0-1.651,0.337-2.295,1.008c-0.643,0.673-0.965,1.452-0.965,2.338
				c0,0.429,0.093,0.836,0.279,1.223c0.186,0.386,0.442,0.715,0.771,0.986c0.329,0.272,0.7,0.486,1.115,0.644
				c0.414,0.157,0.851,0.235,1.309,0.235c1.973,0,2.959-1.1,2.959-3.303C389.422,60.936,389.122,60.185,388.522,59.598z"/>
		</g>
	</g>
</g>
</svg>