<!-- Generator: Adobe Illustrator 20.1.0, SVG Export Plug-In  -->
<svg version="1.1"
	 xmlns="http://www.w3.org/2000/svg" xmlns:xlink="http://www.w3.org/1999/xlink" xmlns:a="http://ns.adobe.com/AdobeSVGViewerExtensions/3.0/"
	 x="0px" y="0px" width="1024px" height="180px" viewBox="0 0 1024 180"
	 style="overflow:scroll;enable-background:new 0 0 1024 180;" xml:space="preserve">
<style type="text/css">
	.st0{fill:url(#SVGID_1_);}
	.st1{fill:#FFFFFF;}
	.st2{fill:url(#SVGID_2_);stroke:#FFFFFF;}
	.st3{fill:url(#SVGID_3_);stroke:#FFFFFF;}
	.st4{fill:url(#SVGID_4_);stroke:#FFFFFF;}
	.st5{fill:url(#SVGID_5_);stroke:#FFFFFF;}
	.st6{fill:url(#SVGID_6_);stroke:#FFFFFF;}
	.st7{fill:url(#SVGID_7_);stroke:#FFFFFF;}
	.st8{fill:url(#SVGID_8_);}
	.st9{fill:url(#SVGID_9_);stroke:#FFFFFF;}
	.st10{fill:url(#SVGID_10_);stroke:#FFFFFF;}
	.st11{fill:url(#SVGID_11_);stroke:#FFFFFF;}
	.st12{fill:url(#SVGID_12_);stroke:#FFFFFF;}
	.st13{fill:url(#SVGID_13_);stroke:#FFFFFF;}
	.st14{fill:url(#SVGID_14_);stroke:#FFFFFF;}
</style>
<defs>
</defs>
<g>
	<linearGradient id="SVGID_1_" gradientUnits="userSpaceOnUse" x1="512" y1="180" x2="512" y2="0">
		<stop  offset="0" style="stop-color:#4F80C1"/>
		<stop  offset="1" style="stop-color:#4F80C1;stop-opacity:0.5969"/>
	</linearGradient>
	<rect class="st0" width="1024" height="180"/>
	<g>
		<path class="st1" d="M30.856,68.95c-1.185,0.944-2.689,1.417-4.514,1.417c-1.905,0-3.818-0.528-5.738-1.585l1.296-4.754
			l2.137,0.937c0.865,0.336,1.609,0.504,2.233,0.504c0.721,0,1.081-0.256,1.081-0.769c0-0.384-0.576-0.768-1.729-1.152
			c-1.489-0.496-2.562-0.984-3.217-1.465c-1.169-0.88-1.753-2.104-1.753-3.673c0-1.601,0.536-2.857,1.609-3.77
			c1.008-0.864,2.329-1.297,3.961-1.297h0.769c0.096,0,0.236,0.008,0.42,0.024c0.184,0.016,0.412,0.04,0.684,0.071l0.168-0.528
			l4.322,0.841l-1.465,5.21c-0.48-0.271-1.097-0.536-1.849-0.792c-0.849-0.288-1.489-0.433-1.921-0.433
			c-0.768,0-1.152,0.257-1.152,0.769c0,0.32,0.568,0.672,1.705,1.057c1.473,0.513,2.521,1.008,3.146,1.488
			c1.152,0.896,1.729,2.121,1.729,3.674C32.777,66.501,32.137,67.91,30.856,68.95z"/>
		<path class="st1" d="M49.031,67.533c-1.697,1.842-3.841,2.762-6.435,2.762c-2.625,0-4.794-0.809-6.507-2.425
			c-1.681-1.601-2.521-3.722-2.521-6.363c0-2.032,0.784-3.857,2.353-5.474c1.761-1.809,3.97-2.714,6.627-2.714
			c2.464,0,4.529,0.856,6.194,2.569c1.665,1.713,2.497,3.802,2.497,6.267C51.24,64.124,50.504,65.917,49.031,67.533z M44.806,59.466
			c-0.592-0.64-1.361-0.96-2.305-0.96c-0.928,0-1.745,0.305-2.449,0.912c-0.672,0.608-1.009,1.385-1.009,2.329
			c0,0.496,0.088,0.948,0.264,1.356s0.416,0.761,0.72,1.057c0.304,0.297,0.668,0.524,1.093,0.685c0.424,0.16,0.884,0.24,1.38,0.24
			c0.464,0,0.892-0.084,1.285-0.253c0.392-0.168,0.732-0.396,1.021-0.684c0.288-0.288,0.512-0.633,0.672-1.032
			c0.16-0.4,0.24-0.832,0.24-1.297C45.718,60.907,45.414,60.123,44.806,59.466z"/>
		<path class="st1" d="M59.932,70.054h-7.419V58.553h-1.128l1.128-4.922h5.138V64.94h3.458L59.932,70.054z"/>
		<path class="st1" d="M73.209,68.83c-1.265,0.993-2.905,1.488-4.922,1.488c-2.177,0-3.858-0.664-5.042-1.992
			c-0.977-1.089-1.465-2.354-1.465-3.794v-6.051h-1.128l1.128-4.85h5.138v10.252c0,0.417,0.148,0.745,0.444,0.984
			c0.296,0.24,0.66,0.36,1.092,0.36c1.136,0,1.705-0.544,1.705-1.633v-9.964h5.114V64.22C75.274,66.205,74.585,67.742,73.209,68.83z
			"/>
		<path class="st1" d="M88.576,59.826c-0.417-0.368-0.937-0.704-1.561-1.008c-0.688-0.32-1.272-0.48-1.752-0.48
			c-0.913,0-1.729,0.313-2.449,0.937c-0.705,0.624-1.056,1.385-1.056,2.28c0,0.513,0.088,0.985,0.264,1.417
			c0.176,0.433,0.42,0.805,0.732,1.116c0.313,0.313,0.68,0.557,1.104,0.732c0.424,0.177,0.892,0.265,1.405,0.265
			c1.072,0,2.153-0.544,3.241-1.633l2.281,4.706c-1.537,1.393-3.434,2.089-5.69,2.089c-2.385,0-4.434-0.809-6.146-2.426
			c-1.713-1.632-2.569-3.641-2.569-6.026c0-1.889,0.688-3.705,2.065-5.45c1.601-2.032,3.617-3.049,6.05-3.049
			c0.304,0,0.625,0.012,0.96,0.036c0.336,0.023,0.688,0.068,1.057,0.132l0.336-0.553l4.13,1.562L88.576,59.826z"/>
		<path class="st1" d="M92.297,70.054V58.481h-1.128l1.176-4.85h5.066v16.423H92.297z"/>
		<path class="st1" d="M113.978,67.533c-1.697,1.842-3.841,2.762-6.435,2.762c-2.625,0-4.794-0.809-6.507-2.425
			c-1.681-1.601-2.521-3.722-2.521-6.363c0-2.032,0.784-3.857,2.353-5.474c1.761-1.809,3.97-2.714,6.627-2.714
			c2.464,0,4.529,0.856,6.194,2.569c1.665,1.713,2.497,3.802,2.497,6.267C116.187,64.124,115.45,65.917,113.978,67.533z
			 M109.752,59.466c-0.592-0.64-1.361-0.96-2.305-0.96c-0.928,0-1.745,0.305-2.449,0.912c-0.672,0.608-1.009,1.385-1.009,2.329
			c0,0.496,0.088,0.948,0.264,1.356s0.416,0.761,0.72,1.057c0.304,0.297,0.668,0.524,1.093,0.685c0.424,0.16,0.884,0.24,1.38,0.24
			c0.464,0,0.892-0.084,1.285-0.253c0.392-0.168,0.732-0.396,1.021-0.684c0.288-0.288,0.512-0.633,0.672-1.032
			c0.16-0.4,0.24-0.832,0.24-1.297C110.664,60.907,110.36,60.123,109.752,59.466z"/>
		<path class="st1" d="M127.231,70.054l-4.634-7.323v7.323h-5.138V58.05h-1.128l1.128-4.418h5.21l3.577,5.618v-5.618h5.114v16.423
			H127.231z"/>
		<path class="st1" d="M143.486,58.746h-5.162v0.937h6.026l-1.104,4.226h-4.922v1.009h5.931l-1.225,5.138h-9.844V58.601h-1.128
			l1.128-4.97h6.819l0.216-0.648h4.586L143.486,58.746z"/>
		<path class="st1" d="M155.73,68.95c-1.185,0.944-2.689,1.417-4.514,1.417c-1.905,0-3.818-0.528-5.738-1.585l1.296-4.754
			l2.137,0.937c0.865,0.336,1.609,0.504,2.233,0.504c0.721,0,1.081-0.256,1.081-0.769c0-0.384-0.576-0.768-1.729-1.152
			c-1.489-0.496-2.562-0.984-3.217-1.465c-1.169-0.88-1.753-2.104-1.753-3.673c0-1.601,0.536-2.857,1.609-3.77
			c1.008-0.864,2.329-1.297,3.961-1.297h0.769c0.096,0,0.236,0.008,0.42,0.024c0.184,0.016,0.412,0.04,0.684,0.071l0.168-0.528
			l4.322,0.841l-1.465,5.21c-0.48-0.271-1.097-0.536-1.849-0.792c-0.849-0.288-1.489-0.433-1.921-0.433
			c-0.768,0-1.152,0.257-1.152,0.769c0,0.32,0.568,0.672,1.705,1.057c1.473,0.513,2.521,1.008,3.146,1.488
			c1.152,0.896,1.729,2.121,1.729,3.674C157.651,66.501,157.011,67.91,155.73,68.95z"/>
		<path class="st1" d="M182.982,64.509c-1.104,1.313-2.481,1.969-4.13,1.969h-1.585v3.577h-5.138V58.506h-1.128l1.128-4.874h6.099
			c1.904,0,3.434,0.608,4.586,1.825c1.152,1.2,1.729,2.761,1.729,4.682C184.542,61.787,184.022,63.244,182.982,64.509z
			 M179.188,59.093c-0.176-0.296-0.432-0.443-0.768-0.443h-1.129v3.001h0.984c0.384,0,0.681-0.176,0.889-0.528
			c0.192-0.304,0.288-0.656,0.288-1.057C179.453,59.715,179.365,59.39,179.188,59.093z"/>
		<path class="st1" d="M194.266,70.054l-0.456-2.281h-4.658l-0.672,2.281h-5.259l3.218-12.005h-1.152l1.608-4.418h8.163
			l4.658,16.423H194.266z M191.481,58.578l-1.272,4.874h2.569L191.481,58.578z"/>
		<path class="st1" d="M207.543,70.054l-2.209-4.85v4.85h-5.138V58.458h-1.129l1.129-4.826h7.371c1.744,0,3.169,0.552,4.273,1.656
			c1.12,1.104,1.681,2.529,1.681,4.274c0,2.289-0.896,4.018-2.688,5.186l2.857,5.307H207.543z M206.559,58.41h-1.225v2.713h1.225
			c1.169,0,1.753-0.44,1.753-1.32C208.312,58.874,207.728,58.41,206.559,58.41z"/>
		<path class="st1" d="M224.567,70.054l-0.456-2.281h-4.658l-0.672,2.281h-5.259l3.218-12.005h-1.152l1.608-4.418h8.163
			l4.658,16.423H224.567z M221.782,58.578l-1.272,4.874h2.569L221.782,58.578z"/>
		<path class="st1" d="M253.787,58.746h-5.163v0.937h6.027l-1.104,4.226h-4.923v1.009h5.931l-1.225,5.138h-9.844V58.601h-1.129
			l1.129-4.97h6.819l0.216-0.648h4.586L253.787,58.746z"/>
		<path class="st1" d="M263.678,70.054h-7.419V58.553h-1.129l1.129-4.922h5.138V64.94h3.458L263.678,70.054z"/>
		<path class="st1" d="M289.609,67.845c-1.617,1.473-3.706,2.209-6.267,2.209h-4.826V58.53h-1.129l1.129-4.898h5.858
			c2.321,0,4.193,0.769,5.618,2.305c1.425,1.553,2.137,3.49,2.137,5.811C292.129,64.276,291.29,66.309,289.609,67.845z
			 M286.032,59.442c-0.577-0.592-1.369-0.889-2.378-0.889v6.339c0.961,0,1.741-0.268,2.342-0.805c0.6-0.536,0.9-1.284,0.9-2.245
			C286.896,60.835,286.608,60.034,286.032,59.442z"/>
		<path class="st1" d="M303.727,58.746h-5.163v0.937h6.027l-1.104,4.226h-4.923v1.009h5.931l-1.225,5.138h-9.844V58.601h-1.129
			l1.129-4.97h6.819l0.216-0.648h4.586L303.727,58.746z"/>
		<path class="st1" d="M315.971,68.95c-1.186,0.944-2.689,1.417-4.515,1.417c-1.904,0-3.817-0.528-5.738-1.585l1.297-4.754
			l2.137,0.937c0.864,0.336,1.608,0.504,2.233,0.504c0.72,0,1.08-0.256,1.08-0.769c0-0.384-0.576-0.768-1.729-1.152
			c-1.489-0.496-2.562-0.984-3.218-1.465c-1.168-0.88-1.753-2.104-1.753-3.673c0-1.601,0.536-2.857,1.609-3.77
			c1.008-0.864,2.329-1.297,3.961-1.297h0.769c0.097,0,0.236,0.008,0.421,0.024c0.184,0.016,0.411,0.04,0.684,0.071l0.168-0.528
			l4.322,0.841l-1.465,5.21c-0.48-0.271-1.097-0.536-1.849-0.792c-0.849-0.288-1.488-0.433-1.921-0.433
			c-0.769,0-1.152,0.257-1.152,0.769c0,0.32,0.568,0.672,1.705,1.057c1.472,0.513,2.521,1.008,3.145,1.488
			c1.152,0.896,1.729,2.121,1.729,3.674C317.892,66.501,317.251,67.91,315.971,68.95z"/>
		<path class="st1" d="M328.96,70.054l-0.456-2.281h-4.658l-0.672,2.281h-5.259l3.218-12.005h-1.152l1.608-4.418h8.163l4.658,16.423
			H328.96z M326.175,58.578l-1.272,4.874h2.569L326.175,58.578z"/>
		<path class="st1" d="M342.238,70.054l-2.209-4.85v4.85h-5.138V58.458h-1.129l1.129-4.826h7.371c1.744,0,3.169,0.552,4.273,1.656
			c1.12,1.104,1.681,2.529,1.681,4.274c0,2.289-0.896,4.018-2.688,5.186l2.857,5.307H342.238z M341.253,58.41h-1.225v2.713h1.225
			c1.169,0,1.753-0.44,1.753-1.32C343.006,58.874,342.422,58.41,341.253,58.41z"/>
		<path class="st1" d="M357.028,70.054l-2.209-4.85v4.85h-5.138V58.458h-1.129l1.129-4.826h7.371c1.744,0,3.169,0.552,4.273,1.656
			c1.12,1.104,1.681,2.529,1.681,4.274c0,2.289-0.896,4.018-2.688,5.186l2.857,5.307H357.028z M356.043,58.41h-1.225v2.713h1.225
			c1.169,0,1.753-0.44,1.753-1.32C357.796,58.874,357.212,58.41,356.043,58.41z"/>
		<path class="st1" d="M379.238,67.533c-1.697,1.842-3.842,2.762-6.436,2.762c-2.625,0-4.794-0.809-6.506-2.425
			c-1.681-1.601-2.521-3.722-2.521-6.363c0-2.032,0.784-3.857,2.353-5.474c1.761-1.809,3.97-2.714,6.627-2.714
			c2.465,0,4.53,0.856,6.195,2.569c1.664,1.713,2.497,3.802,2.497,6.267C381.447,64.124,380.709,65.917,379.238,67.533z
			 M375.011,59.466c-0.592-0.64-1.36-0.96-2.305-0.96c-0.929,0-1.745,0.305-2.449,0.912c-0.672,0.608-1.008,1.385-1.008,2.329
			c0,0.496,0.088,0.948,0.264,1.356s0.416,0.761,0.721,1.057c0.304,0.297,0.668,0.524,1.092,0.685c0.425,0.16,0.885,0.24,1.381,0.24
			c0.464,0,0.893-0.084,1.284-0.253c0.393-0.168,0.732-0.396,1.021-0.684c0.288-0.288,0.513-0.633,0.673-1.032
			c0.159-0.4,0.24-0.832,0.24-1.297C375.924,60.907,375.62,60.123,375.011,59.466z"/>
		<path class="st1" d="M390.137,70.054h-7.419V58.553h-1.129l1.129-4.922h5.138V64.94h3.458L390.137,70.054z"/>
		<path class="st1" d="M399.405,70.054h-7.419V58.553h-1.129l1.129-4.922h5.138V64.94h3.458L399.405,70.054z"/>
		<path class="st1" d="M416.02,67.533c-1.697,1.842-3.842,2.762-6.436,2.762c-2.625,0-4.794-0.809-6.506-2.425
			c-1.681-1.601-2.521-3.722-2.521-6.363c0-2.032,0.784-3.857,2.353-5.474c1.761-1.809,3.97-2.714,6.627-2.714
			c2.465,0,4.53,0.856,6.195,2.569c1.664,1.713,2.497,3.802,2.497,6.267C418.229,64.124,417.492,65.917,416.02,67.533z
			 M411.793,59.466c-0.592-0.64-1.36-0.96-2.305-0.96c-0.929,0-1.745,0.305-2.449,0.912c-0.672,0.608-1.008,1.385-1.008,2.329
			c0,0.496,0.088,0.948,0.264,1.356s0.416,0.761,0.721,1.057c0.304,0.297,0.668,0.524,1.092,0.685c0.425,0.16,0.885,0.24,1.381,0.24
			c0.464,0,0.893-0.084,1.284-0.253c0.393-0.168,0.732-0.396,1.021-0.684c0.288-0.288,0.513-0.633,0.673-1.032
			c0.159-0.4,0.24-0.832,0.24-1.297C412.707,60.907,412.402,60.123,411.793,59.466z"/>
		<path class="st1" d="M443.583,67.845c-1.617,1.473-3.706,2.209-6.267,2.209h-4.826V58.53h-1.129l1.129-4.898h5.858
			c2.321,0,4.193,0.769,5.618,2.305c1.425,1.553,2.137,3.49,2.137,5.811C446.104,64.276,445.264,66.309,443.583,67.845z
			 M440.006,59.442c-0.577-0.592-1.369-0.889-2.378-0.889v6.339c0.961,0,1.741-0.268,2.342-0.805c0.6-0.536,0.9-1.284,0.9-2.245
			C440.871,60.835,440.583,60.034,440.006,59.442z"/>
		<path class="st1" d="M457.701,58.746h-5.163v0.937h6.027l-1.104,4.226h-4.923v1.009h5.931l-1.225,5.138H447.4V58.601h-1.129
			l1.129-4.97h6.819l0.216-0.648h4.586L457.701,58.746z"/>
		<path class="st1" d="M483.031,58.553h-3.025v11.501h-5.09l-0.024-11.573h-3.001l1.104-4.85h6.579l0.144-0.648h4.658
			L483.031,58.553z"/>
		<path class="st1" d="M496.452,68.83c-1.265,0.993-2.905,1.488-4.922,1.488c-2.177,0-3.857-0.664-5.042-1.992
			c-0.977-1.089-1.465-2.354-1.465-3.794v-6.051h-1.129l1.129-4.85h5.138v10.252c0,0.417,0.148,0.745,0.444,0.984
			c0.296,0.24,0.66,0.36,1.093,0.36c1.137,0,1.705-0.544,1.705-1.633v-9.964h5.114V64.22
			C498.517,66.205,497.829,67.742,496.452,68.83z"/>
		<path class="st1" d="M524.159,64.509c-1.104,1.313-2.481,1.969-4.13,1.969h-1.585v3.577h-5.138V58.506h-1.129l1.129-4.874h6.099
			c1.904,0,3.434,0.608,4.586,1.825c1.152,1.2,1.729,2.761,1.729,4.682C525.719,61.787,525.199,63.244,524.159,64.509z
			 M520.365,59.093c-0.176-0.296-0.432-0.443-0.768-0.443h-1.129v3.001h0.984c0.384,0,0.681-0.176,0.889-0.528
			c0.192-0.304,0.288-0.656,0.288-1.057C520.629,59.715,520.542,59.39,520.365,59.093z"/>
		<path class="st1" d="M534.218,70.054l-2.209-4.85v4.85h-5.138V58.458h-1.129l1.129-4.826h7.371c1.744,0,3.169,0.552,4.273,1.656
			c1.12,1.104,1.681,2.529,1.681,4.274c0,2.289-0.896,4.018-2.688,5.186l2.857,5.307H534.218z M533.234,58.41h-1.225v2.713h1.225
			c1.169,0,1.753-0.44,1.753-1.32C534.987,58.874,534.403,58.41,533.234,58.41z"/>
		<path class="st1" d="M556.428,67.533c-1.697,1.842-3.842,2.762-6.436,2.762c-2.625,0-4.794-0.809-6.506-2.425
			c-1.681-1.601-2.521-3.722-2.521-6.363c0-2.032,0.784-3.857,2.353-5.474c1.761-1.809,3.97-2.714,6.627-2.714
			c2.465,0,4.53,0.856,6.195,2.569c1.664,1.713,2.497,3.802,2.497,6.267C558.637,64.124,557.9,65.917,556.428,67.533z
			 M552.202,59.466c-0.592-0.64-1.36-0.96-2.305-0.96c-0.929,0-1.745,0.305-2.449,0.912c-0.672,0.608-1.008,1.385-1.008,2.329
			c0,0.496,0.088,0.948,0.264,1.356s0.416,0.761,0.721,1.057c0.304,0.297,0.668,0.524,1.092,0.685c0.425,0.16,0.885,0.24,1.381,0.24
			c0.464,0,0.893-0.084,1.284-0.253c0.393-0.168,0.732-0.396,1.021-0.684c0.288-0.288,0.513-0.633,0.673-1.032
			c0.159-0.4,0.24-0.832,0.24-1.297C553.115,60.907,552.81,60.123,552.202,59.466z"/>
		<path class="st1" d="M571.002,67.845c-1.617,1.473-3.706,2.209-6.267,2.209h-4.826V58.53h-1.129l1.129-4.898h5.858
			c2.321,0,4.193,0.769,5.618,2.305c1.425,1.553,2.137,3.49,2.137,5.811C573.523,64.276,572.683,66.309,571.002,67.845z
			 M567.425,59.442c-0.577-0.592-1.369-0.889-2.378-0.889v6.339c0.961,0,1.741-0.268,2.342-0.805c0.6-0.536,0.9-1.284,0.9-2.245
			C568.29,60.835,568.001,60.034,567.425,59.442z"/>
		<path class="st1" d="M586.249,68.83c-1.265,0.993-2.905,1.488-4.922,1.488c-2.177,0-3.857-0.664-5.042-1.992
			c-0.977-1.089-1.465-2.354-1.465-3.794v-6.051h-1.129l1.129-4.85h5.138v10.252c0,0.417,0.148,0.745,0.444,0.984
			c0.296,0.24,0.66,0.36,1.093,0.36c1.137,0,1.705-0.544,1.705-1.633v-9.964h5.114V64.22
			C588.314,66.205,587.625,67.742,586.249,68.83z"/>
		<path class="st1" d="M601.615,59.826c-0.417-0.368-0.937-0.704-1.561-1.008c-0.688-0.32-1.272-0.48-1.753-0.48
			c-0.912,0-1.729,0.313-2.449,0.937c-0.704,0.624-1.057,1.385-1.057,2.28c0,0.513,0.088,0.985,0.265,1.417
			c0.176,0.433,0.42,0.805,0.732,1.116c0.312,0.313,0.68,0.557,1.104,0.732c0.424,0.177,0.892,0.265,1.404,0.265
			c1.072,0,2.152-0.544,3.241-1.633l2.281,4.706c-1.537,1.393-3.434,2.089-5.69,2.089c-2.386,0-4.435-0.809-6.146-2.426
			c-1.713-1.632-2.569-3.641-2.569-6.026c0-1.889,0.688-3.705,2.064-5.45c1.601-2.032,3.618-3.049,6.051-3.049
			c0.304,0,0.624,0.012,0.961,0.036c0.336,0.023,0.688,0.068,1.056,0.132l0.337-0.553l4.129,1.562L601.615,59.826z"/>
		<path class="st1" d="M615.204,58.553h-3.025v11.501h-5.09l-0.024-11.573h-3.001l1.104-4.85h6.579l0.144-0.648h4.658
			L615.204,58.553z"/>
		<path class="st1" d="M631.963,67.533c-1.697,1.842-3.842,2.762-6.436,2.762c-2.625,0-4.794-0.809-6.506-2.425
			c-1.681-1.601-2.521-3.722-2.521-6.363c0-2.032,0.784-3.857,2.353-5.474c1.761-1.809,3.97-2.714,6.627-2.714
			c2.465,0,4.53,0.856,6.195,2.569c1.664,1.713,2.497,3.802,2.497,6.267C634.172,64.124,633.435,65.917,631.963,67.533z
			 M627.737,59.466c-0.592-0.64-1.36-0.96-2.305-0.96c-0.929,0-1.745,0.305-2.449,0.912c-0.672,0.608-1.008,1.385-1.008,2.329
			c0,0.496,0.088,0.948,0.264,1.356s0.416,0.761,0.721,1.057c0.304,0.297,0.668,0.524,1.092,0.685c0.425,0.16,0.885,0.24,1.381,0.24
			c0.464,0,0.893-0.084,1.284-0.253c0.393-0.168,0.732-0.396,1.021-0.684c0.288-0.288,0.513-0.633,0.673-1.032
			c0.159-0.4,0.24-0.832,0.24-1.297C628.65,60.907,628.345,60.123,627.737,59.466z"/>
		<path class="st1" d="M639.478,70.39c-0.785,0.816-1.689,1.305-2.714,1.465l-0.264-0.216c0.111-0.337,0.208-0.648,0.288-0.937
			s0.136-0.561,0.168-0.816c-0.496-0.145-0.929-0.428-1.297-0.853c-0.368-0.424-0.552-0.884-0.552-1.381
			c0-0.384,0.072-0.735,0.216-1.056c0.145-0.32,0.34-0.601,0.588-0.841s0.541-0.424,0.877-0.552s0.696-0.192,1.08-0.192
			c0.385,0,0.748,0.064,1.093,0.192c0.344,0.128,0.64,0.312,0.889,0.552c0.248,0.24,0.443,0.521,0.588,0.841
			c0.144,0.32,0.216,0.672,0.216,1.056C640.654,68.694,640.261,69.606,639.478,70.39z"/>
		<path class="st1" d="M665.024,58.553h-3.025v11.501h-5.09l-0.024-11.573h-3.001l1.104-4.85h6.579l0.144-0.648h4.658
			L665.024,58.553z"/>
		<path class="st1" d="M678.445,68.83c-1.265,0.993-2.905,1.488-4.922,1.488c-2.177,0-3.857-0.664-5.042-1.992
			c-0.977-1.089-1.465-2.354-1.465-3.794v-6.051h-1.129l1.129-4.85h5.138v10.252c0,0.417,0.148,0.745,0.444,0.984
			c0.296,0.24,0.66,0.36,1.093,0.36c1.137,0,1.705-0.544,1.705-1.633v-9.964h5.114V64.22
			C680.51,66.205,679.822,67.742,678.445,68.83z"/>
		<path class="st1" d="M705.6,58.746h-5.163v0.937h6.027l-1.104,4.226h-4.923v1.009h5.931l-1.225,5.138h-9.844V58.601h-1.129
			l1.129-4.97h6.819l0.216-0.648h4.586L705.6,58.746z"/>
		<path class="st1" d="M719.238,70.054v-9.147l-2.93,3.529l-3.098-3.266v8.884h-5.138V58.65h-1.129l1.129-5.019h5.187l2.977,3.457
			l2.737-3.457h5.042v16.423H719.238z"/>
		<path class="st1" d="M736.693,64.509c-1.104,1.313-2.481,1.969-4.13,1.969h-1.585v3.577h-5.138V58.506h-1.129l1.129-4.874h6.099
			c1.904,0,3.434,0.608,4.586,1.825c1.152,1.2,1.729,2.761,1.729,4.682C738.253,61.787,737.733,63.244,736.693,64.509z
			 M732.899,59.093c-0.176-0.296-0.432-0.443-0.768-0.443h-1.129v3.001h0.984c0.384,0,0.681-0.176,0.889-0.528
			c0.192-0.304,0.288-0.656,0.288-1.057C733.164,59.715,733.076,59.39,732.899,59.093z"/>
		<path class="st1" d="M746.752,70.054l-2.209-4.85v4.85h-5.138V58.458h-1.129l1.129-4.826h7.371c1.744,0,3.169,0.552,4.273,1.656
			c1.12,1.104,1.681,2.529,1.681,4.274c0,2.289-0.896,4.018-2.688,5.186l2.857,5.307H746.752z M745.768,58.41h-1.225v2.713h1.225
			c1.169,0,1.753-0.44,1.753-1.32C747.521,58.874,746.937,58.41,745.768,58.41z"/>
		<path class="st1" d="M764.497,58.746h-5.163v0.937h6.027l-1.104,4.226h-4.923v1.009h5.931l-1.225,5.138h-9.844V58.601h-1.129
			l1.129-4.97h6.819l0.216-0.648h4.586L764.497,58.746z"/>
		<path class="st1" d="M776.741,68.95c-1.186,0.944-2.689,1.417-4.515,1.417c-1.904,0-3.817-0.528-5.738-1.585l1.297-4.754
			l2.137,0.937c0.864,0.336,1.608,0.504,2.233,0.504c0.72,0,1.08-0.256,1.08-0.769c0-0.384-0.576-0.768-1.729-1.152
			c-1.489-0.496-2.562-0.984-3.218-1.465c-1.168-0.88-1.753-2.104-1.753-3.673c0-1.601,0.536-2.857,1.609-3.77
			c1.008-0.864,2.329-1.297,3.961-1.297h0.769c0.097,0,0.236,0.008,0.421,0.024c0.184,0.016,0.411,0.04,0.684,0.071l0.168-0.528
			l4.322,0.841l-1.465,5.21c-0.48-0.271-1.097-0.536-1.849-0.792c-0.849-0.288-1.488-0.433-1.921-0.433
			c-0.769,0-1.152,0.257-1.152,0.769c0,0.32,0.568,0.672,1.705,1.057c1.472,0.513,2.521,1.008,3.145,1.488
			c1.152,0.896,1.729,2.121,1.729,3.674C778.662,66.501,778.021,67.91,776.741,68.95z"/>
		<path class="st1" d="M789.73,70.054l-0.456-2.281h-4.658l-0.672,2.281h-5.259l3.218-12.005h-1.152l1.608-4.418h8.163l4.658,16.423
			H789.73z M786.945,58.578l-1.272,4.874h2.569L786.945,58.578z"/>
		<path class="st1" d="M817.03,62.659v7.396h-5.091v-7.396l-4.922-9.027h5.786l1.609,3.577l1.681-3.577h5.69L817.03,62.659z"/>
		<path class="st1" d="M844.953,58.553h-3.025v11.501h-5.09l-0.024-11.573h-3.001l1.104-4.85h6.579l0.144-0.648h4.658
			L844.953,58.553z"/>
		<path class="st1" d="M858.374,68.83c-1.265,0.993-2.905,1.488-4.922,1.488c-2.177,0-3.857-0.664-5.042-1.992
			c-0.977-1.089-1.465-2.354-1.465-3.794v-6.051h-1.129l1.129-4.85h5.138v10.252c0,0.417,0.148,0.745,0.444,0.984
			c0.296,0.24,0.66,0.36,1.093,0.36c1.137,0,1.705-0.544,1.705-1.633v-9.964h5.114V64.22
			C860.439,66.205,859.75,67.742,858.374,68.83z"/>
		<path class="st1" d="M886.081,64.509c-1.104,1.313-2.481,1.969-4.13,1.969h-1.585v3.577h-5.138V58.506h-1.129l1.129-4.874h6.099
			c1.904,0,3.434,0.608,4.586,1.825c1.152,1.2,1.729,2.761,1.729,4.682C887.641,61.787,887.121,63.244,886.081,64.509z
			 M882.287,59.093c-0.176-0.296-0.432-0.443-0.768-0.443h-1.129v3.001h0.984c0.384,0,0.681-0.176,0.889-0.528
			c0.192-0.304,0.288-0.656,0.288-1.057C882.551,59.715,882.463,59.39,882.287,59.093z"/>
		<path class="st1" d="M900.222,68.83c-1.265,0.993-2.905,1.488-4.922,1.488c-2.177,0-3.857-0.664-5.042-1.992
			c-0.977-1.089-1.465-2.354-1.465-3.794v-6.051h-1.129l1.129-4.85h5.138v10.252c0,0.417,0.148,0.745,0.444,0.984
			c0.296,0.24,0.66,0.36,1.093,0.36c1.137,0,1.705-0.544,1.705-1.633v-9.964h5.114V64.22
			C902.288,66.205,901.599,67.742,900.222,68.83z"/>
		<path class="st1" d="M915.684,68.878c-0.88,0.785-1.984,1.177-3.313,1.177h-8.283V58.433h-1.129l1.129-4.802h8.476
			c1.185,0,2.177,0.376,2.978,1.129c0.8,0.752,1.2,1.721,1.2,2.904c0,1.649-0.696,2.882-2.089,3.698
			c0.912,0.624,1.545,1.225,1.896,1.801c0.385,0.656,0.576,1.505,0.576,2.545C917.125,67.006,916.645,68.061,915.684,68.878z
			 M909.97,58.05h-0.937v1.921h1.128c1.024,0,1.537-0.32,1.537-0.961C911.699,58.37,911.123,58.05,909.97,58.05z M909.85,63.259
			h-0.816v2.209h1.128c0.929,0,1.393-0.384,1.393-1.152C911.554,63.612,910.986,63.259,909.85,63.259z"/>
		<path class="st1" d="M926.201,70.054h-7.419V58.553h-1.129l1.129-4.922h5.138V64.94h3.458L926.201,70.054z"/>
		<path class="st1" d="M928.049,70.054V58.481h-1.129l1.177-4.85h5.066v16.423H928.049z"/>
		<path class="st1" d="M946.465,59.826c-0.417-0.368-0.937-0.704-1.561-1.008c-0.688-0.32-1.272-0.48-1.753-0.48
			c-0.912,0-1.729,0.313-2.449,0.937c-0.704,0.624-1.057,1.385-1.057,2.28c0,0.513,0.088,0.985,0.265,1.417
			c0.176,0.433,0.42,0.805,0.732,1.116c0.312,0.313,0.68,0.557,1.104,0.732c0.424,0.177,0.892,0.265,1.404,0.265
			c1.072,0,2.152-0.544,3.241-1.633l2.281,4.706c-1.537,1.393-3.434,2.089-5.69,2.089c-2.386,0-4.435-0.809-6.146-2.426
			c-1.713-1.632-2.569-3.641-2.569-6.026c0-1.889,0.688-3.705,2.064-5.45c1.601-2.032,3.618-3.049,6.051-3.049
			c0.304,0,0.624,0.012,0.961,0.036c0.336,0.023,0.688,0.068,1.056,0.132l0.337-0.553l4.129,1.562L946.465,59.826z"/>
		<path class="st1" d="M950.186,70.054V58.481h-1.129l1.177-4.85h5.066v16.423H950.186z"/>
		<path class="st1" d="M968.194,67.845c-1.617,1.473-3.706,2.209-6.267,2.209h-4.826V58.53h-1.129l1.129-4.898h5.858
			c2.321,0,4.193,0.769,5.618,2.305c1.425,1.553,2.137,3.49,2.137,5.811C970.714,64.276,969.875,66.309,968.194,67.845z
			 M964.617,59.442c-0.577-0.592-1.369-0.889-2.378-0.889v6.339c0.961,0,1.741-0.268,2.342-0.805c0.6-0.536,0.9-1.284,0.9-2.245
			C965.481,60.835,965.193,60.034,964.617,59.442z"/>
		<path class="st1" d="M981.591,70.054l-0.456-2.281h-4.658l-0.672,2.281h-5.259l3.218-12.005h-1.152l1.608-4.418h8.163
			l4.658,16.423H981.591z M978.806,58.578l-1.272,4.874h2.569L978.806,58.578z"/>
		<path class="st1" d="M998.614,67.845c-1.617,1.473-3.706,2.209-6.267,2.209h-4.826V58.53h-1.129l1.129-4.898h5.858
			c2.321,0,4.193,0.769,5.618,2.305c1.425,1.553,2.137,3.49,2.137,5.811C1001.134,64.276,1000.294,66.309,998.614,67.845z
			 M995.037,59.442c-0.577-0.592-1.369-0.889-2.378-0.889v6.339c0.961,0,1.741-0.268,2.342-0.805c0.6-0.536,0.9-1.284,0.9-2.245
			C995.901,60.835,995.613,60.034,995.037,59.442z"/>
	</g>
	<g>
		<path class="st1" d="M90.267,99.946c-0.778-0.688-1.75-1.317-2.918-1.886c-1.287-0.599-2.379-0.898-3.277-0.898
			c-1.706,0-3.232,0.584-4.579,1.751c-1.317,1.168-1.976,2.59-1.976,4.266c0,0.958,0.164,1.841,0.494,2.648
			c0.329,0.809,0.786,1.504,1.37,2.088c0.583,0.583,1.271,1.04,2.065,1.369c0.793,0.33,1.668,0.494,2.626,0.494
			c2.005,0,4.025-1.018,6.061-3.053l4.265,8.799c-2.873,2.604-6.42,3.906-10.64,3.906c-4.46,0-8.291-1.511-11.493-4.534
			c-3.203-3.054-4.804-6.809-4.804-11.27c0-3.531,1.287-6.928,3.861-10.19c2.992-3.801,6.764-5.702,11.313-5.702
			c0.568,0,1.167,0.022,1.796,0.067c0.628,0.045,1.286,0.128,1.975,0.247l0.628-1.032l7.722,2.918L90.267,99.946z"/>
		<path class="st1" d="M124.836,114.357c-3.173,3.442-7.183,5.163-12.032,5.163c-4.909,0-8.964-1.512-12.167-4.534
			c-3.143-2.993-4.714-6.959-4.714-11.897c0-3.801,1.466-7.213,4.4-10.236c3.292-3.382,7.422-5.073,12.391-5.073
			c4.609,0,8.47,1.602,11.583,4.804c3.112,3.203,4.669,7.109,4.669,11.718C128.966,107.982,127.589,111.335,124.836,114.357z
			 M116.935,99.272c-1.108-1.196-2.544-1.796-4.31-1.796c-1.736,0-3.263,0.569-4.58,1.706c-1.257,1.138-1.885,2.589-1.885,4.355
			c0,0.928,0.164,1.772,0.494,2.536c0.329,0.763,0.778,1.422,1.347,1.976c0.568,0.554,1.249,0.98,2.042,1.279
			c0.792,0.3,1.653,0.449,2.582,0.449c0.868,0,1.668-0.157,2.402-0.472c0.733-0.314,1.369-0.741,1.908-1.279
			c0.539-0.539,0.958-1.183,1.257-1.931c0.299-0.748,0.449-1.556,0.449-2.425C118.641,101.966,118.071,100.5,116.935,99.272z"/>
		<path class="st1" d="M149.618,119.071l-8.665-13.693v13.693h-9.607V96.624h-2.11l2.11-8.261h9.742l6.689,10.505V88.363h9.563
			v30.708H149.618z"/>
		<path class="st1" d="M205.915,119.071v-17.105l-5.477,6.6l-5.792-6.105v16.611h-9.607V97.746h-2.11l2.11-9.383h9.697l5.567,6.465
			l5.118-6.465h9.428v30.708H205.915z"/>
		<path class="st1" d="M236.174,119.071l-0.854-4.265h-8.709l-1.258,4.265h-9.832l6.017-22.447h-2.155l3.008-8.261h15.265
			l8.709,30.708H236.174z M233.255,86.253h-6.285l3.996-5.836h7.991L233.255,86.253z M230.966,97.611l-2.38,9.114h4.804
			L230.966,97.611z"/>
		<path class="st1" d="M265.536,117.006c-2.216,1.767-5.028,2.649-8.44,2.649c-3.563,0-7.139-0.988-10.73-2.964l2.425-8.889
			l3.995,1.751c1.616,0.628,3.008,0.942,4.176,0.942c1.347,0,2.02-0.479,2.02-1.437c0-0.718-1.077-1.437-3.232-2.155
			c-2.783-0.927-4.789-1.84-6.016-2.738c-2.185-1.646-3.277-3.936-3.277-6.869c0-2.992,1.003-5.342,3.008-7.048
			c1.886-1.616,4.355-2.425,7.408-2.425h1.437c0.18,0,0.441,0.016,0.785,0.045c0.344,0.03,0.771,0.075,1.28,0.135l0.313-0.987
			l8.082,1.571l-2.74,9.742c-0.896-0.509-2.05-1.003-3.456-1.481c-1.587-0.539-2.783-0.809-3.592-0.809
			c-1.437,0-2.154,0.479-2.154,1.437c0,0.6,1.062,1.257,3.188,1.976c2.753,0.958,4.714,1.886,5.88,2.783
			c2.156,1.677,3.232,3.967,3.232,6.869C269.125,112.426,267.928,115.06,265.536,117.006z"/>
		<path class="st1" d="M316.939,114.941c-3.023,2.754-6.929,4.13-11.718,4.13h-9.023v-21.55h-2.11l2.11-9.158h10.954
			c4.34,0,7.842,1.437,10.506,4.31c2.663,2.903,3.995,6.525,3.995,10.865C321.653,108.266,320.082,112.067,316.939,114.941z
			 M310.25,99.227c-1.077-1.106-2.559-1.661-4.444-1.661v11.853c1.796,0,3.255-0.501,4.377-1.504
			c1.123-1.003,1.684-2.402,1.684-4.198C311.866,101.832,311.328,100.335,310.25,99.227z"/>
		<path class="st1" d="M343.336,97.926h-9.652v1.751h11.269l-2.065,7.901h-9.203v1.886h11.089l-2.289,9.607h-18.407V97.656h-2.11
			l2.11-9.293h12.75l0.404-1.212h8.575L343.336,97.926z"/>
		<linearGradient id="SVGID_2_" gradientUnits="userSpaceOnUse" x1="383.8091" y1="119.071" x2="383.8091" y2="87.779">
			<stop  offset="0" style="stop-color:#C43431"/>
			<stop  offset="0.1124" style="stop-color:#CC5F37"/>
			<stop  offset="0.3315" style="stop-color:#DA8E3E"/>
			<stop  offset="0.7191" style="stop-color:#EFC714"/>
			<stop  offset="0.7968" style="stop-color:#F0CA19"/>
			<stop  offset="0.8697" style="stop-color:#F4D225"/>
			<stop  offset="0.9405" style="stop-color:#F9DF34"/>
			<stop  offset="1" style="stop-color:#FFEE44"/>
		</linearGradient>
		<path class="st2" d="M392.452,119.071h-19.396l11.045-18.811c0.239-0.419,0.358-0.928,0.358-1.527
			c0-0.987-0.434-1.481-1.302-1.481c-0.568,0-1.055,0.18-1.459,0.539s-0.606,0.823-0.606,1.392c0,0.359,0.09,0.689,0.27,0.988
			l-7.901,2.334c-0.718-1.376-1.077-2.828-1.077-4.354c0-3.082,1.092-5.582,3.277-7.498c2.095-1.915,4.684-2.873,7.767-2.873
			c2.992,0,5.492,0.913,7.497,2.738c2.005,1.826,3.009,4.221,3.009,7.184c0,1.706-0.42,3.263-1.258,4.669l-3.995,6.824h6.555
			L392.452,119.071z"/>
		<linearGradient id="SVGID_3_" gradientUnits="userSpaceOnUse" x1="409.9614" y1="119.5407" x2="409.9614" y2="89.2673">
			<stop  offset="0" style="stop-color:#C43431"/>
			<stop  offset="0.1124" style="stop-color:#CC5F37"/>
			<stop  offset="0.3315" style="stop-color:#DA8E3E"/>
			<stop  offset="0.7191" style="stop-color:#EFC714"/>
			<stop  offset="0.7968" style="stop-color:#F0CA19"/>
			<stop  offset="0.8697" style="stop-color:#F4D225"/>
			<stop  offset="0.9405" style="stop-color:#F9DF34"/>
			<stop  offset="1" style="stop-color:#FFEE44"/>
		</linearGradient>
		<path class="st3" d="M419.333,114.972c-2.135,3.046-5.224,4.568-9.266,4.568c-4.013,0-7.13-1.565-9.351-4.697
			c-1.936-2.789-2.903-6.262-2.903-10.418c0-3.985,0.953-7.4,2.86-10.248c2.163-3.272,5.152-4.91,8.967-4.91
			c4.042,0,7.201,1.608,9.479,4.825c1.992,2.79,2.988,6.306,2.988,10.547C422.109,108.823,421.184,112.268,419.333,114.972z
			 M409.898,97.892c-1.993,0-2.989,2.335-2.989,7.003c0,3.758,1.024,5.636,3.074,5.636c1.309,0,2.178-0.711,2.604-2.135
			c0.256-0.854,0.385-2.106,0.385-3.757C412.972,100.141,411.947,97.892,409.898,97.892z"/>
		<linearGradient id="SVGID_4_" gradientUnits="userSpaceOnUse" x1="461.7744" y1="119.071" x2="461.7744" y2="88.363">
			<stop  offset="0" style="stop-color:#C43431"/>
			<stop  offset="0.1124" style="stop-color:#CC5F37"/>
			<stop  offset="0.3315" style="stop-color:#DA8E3E"/>
			<stop  offset="0.7191" style="stop-color:#EFC714"/>
			<stop  offset="0.7968" style="stop-color:#F0CA19"/>
			<stop  offset="0.8697" style="stop-color:#F4D225"/>
			<stop  offset="0.9405" style="stop-color:#F9DF34"/>
			<stop  offset="1" style="stop-color:#FFEE44"/>
		</linearGradient>
		<path class="st4" d="M467.004,119.071l-0.854-4.265h-8.709l-1.257,4.265h-9.832l6.016-22.447h-2.155l3.008-8.261h15.265
			l8.71,30.708H467.004z M461.796,97.611l-2.379,9.114h4.804L461.796,97.611z"/>
		<linearGradient id="SVGID_5_" gradientUnits="userSpaceOnUse" x1="490.0352" y1="119.071" x2="490.0352" y2="79.5632">
			<stop  offset="0" style="stop-color:#C43431"/>
			<stop  offset="0.1124" style="stop-color:#CC5F37"/>
			<stop  offset="0.3315" style="stop-color:#DA8E3E"/>
			<stop  offset="0.7191" style="stop-color:#EFC714"/>
			<stop  offset="0.7968" style="stop-color:#F0CA19"/>
			<stop  offset="0.8697" style="stop-color:#F4D225"/>
			<stop  offset="0.9405" style="stop-color:#F9DF34"/>
			<stop  offset="1" style="stop-color:#FFEE44"/>
		</linearGradient>
		<path class="st5" d="M496.366,119.071l-8.665-13.693v13.693h-9.607V96.624h-2.11l2.11-8.261h9.742l6.689,10.505V88.363h9.563
			v30.708H496.366z M495.512,86.253c-0.987,0-2.529-0.449-4.624-1.347c-1.048-0.449-1.856-0.674-2.424-0.674
			c-0.569,0-1.198,0.345-1.886,1.033c-0.24,0.239-0.524,0.583-0.854,1.032l-3.188-2.828c1.646-2.604,3.441-3.906,5.388-3.906
			c0.808,0,1.796,0.21,2.963,0.629c2.425,0.928,3.801,1.392,4.131,1.392c0.897,0,1.766-0.599,2.604-1.796l3.232,2.648
			C499.598,84.981,497.817,86.253,495.512,86.253z"/>
		<linearGradient id="SVGID_6_" gradientUnits="userSpaceOnUse" x1="522.7188" y1="119.5202" x2="522.7188" y2="87.779">
			<stop  offset="0" style="stop-color:#C43431"/>
			<stop  offset="0.1124" style="stop-color:#CC5F37"/>
			<stop  offset="0.3315" style="stop-color:#DA8E3E"/>
			<stop  offset="0.7191" style="stop-color:#EFC714"/>
			<stop  offset="0.7968" style="stop-color:#F0CA19"/>
			<stop  offset="0.8697" style="stop-color:#F4D225"/>
			<stop  offset="0.9405" style="stop-color:#F9DF34"/>
			<stop  offset="1" style="stop-color:#FFEE44"/>
		</linearGradient>
		<path class="st6" d="M535.11,114.357c-3.173,3.442-7.184,5.163-12.032,5.163c-4.908,0-8.964-1.512-12.166-4.534
			c-3.143-2.993-4.714-6.959-4.714-11.897c0-3.801,1.466-7.213,4.399-10.236c3.292-3.382,7.423-5.073,12.391-5.073
			c4.609,0,8.47,1.602,11.583,4.804c3.112,3.203,4.669,7.109,4.669,11.718C539.24,107.982,537.863,111.335,535.11,114.357z
			 M527.208,99.272c-1.107-1.196-2.545-1.796-4.311-1.796c-1.735,0-3.262,0.569-4.579,1.706c-1.257,1.138-1.886,2.589-1.886,4.355
			c0,0.928,0.164,1.772,0.494,2.536c0.329,0.763,0.778,1.422,1.347,1.976s1.25,0.98,2.043,1.279c0.793,0.3,1.653,0.449,2.581,0.449
			c0.868,0,1.669-0.157,2.402-0.472s1.369-0.741,1.908-1.279c0.538-0.539,0.957-1.183,1.257-1.931
			c0.299-0.748,0.449-1.556,0.449-2.425C528.915,101.966,528.345,100.5,527.208,99.272z"/>
		<linearGradient id="SVGID_7_" gradientUnits="userSpaceOnUse" x1="552.1011" y1="119.655" x2="552.1011" y2="87.0163">
			<stop  offset="0" style="stop-color:#C43431"/>
			<stop  offset="0.1124" style="stop-color:#CC5F37"/>
			<stop  offset="0.3315" style="stop-color:#DA8E3E"/>
			<stop  offset="0.7191" style="stop-color:#EFC714"/>
			<stop  offset="0.7968" style="stop-color:#F0CA19"/>
			<stop  offset="0.8697" style="stop-color:#F4D225"/>
			<stop  offset="0.9405" style="stop-color:#F9DF34"/>
			<stop  offset="1" style="stop-color:#FFEE44"/>
		</linearGradient>
		<path class="st7" d="M559.891,117.006c-2.216,1.767-5.028,2.649-8.44,2.649c-3.563,0-7.139-0.988-10.73-2.964l2.425-8.889
			l3.995,1.751c1.617,0.628,3.009,0.942,4.176,0.942c1.347,0,2.021-0.479,2.021-1.437c0-0.718-1.078-1.437-3.232-2.155
			c-2.784-0.927-4.789-1.84-6.017-2.738c-2.185-1.646-3.277-3.936-3.277-6.869c0-2.992,1.003-5.342,3.009-7.048
			c1.885-1.616,4.354-2.425,7.407-2.425h1.437c0.18,0,0.441,0.016,0.786,0.045c0.344,0.03,0.77,0.075,1.279,0.135l0.314-0.987
			l8.081,1.571l-2.739,9.742c-0.897-0.509-2.05-1.003-3.456-1.481c-1.587-0.539-2.784-0.809-3.592-0.809
			c-1.437,0-2.155,0.479-2.155,1.437c0,0.6,1.063,1.257,3.188,1.976c2.753,0.958,4.714,1.886,5.881,2.783
			c2.155,1.677,3.232,3.967,3.232,6.869C563.482,112.426,562.285,115.06,559.891,117.006z"/>
		<path class="st1" d="M611.295,114.941c-3.023,2.754-6.929,4.13-11.718,4.13h-9.023v-21.55h-2.11l2.11-9.158h10.954
			c4.34,0,7.842,1.437,10.506,4.31c2.663,2.903,3.995,6.525,3.995,10.865C616.009,108.266,614.438,112.067,611.295,114.941z
			 M604.606,99.227c-1.077-1.106-2.559-1.661-4.444-1.661v11.853c1.796,0,3.255-0.501,4.377-1.504
			c1.123-1.003,1.684-2.402,1.684-4.198C606.222,101.832,605.684,100.335,604.606,99.227z"/>
		<path class="st1" d="M637.693,97.926h-9.652v1.751h11.269l-2.065,7.901h-9.203v1.886h11.089l-2.289,9.607h-18.407V97.656h-2.11
			l2.11-9.293h12.75l0.404-1.212h8.575L637.693,97.926z"/>
		<path class="st1" d="M685.865,97.926h-9.652v1.751h11.269l-2.065,7.901h-9.203v1.886h11.089l-2.289,9.607h-18.407V97.656h-2.11
			l2.11-9.293h12.75l0.404-1.212h8.575L685.865,97.926z"/>
		<path class="st1" d="M708.761,117.006c-2.216,1.767-5.028,2.649-8.44,2.649c-3.563,0-7.139-0.988-10.73-2.964l2.425-8.889
			l3.995,1.751c1.617,0.628,3.009,0.942,4.176,0.942c1.347,0,2.021-0.479,2.021-1.437c0-0.718-1.078-1.437-3.232-2.155
			c-2.784-0.927-4.789-1.84-6.017-2.738c-2.185-1.646-3.277-3.936-3.277-6.869c0-2.992,1.003-5.342,3.009-7.048
			c1.885-1.616,4.354-2.425,7.407-2.425h1.437c0.18,0,0.441,0.016,0.786,0.045c0.344,0.03,0.77,0.075,1.279,0.135l0.314-0.987
			l8.081,1.571l-2.739,9.742c-0.897-0.509-2.05-1.003-3.456-1.481c-1.587-0.539-2.784-0.809-3.592-0.809
			c-1.437,0-2.155,0.479-2.155,1.437c0,0.6,1.063,1.257,3.188,1.976c2.753,0.958,4.714,1.886,5.881,2.783
			c2.155,1.677,3.232,3.967,3.232,6.869C712.352,112.426,711.155,115.06,708.761,117.006z"/>
		<path class="st1" d="M735.428,108.7c-2.064,2.455-4.64,3.682-7.722,3.682h-2.963v6.689h-9.607V97.476h-2.11l2.11-9.113h11.403
			c3.562,0,6.42,1.138,8.575,3.412c2.154,2.244,3.232,5.163,3.232,8.754C738.347,103.612,737.374,106.337,735.428,108.7z
			 M728.335,98.577c-0.33-0.554-0.809-0.831-1.437-0.831h-2.11v5.612h1.841c0.718,0,1.271-0.329,1.661-0.988
			c0.359-0.568,0.538-1.227,0.538-1.976C728.829,99.737,728.665,99.131,728.335,98.577z"/>
		<path class="st1" d="M759.761,97.926h-9.652v1.751h11.269l-2.065,7.901h-9.203v1.886h11.089l-2.289,9.607h-18.407V97.656h-2.11
			l2.11-9.293h12.75l0.404-1.212h8.575L759.761,97.926z"/>
		<path class="st1" d="M778.123,119.071l-4.13-9.068v9.068h-9.607V97.386h-2.11l2.11-9.023h13.782c3.263,0,5.927,1.032,7.992,3.098
			c2.094,2.065,3.143,4.729,3.143,7.991c0,4.28-1.677,7.513-5.028,9.697l5.342,9.922H778.123z M776.283,97.297h-2.29v5.073h2.29
			c2.184,0,3.277-0.822,3.277-2.469C779.56,98.166,778.466,97.297,776.283,97.297z"/>
		<path class="st1" d="M792.041,119.071v-21.64h-2.11l2.2-9.068h9.473v30.708H792.041z"/>
		<path class="st1" d="M824.23,97.926h-9.652v1.751h11.269l-2.065,7.901h-9.203v1.886h11.089l-2.289,9.607H804.97V97.656h-2.11
			l2.11-9.293h12.75l0.404-1.212h8.575L824.23,97.926z"/>
		<path class="st1" d="M847.126,119.071l-8.665-13.693v13.693h-9.607V96.624h-2.11l2.11-8.261h9.742l6.689,10.505V88.363h9.563
			v30.708H847.126z"/>
		<path class="st1" d="M879.765,99.946c-0.779-0.688-1.751-1.317-2.919-1.886c-1.287-0.599-2.379-0.898-3.276-0.898
			c-1.706,0-3.233,0.584-4.58,1.751c-1.317,1.168-1.975,2.59-1.975,4.266c0,0.958,0.164,1.841,0.493,2.648
			c0.329,0.809,0.786,1.504,1.369,2.088c0.584,0.583,1.272,1.04,2.065,1.369c0.793,0.33,1.668,0.494,2.627,0.494
			c2.004,0,4.024-1.018,6.061-3.053l4.265,8.799c-2.873,2.604-6.42,3.906-10.64,3.906c-4.46,0-8.291-1.511-11.493-4.534
			c-3.203-3.054-4.804-6.809-4.804-11.27c0-3.531,1.286-6.928,3.86-10.19c2.993-3.801,6.764-5.702,11.313-5.702
			c0.568,0,1.168,0.022,1.796,0.067c0.629,0.045,1.287,0.128,1.976,0.247l0.629-1.032l7.722,2.918L879.765,99.946z"/>
		<path class="st1" d="M886.723,119.071v-21.64h-2.11l2.2-9.068h9.473v30.708H886.723z"/>
		<path class="st1" d="M917.565,119.071l-0.854-4.265h-8.709l-1.257,4.265h-9.832l6.016-22.447h-2.155l3.008-8.261h15.265
			l8.71,30.708H917.565z M912.357,97.611l-2.379,9.114h4.804L912.357,97.611z"/>
		<path class="st1" d="M936.826,118.442c-1.048,0.988-2.261,1.481-3.637,1.481c-0.718,0-1.392-0.134-2.021-0.403
			c-0.628-0.27-1.167-0.629-1.616-1.078c-0.448-0.448-0.808-0.987-1.077-1.616c-0.27-0.628-0.404-1.302-0.404-2.02
			c0-0.719,0.135-1.393,0.404-2.021c0.27-0.629,0.629-1.175,1.077-1.639c0.449-0.464,0.988-0.831,1.616-1.1
			c0.629-0.27,1.303-0.404,2.021-0.404c1.406,0,2.619,0.509,3.637,1.526c1.017,1.018,1.526,2.229,1.526,3.637
			S937.842,117.426,936.826,118.442z"/>
	</g>
</g>
</svg>