<!-- Generator: Adobe Illustrator 19.0.0, SVG Export Plug-In  -->
<svg version="1.1"
	 xmlns="http://www.w3.org/2000/svg" xmlns:xlink="http://www.w3.org/1999/xlink" xmlns:a="http://ns.adobe.com/AdobeSVGViewerExtensions/3.0/"
	 x="0px" y="0px" width="281.269px" height="281.268px" viewBox="0 0 281.269 281.268"
	 style="enable-background:new 0 0 281.269 281.268;" xml:space="preserve">
<style type="text/css">
	.st0{fill:#C20B19;}
	.st1{fill:#FFFFFF;}
</style>
<defs>
</defs>
<g id="XMLID_74_">
	<circle id="XMLID_78_" class="st0" cx="140.634" cy="140.634" r="134.965"/>
	<path id="XMLID_75_" class="st1" d="M140.634,281.268C63.088,281.268,0,218.18,0,140.634S63.088,0,140.634,0
		s140.634,63.088,140.634,140.634S218.18,281.268,140.634,281.268z M140.634,11.339c-71.294,0-129.295,58.001-129.295,129.295
		S69.34,269.93,140.634,269.93S269.93,211.928,269.93,140.634S211.928,11.339,140.634,11.339z"/>
</g>
<g id="XMLID_47_">
	<path id="XMLID_72_" class="st1" d="M56.461,153.248c-1.46,0.73-4.38,1.46-8.121,1.46c-8.668,0-15.192-5.475-15.192-15.558
		c0-9.626,6.524-16.151,16.06-16.151c3.833,0,6.25,0.821,7.3,1.369l-0.958,3.239c-1.506-0.729-3.65-1.277-6.205-1.277
		c-7.208,0-11.999,4.608-11.999,12.684c0,7.528,4.334,12.364,11.816,12.364c2.418,0,4.882-0.501,6.479-1.277L56.461,153.248z"/>
	<path id="XMLID_69_" class="st1" d="M73.207,154.251l-0.319-2.783h-0.137c-1.232,1.734-3.604,3.285-6.752,3.285
		c-4.471,0-6.752-3.148-6.752-6.342c0-5.338,4.745-8.258,13.277-8.212v-0.456c0-1.825-0.502-5.11-5.019-5.11
		c-2.053,0-4.198,0.639-5.749,1.643l-0.912-2.646c1.825-1.186,4.471-1.962,7.254-1.962c6.752,0,8.395,4.608,8.395,9.034v8.258
		c0,1.917,0.091,3.787,0.365,5.292H73.207z M72.614,142.982c-4.38-0.091-9.353,0.684-9.353,4.973c0,2.601,1.733,3.832,3.787,3.832
		c2.875,0,4.699-1.825,5.338-3.695c0.137-0.411,0.228-0.867,0.228-1.277V142.982z"/>
	<path id="XMLID_67_" class="st1" d="M82.972,139.059c0-2.601-0.046-4.836-0.183-6.889h3.513l0.137,4.334h0.183
		c1.004-2.966,3.422-4.836,6.114-4.836c0.456,0,0.775,0.046,1.141,0.137v3.787c-0.411-0.091-0.821-0.137-1.369-0.137
		c-2.829,0-4.836,2.144-5.383,5.155c-0.091,0.547-0.183,1.187-0.183,1.871v11.771h-3.969V139.059z"/>
	<path id="XMLID_65_" class="st1" d="M103.823,125.828v6.342h5.749v3.057h-5.749v11.908c0,2.737,0.776,4.289,3.011,4.289
		c1.049,0,1.825-0.137,2.327-0.274l0.183,3.011c-0.775,0.319-2.007,0.547-3.559,0.547c-1.871,0-3.376-0.593-4.334-1.688
		c-1.141-1.186-1.551-3.148-1.551-5.749v-12.044h-3.422v-3.057h3.422v-5.292L103.823,125.828z"/>
	<path id="XMLID_62_" class="st1" d="M133.799,143.028c0,8.167-5.658,11.726-10.996,11.726c-5.977,0-10.584-4.38-10.584-11.36
		c0-7.391,4.836-11.726,10.95-11.726C129.51,131.667,133.799,136.276,133.799,143.028z M116.28,143.256
		c0,4.836,2.783,8.486,6.707,8.486c3.833,0,6.707-3.604,6.707-8.577c0-3.741-1.871-8.486-6.615-8.486
		C118.333,134.679,116.28,139.059,116.28,143.256z"/>
	<path id="XMLID_60_" class="st1" d="M138.865,138.146c0-2.281-0.045-4.152-0.183-5.977h3.559l0.228,3.65h0.091
		c1.095-2.099,3.65-4.152,7.3-4.152c3.057,0,7.802,1.825,7.802,9.399v13.185h-4.015v-12.729c0-3.559-1.323-6.524-5.11-6.524
		c-2.646,0-4.699,1.871-5.384,4.106c-0.183,0.502-0.274,1.186-0.274,1.871v13.276h-4.015V138.146z"/>
	<path id="XMLID_58_" class="st1" d="M179.929,153.43c-1.049,0.547-3.376,1.277-6.342,1.277c-6.661,0-10.995-4.517-10.995-11.269
		c0-6.798,4.653-11.725,11.862-11.725c2.373,0,4.471,0.593,5.566,1.141l-0.913,3.103c-0.958-0.548-2.464-1.05-4.654-1.05
		c-5.064,0-7.801,3.741-7.801,8.35c0,5.11,3.285,8.258,7.665,8.258c2.281,0,3.787-0.593,4.927-1.095L179.929,153.43z"/>
	<path id="XMLID_55_" class="st1" d="M189.101,125.965c0.045,1.369-0.958,2.463-2.555,2.463c-1.414,0-2.418-1.095-2.418-2.463
		c0-1.415,1.049-2.509,2.509-2.509C188.143,123.456,189.101,124.55,189.101,125.965z M184.629,154.251v-22.082h4.015v22.082H184.629
		z"/>
	<path id="XMLID_53_" class="st1" d="M195.306,121.858h4.015v32.393h-4.015V121.858z"/>
	<path id="XMLID_51_" class="st1" d="M206.074,121.858h4.015v32.393h-4.015V121.858z"/>
	<path id="XMLID_48_" class="st1" d="M236.825,143.028c0,8.167-5.658,11.726-10.996,11.726c-5.977,0-10.584-4.38-10.584-11.36
		c0-7.391,4.836-11.726,10.95-11.726C232.536,131.667,236.825,136.276,236.825,143.028z M219.306,143.256
		c0,4.836,2.783,8.486,6.707,8.486c3.833,0,6.707-3.604,6.707-8.577c0-3.741-1.871-8.486-6.615-8.486
		C221.358,134.679,219.306,139.059,219.306,143.256z"/>
</g>
</svg>