<!-- Generator: Adobe Illustrator 20.1.0, SVG Export Plug-In  -->
<svg version="1.1"
	 xmlns="http://www.w3.org/2000/svg" xmlns:xlink="http://www.w3.org/1999/xlink" xmlns:a="http://ns.adobe.com/AdobeSVGViewerExtensions/3.0/"
	 x="0px" y="0px" width="176.578px" height="176.578px" viewBox="0 0 176.578 176.578"
	 style="overflow:scroll;enable-background:new 0 0 176.578 176.578;" xml:space="preserve">
<style type="text/css">
	.st0{fill:#C20D19;stroke:#FFFFFF;stroke-width:5.6693;stroke-miterlimit:10;}
	.st1{fill:#FFFFFF;}
</style>
<defs>
</defs>
<g>
	<circle class="st0" cx="88.289" cy="88.289" r="85.455"/>
	<g>
		<path class="st1" d="M41.425,64.191c2.594-0.432,5.99-0.803,10.313-0.803c5.311,0,9.201,1.235,11.671,3.458
			c2.285,1.976,3.644,5.002,3.644,8.707c0,3.767-1.111,6.731-3.211,8.893c-2.841,3.026-7.472,4.569-12.721,4.569
			c-1.605,0-3.088-0.062-4.323-0.371v16.673h-5.372V64.191z M46.798,84.26c1.174,0.309,2.655,0.432,4.446,0.432
			c6.484,0,10.437-3.149,10.437-8.892c0-5.496-3.891-8.151-9.819-8.151c-2.346,0-4.137,0.185-5.063,0.432V84.26z"/>
		<path class="st1" d="M83.413,105.318L69.828,63.697h5.805l6.484,20.502c1.79,5.619,3.334,10.683,4.445,15.562h0.124
			c1.173-4.817,2.902-10.066,4.755-15.5l7.04-20.563h5.742l-14.882,41.621H83.413z"/>
		<path class="st1" d="M137.813,103.96c-1.976,0.988-5.928,1.976-10.992,1.976c-11.732,0-20.563-7.411-20.563-21.058
			c0-13.03,8.831-21.86,21.737-21.86c5.187,0,8.46,1.111,9.88,1.853l-1.296,4.384c-2.038-0.988-4.94-1.729-8.398-1.729
			c-9.757,0-16.241,6.237-16.241,17.167c0,10.189,5.866,16.735,15.994,16.735c3.272,0,6.607-0.679,8.769-1.729L137.813,103.96z"/>
	</g>
</g>
</svg>