<!-- Generator: Adobe Illustrator 19.0.0, SVG Export Plug-In  -->
<svg version="1.1"
	 xmlns="http://www.w3.org/2000/svg" xmlns:xlink="http://www.w3.org/1999/xlink" xmlns:a="http://ns.adobe.com/AdobeSVGViewerExtensions/3.0/"
	 x="0px" y="0px" width="1406.164px" height="74.278px" viewBox="0 0 1406.164 74.278"
	 style="enable-background:new 0 0 1406.164 74.278;" xml:space="preserve">
<defs>
</defs>
<path id="XMLID_17_" d="M1406.164,39.629c-5.076,0.529-10.227,1.527-15.302,1.517c-128.239-0.228-256.625-0.694-384.863-0.813
	c-55.778-0.052-112.086,0.227-167.853,1.198c-10.377,0.181-19.944,4.378-32.944,6.972c0-7.363,0-14.61,0-23.582
	c33,14.398,67.72,7.939,100.899,8.073c160.48,0.646,321.667,0.276,482.149,0.345c5.899,0.002,11.855,0.833,17.753,1.277
	C1406.063,36.287,1406.105,37.958,1406.164,39.629z M498.576,34.771c-43.448-0.134-86.893-1.209-130.341-1.444
	c-49.838-0.269-99.679-0.052-149.519-0.048c-68.522,0.005-137.044-0.018-205.566,0.074C8.766,33.359,4.383,34.246,0,34.724
	c0.093,1.878,0.186,3.755,0.279,5.633c5.038,0.286,10.078,0.835,15.115,0.819c79.268-0.259,158.535-0.763,237.802-0.839
	c45.49-0.044,91.187,0.038,136.663,1.025c70.296,1.525,142.343-7.077,211.343,6.35c0-6.51,0-14.071,0-22.924
	c-8,2.871-18.478,7.511-27.692,8.099C548.656,34.476,523.495,34.848,498.576,34.771z M755.55,0.006
	c-19.704,0.409-40.197,17.31-39.346,32.816c0.139,2.532,1.906,5.636,3.918,7.149c1.164,0.876,5.399-0.214,6.314-1.653
	c1.189-1.867,0.388-4.965,0.555-7.526c0.277-4.264-0.904-9.665,1.248-12.577c7.938-10.744,18.724-15.078,32.247-11.054
	c14.495,4.313,24.646,15.007,24.74,27.468c0.104,13.879-6.57,24.142-20.069,26.952c-8.98,1.869-20.437,2.961-27.802-1.061
	c-11.974-6.539-22.731-16.491-31.76-26.94c-11.565-13.385-23.875-24.617-41.495-28.362c-21.125-4.49-40.741,5.554-45.319,22.689
	c-5.55,20.774,4.902,38.487,26.632,45.132c19.701,6.025,45.588-10.895,45.476-30.043c-0.017-2.9-2.004-6.268-4.086-8.469
	c-1.002-1.059-5.204-0.762-6.421,0.456c-1.688,1.689-3.458,5.952-2.56,7.165c10.072,13.615-3.12,17.224-10.102,21.758
	c-10.985,7.133-27.655,4.293-36.833-4.401c-8.954-8.482-11.257-23.533-5.08-35.244c6.694-12.692,17.571-15.389,31.033-13.429
	c18.723,2.726,32.704,12.273,43.043,27.638c13.675,20.323,33.739,28.71,53.596,30.926c21.553,0.751,36.334-14.069,36.85-33.275
	C790.849,16.832,774.27-0.382,755.55,0.006z"/>
</svg>