<!-- Generator: Adobe Illustrator 19.0.0, SVG Export Plug-In  -->
<svg version="1.1"
	 xmlns="http://www.w3.org/2000/svg" xmlns:xlink="http://www.w3.org/1999/xlink" xmlns:a="http://ns.adobe.com/AdobeSVGViewerExtensions/3.0/"
	 x="0px" y="0px" width="615.663px" height="615.663px" viewBox="0 0 615.663 615.663"
	 style="enable-background:new 0 0 615.663 615.663;" xml:space="preserve">
<style type="text/css">
	.st0{fill:#FFFFFF;}
	.st1{fill:#000002;}
</style>
<defs>
</defs>
<g id="XMLID_15_">
	<circle id="XMLID_55_" class="st0" cx="307.831" cy="307.831" r="307.831"/>
	<path id="XMLID_16_" class="st1" d="M497.006,265.602h-1.746l2.155-0.663l-1.409-3.584v-80.753h-3v-2h-20.631l-3.563-3h-30.275
		l-3.566,3h-24.067h-1.897v-68.299c0-7.722-6-14.005-14-14.005v0.304h-176v4h176v-0.052c5,0,10,4.376,10,9.754v68.298h-196v-68.298
		c0-5.378,5-9.754,10-9.754v-4.252c-8,0-14,6.283-14,14.006v68.298h-26.099l-3.563-3h-30.275l-3.566,3h-21.497v2h-2v80.753l-2,4.158
		v81.089h2.615l-1.638,1.574l1.023,1.23v72.196h2v2h79v9h2.191l-1.954,0.977l0.551,1.357l-77.673,2.413l0.063,2.253h-2.178v77h2v2
		h80.536l0.806,0.507l0.658-1.87v2.363h15.013h190.987v-2.363l0.593,1.87l0.741-0.507h80.666v-2h2v-77h-2.313l0.063-2.218
		l-77.668-2.332l0.551-1.45l-1.954-1h2.321v-9h78v-2h3v-72.196l0.958-1.23l-1.704-1.574h1.746V265.602z M199.006,419.602h-76v-71h17
		v5h40v-5h19V419.602z M145.006,349.602v-1h31v1H145.006z M201.006,344.602h-22.979h-57.021v-77h80V344.602z M201.006,259.602h-78
		v-76h19v-2.604l1.691,1.524l3.132-2.92h26.754l2.93,2.919l1.493-1.523v2.604h23V259.602z M201.006,514.602h-77v-73.121l77-2.252
		V514.602z M205.006,183.602h201.739h2.261v78h-204V183.602z M205.006,266.602h204v80h-204V266.602z M203.006,372.602h2v37h-2
		V372.602z M203.006,413.602h4v-2h2v-41h-2v-3h-4v-17h208v17h-4v3h-2v41h2v2h4v17h-208V413.602z M411.006,372.602v37h-2v-37H411.006
		z M297.301,515.602c0.302-2,1.183-3.978,2.57-5.437c1.86-1.955,4.37-3.155,7.068-3.155s5.208,1.261,7.068,3.216
		c1.387,1.459,2.268,3.376,2.569,5.376H297.301z M409.006,436.602v79h-88.14c-0.324-4-1.627-6.106-3.777-8.368
		c-2.671-2.808-6.275-4.476-10.149-4.476s-7.479,1.729-10.148,4.537c-2.151,2.262-3.455,4.307-3.779,8.307h-73.993h-14.013v-79
		h-2.027l1.954-0.821l-0.512-1.179h205.04l-0.512,1.179l1.954,0.821H409.006z M413.006,439.229l77,2.252v73.121h-77V439.229z
		 M413.006,183.602h23v-2.604l1.425,1.524l2.866-2.92h26.754l2.696,2.919l1.259-1.523v2.604h20v76h-78V183.602z M491.006,419.602
		h-76v-71h19v5h40v-5h17V419.602z M438.006,349.602v-1h31v1H438.006z M493.006,344.602h-21.512h-58.488v-77h80V344.602z"/>
</g>
</svg>