<!-- Generator: Adobe Illustrator 19.0.0, SVG Export Plug-In  -->
<svg version="1.1"
	 xmlns="http://www.w3.org/2000/svg" xmlns:xlink="http://www.w3.org/1999/xlink" xmlns:a="http://ns.adobe.com/AdobeSVGViewerExtensions/3.0/"
	 x="0px" y="0px" width="615.663px" height="615.663px" viewBox="0 0 615.663 615.663"
	 style="enable-background:new 0 0 615.663 615.663;" xml:space="preserve">
<style type="text/css">
	.st0{fill:#FFFFFF;}
</style>
<defs>
</defs>
<g id="XMLID_15_">
	<g id="XMLID_58_">
		<circle id="XMLID_59_" class="st0" cx="307.831" cy="307.831" r="307.831"/>
	</g>
	<path id="XMLID_16_" d="M276.818,441.082c-0.909,0.456-1.711,1.161-2.569,1.239c-4.984,0.457-9.98,1.061-14.974,1.072
		c-16.399,0.039-32.798-0.156-49.198-0.26c-0.931-0.006-1.862-0.001-2.42-0.001c-1.943,3.796-3.489,7.439-5.58,10.736
		c-2.435,3.84-6.02,5.936-10.833,5.574c-2.697-0.203-5.422-0.036-8.486-0.036c8.098-6.357,9.726-15.295,10.436-24.513
		c0.717-9.306-0.522-18.346-4.694-26.827c-0.504-1.025-1.141-1.998-1.816-2.923c-4.934-6.759-10.658-6.71-15.803-0.095
		c-0.885,1.138-2.602,1.996-4.065,2.257c-8.118,1.449-16.277,2.67-24.419,3.985c-0.711,0.115-1.402,0.351-2.443,0.619
		c0.481,9.888,0.961,19.749,1.433,29.452c8.323,0,16.318,0,24.731,0c-0.175-1.578-0.296-2.665-0.415-3.752
		c-0.87-7.94-1.196-15.879,1.587-23.53c0.835-2.297,2.195-4.546,3.806-6.386c2.933-3.348,7.117-3.628,9.745-0.086
		c2.597,3.501,4.748,7.662,5.873,11.86c2.397,8.942,2.115,18.031-1.272,26.781c-1.521,3.929-3.441,8.046-8.4,8.247
		c-5.032,0.203-7.339-3.819-8.778-7.727c-1.227-3.33-2.979-4.033-6.214-3.842c-5.093,0.301-10.218,0.08-15.199,0.08
		c-6.307,17.236-9.085,14.169-19.666,14.473c6.34-5.074,7.58-12.116,8.098-19.33c0.523-7.28-0.286-14.435-3.806-20.993
		c-1.704-3.174-3.822-6.399-8.041-5.897c-4.259,0.507-5.904,4.043-7.685,8.039c5.87-5.788,9.952-5.08,12.935,2.079
		c3.513,8.432,3.554,17.068,0.597,25.711c-0.101,0.296-0.237,0.58-0.366,0.865c-3.142,6.926-6.895,7.613-12.156,2.224
		c0.978,3.512-0.353,5.824-4.132,6.471c-2.618,0.448-5.325,0.377-8.011,0.539c8.746-11.422,8.231-23.5,3.58-35.894
		c-0.736-1.962-2.289-3.747-3.824-5.246c-1.901-1.857-4.188-1.878-6.636-0.582c-1.701,0.9-3.663,1.307-5.669,1.988
		c-1.008-3.33-0.427-4.713,2.59-5.173c5.96-0.908,11.867-2.166,18.115-3.339c-0.365-1.412-0.665-2.573-1.028-3.978
		c-8.812,1.427-17.427,2.822-26.24,4.249c-0.127-0.817-0.302-1.494-0.328-2.177c-0.854-22.966-1.694-45.932-2.536-68.898
		c-0.604-16.482-1.254-32.963-1.728-49.448c-0.041-1.421,0.7-3.286,1.728-4.254c33.397-31.426,66.877-62.764,100.337-94.124
		c12.881-12.072,25.771-24.134,38.579-36.282c1.649-1.564,3.27-2.243,5.532-2.143c27.437,1.209,54.877,2.355,82.317,3.488
		c1.649,0.068,3.417,0.242,4.947-0.227c30.504-9.364,61.448-10.376,92.644-4.559c32.595,6.077,64.605,14.449,95.232,27.31
		c9.947,4.177,19.463,9.574,28.704,15.188c11.168,6.784,15.833,17.529,16.112,30.382c0.71,32.717-0.07,65.387-2.987,97.992
		c-3.219,35.989-8.136,71.76-13.81,107.433c-0.066,0.413-0.125,0.827-0.214,1.235c-2.089,9.601-5.023,12.269-14.713,11.07
		c-5.998-0.742-9.176,0.744-12.066,6.207c-3.268,6.174-8.288,11.483-15.955,12.309c-3.583,0.386-7.282-0.238-10.924-0.481
		c-4.168-0.279-8.326-0.825-12.497-0.926c-5.242-0.127-9.331-2.343-12.215-6.514c-2-2.893-3.647-6.078-5.075-9.301
		c-0.794-1.793-1.587-2.56-3.613-2.475c-23.374,0.991-46.753,1.856-70.126,2.856c-8.243,0.353-16.468,1.14-24.712,1.399
		c-2.966,0.093-4.539,1.03-6.023,3.661c-3.458,6.131-7.538,12.074-14.928,13.8c-3.974,0.928-8.23,0.746-12.364,0.869
		c-4.377,0.131-8.76,0.029-13.756,0.029c13.22-7.2,17.157-19.609,19.861-32.396c4.466-21.117,3.629-42.016-5.409-61.957
		c-2.014-4.443-5.183-8.653-8.702-12.06c-5.988-5.799-13.423-5.43-19.712,0.069c-4.772,4.172-9.565,12.388-11.33,19.798
		c1.558-2.596,2.678-4.742,4.054-6.71c7.337-10.494,16.996-10.528,24.3-0.039c5.33,7.655,7.566,16.443,8.771,25.526
		c1.883,14.194,1.112,28.224-4.201,41.619c-1.805,4.551-4.572,8.989-7.847,12.625c-5.233,5.812-12.435,5.588-17.916-0.041
		C280.5,446.562,278.638,443.494,276.818,441.082z M276.312,379.866c-1.899,3.645-4.265,7.127-5.604,10.968
		c-3.16,9.061-3.558,18.494-1.344,27.783c1.111,4.663,3.01,9.364,5.58,13.393c2.939,4.608,7.84,4.404,11.199,0.033
		c1.684-2.191,3.007-4.784,3.956-7.39c2.954-8.112,3.232-16.541,2.215-25.025c-0.676-5.635-2.016-11.106-5.316-15.866
		c-2.758-3.978-5.059-4.714-9.561-3.365c-0.288,0.086-0.725-0.321-1.093-0.499c0.75-0.679,1.538-1.322,2.243-2.045
		c4.773-4.893,10.439-5.014,14.921,0.17c2.205,2.55,3.987,5.626,5.321,8.738c3.471,8.092,4.263,16.696,4.034,25.424
		c-0.051,1.959-0.008,3.92-0.008,5.88c0.34-0.002,0.679-0.005,1.019-0.007c0-4.556,0.198-9.122-0.041-13.665
		c-0.498-9.453-2.047-18.687-7.531-26.73c-2.495-3.659-5.683-6.673-10.561-5.951C281.02,372.409,278.192,375.684,276.312,379.866z
		 M248.228,334.394c7.983-3.227,15.419-6.193,22.824-9.234c9.525-3.911,19.309-6.785,29.67-7.046
		c8.669-0.219,16.54,2.093,22.936,8.281c4.584,4.435,7.782,9.874,9.83,15.78c2.58,7.438,4.444,15.125,6.618,22.705
		c-0.259,0.07-0.518,0.139-0.777,0.209c-1.55-5.08-2.759-10.297-4.744-15.201c-2.102-5.193-4.384-10.475-7.563-15.039
		c-9.574-13.745-23.457-14.702-37.462-11.295c-13.978,3.4-26.468,10.49-39.26,16.766c-0.904,0.443-1.676,2.02-1.762,3.128
		c-0.717,9.163-1.264,18.339-1.849,27.512c-0.263,4.122-0.493,8.245-0.731,12.252c6.249,0,12.043,0,17.968,0
		c0.202-1.604,0.346-2.838,0.514-4.069c1.601-11.702,4.285-23.039,11.832-32.55c4.382-5.523,9.902-9.314,17.221-9.575
		c8.039-0.287,14.84,2.746,20.637,8.192c9.093,8.544,14.145,19.315,16.656,31.298c1.341,6.397,1.912,12.955,2.874,19.751
		c6.65-0.681,13.471-1.424,20.302-2.065c6.862-0.645,13.726-1.303,20.602-1.744c6.98-0.447,13.974-0.749,20.967-0.905
		c6.739-0.15,13.485-0.033,21.094-0.033c-10.049,1.204-19.209,1.991-28.253,3.479c-7.853,1.292-15.503,3.648-21.756,8.952
		c-9.046,7.673-7.738,19.862,2.755,25.39c2.738,1.442,5.765,2.497,8.781,3.223c12.555,3.021,25.323,2.546,38.041,1.628
		c26.22-1.893,52.374-1.66,78.519,1.238c6.925,0.768,13.937,1.033,20.908,1.008c4.998-0.018,8.672-3.062,9.882-7.788
		c1.541-6.019,2.895-12.232,3.126-18.406c0.295-7.908-3.359-12.036-11.024-14.263c-3.076-0.894-6.262-1.409-9.398-2.096
		c0.025-0.21,0.049-0.42,0.074-0.63c8.174,0.73,16.349,1.461,24.801,2.216c0.59-4.208,1.177-8.392,1.82-12.983
		c-12.358-1.257-24.311-2.473-36.893-3.752c10.106-13.854,23.744-16.615,39.075-15.091c0.217-1.001,0.466-1.79,0.552-2.597
		c0.951-8.928,2.032-17.845,2.772-26.791c1.048-12.681,2.244-25.371,2.653-38.08c0.781-24.321,1.172-48.657,1.484-72.989
		c0.16-12.429-4.894-22.29-15.973-28.495c-7.182-4.023-14.319-8.239-21.849-11.509c-20.087-8.722-41.296-13.954-62.535-18.946
		c-18.601-4.372-37.287-8.412-56.388-9.942c-45.036-3.608-85.992,8.474-123.646,32.702c-4.503,2.897-8.505,6.738-12.236,10.624
		c-4.074,4.243-6.067,9.749-6.74,15.555c-0.175,1.514,0.606,3.624,1.706,4.635c0.77,0.707,2.94,0.334,4.286-0.13
		c2.153-0.742,4.116-2.018,6.205-2.969c6.883-3.134,13.786-6.223,20.681-9.329c-0.015,0.85-0.301,1.129-0.633,1.334
		c-10.194,6.311-20.381,12.633-30.602,18.9c-1.565,0.959-2.283,2.01-2.215,3.998c0.789,22.861,1.432,45.726,2.189,68.588
		C247.186,310.075,247.73,321.955,248.228,334.394z M224.389,162.839c-1.504,1.276-2.457,2.048-3.371,2.864
		c-45.207,40.341-90.404,80.694-135.647,120.995c-1.559,1.389-2.173,2.742-2.087,4.821c0.62,14.912,1.099,29.83,1.67,44.744
		c0.691,18.056,1.423,36.111,2.15,54.166c0.209,5.198,0.459,10.395,0.704,15.922c48.815-8.839,97.35-17.627,146.145-26.462
		C230.766,307.56,227.594,235.573,224.389,162.839z M264.367,440.255c0-16.187,0-31.818,0-47.755
		c-22.294,3.527-44.212,6.995-66.351,10.498c0.454,12.689,0.895,25.042,1.332,37.257
		C221.307,440.255,242.799,440.255,264.367,440.255z M170.039,429.69c1.289,4.229,2.075,8.692,3.986,12.607
		c2.435,4.989,6.968,4.895,9.381-0.069c4.032-8.296,3.801-16.794-0.538-24.906c-2.581-4.826-7.114-4.662-9.396,0.392
		C171.841,421.323,171.226,425.392,170.039,429.69z M130.381,434.692c-1.062-3.389-1.729-7.007-3.31-10.17
		c-1.833-3.668-5.249-3.546-7.105,0.157c-3.288,6.563-3.14,13.305,0.38,19.735c1.967,3.593,5.351,3.515,7.133-0.207
		C128.835,441.375,129.365,438.148,130.381,434.692z M536.856,367.072c-8.998-2.692-27.622-0.352-32.58,8.758
		c4.926-1.133,10.103-2.815,15.402-3.406c5.404-0.603,10.927-0.133,16.569-0.133C536.486,370.249,536.673,368.64,536.856,367.072z
		 M142.158,406.592c3.975-0.657,7.539-1.446,11.145-1.782c3.285-0.306,4.349-2.403,5.391-5.298
		c-3.949,0.697-7.502,1.538-11.103,1.896C144.499,401.714,143.016,403.352,142.158,406.592z M124.173,403.181
		c0.51,1.451,0.971,2.764,1.157,3.292c2.361,0.742,4.005,1.26,5.931,1.865c1.216-1.961,2.703-4.359,4.52-7.289
		c-3.824,0.595-6.894,1.061-9.957,1.563C125.332,402.693,124.866,402.937,124.173,403.181z M90.321,435.658
		c1.069-4.543,1.661-8.916,3.228-12.906c0.736-1.875,3.307-4.103,5.126-4.175c1.801-0.071,4.463,1.965,5.427,3.779
		c4.615,8.689,4.862,17.816,0.843,26.782c-0.838,1.869-3.378,4.196-5.069,4.145c-1.994-0.06-4.875-2.067-5.677-3.951
		C92.361,445.014,91.553,440.26,90.321,435.658z M94.489,435.665c1.106,3.247,1.866,6.723,3.449,9.77
		c1.488,2.864,4.067,2.65,5.942,0.012c3.14-4.419,2.912-14.685-0.423-19.052c-2.043-2.675-4.653-2.703-6.147,0.35
		C96.019,429.382,95.487,432.39,94.489,435.665z M162.7,414.376c-5.783,0.857-11.565,1.713-17.348,2.57
		c0.033,0.228,0.066,0.456,0.099,0.683c5.811-0.633,11.622-1.266,17.433-1.9C162.823,415.278,162.761,414.827,162.7,414.376z
		 M145.466,429.763c5.163-0.266,10.327-0.531,15.49-0.797c-0.034-0.416-0.068-0.832-0.101-1.247
		c-5.14,0.441-10.28,0.883-15.419,1.324C145.446,429.283,145.456,429.523,145.466,429.763z M144.874,423.765
		c5.539-0.459,11.078-0.919,16.617-1.378c-0.041-0.414-0.082-0.829-0.122-1.243c-5.444,0.627-10.887,1.253-16.331,1.88
		C144.983,423.271,144.929,423.518,144.874,423.765z M145.078,435.242c5.417,0,10.834,0,16.251,0
		c-0.018-0.341-0.035-0.683-0.053-1.024c-5.405,0.315-10.809,0.631-16.213,0.946C145.068,435.19,145.073,435.216,145.078,435.242z
		 M537.048,301.403c-57.641-15.032-116.154-20.298-175.696-16.298c-0.526-6.133-0.854-11.84-1.53-17.505
		c-2.078-17.412-4.214-34.819-6.494-52.206c-0.742-5.661-1.975-11.258-3.024-16.877c-1.239-6.636,0.355-11.457,6.467-14.451
		c5.538-2.713,11.601-4.791,17.661-5.919c16.775-3.123,33.72-2.234,50.591-0.61c25.321,2.437,50.271,6.987,74.319,15.405
		c9.494,3.323,18.655,7.761,27.617,12.373c3.957,2.036,7.349,5.49,10.397,8.845c1.692,1.862,2.916,4.81,3.04,7.332
		c1.294,26.33,0.968,52.623-2.797,78.782C537.572,300.466,537.424,300.643,537.048,301.403z M407.721,274.754
		c10.471,0.584,23.317,1.005,36.109,2.074c27.93,2.335,55.434,7.482,82.834,13.215c5.415,1.133,6.838,0.086,7.35-5.329
		c0.088-0.935,0.266-1.865,0.315-2.801c0.93-17.829,1.903-35.656,2.722-53.491c0.169-3.687-1.602-5.907-4.847-6.717
		c-12.35-3.08-24.63-6.527-37.099-9.02c-18.409-3.681-36.899-7.055-55.462-9.848c-24.516-3.688-49.251-4.895-74.039-4.797
		c-4.987,0.02-6.84,2.394-5.793,7.236c0.749,3.465,1.846,6.873,2.353,10.37c2.498,17.248,4.884,34.513,7.239,51.781
		c0.994,7.285,2.852,8.819,10.264,8.454C388.218,275.46,396.778,275.186,407.721,274.754z M251.014,246.678
		c0-3.648-1.154-7.888,0.326-10.778c1.466-2.861,5.533-4.446,8.557-6.441c10.536-6.949,20.984-14.045,31.714-20.683
		c11.173-6.912,22.813-12.998,35.212-17.497c1.077-0.391,2.168-0.773,3.283-1.03c3.772-0.871,5.722-0.081,6.533,3.741
		c2.399,11.312,5.068,22.624,6.461,34.079c2.292,18.848,3.622,37.812,5.479,56.715c0.219,2.231-0.523,3.067-2.481,3.817
		c-12.173,4.665-24.315,9.415-36.417,14.263c-1.875,0.751-2.971,0.372-4.357-0.939c-14.483-13.692-30.847-24.166-50.442-28.939
		c-1.777-0.433-2.003-1.41-2.077-2.868c-0.396-7.816-0.834-15.631-1.258-23.446C251.37,246.675,251.192,246.676,251.014,246.678z
		 M334.844,202.779c-0.969-8.415-2.37-9.281-9.866-6.22c-14.691,6-28.599,13.512-41.907,22.106
		c-8.414,5.434-16.621,11.194-24.803,16.973c-1.044,0.737-2.031,2.532-1.936,3.75c0.781,9.992,1.868,19.959,2.751,29.943
		c0.161,1.819,1.078,2.274,2.615,2.848c5.851,2.186,11.791,4.257,17.364,7.04c10.157,5.072,18.986,12.108,27.357,19.738
		c0.829,0.756,2.476,1.509,3.346,1.188c11.549-4.265,23.037-8.697,34.5-13.191c0.787-0.308,1.253-1.436,2.226-2.616
		c-1.204-0.107-1.426-0.189-1.607-0.134c-3.196,0.969-6.385,1.965-9.581,2.936c-6.467,1.964-9.342,0.438-11.234-6.042
		c-2.984-10.218-5.925-20.449-8.887-30.674c-2.382-8.22-4.81-16.427-7.14-24.661c-1.992-7.038-0.59-10.449,5.632-14.12
		c0.808-0.477,1.615-0.984,2.479-1.335C322.31,207.804,328.482,205.337,334.844,202.779z M377.329,294.607
		c1.989,4.552,4.541,6.324,9.668,6.087c27.585-1.274,55.123,0.044,82.489,3.697c15.604,2.083,31.086,5.078,46.643,7.532
		c1.019,0.161,2.457-0.544,3.267-1.306c1.012-0.952,1.575-2.381,2.516-3.902C474.034,296.52,426.065,292.167,377.329,294.607z
		 M395.629,316.393c36.437-1.089,72.563,2.121,108.43,8.467c5.916,1.047,5.907,1.111,8.812-3.991
		c0.076-0.134-0.016-0.363-0.05-0.815c-40.949-7.837-82.275-11.404-124.9-9.904C390.736,312.811,390.998,316.531,395.629,316.393z
		 M418.115,377.116c-1.273,0.064-2.477,0.121-3.682,0.185c-16.026,0.847-32.056,1.643-48.076,2.598
		c-2.428,0.145-3.288-0.523-3.551-2.933c-0.587-5.383-1.428-10.74-2.253-16.095c-0.286-1.855,0.093-3.005,2.141-3.356
		c12.189-2.088,24.264-2.425,36.026,2.234c7.359,2.915,13.384,7.565,18,14.01c0.483,0.674,0.906,1.395,1.296,2.127
		C418.142,376.124,418.072,376.467,418.115,377.116z M412.616,374.268c-8.123-12.499-36.641-19.644-48.314-12.676
		c0.308,1.871,0.622,3.779,0.965,5.861C381.589,365.222,397.133,366.646,412.616,374.268z M409.419,332.533
		c29.086,0.085,57.959,2.677,86.66,7.316c4.805,0.777,6.078-0.082,7.246-5.058c-33.99-6.197-68.245-8.87-103.134-8.615
		C403.084,332.224,403.484,332.515,409.419,332.533z M411.862,342.747c2.158,1.986,2.076,5.957,6.049,6.043
		c23.932,0.515,47.726,2.635,71.401,6.163c0.745,0.111,1.883-0.225,2.336-0.77c1.105-1.328,1.915-2.901,3.058-4.716
		C466.909,345.021,439.556,342.654,411.862,342.747z M366.38,320.924c-0.065-0.661-1.204-1.796-1.728-1.733
		c-2.739,0.327-5.472,0.857-8.131,1.591c-0.573,0.158-1.28,1.514-1.172,2.199c1.243,7.888,2.632,15.753,4.032,23.914
		c3.079-0.467,5.929-0.9,9.162-1.39C367.824,337.053,367.176,328.981,366.38,320.924z M223.434,259.822
		c-0.859,6.545-1.448,13.094-2.229,19.619c-4.536,37.871-21.943,67.813-54.327,88.706c-21.123,13.628-44.108,23.165-67.593,31.692
		c-0.778,0.282-1.537,0.615-2.306,0.925c0.04,0.075,0.079,0.15,0.119,0.226c43.581-8.628,87.162-17.255,131.14-25.961
		C226.649,336.938,225.042,298.38,223.434,259.822z M204.298,433.66c0.466,0.062,0.933,0.186,1.398,0.177
		c16.289-0.311,32.579-0.634,48.868-0.96c0.52-0.01,1.143,0.091,1.535-0.154c0.535-0.333,0.893-0.948,1.328-1.442
		c-0.516-0.407-0.977-0.968-1.563-1.175c-0.553-0.195-1.238-0.035-1.863-0.001c-15.85,0.86-31.7,1.72-47.549,2.603
		c-0.74,0.041-1.468,0.295-2.201,0.45C204.265,433.325,204.281,433.493,204.298,433.66z M204.487,418.085
		c0.788,0,1.579,0.053,2.362-0.008c16.019-1.246,32.04-2.481,48.051-3.826c0.848-0.071,1.617-1.086,2.423-1.661
		c-0.958-0.341-1.956-1.065-2.867-0.967c-15.867,1.708-31.724,3.513-47.58,5.314c-0.837,0.095-1.655,0.35-2.482,0.53
		C204.425,417.673,204.456,417.879,204.487,418.085z M204.476,410.124c0.183,0.084,0.375,0.258,0.547,0.239
		c16.712-1.786,33.424-3.568,50.125-5.447c0.761-0.086,1.422-1.056,2.129-1.615c-0.854-0.33-1.759-1.04-2.554-0.934
		c-11.586,1.549-23.157,3.202-34.731,4.841c-5.202,0.737-10.4,1.498-15.601,2.249C204.42,409.68,204.448,409.902,204.476,410.124z
		 M204.404,425.799c0.453,0.078,0.91,0.244,1.359,0.223c16.366-0.789,32.733-1.571,49.094-2.463
		c0.871-0.048,1.691-1.037,2.535-1.589c-0.933-0.397-1.893-1.19-2.794-1.127c-6.767,0.474-13.52,1.13-20.28,1.704
		c-9.957,0.845-19.916,1.669-29.875,2.502C204.429,425.299,204.417,425.549,204.404,425.799z"/>
</g>
</svg>