<!-- Generator: Adobe Illustrator 19.0.0, SVG Export Plug-In  -->
<svg version="1.1"
	 xmlns="http://www.w3.org/2000/svg" xmlns:xlink="http://www.w3.org/1999/xlink" xmlns:a="http://ns.adobe.com/AdobeSVGViewerExtensions/3.0/"
	 x="0px" y="0px" width="728.221px" height="238.725px" viewBox="0 0 728.221 238.725"
	 style="enable-background:new 0 0 728.221 238.725;" xml:space="preserve">
<style type="text/css">
	.st0{fill:#A9D42D;}
	.st1{fill:#3A8244;}
</style>
<defs>
</defs>
<g id="XMLID_21_">
	<g id="XMLID_88_">
		<path id="XMLID_138_" class="st0" d="M481.136,110.273c-1.223,3.004-3.545,4.963-5.792,6.857
			c-1.413,1.191-2.747,2.317-3.704,3.625l-0.69,0.943l-1.138-0.267c-0.722-0.169-1.528-0.248-2.535-0.248
			c-0.614,0-1.232,0.027-1.885,0.056c-0.667,0.03-1.356,0.06-2.056,0.06c-1.016,0-1.896-0.066-2.716-0.207
			c-0.716,0.553-1.257,1.569-1.3,2.524c-0.048,1.061,0.54,1.399,0.734,1.51l0.206,0.119l0.167,0.169
			c0.431,0.435,0.911,0.864,1.419,1.318c1.972,1.762,4.208,3.759,4.383,6.977l0.008,0.152l-0.018,0.151
			c-0.47,3.978-2.912,8.287-7.309,8.946l-0.248,0.037l-0.248-0.033c-0.953-0.128-1.853-0.44-2.723-0.741
			c-0.908-0.315-1.765-0.612-2.452-0.612c-0.369,0-0.644,0.084-0.917,0.281c-0.989,0.711-2.037,0.964-2.961,1.188
			c-0.729,0.176-1.358,0.328-1.743,0.665l-0.151,0.132l-0.176,0.095c-0.917,0.494-1.641,1.446-2.407,2.454
			c-1.262,1.662-2.834,3.731-5.786,4.033l-0.41,0.042l-0.386-0.143c-3.83-1.425-9.51-3.319-14.597-3.319
			c-0.818,0-1.606,0.049-2.351,0.146c-0.165,0.189-0.335,0.366-0.495,0.532c-0.177,0.184-0.432,0.449-0.54,0.603l-0.163,1.834
			l-15.463-3.253l-0.375-0.557c-0.122-0.119-0.489-0.355-0.711-0.498c-0.194-0.125-0.39-0.251-0.579-0.385
			c-0.086,0.003-0.174,0.004-0.264,0.004c-1.825,0-5.178-0.655-6.411-2.413c-0.165-0.235-0.29-0.486-0.374-0.746
			c-0.571-0.215-1.256-0.308-2.18-0.308c-0.441,0-0.893,0.02-1.371,0.04c-0.497,0.022-1.012,0.044-1.535,0.044
			c-1.209,0-2.169-0.123-3.056-0.396c-3.33,0.059-4.74-2.562-5.771-4.477c-0.138-0.257-0.274-0.509-0.41-0.75
			c-0.839,0.733-1.8,1.508-3.126,1.854l-0.307,0.08l-0.316-0.032c-1.439-0.145-2.544-0.823-3.455-1.618
			c-1.477,1.681-3.733,2.871-6.74,3.548l-0.459,0.104l-0.45-0.139c-3.174-0.98-4.505-3.973-5.477-6.159l-0.204-0.458
			c-0.17-0.412-0.773-0.531-2.149-0.655c-0.462-0.042-0.94-0.085-1.41-0.173l-0.657-0.122l-0.412-0.526
			c-0.727-0.93-1.294-1.922-1.841-2.881c-0.956-1.674-1.781-3.12-3.242-3.975l-0.255-0.149l-0.192-0.224
			c-3.459-4.024-4.591-10.895-0.6-15.578c1.863-4.178,5.679-6.825,8.412-8.463l0.201-0.12l0.225-0.064
			c0.909-0.258,1.809-0.325,2.68-0.39c0.686-0.051,1.257-0.1,1.728-0.205c-2.379-3.385-2.337-7.428-2.299-11.058
			c0.018-1.747,0.036-3.397-0.185-4.944l-0.089-0.625l0.326-0.54c0.911-1.507,0.597-3.187,0.328-4.054l-0.255-0.823l0.491-0.708
			c0.908-1.307,1.639-2.447,2.301-3.588l0.488-0.841l0.971-0.038c0.612-0.024,0.865-0.034,0.789-2.633
			c-0.014-0.491-0.029-0.999-0.004-1.477l0.011-0.205l0.057-0.197c0.698-2.389,2.115-4.262,3.484-6.072
			c0.827-1.093,1.608-2.126,2.192-3.219c1.244-2.304,3.824-7.081,8.775-7.084c0.508-0.119,1.036-0.229,1.55-0.336
			c2.833-0.588,5.762-1.197,6.679-3.478c0.021-0.051,0.034-0.09,0.042-0.119c-0.176-0.202-0.724-0.543-1.062-0.753
			c-1.107-0.689-2.613-1.625-2.969-3.46c-1.938-6.119-1.087-13.439,2.284-19.611l0.125-0.23l0.267-0.263
			c2.331-2.291,5.232-5.143,9.25-5.15c1.504-0.002,3.02-0.319,4.625-0.653c1.695-0.353,3.447-0.718,5.277-0.718
			c0.953,0,1.836,0.097,2.699,0.297c1.191,0.201,2.429,0.299,3.739,0.403c2.264,0.18,4.606,0.366,6.859,1.114l0.303,0.101
			l0.249,0.201c1.366,1.1,2.484,2.414,3.566,3.684c0.79,0.928,1.551,1.821,2.375,2.601c1.456-1.476,3.234-2.562,4.859-3.454
			l0.509-0.279l0.576,0.077c2.335,0.313,4.616,1.792,5.953,3.859l0.3,0.464l-0.018,0.552c-0.041,1.262-0.396,2.42-0.708,3.442
			c-0.01,0.031-0.019,0.062-0.028,0.093c0.848,0.314,1.837,0.483,2.866,0.659c2.227,0.38,4.74,0.809,6.64,2.854
			c2.599,1.581,3.552,4.112,4.397,6.353c0.632,1.676,1.229,3.26,2.442,4.303l0.155,0.15c1.595,1.752,2.213,3.892,2.757,5.78
			c0.318,1.102,0.622,2.156,1.087,3.069c0.793,0.056,1.593,0.102,2.37,0.102c1.941,0,3.384-0.292,4.543-0.919l0.041-0.021
			c0.737-0.375,1.517-0.564,2.32-0.564c1.914,0,3.833,1.134,5.007,2.959l0.213,0.331l0.052,0.391
			c0.219,1.643-0.034,3.227-0.396,4.701c2.821,0.238,5.087,1.958,7.007,3.577l0.219,0.185l0.149,0.245
			c1.224,2.004,0.596,4.007,0.137,5.47c-0.27,0.861-0.526,1.675-0.406,2.321l0.025,0.198c0.114,1.609,0.324,4.595-1.97,6.44
			c-1.394,1.247-1.868,3.218-2.369,5.304c-0.077,0.322-0.156,0.648-0.238,0.975c1.688,0.574,3.717,1.598,3.992,4.054l0.015,0.136
			l-0.006,0.137c-0.07,1.606-0.68,3.07-1.27,4.487c-0.911,2.186-1.397,3.517-0.587,4.793
			C483.351,104.225,482.36,108.254,481.136,110.273z M336.52,117.193c-0.677-1.1-0.26-2.234,0.517-4.091
			c0.501-1.199,1.02-2.438,1.084-3.797l0.005-0.117l-0.013-0.117c-0.23-2.112-1.974-2.981-3.408-3.467
			c0.073-0.284,0.142-0.567,0.211-0.847c0.431-1.763,0.839-3.429,2.025-4.481c1.952-1.609,1.776-4.118,1.681-5.468l-0.022-0.172
			c-0.102-0.544,0.114-1.235,0.344-1.968c0.39-1.246,0.924-2.952-0.121-4.651l-0.125-0.202l-0.181-0.154
			c-1.636-1.393-3.566-2.873-5.96-3.076c0.304-1.254,0.518-2.601,0.335-3.999l-0.046-0.349l-0.196-0.292
			c-1.04-1.552-2.63-2.479-4.252-2.479c-0.686,0-1.353,0.164-1.983,0.487l-0.035,0.019c-0.987,0.54-2.207,0.792-3.842,0.792
			c-0.659,0-1.338-0.039-2.011-0.088c-0.402-0.784-0.665-1.689-0.94-2.636c-0.467-1.607-0.996-3.429-2.347-4.92l-0.139-0.135
			c-1.02-0.868-1.523-2.205-2.056-3.621c-0.719-1.909-1.53-4.065-3.754-5.407c-1.609-1.732-3.731-2.097-5.611-2.421
			c-0.881-0.152-1.728-0.298-2.453-0.572c0.011-0.035,0.022-0.07,0.033-0.105c0.264-0.847,0.564-1.807,0.599-2.866l0.015-0.463
			l-0.248-0.391c-1.142-1.802-3.035-3.041-5.062-3.316l-0.481-0.065l-0.428,0.229c-1.302,0.696-2.863,1.627-4.155,2.942
			c-0.7-0.665-1.346-1.422-2.016-2.208c-0.918-1.077-1.868-2.19-3.028-3.132l-0.213-0.173l-0.261-0.087
			c-1.876-0.623-3.821-0.78-5.702-0.933c-1.158-0.094-2.252-0.182-3.301-0.373c-0.728-0.169-1.472-0.251-2.276-0.251
			c-1.566,0-3.064,0.317-4.513,0.625c-1.367,0.29-2.657,0.563-3.934,0.565c-3.39,0.008-5.816,2.38-7.766,4.286l-0.31,0.303
			l-0.108,0.196c-2.875,5.25-3.604,11.472-1.956,16.668c0.314,1.566,1.596,2.359,2.539,2.941c0.288,0.178,0.753,0.466,0.9,0.635
			c-0.006,0.023-0.016,0.054-0.032,0.095c-0.781,1.948-3.264,2.46-5.666,2.954c-0.425,0.087-0.861,0.178-1.283,0.276
			c0.609-1.556,0.487-3.241,0.406-4.315l-0.023-0.181c-0.116-0.64,0.139-1.451,0.407-2.309c0.46-1.466,1.089-3.475-0.139-5.48
			l-0.151-0.246l-0.221-0.185c-1.931-1.619-4.205-3.338-7.004-3.577c0.359-1.475,0.61-3.06,0.391-4.699l-0.053-0.397l-0.219-0.335
			c-1.187-1.819-3.111-2.949-5.02-2.949c-0.797,0-1.572,0.187-2.302,0.555l-0.042,0.022c-1.169,0.629-2.613,0.922-4.544,0.922
			c-0.772,0-1.571-0.045-2.36-0.099c-0.47-0.919-0.778-1.981-1.101-3.092c-0.546-1.88-1.164-4.012-2.736-5.758l-0.079-0.088
			l-0.09-0.076c-1.222-1.038-1.818-2.619-2.449-4.292c-0.843-2.236-1.796-4.76-4.403-6.345c-1.905-2.049-4.413-2.477-6.635-2.856
			c-1.026-0.175-2.013-0.344-2.86-0.659c0.018-0.057,0.035-0.115,0.053-0.173c0.306-0.993,0.652-2.118,0.697-3.352l0.02-0.561
			l-0.307-0.47c-1.373-2.099-3.601-3.537-5.96-3.845l-0.566-0.074l-0.503,0.272c-1.625,0.878-3.406,1.955-4.873,3.451
			c-0.823-0.778-1.583-1.667-2.372-2.59c-1.085-1.27-2.207-2.584-3.579-3.683l-0.243-0.195l-0.295-0.1
			c-2.251-0.762-4.592-0.95-6.855-1.133c-1.314-0.106-2.556-0.206-3.756-0.411c-0.86-0.2-1.742-0.298-2.694-0.298
			c-1.837,0-3.597,0.369-5.298,0.726c-1.6,0.335-3.111,0.653-4.6,0.657c-3.973,0.008-6.861,2.805-9.181,5.052l-0.358,0.347
			l-0.13,0.242c-3.393,6.304-4.218,13.446-2.269,19.614c0.36,1.836,1.869,2.772,2.978,3.461c0.344,0.213,0.9,0.559,1.073,0.762
			c-0.007,0.025-0.017,0.06-0.035,0.104c-0.927,2.288-3.869,2.892-6.713,3.476c-0.512,0.105-1.039,0.213-1.546,0.331
			c-1.226,0.004-2.306,0.3-3.258,0.778c-1.708-1.179-3.621-2.135-5.795-2.317c0.423-1.735,0.726-3.603,0.47-5.537l-0.063-0.473
			l-0.262-0.398c-1.426-2.164-3.63-3.456-5.895-3.456c-0.957,0-1.885,0.23-2.758,0.684l-0.029,0.015
			c-1.361,0.734-3.062,1.076-5.353,1.076c-0.905,0-1.84-0.051-2.763-0.112c-0.55-1.085-0.911-2.331-1.288-3.633
			c-0.644-2.224-1.373-4.745-3.246-6.805l-0.088-0.097l-0.1-0.085c-1.429-1.221-2.128-3.075-2.868-5.038
			c-0.991-2.63-2.11-5.599-5.178-7.461c-2.232-2.416-5.18-2.918-7.793-3.363c-1.211-0.206-2.377-0.405-3.377-0.778
			c0.013-0.042,0.026-0.085,0.039-0.128c0.369-1.197,0.788-2.554,0.831-4.029l0.019-0.647l-0.352-0.544
			c-1.593-2.459-4.207-4.162-6.992-4.555l-0.678-0.096l-0.602,0.326c-1.8,0.974-3.952,2.268-5.724,4.069
			c-0.972-0.916-1.869-1.965-2.801-3.055c-1.279-1.495-2.601-3.042-4.223-4.345L85.62,2.249l-0.354-0.118
			c-2.608-0.869-5.327-1.085-7.957-1.293c-1.574-0.125-3.062-0.243-4.499-0.492C71.804,0.113,70.773,0,69.662,0
			c-2.164,0-4.233,0.437-6.234,0.861c-1.89,0.4-3.675,0.777-5.441,0.779c-4.701,0.008-8.095,3.322-10.822,5.985l-0.369,0.36
			l-0.15,0.274c-3.962,7.269-4.96,15.883-2.681,23.074c0.427,2.159,2.2,3.256,3.503,4.062c0.395,0.245,1.034,0.64,1.243,0.875
			c-0.008,0.03-0.021,0.07-0.042,0.12c-1.102,2.721-4.566,3.436-7.915,4.128c-0.593,0.122-1.203,0.248-1.79,0.384
			c-5.872,0.033-8.878,5.641-10.327,8.346c-0.689,1.296-1.609,2.513-2.583,3.802c-1.605,2.124-3.265,4.321-4.086,7.134l-0.067,0.23
			l-0.013,0.239c-0.031,0.57-0.014,1.175,0.003,1.761c0.089,3.058-0.187,3.066-0.925,3.089l-1.163,0.036l-0.577,1.01
			c-0.841,1.473-1.74,2.868-2.671,4.147l-0.617,0.847l0.313,0.999c0.321,1.023,0.699,2.995-0.371,4.717l-0.4,0.643l0.108,0.75
			c0.264,1.832,0.246,3.786,0.227,5.855c-0.039,4.274-0.083,9.036,2.701,13.007c-0.563,0.126-1.248,0.184-2.073,0.242
			c-1.003,0.071-2.04,0.145-3.086,0.427l-0.283,0.076l-0.251,0.151c-3.506,2.119-7.772,5.16-9.89,9.982
			c-2.082,2.461-3.114,5.719-2.911,9.219c0.192,3.323,1.513,6.638,3.624,9.096l0.226,0.263l0.299,0.176
			c1.726,1.013,2.702,2.715,3.832,4.686c0.64,1.116,1.302,2.271,2.146,3.353l0.473,0.606l0.753,0.153
			c0.579,0.117,1.167,0.173,1.735,0.228c1.666,0.159,2.294,0.304,2.501,0.804l0.239,0.539c1.142,2.578,2.705,6.109,6.438,7.22
			l0.523,0.155l0.532-0.121c3.535-0.806,6.192-2.201,7.937-4.162c1.071,0.929,2.372,1.721,4.067,1.892l0.347,0.035l0.34-0.08
			c1.585-0.375,2.725-1.303,3.719-2.182c0.159,0.281,0.318,0.576,0.479,0.877c1.211,2.252,2.881,5.358,6.796,5.253
			c1.357,0.419,2.654,0.477,3.658,0.477c0.599,0,1.189-0.024,1.759-0.048c0.55-0.023,1.068-0.044,1.576-0.044
			c1.094,0,1.905,0.108,2.58,0.358c0.099,0.309,0.248,0.608,0.444,0.888c1.436,2.049,5.333,2.813,7.452,2.813
			c0.136,0,0.268-0.003,0.397-0.008c0.228,0.165,0.464,0.32,0.697,0.472c0.243,0.159,0.64,0.419,0.787,0.554l0.426,0.671
			l18.286,3.867l0.159-2.181c0.13-0.182,0.425-0.489,0.63-0.702c0.188-0.195,0.387-0.402,0.579-0.623
			c0.889-0.119,1.831-0.179,2.811-0.179c5.957,0,12.633,2.23,17.136,3.907l0.452,0.168l0.48-0.048
			c3.459-0.347,5.305-2.786,6.788-4.746c0.905-1.195,1.759-2.325,2.84-2.899l0.198-0.105l0.171-0.145
			c0.456-0.386,1.199-0.567,2.059-0.777c1.083-0.264,2.31-0.563,3.474-1.387c0.334-0.24,0.667-0.342,1.112-0.342
			c0.814,0,1.823,0.352,2.892,0.725c1.01,0.352,2.053,0.716,3.158,0.869l0.309,0.043l0.308-0.049
			c4.841-0.781,7.42-5.046,8.331-8.994c0.749,0.787,1.679,1.438,2.868,1.804l0.448,0.138l0.458-0.102
			c3.016-0.676,5.276-1.863,6.751-3.542c0.913,0.796,2.021,1.474,3.459,1.618l0.318,0.032l0.308-0.081
			c1.331-0.351,2.287-1.126,3.121-1.856c0.138,0.244,0.277,0.5,0.417,0.762c1.03,1.912,2.458,4.547,5.752,4.457
			c1.155,0.357,2.256,0.406,3.108,0.406c0.515,0,1.021-0.021,1.51-0.042c0.471-0.02,0.915-0.038,1.349-0.038
			c0.925,0,1.612,0.092,2.184,0.305c0.083,0.257,0.205,0.505,0.367,0.738c1.222,1.761,4.578,2.417,6.407,2.417
			c0.093,0,0.183-0.001,0.272-0.005c0.195,0.139,0.397,0.268,0.597,0.396c0.208,0.133,0.549,0.351,0.673,0.465l0.365,0.566
			l15.485,3.269l0.175-1.831c0.104-0.153,0.36-0.42,0.536-0.605c0.159-0.166,0.327-0.343,0.49-0.531
			c0.741-0.095,1.523-0.142,2.336-0.142c5.143,0,10.804,1.895,14.615,3.32l0.389,0.145l0.413-0.043
			c2.948-0.307,4.524-2.378,5.79-4.043c0.766-1.008,1.491-1.959,2.402-2.45l0.177-0.095l0.151-0.133
			c0.383-0.337,1.013-0.488,1.741-0.663c0.919-0.221,1.962-0.471,2.933-1.172c0.287-0.205,0.571-0.292,0.951-0.292
			c0.689,0,1.544,0.296,2.448,0.609c0.485,0.168,0.98,0.338,1.488,0.479c0.436,0.76,0.891,1.539,1.464,2.273l0.34,0.436l0.542,0.111
			c0.425,0.087,0.856,0.129,1.273,0.169c1.193,0.115,1.642,0.217,1.785,0.563l0.188,0.42c0.824,1.841,1.953,4.363,4.625,5.192
			l0.384,0.119l0.392-0.089c2.565-0.582,4.485-1.589,5.735-3.007c0.768,0.673,1.702,1.256,2.928,1.374l0.27,0.026l0.262-0.07
			c1.128-0.303,1.949-0.964,2.664-1.592c0.115,0.204,0.23,0.418,0.347,0.636c0.864,1.607,2.046,3.807,4.789,3.806
			c0.042,0,0.084-0.001,0.126-0.002c0.972,0.302,1.903,0.344,2.624,0.344c0.433,0,0.859-0.017,1.271-0.035
			c0.398-0.017,0.774-0.032,1.141-0.032c0.793,0,1.381,0.079,1.869,0.263c0.072,0.224,0.18,0.44,0.323,0.643
			c1.041,1.48,3.842,2.031,5.363,2.031c0.104,0,0.206-0.002,0.305-0.007c0.172,0.127,0.351,0.246,0.528,0.364
			c0.181,0.12,0.478,0.318,0.58,0.416l0.318,0.466l13.088,2.741l0.171-1.509c0.092-0.128,0.304-0.35,0.451-0.503
			c0.145-0.151,0.298-0.311,0.446-0.483c0.637-0.083,1.311-0.125,2.01-0.125c4.374,0,9.166,1.621,12.39,2.841l0.333,0.126
			l0.355-0.037c2.504-0.263,3.84-2.034,4.914-3.456c0.652-0.864,1.267-1.68,2.045-2.102l0.135-0.074l0.118-0.099
			c0.329-0.279,0.861-0.409,1.476-0.559c0.793-0.194,1.693-0.414,2.517-1.016c0.236-0.167,0.481-0.241,0.796-0.241
			c0.594,0,1.331,0.257,2.112,0.53c0.731,0.255,1.487,0.519,2.286,0.633l0.223,0.032l0.223-0.035c3.733-0.59,5.804-4.258,6.2-7.63
			l0.015-0.124l-0.006-0.125c-0.132-2.693-2.004-4.383-3.655-5.873c-0.45-0.407-0.875-0.79-1.252-1.18l-0.149-0.154l-0.186-0.106
			c-0.167-0.095-0.673-0.385-0.63-1.294c0.039-0.803,0.496-1.653,1.098-2.107c0.686,0.113,1.421,0.166,2.267,0.166
			c0.604,0,1.199-0.026,1.775-0.052c0.564-0.025,1.097-0.049,1.628-0.049c0.851,0,1.534,0.065,2.15,0.204l0.956,0.216l0.582-0.789
			c0.813-1.101,1.945-2.054,3.144-3.064c1.916-1.613,3.895-3.279,4.934-5.82C340.679,125.159,341.53,121.713,336.52,117.193z"/>
		<path id="XMLID_89_" class="st1" d="M728.221,238.725H62.31c-1.1,0-2.031-0.712-2.364-1.7c-0.171-0.047-0.314-0.098-0.417-0.153
			c0.091-0.195,0.188-0.388,0.288-0.58c-0.001-0.021-0.003-0.042-0.003-0.063c0-0.979,0.566-1.825,1.387-2.233
			c1.302-1.973,2.827-4.028,3.999-6.703c4.412-10.183,2.226-23.143,2.34-28.282c-0.019-10.391,1.817-46.425,0.551-48.328
			c0.183-3.022,0.497-4.956,0.116-7.985c-1.603-0.958-1.341-2.872-1.077-4.421c-2.412-2.67-2.579-5.504-4.232-8.766
			c-2.154-4.137-5.57-7.645-6.899-12.179c-1.622-2.035-3.495-4.862-1.559-7.28c2.868,2.393,4.137,5.705,5.031,9.144
			c4.875,5.819,9.025,12.444,11.982,19.453c1.212,2.614,4.342,3.571,5.686,6.115c2.072-0.416,2.33-2.935,3.87-4.169
			c6.71-5.674,12.047-12.759,16.493-20.309c6.385-6.442,9.9-16.065,19.179-19.314c0.06,1.612-3.136,6.807-3.136,6.807
			c-3.048,2.677-4.052,6.852-7.192,9.365c-3.388,2.752-5.174,7.154-8.915,9.446c-1.521,3.917-6.108,5.592-7.638,9.497
			c-4.191,3.709-3.117,4.609-5.435,9.862c-0.01,1.562-1.171,6.342-1.174,7.929c-1.868,5.384-0.431,11.543-0.718,17.173
			c1.093,7.267,2.17,20.202,3.159,33.137c0.814,11.049-1.341,23.352,0.911,29.547h641.677V238.725z M401.325,127.307
			c1.426,2.784,1.549,5.189,3.608,7.444c-0.23,1.354-0.44,2.935,0.914,3.747c0.327,2.594,0.056,4.245-0.088,6.82
			c1.045,1.612-0.545,5.454-0.52,14.283c-0.123,4.377,1.31,9.414-2.037,13.747c-1.499,1.933-3.634,1.492-4.837,4.018
			c2.169,1.172,22.646,0.013,23.66-1.215c-3.004-4.572-2.834-9.188-3.558-15.228c-0.403-3.337,0.422-2.437-0.517-8.59
			c0.099-2.136-0.078-2.33-0.168-2.281c0.088-0.159,0.313-0.657,0.792-2.039c0.015-1.323,0.998-5.391,1.007-6.713
			c1.981-4.472,1.049-5.227,4.6-8.414c1.319-3.313,5.211-4.755,6.518-8.049c3.173-1.939,4.707-5.705,7.573-8.016
			c2.661-2.185,3.514-5.699,6.118-7.967c0,0,2.699-4.446,2.645-5.819c-7.869,2.771-10.863,10.964-16.289,16.436
			c-3.791,6.398-8.313,12.431-14.016,17.255c-1.313,1.058-1.539,3.193-3.312,3.552c-1.124-2.167-3.794-2.985-4.828-5.183
			c-2.506-5.958-6.042-11.581-10.18-16.556c-0.74-2.923-1.829-5.75-4.285-7.759c-1.628,2.028-0.035,4.446,1.325,6.184
			C396.611,120.808,399.496,123.793,401.325,127.307z M271.795,141.351c1.221,2.336,1.322,4.433,3.066,6.329
			c-0.186,1.14-0.378,2.5,0.784,3.199c0.261,2.198,0.038,3.577-0.075,5.788c0.898,1.335-0.482-1.443-0.475,6.071
			c-0.079,3.691,0.888,8.678-1.71,13.237c-1.228,2.147-3.082,2.67-4.093,4.849c1.823,0.982,19.236-0.013,20.111-1.045
			c-2.572-3.892-2.944-7.973-3.366-13.282c-0.138-1.738,0.677,0.844-0.104-4.402c0.052-1.114,0.015-1.564-0.04-1.71
			c0.108-0.215,0.283-0.641,0.56-1.438c0.022-1.134,0.856-4.566,0.869-5.718c1.669-3.779,0.894-4.433,3.92-7.104
			c1.105-2.821,4.43-4.068,5.523-6.883c2.699-1.643,3.987-4.849,6.452-6.82c2.264-1.82,2.972-4.849,5.18-6.751
			c0,0,2.299-3.765,2.277-4.937c-6.707,2.356-9.251,9.32-13.874,13.962c-3.215,5.434-7.056,10.586-11.921,14.667
			c-1.105,0.882-1.298,2.733-2.781,3.004c-0.967-1.82-3.234-2.525-4.103-4.39c-2.144-5.076-5.142-9.849-8.675-14.075
			c-0.637-2.487-1.559-4.868-3.64-6.594c-1.379,1.739-0.028,3.791,1.146,5.252C267.777,135.847,270.255,138.353,271.795,141.351z
			 M176.371,127.798c1.426,2.784,1.571,5.202,3.609,7.444c-0.23,1.354-0.451,2.935,0.929,3.753c0.302,2.582,0.05,4.226-0.11,6.801
			c1.058,1.619-0.557,2.381-0.535,11.216c-0.082,4.364,1.187,11.001-2.018,16.814c-1.445,2.651-3.624,3.558-4.808,6.115
			c2.154,1.133,22.637-0.025,23.66-1.254c-3.03-4.572-2.771-10.435-3.59-17.274c-0.246-2.141,0.431,0.674-0.485-5.517
			c0.227-4.811-0.992-2.808,0.605-7.393c0.003-1.329,0.982-5.398,1.001-6.72c1.984-4.465,1.055-5.221,4.626-8.407
			c1.282-3.313,5.196-4.761,6.505-8.055c3.177-1.933,4.689-5.686,7.573-8.016c2.67-2.173,3.505-5.699,6.109-7.967
			c0,0,2.711-4.433,2.657-5.813c-7.884,2.771-10.86,10.964-16.304,16.424c-3.788,6.411-8.31,12.438-14.034,17.262
			c-1.3,1.052-1.495,3.206-3.268,3.558c-1.137-2.166-3.826-2.985-4.833-5.189c-2.5-5.951-6.042-11.562-10.202-16.551
			c-0.743-2.934-1.823-5.743-4.257-7.758c-1.647,2.015-0.057,4.446,1.326,6.184C171.654,121.299,174.557,124.272,176.371,127.798z"
			/>
	</g>
	<g id="XMLID_22_">
		<path id="XMLID_85_" class="st1" d="M117.833,213.878c-0.523,1.077-1.277,2.692-2.269,4.846c-0.938,2.123-1.408,3.892-1.408,5.323
			c0,0.308,0.023,0.585,0.062,0.846c-2.1,0.692-3.808,1.046-5.123,1.046c-1.423,0-2.139-0.523-2.139-1.554
			c0-0.646,0.262-1.431,0.777-2.339c2.654-4.831,6.685-12.154,12.085-22.001c1.023-1.8,2.808-5.062,5.339-9.785l3.377-0.892
			c1.285-0.338,2.431-0.508,3.439-0.508c1.769,0,2.654,1.308,2.654,3.892c0,0.8-0.015,2.015-0.062,3.631
			c-0.046,1.6-0.062,2.815-0.062,3.616v11.8c0,5.831,0.908,9.954,2.723,12.37c-2.154,1.185-4.123,1.769-5.923,1.769
			c-2.469,0-3.792-2.4-3.977-7.2l-0.2-4.862H117.833z M119.541,209.985h7.654v-3.092v-2.354c0-0.892,0.031-2.292,0.108-4.2
			c0.054-1.523,0.085-2.692,0.085-3.539v-0.677v-2.139C124.818,198.754,122.203,204.093,119.541,209.985z"/>
		<path id="XMLID_83_" class="st1" d="M143.988,191.292c2.162-1.246,4.339-1.862,6.531-1.862c1.815,0,2.723,0.646,2.723,1.923
			c0,0.062-0.392,2-1.169,5.785l-3.092,15.016c-0.531,2.6-0.8,4.523-0.8,5.785c0,2.385,0.931,3.569,2.792,3.569
			c1.946,0,4.031-1.477,6.246-4.4l3.762-18.416c0.546-2.677,0.823-4.862,0.823-6.569c0-0.431-0.054-1-0.154-1.692
			c1.7-0.662,3.369-1,4.992-1c2.292,0,3.439,0.754,3.439,2.277c0,0.8-0.177,1.846-0.538,3.123
			c-2.939,10.431-4.408,17.954-4.408,22.57c0,1.939,0.654,3.662,1.962,5.154c-2.762,2.262-5.108,3.385-7.023,3.385
			c-1.9,0-3.008-1.308-3.308-3.908c-2.308,2.985-5.123,4.477-8.454,4.477c-5.054,0-7.585-2.8-7.585-8.4
			c0-2.708,0.677-6.723,2.039-12.047c1.362-5.323,2.046-9.339,2.046-12.062C144.811,192.985,144.534,192.092,143.988,191.292z"/>
		<path id="XMLID_81_" class="st1" d="M180.066,212.647c-4.192,4.539-6.285,8.554-6.285,12.047c0,0.246,0.015,0.462,0.062,0.662
			c-1.108,0.385-2.2,0.585-3.262,0.585c-2.223,0-3.331-0.631-3.331-1.908c0-1.415,1.477-4.062,4.431-7.939
			c2.339-3.062,4.439-5.508,6.316-7.369c-2.154-5.308-3.223-9.57-3.223-12.785c0-3.323,2.523-5.554,7.57-6.677v1.015v0.354
			c0,3.154,0.892,7.493,2.677,12.985c4.946-5.877,7.416-9.754,7.416-11.616c0-0.462-0.138-0.985-0.408-1.554
			c1.469-0.662,2.877-0.985,4.239-0.985c2,0,3,0.677,3,2.031c0,3.231-4.185,8.554-12.562,16.001
			c3.508,8.108,6.562,12.554,9.17,13.354c-2.008,3.4-4.131,5.092-6.377,5.092C186.428,225.94,183.282,221.509,180.066,212.647z"/>
		<path id="XMLID_79_" class="st1" d="M208.313,194.216c-1.339,0.062-2.615,0.323-3.831,0.769l-0.023-0.938
			c-0.069-2.877,1.7-4.323,5.3-4.323h4.954c0.008,0,1.062-0.046,3.154-0.169c0.923-0.046,1.815-0.215,2.677-0.492l0.023,0.569
			c0.115,2.877-1.492,4.4-4.823,4.554l-5.485,26.924c1.469,0,2.746-0.215,3.823-0.615c0.046,0.508,0.062,0.877,0.062,1.108
			c0,2.631-1.377,3.954-4.146,3.985l-6.354,0.062c-2.277,0.031-4.185,0.2-5.708,0.523c0-3.354,1.615-5.031,4.862-5.031
			L208.313,194.216z"/>
		<path id="XMLID_77_" class="st1" d="M228.283,219.878c2.062,0.338,3.746,0.508,5.062,0.508c3.169,0,6.169-0.569,8.993-1.708v0.154
			c0,3.062-1.3,5.092-3.892,6.123c-1.6,0.631-4.285,0.938-8.062,0.938c-0.608,0-1.508-0.031-2.7-0.108
			c-1.2-0.077-2.1-0.123-2.708-0.123c-0.269,0-0.685,0.062-1.231,0.185c-0.546,0.123-0.962,0.185-1.231,0.185
			c-1.946,0-2.923-0.646-2.923-1.939c0-0.985,0.223-2.262,0.654-3.831c3.485-12.631,5.231-21.385,5.231-26.278
			c0-1-0.277-1.892-0.823-2.692c2.162-1.246,4.346-1.862,6.554-1.862c1.8,0,2.7,0.646,2.7,1.923c0,0.046-0.392,1.985-1.169,5.785
			l-3.631,17.754C228.691,216.909,228.414,218.57,228.283,219.878z"/>
		<path id="XMLID_75_" class="st1" d="M254.53,194.216c-1.339,0.062-2.615,0.323-3.831,0.769l-0.023-0.938
			c-0.069-2.877,1.7-4.323,5.3-4.323h4.954c0.008,0,1.062-0.046,3.154-0.169c0.923-0.046,1.815-0.215,2.677-0.492l0.023,0.569
			c0.115,2.877-1.492,4.4-4.823,4.554l-5.485,26.924c1.469,0,2.746-0.215,3.823-0.615c0.046,0.508,0.062,0.877,0.062,1.108
			c0,2.631-1.377,3.954-4.146,3.985l-6.354,0.062c-2.277,0.031-4.185,0.2-5.708,0.523c0-3.354,1.615-5.031,4.862-5.031
			L254.53,194.216z"/>
		<path id="XMLID_72_" class="st1" d="M272.977,213.878c-0.523,1.077-1.277,2.692-2.269,4.846c-0.939,2.123-1.408,3.892-1.408,5.323
			c0,0.308,0.023,0.585,0.062,0.846c-2.1,0.692-3.808,1.046-5.123,1.046c-1.423,0-2.139-0.523-2.139-1.554
			c0-0.646,0.262-1.431,0.777-2.339c2.654-4.831,6.685-12.154,12.085-22.001c1.023-1.8,2.808-5.062,5.339-9.785l3.377-0.892
			c1.285-0.338,2.431-0.508,3.439-0.508c1.769,0,2.654,1.308,2.654,3.892c0,0.8-0.015,2.015-0.062,3.631
			c-0.046,1.6-0.062,2.815-0.062,3.616v11.8c0,5.831,0.908,9.954,2.723,12.37c-2.154,1.185-4.123,1.769-5.923,1.769
			c-2.469,0-3.792-2.4-3.977-7.2l-0.2-4.862H272.977z M274.685,209.985h7.654v-3.092v-2.354c0-0.892,0.031-2.292,0.108-4.2
			c0.054-1.523,0.085-2.692,0.085-3.539v-0.677v-2.139C279.962,198.754,277.347,204.093,274.685,209.985z"/>
		<path id="XMLID_69_" class="st1" d="M314.248,207.508l2.2,6.4c1.5,4.354,3.969,7.046,7.393,8.031
			c-1.354,2.846-3.423,4.277-6.2,4.277c-2.623,0-4.831-2.2-6.616-6.616c-0.523-1.277-1.454-4.554-2.815-9.8
			c-0.615,0.123-1.562,0.292-2.831,0.508l-1.292,6.108c-0.492,2.292-0.738,4.369-0.738,6.216c0,0.646,0.154,1.292,0.454,1.939
			c-2.131,0.923-3.992,1.369-5.577,1.369c-1.877,0-2.808-0.662-2.808-2c0-0.892,0.192-2.062,0.585-3.508
			c3.416-12.739,5.123-21.462,5.123-26.155c0-0.862-0.215-1.677-0.631-2.446c3.862-1.969,8.57-2.969,14.116-2.969
			c6.746,0,10.123,2.169,10.123,6.508C324.733,200.124,321.233,204.17,314.248,207.508z M306.201,206.262
			c7.139-0.846,10.7-4.046,10.7-9.6c0-2.708-1.469-4.077-4.408-4.077c-0.977,0-2.177,0.185-3.592,0.554L306.201,206.262z"/>
		<path id="XMLID_67_" class="st1" d="M347.103,191.923c2.669-1.492,5.969-2.231,9.908-2.231c0.5,0,1.254,0,2.269,0
			c1.008,0,1.762,0,2.269,0c2.577,0,5.262-0.262,8.039-0.769c-0.808,3.646-2.931,5.462-6.377,5.462
			c-0.792,0-2.046-0.046-3.762-0.108c-1.385-0.031-2.469-0.046-3.262-0.046h-0.5l-2.162,10.539h1.839c2.9,0,5.654-0.4,8.277-1.2
			c-0.331,3.892-2.846,5.831-7.546,5.831c-0.385,0-0.969,0-1.746,0s-1.362,0-1.754,0c-0.962,4.723-1.623,8.293-1.969,10.708
			c1.792,0.338,3.446,0.508,4.977,0.508c3.123,0,6.016-0.462,8.67-1.415v0.446c0,4.154-3.846,6.231-11.547,6.231
			c-0.608,0-1.5-0.031-2.692-0.108c-1.185-0.077-2.085-0.123-2.692-0.123c-0.269,0-0.685,0.062-1.238,0.185
			c-0.554,0.108-0.969,0.169-1.246,0.169c-1.931,0-2.9-0.646-2.9-1.954c0-1.015,0.215-2.292,0.631-3.831l1.038-3.785
			c2.754-10.047,4.131-17.401,4.131-22.078C347.757,193.539,347.541,192.723,347.103,191.923z"/>
		<path id="XMLID_65_" class="st1" d="M391.666,217.109c0.308,1.123,0.454,1.831,0.454,2.123c0,2-1.923,3.785-5.769,5.339
			c-3.215,1.308-6.046,1.954-8.5,1.954c-6.554,0-9.831-3.585-9.831-10.739c0-4.016,0.8-8.031,2.415-12.062
			c1.746-4.339,4.108-7.816,7.093-10.416c3.385-2.969,7.216-4.446,11.485-4.446c5.269,0,7.908,1.277,7.908,3.831
			c0,1.431-1.346,3.215-4.039,5.323c-1.2-3.677-3.192-5.508-5.969-5.508c-3.477,0-6.169,2.8-8.085,8.416
			c-1.415,4.123-2.123,8.323-2.123,12.585c0,5.246,1.746,7.862,5.231,7.862C384.666,221.37,387.904,219.955,391.666,217.109z"/>
		<path id="XMLID_62_" class="st1" d="M404.89,226.509c-5.685,0-8.531-3.662-8.531-11c0-3.539,0.831-7.339,2.508-11.385
			c1.769-4.339,4.077-7.862,6.916-10.585c3.262-3.123,6.769-4.677,10.554-4.677c6,0,9.016,3.662,9.016,10.97
			c0,3.677-0.862,7.539-2.523,11.585c-1.785,4.323-4.154,7.831-7.046,10.508C412.428,224.986,408.828,226.509,404.89,226.509z
			 M407.874,222.57c2.831,0,5.169-3.354,7.016-10.047c1.415-5.123,2.123-9.646,2.123-13.554c0-4.108-1.046-6.169-3.2-6.169
			c-2.8,0-5.139,3.354-6.985,10.062c-1.446,5.139-2.154,9.646-2.154,13.554C404.674,220.524,405.751,222.57,407.874,222.57z"/>
		<path id="XMLID_54_" class="st1" d="M433.46,224.463c-2.169,0.985-3.985,1.477-5.477,1.477c-2.046,0-3.062-0.908-3.062-2.708
			c0-0.815,1.046-5.154,3.139-13.016l2.692-10.154c0.862-3.2,1.277-5.108,1.277-5.723c0-0.677-0.292-1.354-0.908-2.015
			c2.539-1.923,4.739-2.892,6.616-2.892c1.615,0,2.923,2.215,3.923,6.646c2.215,9.893,4.323,17.278,6.308,22.17l2.569-11.539
			c1.139-5.339,1.708-9.323,1.708-11.954c0-1.308-0.385-2.569-1.139-3.785c1.862-1.015,3.585-1.539,5.185-1.539
			c2.139,0,3.215,0.831,3.215,2.462c0,1.092-0.246,2.523-0.754,4.262l-1.246,4.308c-0.431,1.415-1.631,6-3.616,13.754
			c-0.077,0.292-0.415,1.585-1.015,3.877c-0.415,1.585-0.631,2.908-0.631,3.954c0,0.354,0.092,0.846,0.262,1.492
			c-2.323,1.6-4.292,2.4-5.923,2.4c-1.646,0-3.339-1.908-5.077-5.723c-1.277-2.754-2.569-6.523-3.877-11.277
			c-0.692-2.615-1.369-5.246-2.046-7.893c-2.523,10.231-3.785,16.478-3.785,18.755C431.798,221.601,432.352,223.17,433.46,224.463z"
			/>
		<path id="XMLID_51_" class="st1" d="M466.122,213.878c-0.523,1.077-1.277,2.692-2.277,4.846c-0.939,2.123-1.4,3.892-1.4,5.323
			c0,0.308,0.015,0.585,0.062,0.846c-2.108,0.692-3.816,1.046-5.123,1.046c-1.431,0-2.139-0.523-2.139-1.554
			c0-0.646,0.262-1.431,0.785-2.339c2.646-4.831,6.677-12.154,12.077-22.001c1.031-1.8,2.8-5.062,5.339-9.785l3.369-0.892
			c1.292-0.338,2.431-0.508,3.446-0.508c1.769,0,2.662,1.308,2.662,3.892c0,0.8-0.031,2.015-0.062,3.631
			c-0.046,1.6-0.077,2.815-0.077,3.616v11.8c0,5.831,0.908,9.954,2.723,12.37c-2.139,1.185-4.123,1.769-5.923,1.769
			c-2.462,0-3.785-2.4-3.969-7.2l-0.2-4.862H466.122z M467.83,209.985h7.646v-3.092v-2.354c0-0.892,0.046-2.292,0.108-4.2
			c0.062-1.523,0.092-2.692,0.092-3.539v-0.677v-2.139C473.107,198.754,470.492,204.093,467.83,209.985z"/>
		<path id="XMLID_49_" class="st1" d="M497.785,194.816h-0.831c-2.046,0-4.092,0.585-6.154,1.723
			c-0.231-0.908-0.354-1.662-0.354-2.246c0-3.185,1.539-4.769,4.616-4.769c0.615,0,1.523,0.031,2.739,0.108
			c1.215,0.062,2.123,0.092,2.739,0.092h7c2.492,0,4.939-0.338,7.354-1.046l0.015,0.708c0,0.015,0,0.077,0,0.2
			c0,1.339-0.431,2.569-1.292,3.677c-0.954,1.215-2.092,1.815-3.446,1.815c-0.492,0-1.308-0.046-2.462-0.154
			c-0.815-0.062-1.492-0.108-2.015-0.108h-0.446l-4.339,21.232c-0.585,2.831-0.862,5.016-0.862,6.569
			c0,0.646,0.138,1.292,0.446,1.954c-2.215,0.923-4.139,1.369-5.769,1.369c-2,0-3-0.662-3-2c0-0.985,0.277-2.585,0.862-4.831
			l1.277-5.016L497.785,194.816z"/>
		<path id="XMLID_40_" class="st1" d="M514.416,191.292c2.169-1.246,4.339-1.862,6.523-1.862c1.815,0,2.723,0.646,2.723,1.923
			c0,0.062-0.385,2-1.154,5.785l-3.092,15.016c-0.538,2.6-0.8,4.523-0.8,5.785c0,2.385,0.923,3.569,2.785,3.569
			c1.939,0,4.031-1.477,6.246-4.4l3.769-18.416c0.539-2.677,0.815-4.862,0.815-6.569c0-0.431-0.046-1-0.154-1.692
			c1.708-0.662,3.369-1,5-1c2.292,0,3.431,0.754,3.431,2.277c0,0.8-0.185,1.846-0.539,3.123c-2.939,10.431-4.416,17.954-4.416,22.57
			c0,1.939,0.662,3.662,1.969,5.154c-2.769,2.262-5.108,3.385-7.016,3.385s-3.016-1.308-3.308-3.908
			c-2.308,2.985-5.139,4.477-8.462,4.477c-5.062,0-7.585-2.8-7.585-8.4c0-2.708,0.677-6.723,2.046-12.047
			c1.354-5.323,2.031-9.339,2.031-12.062C515.232,192.985,514.97,192.092,514.416,191.292z"/>
		<path id="XMLID_37_" class="st1" d="M559.033,207.508l2.215,6.4c1.492,4.354,3.954,7.046,7.385,8.031
			c-1.354,2.846-3.415,4.277-6.2,4.277c-2.631,0-4.831-2.2-6.616-6.616c-0.523-1.277-1.462-4.554-2.815-9.8
			c-0.615,0.123-1.554,0.292-2.831,0.508l-1.292,6.108c-0.492,2.292-0.738,4.369-0.738,6.216c0,0.646,0.154,1.292,0.462,1.939
			c-2.139,0.923-4,1.369-5.585,1.369c-1.877,0-2.815-0.662-2.815-2c0-0.892,0.2-2.062,0.585-3.508
			c3.416-12.739,5.123-21.462,5.123-26.155c0-0.862-0.2-1.677-0.615-2.446c3.862-1.969,8.57-2.969,14.108-2.969
			c6.754,0,10.123,2.169,10.123,6.508C569.526,200.124,566.034,204.17,559.033,207.508z M551.002,206.262
			c7.123-0.846,10.693-4.046,10.693-9.6c0-2.708-1.462-4.077-4.416-4.077c-0.969,0-2.169,0.185-3.585,0.554L551.002,206.262z"/>
		<path id="XMLID_33_" class="st1" d="M579.157,213.878c-0.523,1.077-1.277,2.692-2.277,4.846c-0.938,2.123-1.4,3.892-1.4,5.323
			c0,0.308,0.015,0.585,0.062,0.846c-2.108,0.692-3.815,1.046-5.123,1.046c-1.431,0-2.139-0.523-2.139-1.554
			c0-0.646,0.262-1.431,0.785-2.339c2.646-4.831,6.677-12.154,12.077-22.001c1.031-1.8,2.8-5.062,5.339-9.785l3.369-0.892
			c1.292-0.338,2.431-0.508,3.446-0.508c1.769,0,2.662,1.308,2.662,3.892c0,0.8-0.031,2.015-0.062,3.631
			c-0.046,1.6-0.077,2.815-0.077,3.616v11.8c0,5.831,0.908,9.954,2.723,12.37c-2.139,1.185-4.123,1.769-5.923,1.769
			c-2.462,0-3.785-2.4-3.969-7.2l-0.2-4.862H579.157z M580.865,209.985h7.646v-3.092v-2.354c0-0.892,0.046-2.292,0.108-4.2
			c0.062-1.523,0.092-2.692,0.092-3.539v-0.677v-2.139C586.142,198.754,583.527,204.093,580.865,209.985z"/>
		<path id="XMLID_31_" class="st1" d="M596.542,230.001c0.462,0.123,0.892,0.185,1.292,0.185c3.446,0,5.169-1.677,5.169-5.016
			c0-1.354-0.646-2.585-1.954-3.708c1.985-1.215,3.985-1.815,6.031-1.815c2.016,0,3.031,0.985,3.031,2.954
			c0,2.539-1.262,4.892-3.8,7.093c-2.462,2.092-5,3.154-7.662,3.154c-1.492,0-2.246-0.554-2.246-1.646
			C596.404,230.971,596.45,230.571,596.542,230.001z"/>
		<path id="XMLID_29_" class="st1" d="M632.082,219.032c0.138,2.815,1.708,4.216,4.708,4.216c3.308,0,4.954-1.462,4.954-4.4
			c0-1.462-0.738-2.769-2.215-3.892c-0.169-0.138-1.539-1.123-4.108-2.985c-1.477-1.292-2.215-2.785-2.215-4.477
			c0-3,1.185-5.477,3.539-7.4c2.215-1.831,4.892-2.739,8.031-2.739c3.692,0,5.554,0.8,5.554,2.4c0,1.092-0.831,2.169-2.492,3.262
			c-1.031-1.815-2.723-2.739-5.046-2.739c-2.831,0-4.262,1.215-4.262,3.616c0,0.985,0.908,2.231,2.739,3.739
			c1.292,0.954,2.585,1.908,3.892,2.846c1.539,1.477,2.308,3.139,2.308,5c0,3.077-1.354,5.677-4.077,7.8
			c-2.554,2.031-5.446,3.031-8.662,3.031c-1.385,0-2.739-0.215-4.062-0.662c-1.785-0.6-2.677-1.446-2.677-2.539
			C627.99,221.509,629.359,220.155,632.082,219.032z"/>
		<path id="XMLID_27_" class="st1" d="M650.083,220.77c1.308-0.354,2.4-0.523,3.277-0.523c1.815,0,2.723,0.662,2.723,2.015
			c0,0.415-0.154,1.446-0.446,3.062c-1.385,0.523-2.615,0.769-3.677,0.769c-1.339,0-2-0.508-2-1.508
			c0-0.292,0.062-0.708,0.185-1.277c0.108-0.569,0.169-0.985,0.169-1.277C650.314,221.663,650.237,221.232,650.083,220.77z"/>
		<path id="XMLID_25_" class="st1" d="M666.914,221.217c1.585,0.262,2.877,0.385,3.892,0.385c2.431,0,4.739-0.431,6.908-1.308v0.108
			c0,2.354-0.985,3.923-2.985,4.708c-1.231,0.492-3.292,0.738-6.2,0.738c-0.477,0-1.169-0.031-2.077-0.092
			c-0.923-0.062-1.615-0.092-2.092-0.092c-0.2,0-0.523,0.046-0.938,0.138c-0.431,0.092-0.738,0.138-0.954,0.138
			c-1.492,0-2.246-0.492-2.246-1.492c0-0.754,0.169-1.739,0.508-2.939c2.677-9.723,4.016-16.462,4.016-20.216
			c0-0.769-0.2-1.462-0.631-2.077c1.662-0.954,3.354-1.431,5.046-1.431c1.385,0,2.077,0.492,2.077,1.477
			c0,0.046-0.308,1.523-0.892,4.446l-2.8,13.662C667.222,218.924,667.006,220.217,666.914,221.217z"/>
		<path id="XMLID_23_" class="st1" d="M679.992,220.77c1.308-0.354,2.4-0.523,3.277-0.523c1.815,0,2.723,0.662,2.723,2.015
			c0,0.415-0.154,1.446-0.446,3.062c-1.385,0.523-2.615,0.769-3.677,0.769c-1.339,0-2-0.508-2-1.508
			c0-0.292,0.062-0.708,0.185-1.277c0.108-0.569,0.169-0.985,0.169-1.277C680.222,221.663,680.145,221.232,679.992,220.77z"/>
	</g>
</g>
</svg>