<!-- Generator: Adobe Illustrator 19.0.0, SVG Export Plug-In  -->
<svg version="1.1"
	 xmlns="http://www.w3.org/2000/svg" xmlns:xlink="http://www.w3.org/1999/xlink" xmlns:a="http://ns.adobe.com/AdobeSVGViewerExtensions/3.0/"
	 x="0px" y="0px" width="636.646px" height="328.592px" viewBox="0 0 636.646 328.592"
	 style="enable-background:new 0 0 636.646 328.592;" xml:space="preserve">
<defs>
</defs>
<path id="XMLID_17_" d="M158.203,136.534c2.441,0.451,4.662,1.479,6.66,3.08c1.995,1.603,3.495,3.856,4.497,6.76
	c0.5,1.705,0.5,3.181,0,4.433c-0.502,1.253-1.277,2.178-2.328,2.778c-1.052,0.602-2.249,0.827-3.594,0.677
	c-1.348-0.15-2.667-0.826-3.962-2.028c-0.7-1.601-1.796-2.903-3.291-3.906c-1.495-1-3.289-0.95-5.382,0.15
	c-2.195,1.303-3.291,3.005-3.291,5.107c0,2.104,0.298,4.207,0.897,6.31c1.295,4.408,3.089,8.766,5.382,13.07
	c2.293,4.308,4.711,8.614,7.255,12.92c2.542,4.307,5.04,8.663,7.49,13.069c2.451,4.408,4.504,8.89,6.157,13.445
	c1.653,4.559,2.679,9.239,3.08,14.046c0.399,4.808-0.15,9.765-1.652,14.873c-1.002,3.507-2.88,6.335-5.634,8.487
	c-2.756,2.155-5.878,3.657-9.366,4.507c-3.491,0.853-7.03,1-10.619,0.451c-3.591-0.55-6.681-1.728-9.272-3.53
	c-3.69-2.604-6.059-5.709-7.105-9.314s-1.472-7.561-1.27-11.868c0.394-1.901,1.211-3.279,2.446-4.131
	c1.234-0.85,2.521-1.202,3.854-1.052c1.333,0.15,2.495,0.803,3.483,1.953c0.988,1.152,1.484,2.681,1.484,4.582
	c-0.101,2.906,0.375,5.31,1.427,7.211c1.052,1.903,2.404,3.281,4.056,4.131c1.653,0.853,3.43,1.254,5.333,1.202
	c1.901-0.05,3.704-0.601,5.408-1.652c1.702-1.052,3.104-2.528,4.207-4.432c1.101-1.901,1.652-4.256,1.652-7.061
	c-0.101-3.605-0.925-7.46-2.469-11.568c-1.544-4.105-3.439-8.36-5.683-12.769c-2.244-4.406-4.686-8.888-7.329-13.445
	c-2.643-4.557-5.084-9.139-7.328-13.746c-2.244-4.605-4.063-9.164-5.458-13.671c-1.396-4.507-1.995-8.913-1.793-13.22
	c0.099-2.803,0.845-5.281,2.242-7.437c1.395-2.153,3.165-3.93,5.31-5.333c2.143-1.401,4.486-2.378,7.028-2.93
	C153.266,136.135,155.759,136.083,158.203,136.534z M201.207,254.463c-2.204,1.652-4.859,1.977-7.962,0.977
	c-1.303-0.5-2.455-1.401-3.455-2.704c-1.003-1.301-1.878-2.779-2.629-4.432c-0.752-1.652-1.353-3.328-1.803-5.032
	c-0.451-1.702-0.826-3.204-1.127-4.507c-0.401-2.202-0.826-5.684-1.277-10.441c-0.45-4.756-0.676-9.99-0.676-15.698
	c0-5.709,0.324-11.492,0.977-17.352c0.65-5.858,1.826-10.967,3.53-15.323c1.702-4.356,4.08-7.586,7.136-9.689
	c3.054-2.104,6.985-2.303,11.793-0.601c2.202,1.502,4.005,3.605,5.408,6.31c1.401,2.704,2.479,5.76,3.229,9.163
	c0.752,3.406,1.202,7.087,1.353,11.042c0.15,3.958,0.124,7.938-0.075,11.943c-0.202,4.007-0.577,7.912-1.127,11.718
	c-0.552,3.807-1.178,7.312-1.878,10.516c-0.502,2.305-1.201,5.107-2.103,8.413c-0.901,3.305-2.129,6.335-3.681,9.089
	C205.287,250.608,203.409,252.811,201.207,254.463z M202.409,239.966c0.8-1.901,1.45-3.805,1.952-5.708
	c0.5-1.901,0.951-3.854,1.353-5.859c0.601-2.704,1.176-6.283,1.728-10.741c0.55-4.455,0.901-9.063,1.052-13.82
	c0.15-4.756-0.026-9.289-0.526-13.596c-0.502-4.306-1.502-7.711-3.004-10.216c-0.602-0.801-1.303-1.502-2.104-2.104
	c-0.803-0.601-1.678-1-2.629-1.201c-0.953-0.2-1.878-0.174-2.779,0.075c-0.901,0.251-1.704,0.878-2.403,1.878
	c-1.604,2.204-2.831,5.283-3.681,9.238c-0.853,3.958-1.453,8.164-1.803,12.619c-0.353,4.458-0.502,8.814-0.451,13.07
	c0.05,4.258,0.174,7.788,0.376,10.591c0.099,0.901,0.274,2.43,0.525,4.582c0.249,2.154,0.602,4.432,1.052,6.835
	c0.451,2.403,1,4.657,1.652,6.761c0.65,2.103,1.451,3.582,2.404,4.432c0.95,0.852,2.028,0.826,3.229-0.075
	C199.555,245.825,200.906,243.571,202.409,239.966z M232.455,251.984c-1.603,0.803-3.356,1.453-5.258,1.953
	c-0.401,0.701-0.901,1.201-1.502,1.502c-0.602,0.301-1.202,0.425-1.803,0.376c-0.602-0.052-1.179-0.326-1.728-0.826
	c-0.552-0.5-0.977-1.252-1.277-2.254c-0.101-0.5-0.202-1.025-0.301-1.577c-0.101-0.55-0.149-1.502-0.149-2.854
	c0-1.352,0.023-3.305,0.074-5.858c0.05-2.555,0.174-6.134,0.376-10.741c-1.002-0.2-1.854-0.752-2.554-1.653
	c-1.104-1.601-1.277-3.305-0.526-5.107c0.752-1.803,1.777-3.403,3.08-4.808v-46.42c0.399-2.202,1.451-3.38,3.155-3.53
	c1.701-0.15,2.952,1.028,3.755,3.53v0.451c1.401-1.401,2.854-2.503,4.357-3.306c1.502-0.8,3.004-1.15,4.507-1.052
	c1.502,0.102,2.903,0.653,4.206,1.653c1.3,1.002,2.403,2.554,3.305,4.656c1.301,2.806,2.028,5.784,2.179,8.938
	c0.15,3.155-0.102,6.31-0.751,9.465c-0.653,3.154-1.63,6.31-2.93,9.464c-1.303,3.155-2.756,6.136-4.356,8.938
	c2.103,0.702,3.779,1.904,5.032,3.605c1.251,1.704,2.104,3.657,2.554,5.859c0.451,2.204,0.575,4.507,0.376,6.91
	c-0.202,2.404-0.702,4.657-1.503,6.761c-1.002,2.403-2.079,4.633-3.229,6.685c-1.152,2.054-2.629,3.981-4.432,5.784
	C235.61,250.031,234.056,251.184,232.455,251.984z M227.723,207.292c0.05,2.654,0.075,5.084,0.075,7.286
	c0.2-0.2,0.376-0.301,0.526-0.301s0.323-0.099,0.525-0.301c1.803-1,3.479-2.979,5.033-5.934c1.551-2.953,2.803-6.183,3.755-9.689
	c0.951-3.505,1.578-6.96,1.878-10.366c0.301-3.403,0.075-6.059-0.676-7.962c-0.751-1.901-2.028-2.728-3.831-2.479
	c-1.803,0.251-4.258,2.279-7.36,6.084c0,2.204,0,4.634,0,7.286c0,2.654,0,5.385,0,8.188
	C227.648,201.909,227.672,204.64,227.723,207.292z M227.798,245.524c1.602-0.699,3.204-1.826,4.808-3.38
	c1.601-1.552,2.953-3.38,4.057-5.483c1.101-2.104,1.826-4.331,2.178-6.686c0.35-2.352,0.124-4.631-0.676-6.835
	c-0.503-1.401-1.202-2.228-2.104-2.479c-0.901-0.249-1.803-0.274-2.704-0.075c-0.803,1.002-1.652,2.129-2.554,3.38
	c-0.901,1.254-1.903,2.43-3.005,3.53V245.524z M283.53,249.881c0.301,1.202,0.275,2.254-0.075,3.155
	c-0.352,0.901-0.852,1.577-1.502,2.028c-0.652,0.45-1.427,0.601-2.328,0.45s-1.754-0.676-2.555-1.577
	c-3.004-5.608-5.985-11.042-8.938-16.3c-2.955-5.258-6.335-10.741-10.14-16.45v31.247c-0.202,0.901-0.652,1.63-1.353,2.179
	c-0.701,0.552-1.427,0.85-2.178,0.901c-0.752,0.049-1.503-0.15-2.254-0.601c-0.751-0.451-1.276-1.226-1.577-2.329
	c0.301-15.121,0.45-29.018,0.45-41.688c0-12.669,0-24.962,0-36.881c0.2-1.503,0.801-2.554,1.803-3.155c1-0.601,2.003-0.601,3.005,0
	c1.901-1.201,4.08-1.901,6.535-2.103c2.453-0.2,4.807,0.051,7.061,0.751c2.253,0.701,4.206,1.779,5.858,3.229
	c1.653,1.453,2.629,3.281,2.93,5.483c0.399,3.605,0.174,6.985-0.676,10.141c-0.853,3.154-2.104,6.136-3.756,8.938
	c-1.652,2.805-3.605,5.46-5.858,7.962c-2.254,2.505-4.483,4.908-6.686,7.211c2.903,3.808,5.308,7.338,7.211,10.591
	c1.901,3.256,4.005,6.786,6.31,10.591c1.601,2.605,3.104,5.258,4.507,7.962C280.725,244.322,282.127,247.078,283.53,249.881z
	 M265.954,195.649c2.403-3.104,4.056-6.46,4.957-10.065c0.7-2.903,0.5-5.033-0.601-6.385c-1.104-1.353-2.505-2.127-4.206-2.328
	c-1.704-0.2-3.406,0.025-5.108,0.676c-1.704,0.652-2.756,1.528-3.154,2.629v24.487C260.847,201.759,263.551,198.755,265.954,195.649
	z M289.312,197.377c0.05,5.96,0.075,11.844,0.075,17.651c0,5.81-0.025,11.643-0.075,17.502c-0.052,5.858-0.127,11.942-0.226,18.252
	c0.294,1.104,0.784,2.08,1.47,2.93c0.686,0.853,1.57,1.378,2.65,1.577c3.161,0.2,6.495,0.05,10.002-0.45
	c3.504-0.5,6.708-1.401,9.614-2.704c0.901-0.602,1.502-1.353,1.803-2.254s0.35-1.751,0.15-2.554
	c-0.202-0.801-0.652-1.477-1.353-2.028c-0.701-0.549-1.603-0.774-2.704-0.676l0.15-0.301c-2.305,1.003-4.732,1.729-7.286,2.179
	c-2.554,0.451-5.032,0.728-7.436,0.826c0.098-4.808,0.149-9.338,0.149-13.596c0-4.256-0.052-8.788-0.149-13.596
	c2.303,0.202,4.631,0.052,6.985-0.45c2.352-0.5,4.229-1.451,5.633-2.854c0.801-2.002,0.7-3.605-0.3-4.808
	c-1.003-1.201-2.204-1.551-3.605-1.051c-1.404,0-2.831,0.149-4.281,0.45c-1.453,0.301-2.93,0.451-4.432,0.451
	c-0.202-5.808-0.301-11.542-0.301-17.201c0-5.657,0-11.241,0-16.751c2.303-0.5,4.48-0.624,6.535-0.375
	c2.051,0.251,4.229,0.427,6.534,0.525c1.901,0.401,3.404-0.049,4.507-1.352c1.102-1.301,0.901-2.953-0.601-4.958
	c-0.601-0.601-1.754-1.127-3.455-1.577c-1.704-0.451-3.582-0.801-5.634-1.052c-2.054-0.249-4.126-0.301-6.218-0.15
	c-2.094,0.15-3.899,0.578-5.415,1.277c-1.519,0.702-2.602,1.728-3.247,3.079c-0.647,1.353-0.519,3.132,0.383,5.334
	C289.237,185.185,289.261,191.419,289.312,197.377z M377.568,252.735c1.1,1.903,2.328,2.779,3.68,2.629s2.479-1.226,3.381-3.229
	c0.6-13.42,0.801-26.64,0.6-39.66c-0.201-13.019-0.15-26.238,0.15-39.66c0-1.101-0.375-2.028-1.127-2.779
	c-0.75-0.751-1.576-1.202-2.479-1.352c-0.9-0.15-1.752,0.101-2.553,0.751c-0.803,0.652-1.203,1.779-1.203,3.38
	c0,1.803,0.023,4.732,0.076,8.788c0.049,4.057,0.049,8.488,0,13.295c-0.053,4.808-0.127,9.615-0.227,14.422
	c-0.1,4.808-0.201,8.864-0.299,12.169c-1.303-5.107-2.606-10.164-3.906-15.173c-1.303-5.007-2.655-9.965-4.057-14.873
	c-1.002-3.605-2.027-7.159-3.079-10.666c-1.052-3.504-2.279-6.858-3.681-10.065c-0.601-0.901-1.277-1.525-2.028-1.878
	c-0.751-0.35-1.453-0.425-2.104-0.225c-0.652,0.201-1.201,0.627-1.652,1.276c-0.45,0.653-0.676,1.479-0.676,2.479
	c-0.101,0.101-0.15,0.201-0.15,0.3v0.15c0,7.112,0,13.997,0,20.656c0,6.662,0,13.246,0,19.755c0,6.512-0.025,13.021-0.075,19.529
	c-0.052,6.512-0.126,13.171-0.225,19.98c0.3,1.002,0.8,1.754,1.502,2.254c0.699,0.5,1.427,0.725,2.178,0.676
	c0.752-0.052,1.428-0.326,2.028-0.826c0.602-0.5,1-1.251,1.202-2.254c0.099-9.813,0.124-19.653,0.075-29.52
	c-0.052-9.863-0.075-19.703-0.075-29.52l0.301,0.901c1.601,5.709,3.129,11.394,4.581,17.051c1.451,5.659,2.878,11.394,4.282,17.201
	c1.101,4.408,2.027,8.438,2.779,12.093C375.54,244.449,376.465,248.431,377.568,252.735z M423.311,219.836
	c-0.552,3.807-1.179,7.312-1.878,10.516c-0.502,2.305-1.202,5.107-2.104,8.413c-0.901,3.305-2.129,6.335-3.681,9.089
	c-1.554,2.755-3.432,4.957-5.633,6.609c-2.204,1.652-4.859,1.977-7.962,0.977c-1.303-0.5-2.456-1.401-3.456-2.704
	c-1.002-1.301-1.877-2.779-2.629-4.432c-0.751-1.652-1.352-3.328-1.803-5.032c-0.45-1.702-0.826-3.204-1.126-4.507
	c-0.401-2.202-0.826-5.684-1.277-10.441c-0.45-4.756-0.676-9.99-0.676-15.698c0-5.709,0.324-11.492,0.977-17.352
	c0.65-5.858,1.826-10.967,3.53-15.323c1.701-4.356,4.079-7.586,7.136-9.689c3.054-2.104,6.985-2.303,11.793-0.601
	c2.201,1.502,4.004,3.605,5.408,6.31c1.401,2.704,2.479,5.76,3.229,9.163c0.751,3.406,1.202,7.087,1.353,11.042
	c0.149,3.958,0.124,7.938-0.075,11.943C424.236,212.125,423.86,216.03,423.311,219.836z M416.776,190.241
	c-0.502-4.306-1.502-7.711-3.004-10.216c-0.602-0.801-1.303-1.502-2.104-2.104c-0.803-0.601-1.679-1-2.629-1.201
	c-0.953-0.2-1.878-0.174-2.779,0.075c-0.901,0.251-1.704,0.878-2.403,1.878c-1.604,2.204-2.831,5.283-3.681,9.238
	c-0.853,3.958-1.453,8.164-1.803,12.619c-0.353,4.458-0.503,8.814-0.451,13.07c0.05,4.258,0.174,7.788,0.376,10.591
	c0.099,0.901,0.274,2.43,0.525,4.582c0.249,2.154,0.602,4.432,1.052,6.835c0.451,2.403,1,4.657,1.652,6.761
	c0.65,2.103,1.451,3.582,2.404,4.432c0.95,0.852,2.027,0.826,3.229-0.075s2.554-3.155,4.056-6.761
	c0.801-1.901,1.451-3.805,1.953-5.708c0.5-1.901,0.951-3.854,1.353-5.859c0.601-2.704,1.176-6.283,1.728-10.741
	c0.549-4.455,0.901-9.063,1.052-13.82C417.452,199.081,417.276,194.548,416.776,190.241z M451.027,214.202
	c-2.306-4.756-4.759-9.464-7.361-14.121c-2.605-4.657-4.559-9.338-5.859-14.047c-0.401-1.601-0.601-3.154-0.601-4.656
	c0-1.503,0.699-2.653,2.104-3.456c1.401-1,2.577-1.126,3.53-0.375c0.95,0.751,1.676,1.678,2.178,2.779
	c0.801,0.901,1.652,1.427,2.554,1.577s1.702,0,2.404-0.451c0.699-0.45,1.201-1.149,1.502-2.103c0.301-0.951,0.301-2.028,0-3.23
	c-0.901-3.103-2.53-5.206-4.882-6.31c-2.354-1.101-4.759-1.352-7.211-0.751c-2.456,0.602-4.634,1.904-6.535,3.906
	c-1.904,2.005-2.906,4.559-3.005,7.661c-0.202,4.507,0.699,9.266,2.704,14.271c2.002,5.01,4.256,9.99,6.761,14.948
	c2.502,4.957,4.807,9.79,6.91,14.497c2.104,4.708,3.204,9.065,3.305,13.069c0,3.005-0.751,5.31-2.253,6.91
	c-1.503,1.604-3.181,2.456-5.033,2.555c-1.854,0.101-3.53-0.602-5.032-2.104s-2.204-3.854-2.104-7.061
	c0-1.401-0.326-2.528-0.977-3.38c-0.652-0.851-1.403-1.326-2.253-1.428c-0.853-0.099-1.679,0.15-2.479,0.751
	c-0.803,0.602-1.303,1.652-1.503,3.155c-0.201,3.004,0.05,5.81,0.751,8.412c0.7,2.605,2.202,4.859,4.507,6.761
	c1.702,1.303,3.73,2.154,6.085,2.554c2.352,0.401,4.657,0.301,6.91-0.301c2.254-0.601,4.281-1.676,6.084-3.229
	c1.803-1.552,3.005-3.629,3.605-6.234c1.503-5.507,1.652-10.791,0.451-15.849C455.083,223.868,453.33,218.96,451.027,214.202z
	 M490.835,238.765c-0.901,3.305-2.129,6.335-3.681,9.089c-1.554,2.755-3.432,4.957-5.633,6.609
	c-2.204,1.652-4.859,1.977-7.962,0.977c-1.303-0.5-2.456-1.401-3.456-2.704c-1.002-1.301-1.877-2.779-2.629-4.432
	c-0.751-1.652-1.352-3.328-1.803-5.032c-0.45-1.702-0.826-3.204-1.126-4.507c-0.401-2.202-0.826-5.684-1.277-10.441
	c-0.45-4.756-0.676-9.99-0.676-15.698c0-5.709,0.324-11.492,0.977-17.352c0.65-5.858,1.826-10.967,3.53-15.323
	c1.701-4.356,4.079-7.586,7.136-9.689c3.054-2.104,6.985-2.303,11.793-0.601c2.201,1.502,4.004,3.605,5.408,6.31
	c1.401,2.704,2.479,5.76,3.229,9.163c0.751,3.406,1.202,7.087,1.353,11.042c0.149,3.958,0.124,7.938-0.075,11.943
	c-0.202,4.007-0.578,7.912-1.127,11.718c-0.552,3.807-1.179,7.312-1.878,10.516C492.436,232.656,491.736,235.459,490.835,238.765z
	 M488.281,190.241c-0.502-4.306-1.502-7.711-3.004-10.216c-0.602-0.801-1.303-1.502-2.104-2.104c-0.803-0.601-1.679-1-2.629-1.201
	c-0.953-0.2-1.878-0.174-2.779,0.075c-0.901,0.251-1.704,0.878-2.403,1.878c-1.604,2.204-2.831,5.283-3.681,9.238
	c-0.853,3.958-1.453,8.164-1.803,12.619c-0.353,4.458-0.503,8.814-0.451,13.07c0.05,4.258,0.174,7.788,0.376,10.591
	c0.099,0.901,0.274,2.43,0.525,4.582c0.249,2.154,0.602,4.432,1.052,6.835c0.451,2.403,1,4.657,1.652,6.761
	c0.65,2.103,1.451,3.582,2.404,4.432c0.95,0.852,2.027,0.826,3.229-0.075s2.554-3.155,4.056-6.761
	c0.801-1.901,1.451-3.805,1.953-5.708c0.5-1.901,0.951-3.854,1.353-5.859c0.601-2.704,1.176-6.283,1.728-10.741
	c0.549-4.455,0.901-9.063,1.052-13.82C488.957,199.081,488.781,194.548,488.281,190.241z M523.584,170.636
	c-0.502-0.85-1.352-1.427-2.554-1.728c-0.701-0.099-2.253-0.199-4.657-0.3c-2.403-0.099-4.957-0.125-7.661-0.075
	c-2.704,0.052-5.258,0.176-7.662,0.375c-2.403,0.202-4.004,0.451-4.807,0.752c-1,0.502-1.728,1.152-2.179,1.952
	c-0.45,0.803-0.624,1.63-0.525,2.479c0.101,0.852,0.45,1.629,1.052,2.328c0.601,0.702,1.502,1.202,2.704,1.502
	c0.901-0.099,1.525-0.173,1.878-0.225c0.35-0.05,0.699-0.099,1.051-0.15c0.351-0.05,0.801-0.075,1.353-0.075
	c0.549,0,1.427,0,2.629,0c0,12.42,0,24.813,0,37.181c0,12.371-0.101,25.014-0.301,37.933c0.301,1.104,0.826,1.878,1.578,2.329
	c0.751,0.45,1.525,0.649,2.328,0.601c0.801-0.052,1.552-0.35,2.253-0.901c0.7-0.549,1.15-1.277,1.353-2.179c0-9.313,0-17.6,0-24.862
	c0-7.26,0-13.821,0-19.68s0-11.241,0-16.149c0-4.906,0-9.713,0-14.422c1.502-0.199,3.028-0.324,4.582-0.376
	c1.552-0.049,2.93-0.074,4.131-0.074c1.102,0,2.003-0.376,2.704-1.127c0.7-0.751,1.127-1.577,1.277-2.479
	S524.084,171.488,523.584,170.636z M524.635,252.585c0.3-15.121,0.45-29.018,0.45-41.688c0-12.669,0-24.962,0-36.881
	c0.199-1.503,0.801-2.554,1.803-3.155c1-0.601,2.002-0.601,3.005,0c1.901-1.201,4.079-1.901,6.535-2.103
	c2.452-0.2,4.807,0.051,7.061,0.751c2.253,0.701,4.206,1.779,5.858,3.229c1.652,1.453,2.629,3.281,2.93,5.483
	c0.399,3.605,0.174,6.985-0.676,10.141c-0.853,3.154-2.104,6.136-3.756,8.938c-1.652,2.805-3.605,5.46-5.859,7.962
	c-2.253,2.505-4.483,4.908-6.685,7.211c2.903,3.808,5.307,7.338,7.211,10.591c1.901,3.256,4.004,6.786,6.31,10.591
	c1.601,2.605,3.103,5.258,4.507,7.962c1.401,2.704,2.803,5.46,4.206,8.263c0.301,1.202,0.274,2.254-0.075,3.155
	c-0.352,0.901-0.852,1.577-1.502,2.028c-0.652,0.45-1.428,0.601-2.329,0.45s-1.753-0.676-2.554-1.577
	c-3.004-5.608-5.985-11.042-8.938-16.3c-2.955-5.258-6.335-10.741-10.141-16.45v31.247c-0.201,0.901-0.652,1.63-1.352,2.179
	c-0.702,0.552-1.427,0.85-2.179,0.901c-0.751,0.049-1.502-0.15-2.253-0.601C525.461,254.463,524.934,253.688,524.635,252.585z
	 M531.846,204.663c3.004-2.904,5.708-5.908,8.112-9.014c2.403-3.104,4.056-6.46,4.957-10.065c0.699-2.903,0.5-5.033-0.601-6.385
	c-1.104-1.353-2.505-2.127-4.207-2.328c-1.704-0.2-3.405,0.025-5.107,0.676c-1.704,0.652-2.756,1.528-3.154,2.629V204.663z
	 M591.935,208.118c-0.202,4.007-0.578,7.912-1.127,11.718c-0.552,3.807-1.179,7.312-1.878,10.516
	c-0.502,2.305-1.202,5.107-2.104,8.413c-0.901,3.305-2.129,6.335-3.681,9.089c-1.554,2.755-3.432,4.957-5.633,6.609
	c-2.204,1.652-4.859,1.977-7.962,0.977c-1.303-0.5-2.456-1.401-3.456-2.704c-1.002-1.301-1.877-2.779-2.629-4.432
	c-0.751-1.652-1.352-3.328-1.803-5.032c-0.45-1.702-0.826-3.204-1.126-4.507c-0.401-2.202-0.826-5.684-1.277-10.441
	c-0.45-4.756-0.676-9.99-0.676-15.698c0-5.709,0.324-11.492,0.977-17.352c0.65-5.858,1.826-10.967,3.53-15.323
	c1.701-4.356,4.079-7.586,7.136-9.689c3.054-2.104,6.985-2.303,11.793-0.601c2.201,1.502,4.004,3.605,5.408,6.31
	c1.401,2.704,2.479,5.76,3.229,9.163c0.751,3.406,1.202,7.087,1.353,11.042C592.16,200.133,592.135,204.113,591.935,208.118z
	 M584.273,190.241c-0.502-4.306-1.502-7.711-3.004-10.216c-0.602-0.801-1.303-1.502-2.104-2.104c-0.803-0.601-1.679-1-2.629-1.201
	c-0.953-0.2-1.878-0.174-2.779,0.075c-0.901,0.251-1.704,0.878-2.403,1.878c-1.604,2.204-2.831,5.283-3.681,9.238
	c-0.853,3.958-1.453,8.164-1.803,12.619c-0.353,4.458-0.503,8.814-0.451,13.07c0.05,4.258,0.174,7.788,0.376,10.591
	c0.099,0.901,0.274,2.43,0.525,4.582c0.249,2.154,0.602,4.432,1.052,6.835c0.451,2.403,1,4.657,1.652,6.761
	c0.65,2.103,1.451,3.582,2.404,4.432c0.95,0.852,2.027,0.826,3.229-0.075s2.554-3.155,4.056-6.761
	c0.801-1.901,1.451-3.805,1.953-5.708c0.5-1.901,0.951-3.854,1.353-5.859c0.601-2.704,1.176-6.283,1.728-10.741
	c0.549-4.455,0.901-9.063,1.052-13.82C584.949,199.081,584.773,194.548,584.273,190.241z M619.726,251.008
	c1.803-1.552,3.005-3.629,3.605-6.234c1.503-5.507,1.652-10.791,0.451-15.849c-1.202-5.057-2.955-9.965-5.258-14.723
	c-2.306-4.756-4.759-9.464-7.361-14.121c-2.605-4.657-4.559-9.338-5.859-14.047c-0.401-1.601-0.601-3.154-0.601-4.656
	c0-1.503,0.699-2.653,2.104-3.456c1.401-1,2.577-1.126,3.53-0.375c0.95,0.751,1.676,1.678,2.178,2.779
	c0.801,0.901,1.652,1.427,2.554,1.577s1.702,0,2.404-0.451c0.699-0.45,1.201-1.149,1.502-2.103c0.301-0.951,0.301-2.028,0-3.23
	c-0.901-3.103-2.53-5.206-4.882-6.31c-2.354-1.101-4.759-1.352-7.211-0.751c-2.456,0.602-4.634,1.904-6.535,3.906
	c-1.904,2.005-2.906,4.559-3.005,7.661c-0.202,4.507,0.699,9.266,2.704,14.271c2.002,5.01,4.256,9.99,6.761,14.948
	c2.502,4.957,4.807,9.79,6.91,14.497c2.104,4.708,3.204,9.065,3.305,13.069c0,3.005-0.751,5.31-2.253,6.91
	c-1.503,1.604-3.181,2.456-5.033,2.555c-1.854,0.101-3.53-0.602-5.032-2.104s-2.204-3.854-2.104-7.061
	c0-1.401-0.326-2.528-0.977-3.38c-0.652-0.851-1.403-1.326-2.253-1.428c-0.853-0.099-1.679,0.15-2.479,0.751
	c-0.803,0.602-1.303,1.652-1.503,3.155c-0.201,3.004,0.05,5.81,0.751,8.412c0.7,2.605,2.202,4.859,4.507,6.761
	c1.702,1.303,3.73,2.154,6.085,2.554c2.352,0.401,4.657,0.301,6.91-0.301C615.896,253.637,617.924,252.562,619.726,251.008z
	 M105,120c0-8.284,6.716-15,15-15h23c8.284,0,15-6.716,15-15V68c0-8.284-6.716-15-15-15h-23c-8.284,0-15-6.716-15-15V15
	c0-8.284-6.716-15-15-15H68c-8.284,0-15,6.716-15,15v23c0,8.284-6.716,15-15,15H15C6.716,53,0,59.716,0,68v22
	c0,8.284,6.716,15,15,15h23c8.284,0,15,6.716,15,15v23c0,8.284,6.716,15,15,15h22c8.284,0,15-6.716,15-15V120z M31.752,312.844
	c-0.29-0.049-0.709-0.072-1.256-0.072c-0.58,0-1.313,0.017-2.199,0.048c-0.886,0.032-1.925,0.081-3.117,0.146
	c-1.192,0.032-2.545,0.072-4.06,0.12c-1.515,0.049-3.206,0.072-5.074,0.072c-0.903,0-1.829-0.007-2.779-0.023
	c-0.951-0.016-1.941-0.04-2.972-0.072c0.064-1.096,0.128-2.255,0.193-3.48c0.064-1.224,0.128-2.465,0.193-3.721
	c0.064-0.902,0.128-1.813,0.193-2.73c0.064-0.919,0.128-1.796,0.193-2.635c0.128-1.804,0.257-3.447,0.387-4.929
	c0.128-1.482,0.242-2.626,0.338-3.432c0-0.129,0-0.266,0-0.411c0-0.145,0-0.281,0-0.41c-0.033-1.321-0.266-2.538-0.701-3.649
	c-0.435-1.111-1.603-1.667-3.504-1.667c-0.065,0-0.129,0-0.193,0c-0.065,0-0.113,0-0.145,0c-0.065,0.032-0.129,0.048-0.193,0.048
	c-0.065,0-0.129,0-0.193,0c-0.033,0.097-0.065,0.187-0.097,0.266c-0.033,0.081-0.048,0.153-0.048,0.218
	c0,0.226,0.064,0.54,0.193,0.942c0.128,0.403,0.29,1.071,0.483,2.006c0.161,0.935,0.306,2.247,0.435,3.938
	c0.128,1.691,0.193,3.939,0.193,6.742c0,1.676-0.032,3.576-0.097,5.703c-0.065,2.126-0.177,4.511-0.338,7.152v0.049
	c-0.548,0-1.087-0.064-1.619-0.193c-0.532-0.129-1.023-0.258-1.474-0.387c-0.483-0.161-0.918-0.298-1.305-0.411
	c-0.387-0.112-0.693-0.169-0.918-0.169c-0.129,0-0.242,0.041-0.338,0.121s-0.145,0.217-0.145,0.41c0,0.097,0.008,0.193,0.024,0.29
	c0.016,0.097,0.04,0.21,0.072,0.339c0.128,0.161,0.242,0.313,0.338,0.459c0.097,0.145,0.193,0.298,0.29,0.459
	c0.354,0.58,0.886,1.063,1.595,1.449c0.708,0.387,2.32,0.563,4.833,0.532c1.675,0,3.866-0.105,6.573-0.314
	c2.707-0.21,6.153-0.571,10.342-1.087c0.805-0.161,1.586-0.273,2.344-0.339c0.757-0.063,1.426-0.128,2.006-0.193
	c0.805-0.097,1.417-0.2,1.836-0.313c0.418-0.113,0.515-0.33,0.29-0.652C32.235,312.965,32.042,312.892,31.752,312.844z
	 M58.091,314.97c-0.065,0.146-0.21,0.299-0.435,0.459c-0.193,0.129-0.427,0.258-0.701,0.387c-0.274,0.129-0.556,0.258-0.846,0.387
	c-0.322,0.097-0.637,0.186-0.942,0.266c-0.307,0.08-0.556,0.121-0.749,0.121c-0.129,0-0.226-0.008-0.29-0.024
	c-0.065-0.017-0.097-0.057-0.097-0.12c-0.193-0.259-0.338-0.637-0.435-1.136s-0.193-1.022-0.29-1.571
	c0-0.031-0.008-0.072-0.024-0.12c-0.017-0.049-0.024-0.089-0.024-0.121c-0.097-0.611-0.202-1.168-0.314-1.667
	c-0.113-0.5-0.266-0.847-0.459-1.039c-0.645,1.159-1.757,2.118-3.335,2.875c-1.579,0.758-3.254,1.298-5.026,1.619
	c-0.709,0.128-1.41,0.225-2.103,0.29c-0.693,0.064-1.361,0.097-2.006,0.097c-0.612,0-1.184-0.032-1.715-0.097
	c-0.532-0.065-1.007-0.162-1.426-0.29c-0.935-0.354-1.611-0.838-2.03-1.45c-0.419-0.611-0.628-1.288-0.628-2.029
	c0-0.58,0.097-1.176,0.29-1.788s0.467-1.24,0.822-1.885c0.901-1.515,2.175-2.964,3.818-4.35c1.643-1.385,3.351-2.4,5.123-3.045
	c0.548-0.193,1.087-0.339,1.619-0.436c0.532-0.096,1.055-0.145,1.571-0.145c0.902,0,1.748,0.169,2.537,0.508
	c0.789,0.338,1.49,0.91,2.103,1.715v-0.048c0.193,0.032,0.411,0.048,0.652,0.048s0.475-0.016,0.701-0.048
	c0.258-0.031,0.499-0.072,0.725-0.121c0.225-0.048,0.435-0.12,0.628-0.217c0.032,0.064,0.056,0.161,0.072,0.29
	c0.016,0.129,0.024,0.289,0.024,0.482c0.064,0.58,0.128,1.37,0.193,2.368c0.064,0.999,0.161,2.03,0.29,3.094
	c0.161,1.579,0.418,3.028,0.773,4.35c0.354,1.321,0.87,1.981,1.546,1.981c0.032,0,0.056,0,0.073,0c0.016,0,0.04,0,0.072,0
	C58.074,314.688,58.155,314.825,58.091,314.97z M52.243,308.373c0-0.418-0.024-0.854-0.073-1.305s-0.105-0.901-0.169-1.354
	c-0.033-0.257-0.073-0.499-0.121-0.725s-0.089-0.451-0.121-0.677c-0.612-0.934-1.337-1.595-2.175-1.981
	c-0.838-0.387-1.708-0.58-2.61-0.58c-1.096,0-2.15,0.21-3.166,0.628c-1.015,0.42-1.86,0.887-2.537,1.402
	c-0.097,0.097-0.193,0.186-0.29,0.266c-0.097,0.081-0.193,0.169-0.29,0.266c-0.645,0.645-1.192,1.418-1.643,2.32
	c-0.452,0.902-0.725,1.82-0.822,2.754c-0.032,0.13-0.048,0.25-0.048,0.363s0,0.233,0,0.362c0,0.322,0.024,0.628,0.073,0.918
	s0.104,0.58,0.169,0.87c0.29,0.773,0.837,1.346,1.643,1.716c0.805,0.37,1.724,0.556,2.755,0.556c0.515,0,1.047-0.04,1.595-0.121
	c0.548-0.08,1.112-0.218,1.692-0.411c1.127-0.354,2.223-0.869,3.286-1.546c1.063-0.677,1.965-1.498,2.707-2.465v-0.049
	c0.064-0.128,0.104-0.306,0.121-0.531C52.235,308.825,52.243,308.599,52.243,308.373z M96.342,303.976
	c0.016,0.902,0.024,1.771,0.024,2.609c0,5.8-0.669,10.608-2.006,14.426c-1.337,3.818-4.502,6.227-9.497,7.226
	c-0.193,0.031-0.386,0.056-0.58,0.072c-0.193,0.016-0.387,0.024-0.58,0.024c-0.226,0-0.459-0.009-0.701-0.024
	c-0.242-0.017-0.492-0.041-0.749-0.072c-1.772-0.29-3.4-0.942-4.881-1.957c-1.482-1.016-2.223-2.103-2.223-3.263
	c0-0.129,0.007-0.266,0.024-0.41c0.016-0.146,0.056-0.283,0.121-0.411c0.032-0.129,0.088-0.266,0.169-0.411
	c0.08-0.145,0.169-0.282,0.266-0.41c0.064-0.065,0.128-0.138,0.193-0.218c0.064-0.081,0.128-0.169,0.193-0.266
	c0.128-0.13,0.242-0.266,0.338-0.411c0.097-0.145,0.193-0.266,0.29-0.362c0.128-0.129,0.266-0.226,0.411-0.29
	c0.145-0.065,0.298-0.065,0.459,0c0,0.064,0,0.121,0,0.169c0,0.049,0,0.089,0,0.121c-0.033,0.064-0.048,0.121-0.048,0.169
	c0,0.049,0,0.089,0,0.121c0,1.965,0.756,3.52,2.271,4.663c1.514,1.144,3.173,1.732,4.978,1.765c0.032,0,0.056,0,0.073,0
	c0.016,0,0.04,0,0.072,0c1.547,0.031,2.997-0.387,4.35-1.257c1.354-0.87,2.288-2.271,2.803-4.204
	c0.064-0.193,0.145-0.524,0.242-0.991c0.097-0.468,0.209-1.007,0.338-1.619c0.097-0.645,0.201-1.346,0.314-2.103
	c0.112-0.757,0.185-1.521,0.217-2.295c0.032-0.322,0.056-0.636,0.073-0.942c0.016-0.306,0.024-0.62,0.024-0.942
	c0-0.29-0.008-0.58-0.024-0.87c-0.017-0.29-0.041-0.563-0.073-0.821c-0.096,0.097-0.201,0.186-0.314,0.266
	c-0.113,0.08-0.217,0.153-0.314,0.217c-0.999,0.773-2.191,1.507-3.577,2.199c-1.385,0.693-2.819,1.249-4.301,1.668
	c-0.806,0.225-1.603,0.402-2.392,0.531c-0.79,0.128-1.539,0.193-2.247,0.193c-1.45,0-2.691-0.322-3.722-0.967
	c-1.031-0.645-1.627-1.771-1.788-3.383c0-0.032,0-0.064,0-0.097s0-0.064,0-0.097c0-0.064,0-0.112,0-0.146
	c0-0.193,0.008-0.386,0.024-0.579c0.016-0.193,0.04-0.37,0.072-0.532c0.354-2.416,1.708-4.631,4.06-6.645
	c2.352-2.014,4.945-3.037,7.781-3.069c1.16,0,2.311,0.218,3.455,0.652c1.144,0.435,2.231,1.152,3.262,2.15v-0.048
	c0.128-0.064,0.266-0.146,0.411-0.242s0.297-0.193,0.459-0.29c0.451-0.321,0.886-0.619,1.305-0.894
	c0.418-0.273,0.708-0.411,0.87-0.411C96.301,302.171,96.325,303.073,96.342,303.976z M93.224,305.377
	c0-0.967-0.725-1.708-2.175-2.224c-1.45-0.515-3.044-0.789-4.784-0.821c-0.065,0-0.121,0-0.169,0s-0.089,0-0.121,0
	c-1.257,0-2.441,0.129-3.552,0.387c-1.112,0.258-1.941,0.661-2.489,1.208c-0.806,0.806-1.402,1.604-1.789,2.393
	c-0.386,0.79-0.58,1.555-0.58,2.296c0,1.385,0.596,2.537,1.788,3.455c1.191,0.918,2.642,1.377,4.35,1.377
	c0.451,0,0.894-0.031,1.329-0.097c0.435-0.063,0.877-0.16,1.329-0.289c0.354-0.064,0.716-0.146,1.087-0.242
	c0.37-0.097,0.732-0.209,1.087-0.338c0.837-0.354,1.667-0.846,2.489-1.475c0.822-0.628,1.554-1.474,2.199-2.537v-0.048V305.377z
	 M123.816,313.109c0.064,0.097,0.048,0.21-0.048,0.338c-0.033,0.065-0.097,0.138-0.193,0.218c-0.097,0.081-0.193,0.138-0.29,0.169
	c-1.128,0.419-2.328,0.798-3.601,1.136c-1.273,0.339-2.57,0.62-3.89,0.846c-0.967,0.161-1.934,0.29-2.9,0.387
	c-0.967,0.097-1.901,0.146-2.803,0.146c-2.32,0-4.277-0.347-5.872-1.039c-1.595-0.692-2.409-1.909-2.44-3.649
	c0-0.677,0.137-1.441,0.411-2.295c0.273-0.854,0.717-1.78,1.329-2.779v-0.048c1.127-1.676,2.199-2.868,3.214-3.577
	c1.015-0.708,1.716-1.143,2.103-1.305c0.097-0.064,0.249-0.145,0.459-0.241c0.209-0.097,0.475-0.177,0.797-0.242
	c0.547-0.193,1.216-0.362,2.006-0.507c0.789-0.146,1.602-0.233,2.44-0.267c0.097,0,0.201,0,0.314,0c0.113,0,0.218,0,0.314,0
	c1.191,0,2.247,0.193,3.166,0.58c0.918,0.387,1.426,1.112,1.522,2.175c0,0.549,0.04,1.008,0.121,1.378
	c0.08,0.37,0.185,0.669,0.314,0.894c0.097,0.259,0.185,0.459,0.266,0.604c0.08,0.145,0.121,0.282,0.121,0.411
	c0,0.064-0.032,0.145-0.097,0.241c-0.065,0.097-0.177,0.193-0.338,0.29c-0.483,0.097-1.458,0.274-2.924,0.531
	c-1.466,0.259-3.037,0.532-4.712,0.822c-1.643,0.258-3.198,0.516-4.664,0.772c-1.467,0.259-2.441,0.436-2.924,0.532
	c0.386,1.676,1.175,2.972,2.368,3.891c1.192,0.918,2.868,1.377,5.026,1.377c1.063,0,2.239-0.112,3.528-0.338
	s2.723-0.596,4.301-1.112c0.741-0.16,1.345-0.281,1.813-0.362c0.467-0.08,0.829-0.12,1.087-0.12
	C123.526,312.965,123.751,313.013,123.816,313.109z M105.036,308.033c2.213-0.289,4.052-0.521,5.513-0.699
	c1.466-0.177,2.634-0.346,3.504-0.508c1.095-0.192,1.828-0.402,2.199-0.628c0.37-0.225,0.556-0.611,0.556-1.16
	c0.032-0.128,0.056-0.249,0.073-0.362c0.016-0.112,0.024-0.217,0.024-0.313c0-0.773-0.314-1.418-0.942-1.934
	c-0.628-0.515-1.603-0.773-2.924-0.773c-0.323,0-0.887,0.105-1.691,0.314c-0.806,0.21-1.676,0.62-2.61,1.232
	c-0.709,0.516-1.402,1.16-2.078,1.933C105.993,305.897,105.452,306.865,105.036,308.033z M146.531,313.834
	c-0.452-0.225-0.806-0.837-1.063-1.836c-0.258-0.998-0.5-2.11-0.725-3.335c-0.032-0.225-0.065-0.442-0.097-0.652
	c-0.032-0.209-0.065-0.411-0.097-0.604c-0.29-1.643-0.661-3.148-1.111-4.519c-0.452-1.369-1.16-2.037-2.126-2.006
	c-0.033,0-0.057,0-0.072,0c-0.017,0-0.041,0-0.073,0c-0.065,0-0.145,0-0.242,0s-0.21,0-0.338,0c-0.902,0-2.352,0.508-4.35,1.522
	c-1.998,1.016-4.156,3.923-6.476,8.724c0-0.58,0.056-1.257,0.169-2.03c0.112-0.772,0.233-1.578,0.362-2.416c0-0.031,0-0.064,0-0.097
	c0-0.031,0.016-0.064,0.048-0.097c0.128-0.87,0.249-1.699,0.362-2.489c0.113-0.789,0.169-1.457,0.169-2.005
	c0-0.322-0.024-0.58-0.073-0.773s-0.137-0.306-0.266-0.339c-0.033-0.063-0.081-0.128-0.145-0.193
	c-0.065-0.063-0.145-0.128-0.242-0.193c-0.162-0.128-0.347-0.241-0.556-0.338c-0.21-0.097-0.427-0.193-0.652-0.29
	c-0.193-0.064-0.371-0.112-0.532-0.145c-0.162-0.032-0.322-0.049-0.483-0.049c-0.193,0-0.355,0.041-0.483,0.121
	c-0.129,0.081-0.177,0.218-0.145,0.411c0,0.096,0.016,0.192,0.048,0.289c0.032,0.097,0.08,0.21,0.145,0.339v0.048
	c0.064,0.259,0.113,0.646,0.145,1.16c0.032,0.516,0.048,1.145,0.048,1.885c0,0.549-0.008,1.145-0.024,1.788
	c-0.017,0.646-0.041,1.321-0.073,2.03c0,0.516-0.008,1.047-0.024,1.595c-0.017,0.548-0.024,1.096-0.024,1.643
	c-0.032,0.549-0.048,1.088-0.048,1.619c0,0.532,0,1.056,0,1.571c0,0.226,0.128,0.41,0.387,0.556c0.258,0.145,0.547,0.234,0.87,0.266
	c0.032,0,0.056,0,0.072,0c0.016,0,0.04,0,0.073,0c0.193,0,0.37-0.04,0.532-0.121c0.161-0.08,0.273-0.185,0.338-0.313
	c0.064-0.193,0.128-0.379,0.193-0.556c0.064-0.177,0.145-0.363,0.242-0.557c0.612-1.643,1.354-3.221,2.223-4.735
	c0.87-1.515,1.771-2.771,2.707-3.771c0.547-0.579,1.095-1.039,1.643-1.377c0.547-0.338,1.063-0.508,1.546-0.508
	c0.483,0.033,0.942,0.259,1.377,0.677c0.435,0.419,0.797,1.111,1.087,2.078c0.128,0.387,0.266,0.854,0.411,1.401
	c0.145,0.549,0.297,1.129,0.459,1.74c0.064,0.29,0.128,0.572,0.193,0.846c0.064,0.274,0.128,0.54,0.193,0.798
	c0.225,1.031,0.435,2.021,0.628,2.972c0.193,0.951,0.338,1.651,0.435,2.103c0,0.193,0.08,0.321,0.242,0.387
	c0.161,0.064,0.37,0.097,0.628,0.097c0.161,0,0.346-0.017,0.556-0.049c0.209-0.032,0.427-0.08,0.652-0.145
	c0.418-0.162,0.822-0.339,1.208-0.532c0.386-0.192,0.644-0.418,0.773-0.676c0.064-0.161,0.056-0.322-0.024-0.483
	C147.054,314.108,146.852,313.964,146.531,313.834z M162.914,301.438c-0.226-0.048-0.516-0.072-0.87-0.072
	c-0.29,0-0.621,0.009-0.991,0.024c-0.371,0.017-0.733,0.041-1.087,0.072c-0.129,0.032-0.242,0.049-0.338,0.049s-0.193,0-0.29,0
	c-0.483,0.064-0.927,0.113-1.329,0.145c-0.403,0.032-0.717,0.049-0.942,0.049c-0.097,0-0.169,0-0.217,0s-0.073-0.032-0.073-0.097
	v0.048c-0.032-0.193-0.048-0.387-0.048-0.58s0-0.387,0-0.58c0-0.16,0-0.313,0-0.459c0-0.145,0.016-0.297,0.048-0.459
	c0.032-0.45,0.073-0.894,0.121-1.329c0.048-0.435,0.104-0.861,0.169-1.28c0.097-0.548,0.177-1.071,0.242-1.571
	c0.064-0.499,0.097-0.942,0.097-1.329c0-0.386-0.048-0.708-0.145-0.966s-0.258-0.451-0.483-0.58
	c-0.032-0.032-0.065-0.056-0.097-0.072c-0.032-0.017-0.065-0.04-0.097-0.073c-0.387-0.225-0.757-0.442-1.111-0.652
	c-0.355-0.209-0.693-0.313-1.015-0.313c-0.129,0.032-0.25,0.072-0.362,0.12c-0.113,0.049-0.234,0.121-0.362,0.218
	c0,0.29,0.024,0.725,0.072,1.305s0.104,1.225,0.169,1.934c0.032,0.322,0.056,0.652,0.073,0.99c0.016,0.339,0.04,0.669,0.072,0.991
	c0.032,0.419,0.056,0.838,0.073,1.256c0.016,0.42,0.024,0.822,0.024,1.209c0,0.322,0,0.645,0,0.966c0,0.323-0.032,0.613-0.097,0.87
	c-0.193,0.065-0.386,0.113-0.58,0.146s-0.371,0.048-0.532,0.048c-0.355,0-0.701-0.04-1.039-0.121
	c-0.338-0.079-0.652-0.169-0.942-0.266c-0.323-0.097-0.612-0.185-0.87-0.266c-0.258-0.08-0.467-0.121-0.628-0.121
	c-0.065,0-0.129,0.017-0.193,0.049c-0.065,0.032-0.113,0.081-0.145,0.145c0,0.033,0,0.073,0,0.121c0,0.049,0,0.089,0,0.121
	c-0.033,0.064-0.048,0.113-0.048,0.145c0,0.033,0,0.065,0,0.097c0,0.87,0.306,1.37,0.918,1.498c0.612,0.13,1.337,0.193,2.175,0.193
	c0.064,0,0.145,0,0.242,0s0.193,0,0.29,0s0.201,0,0.314,0c0.113,0,0.233,0,0.363,0c0.128,0,0.249,0.009,0.362,0.024
	c0.112,0.017,0.217,0.041,0.314,0.072c0,0.452-0.041,1.241-0.121,2.368c-0.081,1.129-0.153,2.337-0.217,3.625
	c-0.033,0.064-0.048,0.129-0.048,0.193s0,0.129,0,0.193c-0.097,1.321-0.186,2.546-0.266,3.673c-0.081,1.128-0.121,1.82-0.121,2.078
	c0,0.193,0.152,0.354,0.459,0.483c0.306,0.128,0.652,0.225,1.039,0.29c0.097,0.031,0.193,0.048,0.29,0.048s0.193,0,0.29,0
	c0.257,0,0.483-0.032,0.676-0.097c0.193-0.064,0.29-0.177,0.29-0.338c0-0.708,0-1.675,0-2.899s0-2.514,0-3.867
	c0-1.063,0-2.094,0-3.093c0-0.998,0-1.885,0-2.658c2.481,0,4.196-0.112,5.147-0.338c0.95-0.226,1.522-0.611,1.716-1.16
	C163.252,301.559,163.139,301.486,162.914,301.438z M185.87,313.109c0.064,0.097,0.048,0.21-0.049,0.338
	c-0.032,0.065-0.097,0.138-0.193,0.218c-0.097,0.081-0.193,0.138-0.289,0.169c-1.129,0.419-2.328,0.798-3.601,1.136
	c-1.273,0.339-2.57,0.62-3.891,0.846c-0.967,0.161-1.934,0.29-2.9,0.387c-0.966,0.097-1.901,0.146-2.803,0.146
	c-2.319,0-4.277-0.347-5.872-1.039c-1.595-0.692-2.409-1.909-2.44-3.649c0-0.677,0.137-1.441,0.411-2.295
	c0.273-0.854,0.717-1.78,1.329-2.779v-0.048c1.127-1.676,2.199-2.868,3.214-3.577c1.015-0.708,1.715-1.143,2.102-1.305
	c0.097-0.064,0.25-0.145,0.46-0.241c0.209-0.097,0.475-0.177,0.797-0.242c0.548-0.193,1.216-0.362,2.006-0.507
	c0.789-0.146,1.603-0.233,2.44-0.267c0.097,0,0.201,0,0.314,0c0.112,0,0.217,0,0.313,0c1.192,0,2.248,0.193,3.166,0.58
	s1.426,1.112,1.522,2.175c0,0.549,0.04,1.008,0.121,1.378c0.08,0.37,0.185,0.669,0.313,0.894c0.097,0.259,0.186,0.459,0.266,0.604
	c0.08,0.145,0.121,0.282,0.121,0.411c0,0.064-0.032,0.145-0.097,0.241s-0.178,0.193-0.338,0.29
	c-0.483,0.097-1.458,0.274-2.924,0.531c-1.467,0.259-3.037,0.532-4.712,0.822c-1.644,0.258-3.198,0.516-4.664,0.772
	c-1.467,0.259-2.441,0.436-2.924,0.532c0.386,1.676,1.175,2.972,2.367,3.891c1.192,0.918,2.868,1.377,5.027,1.377
	c1.063,0,2.238-0.112,3.527-0.338c1.288-0.226,2.723-0.596,4.302-1.112c0.74-0.16,1.345-0.281,1.813-0.362
	c0.466-0.08,0.829-0.12,1.087-0.12C185.58,312.965,185.805,313.013,185.87,313.109z M167.09,308.033
	c2.213-0.289,4.052-0.521,5.513-0.699c1.466-0.177,2.634-0.346,3.504-0.508c1.095-0.192,1.828-0.402,2.199-0.628
	c0.37-0.225,0.556-0.611,0.556-1.16c0.032-0.128,0.056-0.249,0.072-0.362c0.016-0.112,0.024-0.217,0.024-0.313
	c0-0.773-0.314-1.418-0.942-1.934c-0.628-0.515-1.604-0.773-2.924-0.773c-0.322,0-0.887,0.105-1.691,0.314
	c-0.806,0.21-1.676,0.62-2.61,1.232c-0.709,0.516-1.401,1.16-2.078,1.933C168.047,305.897,167.506,306.865,167.09,308.033z
	 M223.541,285.731c0.016,0.338,0.024,0.732,0.024,1.184c0,1.225-0.065,2.787-0.193,4.688c-0.129,1.901-0.274,3.963-0.435,6.186
	c-0.065,1.128-0.13,2.28-0.193,3.456c-0.065,1.176-0.13,2.344-0.193,3.503c-0.065,1.096-0.113,2.184-0.146,3.263
	c-0.032,1.08-0.048,2.135-0.048,3.165c0,1.16,0.023,2.271,0.072,3.335c0.048,1.063,0.121,2.078,0.218,3.045
	c-0.58-0.032-1.032-0.097-1.354-0.193c-0.29-0.064-0.556-0.169-0.798-0.314c-0.241-0.145-0.41-0.347-0.507-0.604
	c-0.065-0.322-0.113-0.621-0.146-0.895s-0.048-0.556-0.048-0.846s0.008-0.556,0.024-0.797c0.016-0.242,0.039-0.491,0.072-0.75
	c0.031-0.225,0.056-0.442,0.072-0.652c0.016-0.209,0.024-0.41,0.024-0.604c-0.87,0.677-2.087,1.337-3.649,1.981
	s-3.197,1.128-4.905,1.449c-0.741,0.161-1.482,0.282-2.223,0.363c-0.742,0.08-1.45,0.12-2.127,0.12
	c-1.192,0-2.231-0.153-3.117-0.459c-0.887-0.306-1.506-0.813-1.86-1.522c-0.162-0.354-0.29-0.725-0.387-1.111
	s-0.145-0.773-0.145-1.16c0-0.321,0.023-0.652,0.072-0.99c0.048-0.339,0.137-0.668,0.266-0.991c0.548-1.836,1.675-3.576,3.383-5.219
	c1.707-1.644,3.528-2.852,5.461-3.625c0.645-0.226,1.272-0.411,1.885-0.556c0.612-0.146,1.209-0.218,1.789-0.218
	c0.257,0,0.499,0.009,0.725,0.024c0.225,0.017,0.45,0.057,0.677,0.121c0.257,0.064,0.523,0.152,0.797,0.266s0.556,0.25,0.846,0.41
	c0.548,0.29,1.071,0.637,1.571,1.039c0.499,0.403,0.942,0.846,1.329,1.329v-0.048c0-2.384-0.024-4.559-0.073-6.524
	c-0.048-1.965-0.104-3.689-0.169-5.171c-0.064-1.515-0.121-2.795-0.169-3.843c-0.049-1.047-0.072-1.893-0.072-2.537
	c0-0.321,0.007-0.588,0.023-0.798c0.017-0.209,0.04-0.378,0.073-0.507c0.031,0,0.063-0.008,0.097-0.024
	c0.031-0.016,0.063-0.024,0.097-0.024c0.063,0,0.112,0,0.145,0c0.161,0,0.33,0.017,0.508,0.049c0.177,0.032,0.362,0.081,0.556,0.145
	c0.161,0.065,0.321,0.13,0.483,0.193c0.16,0.065,0.306,0.129,0.435,0.193c0.322,0.162,0.692,0.371,1.111,0.629
	C223.484,285.111,223.524,285.393,223.541,285.731z M219.989,303.879c-0.709-0.516-1.668-1.007-2.876-1.475
	c-1.208-0.467-2.473-0.717-3.794-0.749c-0.032,0-0.072,0-0.12,0c-0.049,0-0.105,0-0.17,0c-1.772,0-3.415,0.54-4.93,1.619
	c-1.515,1.08-2.497,3.069-2.947,5.969c-0.033,0.129-0.049,0.25-0.049,0.362c0,0.113,0,0.218,0,0.314
	c0,1.482,0.499,2.529,1.498,3.142s2.207,0.918,3.625,0.918c0.58,0,1.184-0.04,1.813-0.121c0.628-0.08,1.248-0.201,1.86-0.362
	c1.095-0.258,2.175-0.62,3.238-1.088c1.063-0.466,2.013-1.006,2.852-1.618V303.879z M250.581,313.109
	c0.064,0.097,0.048,0.21-0.049,0.338c-0.032,0.065-0.097,0.138-0.193,0.218c-0.097,0.081-0.193,0.138-0.289,0.169
	c-1.129,0.419-2.328,0.798-3.601,1.136c-1.273,0.339-2.57,0.62-3.891,0.846c-0.967,0.161-1.934,0.29-2.9,0.387
	c-0.966,0.097-1.901,0.146-2.803,0.146c-2.319,0-4.277-0.347-5.872-1.039s-2.409-1.909-2.44-3.649c0-0.677,0.137-1.441,0.411-2.295
	c0.273-0.854,0.716-1.78,1.329-2.779v-0.048c1.127-1.676,2.198-2.868,3.214-3.577c1.015-0.708,1.715-1.143,2.102-1.305
	c0.097-0.064,0.25-0.145,0.46-0.241c0.209-0.097,0.475-0.177,0.797-0.242c0.548-0.193,1.216-0.362,2.006-0.507
	c0.789-0.146,1.603-0.233,2.44-0.267c0.097,0,0.201,0,0.314,0c0.112,0,0.217,0,0.313,0c1.192,0,2.248,0.193,3.166,0.58
	s1.426,1.112,1.522,2.175c0,0.549,0.04,1.008,0.121,1.378c0.08,0.37,0.185,0.669,0.313,0.894c0.097,0.259,0.186,0.459,0.266,0.604
	c0.08,0.145,0.121,0.282,0.121,0.411c0,0.064-0.032,0.145-0.097,0.241s-0.178,0.193-0.338,0.29
	c-0.483,0.097-1.458,0.274-2.924,0.531c-1.467,0.259-3.037,0.532-4.712,0.822c-1.644,0.258-3.198,0.516-4.664,0.772
	c-1.467,0.259-2.44,0.436-2.924,0.532c0.387,1.676,1.176,2.972,2.368,3.891c1.191,0.918,2.867,1.377,5.026,1.377
	c1.063,0,2.238-0.112,3.527-0.338c1.288-0.226,2.723-0.596,4.302-1.112c0.74-0.16,1.345-0.281,1.813-0.362
	c0.466-0.08,0.829-0.12,1.087-0.12C250.291,312.965,250.516,313.013,250.581,313.109z M231.801,308.033
	c2.213-0.289,4.052-0.521,5.513-0.699c1.466-0.177,2.634-0.346,3.504-0.508c1.095-0.192,1.828-0.402,2.199-0.628
	c0.37-0.225,0.556-0.611,0.556-1.16c0.032-0.128,0.056-0.249,0.072-0.362c0.016-0.112,0.024-0.217,0.024-0.313
	c0-0.773-0.314-1.418-0.942-1.934c-0.628-0.515-1.604-0.773-2.924-0.773c-0.322,0-0.887,0.105-1.691,0.314
	c-0.806,0.21-1.676,0.62-2.61,1.232c-0.709,0.516-1.401,1.16-2.078,1.933C232.758,305.897,232.217,306.865,231.801,308.033z
	 M265.321,301.438c-0.227-0.048-0.517-0.072-0.87-0.072c-0.29,0-0.621,0.009-0.991,0.024c-0.37,0.017-0.733,0.041-1.087,0.072
	c-0.129,0.032-0.242,0.049-0.339,0.049s-0.193,0-0.29,0c-0.482,0.064-0.926,0.113-1.328,0.145c-0.403,0.032-0.718,0.049-0.943,0.049
	c-0.096,0-0.169,0-0.217,0c-0.049,0-0.072-0.032-0.072-0.097v0.048c-0.033-0.193-0.049-0.387-0.049-0.58s0-0.387,0-0.58
	c0-0.16,0-0.313,0-0.459c0-0.145,0.016-0.297,0.049-0.459c0.031-0.45,0.072-0.894,0.12-1.329c0.049-0.435,0.104-0.861,0.169-1.28
	c0.097-0.548,0.177-1.071,0.242-1.571c0.064-0.499,0.097-0.942,0.097-1.329c0-0.386-0.049-0.708-0.146-0.966
	s-0.258-0.451-0.482-0.58c-0.033-0.032-0.065-0.056-0.097-0.072c-0.033-0.017-0.065-0.04-0.097-0.073
	c-0.387-0.225-0.758-0.442-1.112-0.652c-0.354-0.209-0.692-0.313-1.015-0.313c-0.129,0.032-0.25,0.072-0.362,0.12
	c-0.113,0.049-0.234,0.121-0.362,0.218c0,0.29,0.024,0.725,0.072,1.305s0.104,1.225,0.169,1.934c0.032,0.322,0.056,0.652,0.072,0.99
	c0.017,0.339,0.04,0.669,0.073,0.991c0.031,0.419,0.056,0.838,0.072,1.256c0.016,0.42,0.024,0.822,0.024,1.209
	c0,0.322,0,0.645,0,0.966c0,0.323-0.033,0.613-0.097,0.87c-0.193,0.065-0.387,0.113-0.58,0.146s-0.371,0.048-0.532,0.048
	c-0.354,0-0.7-0.04-1.039-0.121c-0.338-0.079-0.652-0.169-0.942-0.266c-0.322-0.097-0.612-0.185-0.869-0.266
	c-0.259-0.08-0.468-0.121-0.629-0.121c-0.064,0-0.129,0.017-0.193,0.049s-0.113,0.081-0.145,0.145c0,0.033,0,0.073,0,0.121
	c0,0.049,0,0.089,0,0.121c-0.032,0.064-0.049,0.113-0.049,0.145c0,0.033,0,0.065,0,0.097c0,0.87,0.307,1.37,0.919,1.498
	c0.611,0.13,1.336,0.193,2.175,0.193c0.063,0,0.145,0,0.241,0s0.193,0,0.29,0s0.201,0,0.314,0c0.112,0,0.233,0,0.362,0
	c0.128,0,0.249,0.009,0.362,0.024c0.112,0.017,0.218,0.041,0.314,0.072c0,0.452-0.041,1.241-0.121,2.368
	c-0.081,1.129-0.153,2.337-0.218,3.625c-0.032,0.064-0.048,0.129-0.048,0.193s0,0.129,0,0.193c-0.097,1.321-0.186,2.546-0.266,3.673
	c-0.081,1.128-0.121,1.82-0.121,2.078c0,0.193,0.152,0.354,0.459,0.483c0.306,0.128,0.652,0.225,1.039,0.29
	c0.097,0.031,0.193,0.048,0.29,0.048s0.193,0,0.29,0c0.258,0,0.483-0.032,0.677-0.097s0.29-0.177,0.29-0.338
	c0-0.708,0-1.675,0-2.899s0-2.514,0-3.867c0-1.063,0-2.094,0-3.093c0-0.998,0-1.885,0-2.658c2.48,0,4.196-0.112,5.146-0.338
	s1.522-0.611,1.716-1.16C265.659,301.559,265.546,301.486,265.321,301.438z M283.443,304.748c-0.097-0.031-0.226-0.048-0.387-0.048
	c-0.193-0.032-0.419-0.072-0.677-0.121c-0.258-0.048-0.516-0.169-0.773-0.362c-0.386-0.321-0.749-0.87-1.087-1.644
	c-0.338-0.772-0.588-1.981-0.749-3.624c-0.097-0.064-0.202-0.121-0.314-0.169c-0.113-0.049-0.234-0.073-0.362-0.073
	c-0.387,0-0.773,0.21-1.16,0.629s-0.693,0.87-0.918,1.353c-0.097,0.259-0.178,0.5-0.241,0.726c-0.065,0.226-0.097,0.435-0.097,0.628
	c0,0.065,0,0.121,0,0.169c0,0.049,0.016,0.105,0.048,0.169c-0.258,0.483-0.725,1.112-1.401,1.886
	c-0.677,0.772-1.401,1.659-2.175,2.657c-0.451,0.58-0.895,1.192-1.329,1.837s-0.83,1.321-1.185,2.03
	c0.064-0.612,0.146-1.2,0.242-1.765c0.097-0.563,0.177-1.087,0.241-1.57c0.193-1.063,0.37-1.997,0.532-2.804
	c0.16-0.805,0.241-1.481,0.241-2.029c0-0.611-0.153-1.063-0.459-1.354c-0.307-0.29-0.862-0.435-1.667-0.435
	c-0.033,0-0.081,0-0.146,0s-0.129,0-0.193,0c-0.032,0.032-0.08,0.048-0.145,0.048c-0.065,0-0.129,0-0.193,0
	c-0.032,0-0.057,0-0.072,0c-0.017,0-0.041,0-0.073,0c-0.226,0-0.379,0.153-0.459,0.459c-0.08,0.307-0.12,0.75-0.12,1.329
	c0,0.355,0.007,0.767,0.023,1.232c0.017,0.468,0.04,0.976,0.073,1.522c0.031,0.549,0.056,1.145,0.072,1.788
	c0.016,0.646,0.023,1.322,0.023,2.03c0,0.741-0.017,1.522-0.048,2.344c-0.032,0.821-0.081,1.667-0.145,2.537v0.049
	c-0.162,0.322-0.057,0.604,0.313,0.846c0.37,0.241,0.813,0.362,1.329,0.362c0.064,0,0.121,0,0.169,0c0.049,0,0.104-0.017,0.17-0.049
	c0.031,0,0.08-0.008,0.145-0.023c0.064-0.017,0.112-0.024,0.145-0.024c0.322-1.578,0.838-2.988,1.547-4.229
	c0.708-1.24,1.434-2.408,2.175-3.504c0.322-0.419,0.636-0.838,0.942-1.257c0.306-0.418,0.604-0.837,0.895-1.257
	c0.16-0.257,0.321-0.507,0.483-0.749c0.16-0.241,0.306-0.49,0.435-0.749c0.193,0.58,0.604,1.071,1.232,1.475
	s1.313,0.685,2.054,0.846c0.193,0.064,0.387,0.104,0.58,0.12c0.193,0.017,0.387,0.024,0.58,0.024c0.483,0,0.91-0.08,1.28-0.241
	s0.62-0.402,0.749-0.726C283.588,304.878,283.54,304.781,283.443,304.748z M308.187,314.583c-0.065,0.146-0.21,0.314-0.436,0.508
	c-0.193,0.129-0.427,0.249-0.7,0.362c-0.274,0.112-0.557,0.233-0.846,0.362c-0.323,0.097-0.637,0.186-0.942,0.267
	c-0.307,0.08-0.557,0.12-0.75,0.12c-0.129,0-0.226-0.008-0.289-0.023c-0.065-0.017-0.097-0.057-0.097-0.121
	c-0.193-0.259-0.339-0.637-0.436-1.136s-0.193-1.022-0.29-1.571c0-0.031-0.008-0.072-0.024-0.12
	c-0.017-0.049-0.023-0.089-0.023-0.121c-0.097-0.611-0.202-1.167-0.314-1.667c-0.113-0.499-0.266-0.846-0.459-1.039
	c-0.645,1.159-1.748,2.11-3.311,2.851c-1.563,0.742-3.214,1.289-4.954,1.644c-0.709,0.162-1.418,0.266-2.126,0.314
	c-0.709,0.048-1.386,0.072-2.03,0.072c-0.612,0-1.184-0.024-1.716-0.072c-0.531-0.049-1.007-0.137-1.425-0.266
	c-0.936-0.387-1.619-0.895-2.055-1.522c-0.435-0.629-0.652-1.313-0.652-2.055c0-0.547,0.097-1.127,0.29-1.739
	s0.467-1.225,0.821-1.837c0.902-1.546,2.175-3.021,3.818-4.422s3.366-2.408,5.171-3.021c0.548-0.193,1.079-0.338,1.595-0.435
	s1.031-0.146,1.547-0.146c0.901,0,1.756,0.169,2.562,0.508c0.805,0.338,1.514,0.91,2.126,1.716v-0.049
	c0.193,0.032,0.411,0.049,0.653,0.049c0.241,0,0.49-0.017,0.749-0.049c0.225-0.031,0.442-0.072,0.652-0.121
	c0.209-0.048,0.41-0.104,0.604-0.169c0.032,0.065,0.057,0.178,0.073,0.339c0.016,0.161,0.04,0.354,0.072,0.579
	c0.064,0.613,0.128,1.395,0.193,2.345c0.064,0.95,0.145,1.941,0.241,2.972c0.193,1.547,0.467,2.98,0.822,4.302
	c0.354,1.321,0.853,1.981,1.498,1.981c0.031,0,0.056,0,0.072,0c0.016,0,0.04,0,0.072,0
	C308.171,314.302,308.251,314.438,308.187,314.583z M302.388,308.035c0-0.387-0.024-0.798-0.072-1.232
	c-0.049-0.436-0.105-0.878-0.169-1.329c-0.033-0.258-0.073-0.516-0.121-0.773c-0.049-0.258-0.105-0.515-0.169-0.773
	c-0.613-0.934-1.338-1.595-2.175-1.981c-0.839-0.387-1.709-0.58-2.61-0.58c-1.096,0-2.15,0.21-3.165,0.629
	c-1.016,0.419-1.861,0.886-2.537,1.401c-0.097,0.097-0.193,0.186-0.29,0.266c-0.097,0.081-0.193,0.169-0.29,0.266
	c-0.646,0.646-1.192,1.418-1.644,2.32s-0.725,1.82-0.821,2.754c-0.033,0.13-0.049,0.25-0.049,0.363s0,0.233,0,0.362
	c0,0.322,0.024,0.628,0.072,0.918c0.049,0.29,0.104,0.58,0.17,0.87c0.321,0.773,0.886,1.346,1.691,1.716
	c0.805,0.37,1.723,0.556,2.755,0.556c0.515,0,1.046-0.04,1.595-0.121c0.547-0.08,1.111-0.218,1.691-0.411
	c1.127-0.354,2.223-0.869,3.286-1.546s1.965-1.498,2.706-2.465v-0.049c0.064-0.128,0.104-0.297,0.121-0.507
	C302.379,308.479,302.388,308.261,302.388,308.035z M299.343,288.703c-0.032,0-0.057,0-0.072,0c-0.017,0-0.041,0-0.072,0
	c-0.452,0-0.79,0.186-1.016,0.556c-0.226,0.371-0.435,0.798-0.628,1.281c-0.032,0.064-0.057,0.12-0.072,0.169
	c-0.017,0.048-0.041,0.104-0.072,0.169c-0.13,0.29-0.267,0.589-0.411,0.895c-0.146,0.307-0.314,0.54-0.508,0.7v0.049
	c-0.193,0.419-0.419,0.79-0.677,1.111c-0.258,0.322-0.516,0.612-0.772,0.87c-0.677,0.709-1.266,1.24-1.765,1.595
	c-0.5,0.354-0.572,0.661-0.217,0.918l0.048,0.049c0.064,0.032,0.137,0.057,0.218,0.072c0.08,0.017,0.185,0.024,0.313,0.024
	c0.58,0,1.442-0.379,2.586-1.136s2.505-2.312,4.084-4.664c0.064-0.097,0.097-0.201,0.097-0.314c0-0.112,0-0.233,0-0.362
	c0-0.483-0.113-0.918-0.339-1.305S299.6,288.769,299.343,288.703z M327.566,307.116c-1.386-0.387-2.916-0.659-4.591-0.821
	c-0.259,0-0.508-0.016-0.749-0.048c-0.242-0.032-0.476-0.049-0.701-0.049c-1.353-0.097-2.537-0.233-3.552-0.411
	c-1.015-0.176-1.571-0.556-1.668-1.136v0.049c-0.096-0.161-0.161-0.321-0.192-0.483c-0.033-0.161-0.049-0.306-0.049-0.435
	c0-0.773,0.556-1.394,1.667-1.861c1.112-0.467,2.425-0.7,3.939-0.7c0.321,0,0.644,0.008,0.967,0.024
	c0.321,0.017,0.659,0.057,1.015,0.12c0.87,0.129,1.716,0.339,2.537,0.629s1.587,0.676,2.296,1.159
	c0.225,0.065,0.394,0.017,0.507-0.145s0.17-0.37,0.17-0.629c0-0.128-0.018-0.257-0.049-0.386c-0.032-0.129-0.064-0.258-0.097-0.387
	c-0.097-0.322-0.258-0.629-0.483-0.919s-0.5-0.482-0.821-0.579c-0.097-0.032-0.226-0.064-0.387-0.097
	c-0.162-0.032-0.354-0.064-0.58-0.097c-0.419-0.064-0.918-0.121-1.498-0.17c-0.58-0.048-1.225-0.072-1.934-0.072
	s-1.458,0.041-2.247,0.121c-0.79,0.081-1.587,0.218-2.393,0.411c-0.806,0.192-1.603,0.467-2.392,0.821
	c-0.79,0.354-1.539,0.806-2.247,1.353c-0.517,0.613-0.879,1.177-1.088,1.692c-0.21,0.516-0.314,0.982-0.314,1.401
	c0,1.031,0.588,1.756,1.765,2.175c1.176,0.419,2.456,0.677,3.842,0.773c0.708,0.064,1.401,0.097,2.078,0.097
	s1.272-0.017,1.788-0.049c0.193,0,0.387,0,0.58,0s0.354,0,0.483,0c0.87,0.097,1.522,0.428,1.957,0.991
	c0.436,0.563,0.669,1.168,0.701,1.812c0,0.033,0,0.057,0,0.073s0,0.04,0,0.072c-0.032,0.612-0.202,1.184-0.508,1.716
	c-0.307,0.531-0.781,0.878-1.426,1.039c-0.419,0.097-0.846,0.161-1.28,0.193c-0.436,0.032-0.846,0.048-1.232,0.048
	c-1.16,0-2.207-0.137-3.142-0.41s-1.757-0.572-2.465-0.895c-1.257-0.548-2.183-0.958-2.778-1.232
	c-0.597-0.273-0.895,0.121-0.895,1.185c0.097,0.902,0.846,1.611,2.247,2.126s3.004,0.773,4.809,0.773
	c0.29,0,0.572-0.009,0.846-0.024c0.273-0.017,0.557-0.041,0.846-0.072c2.03-0.193,3.923-0.757,5.679-1.691s2.779-2.32,3.069-4.156
	c0.031-0.129,0.048-0.242,0.048-0.339s0-0.193,0-0.29C329.644,308.261,328.952,307.503,327.566,307.116z M368.573,285.731
	c0.016,0.338,0.024,0.732,0.024,1.184c0,1.225-0.065,2.787-0.193,4.688c-0.129,1.901-0.274,3.963-0.435,6.186
	c-0.065,1.128-0.13,2.28-0.193,3.456c-0.065,1.176-0.13,2.344-0.193,3.503c-0.065,1.096-0.113,2.184-0.146,3.263
	c-0.032,1.08-0.048,2.135-0.048,3.165c0,1.16,0.023,2.271,0.072,3.335c0.048,1.063,0.121,2.078,0.218,3.045
	c-0.58-0.032-1.032-0.097-1.354-0.193c-0.29-0.064-0.556-0.169-0.798-0.314c-0.241-0.145-0.41-0.347-0.507-0.604
	c-0.065-0.322-0.113-0.621-0.146-0.895s-0.048-0.556-0.048-0.846s0.008-0.556,0.024-0.797c0.016-0.242,0.039-0.491,0.072-0.75
	c0.031-0.225,0.056-0.442,0.072-0.652c0.016-0.209,0.024-0.41,0.024-0.604c-0.87,0.677-2.087,1.337-3.649,1.981
	s-3.197,1.128-4.905,1.449c-0.741,0.161-1.482,0.282-2.223,0.363c-0.742,0.08-1.45,0.12-2.127,0.12
	c-1.192,0-2.231-0.153-3.117-0.459c-0.887-0.306-1.506-0.813-1.86-1.522c-0.162-0.354-0.29-0.725-0.387-1.111
	s-0.145-0.773-0.145-1.16c0-0.321,0.023-0.652,0.072-0.99c0.048-0.339,0.137-0.668,0.266-0.991c0.548-1.836,1.675-3.576,3.383-5.219
	c1.707-1.644,3.528-2.852,5.461-3.625c0.645-0.226,1.272-0.411,1.885-0.556c0.612-0.146,1.209-0.218,1.789-0.218
	c0.257,0,0.499,0.009,0.725,0.024c0.225,0.017,0.45,0.057,0.677,0.121c0.257,0.064,0.523,0.152,0.797,0.266s0.556,0.25,0.846,0.41
	c0.548,0.29,1.071,0.637,1.571,1.039c0.499,0.403,0.942,0.846,1.329,1.329v-0.048c0-2.384-0.024-4.559-0.073-6.524
	c-0.048-1.965-0.104-3.689-0.169-5.171c-0.064-1.515-0.121-2.795-0.169-3.843c-0.049-1.047-0.072-1.893-0.072-2.537
	c0-0.321,0.007-0.588,0.023-0.798c0.017-0.209,0.04-0.378,0.073-0.507c0.031,0,0.063-0.008,0.097-0.024
	c0.031-0.016,0.063-0.024,0.097-0.024c0.063,0,0.112,0,0.145,0c0.161,0,0.33,0.017,0.508,0.049c0.177,0.032,0.362,0.081,0.556,0.145
	c0.161,0.065,0.321,0.13,0.483,0.193c0.16,0.065,0.306,0.129,0.435,0.193c0.322,0.162,0.692,0.371,1.111,0.629
	C368.516,285.111,368.557,285.393,368.573,285.731z M365.021,303.879c-0.709-0.516-1.668-1.007-2.876-1.475
	c-1.208-0.467-2.473-0.717-3.794-0.749c-0.032,0-0.072,0-0.12,0c-0.049,0-0.105,0-0.17,0c-1.772,0-3.415,0.54-4.93,1.619
	c-1.515,1.08-2.497,3.069-2.947,5.969c-0.033,0.129-0.049,0.25-0.049,0.362c0,0.113,0,0.218,0,0.314
	c0,1.482,0.499,2.529,1.498,3.142s2.207,0.918,3.625,0.918c0.58,0,1.184-0.04,1.813-0.121c0.628-0.08,1.248-0.201,1.86-0.362
	c1.095-0.258,2.175-0.62,3.238-1.088c1.063-0.466,2.013-1.006,2.852-1.618V303.879z M395.612,313.109
	c0.064,0.097,0.048,0.21-0.049,0.338c-0.032,0.065-0.097,0.138-0.193,0.218c-0.097,0.081-0.193,0.138-0.289,0.169
	c-1.129,0.419-2.328,0.798-3.601,1.136c-1.273,0.339-2.57,0.62-3.891,0.846c-0.967,0.161-1.934,0.29-2.9,0.387
	c-0.966,0.097-1.901,0.146-2.803,0.146c-2.319,0-4.277-0.347-5.872-1.039s-2.409-1.909-2.44-3.649c0-0.677,0.137-1.441,0.411-2.295
	c0.273-0.854,0.716-1.78,1.329-2.779v-0.048c1.127-1.676,2.198-2.868,3.214-3.577c1.015-0.708,1.715-1.143,2.102-1.305
	c0.097-0.064,0.25-0.145,0.46-0.241c0.209-0.097,0.475-0.177,0.797-0.242c0.548-0.193,1.216-0.362,2.006-0.507
	c0.789-0.146,1.603-0.233,2.44-0.267c0.097,0,0.201,0,0.314,0c0.112,0,0.217,0,0.313,0c1.192,0,2.248,0.193,3.166,0.58
	s1.426,1.112,1.522,2.175c0,0.549,0.04,1.008,0.121,1.378c0.08,0.37,0.185,0.669,0.313,0.894c0.097,0.259,0.186,0.459,0.266,0.604
	c0.08,0.145,0.121,0.282,0.121,0.411c0,0.064-0.032,0.145-0.097,0.241s-0.178,0.193-0.338,0.29
	c-0.483,0.097-1.458,0.274-2.924,0.531c-1.467,0.259-3.037,0.532-4.712,0.822c-1.644,0.258-3.198,0.516-4.664,0.772
	c-1.467,0.259-2.44,0.436-2.924,0.532c0.387,1.676,1.176,2.972,2.368,3.891c1.191,0.918,2.867,1.377,5.026,1.377
	c1.063,0,2.238-0.112,3.527-0.338c1.288-0.226,2.723-0.596,4.302-1.112c0.74-0.16,1.345-0.281,1.813-0.362
	c0.466-0.08,0.829-0.12,1.087-0.12C395.322,312.965,395.547,313.013,395.612,313.109z M376.832,308.033
	c2.213-0.289,4.052-0.521,5.513-0.699c1.466-0.177,2.634-0.346,3.504-0.508c1.095-0.192,1.828-0.402,2.199-0.628
	c0.37-0.225,0.556-0.611,0.556-1.16c0.032-0.128,0.056-0.249,0.072-0.362c0.016-0.112,0.024-0.217,0.024-0.313
	c0-0.773-0.314-1.418-0.942-1.934c-0.628-0.515-1.604-0.773-2.924-0.773c-0.322,0-0.887,0.105-1.691,0.314
	c-0.806,0.21-1.676,0.62-2.61,1.232c-0.709,0.516-1.401,1.16-2.078,1.933C377.789,305.897,377.248,306.865,376.832,308.033z
	 M416.079,284.378c-0.371-0.273-0.781-0.491-1.232-0.652c-0.193-0.097-0.387-0.161-0.58-0.193s-0.37-0.049-0.531-0.049
	c-0.129,0-0.266,0.024-0.411,0.073c-0.145,0.048-0.25,0.104-0.313,0.169c-0.097,0.226-0.17,0.419-0.218,0.58
	c-0.049,0.161-0.057,0.322-0.024,0.483c0,0.226,0.032,0.516,0.097,0.869c0.064,0.355,0.146,0.919,0.242,1.691
	c0.063,0.742,0.128,1.765,0.193,3.069c0.063,1.305,0.097,3.005,0.097,5.099v10.633v0.048c0,0.516-0.009,1.039-0.024,1.57
	c-0.017,0.532-0.041,1.057-0.072,1.571c0,0.064,0,0.138,0,0.218s0,0.169,0,0.266c-0.033,0.451-0.057,0.902-0.073,1.353
	c-0.017,0.452-0.023,0.903-0.023,1.354c0,0.483,0.016,0.959,0.048,1.426c0.032,0.468,0.08,0.911,0.146,1.329
	c-0.033,0.064-0.024,0.121,0.023,0.169c0.049,0.049,0.121,0.104,0.218,0.169c0.161,0.097,0.362,0.186,0.604,0.267
	c0.241,0.08,0.475,0.137,0.7,0.169c0.129,0.031,0.258,0.056,0.387,0.072c0.129,0.016,0.242,0.024,0.338,0.024
	c0.226,0,0.411-0.041,0.557-0.121c0.145-0.081,0.217-0.201,0.217-0.362c-0.129-0.483-0.226-1.272-0.29-2.368
	c-0.064-1.095-0.097-2.368-0.097-3.818c0-1.288,0.017-2.682,0.049-4.18c0.031-1.499,0.08-3.021,0.145-4.567
	c0.032-0.741,0.064-1.481,0.097-2.224c0.032-0.74,0.064-1.466,0.097-2.175c0.097-2.19,0.186-4.188,0.267-5.992
	c0.079-1.805,0.12-3.157,0.12-4.06c0-0.258,0-0.476,0-0.652s-0.017-0.298-0.048-0.363
	C416.683,284.95,416.449,284.652,416.079,284.378z M445.584,314.97c-0.065,0.146-0.21,0.299-0.436,0.459
	c-0.193,0.129-0.428,0.258-0.7,0.387c-0.274,0.129-0.557,0.258-0.847,0.387c-0.322,0.097-0.636,0.186-0.942,0.266
	c-0.306,0.08-0.556,0.121-0.749,0.121c-0.129,0-0.226-0.008-0.29-0.024s-0.097-0.057-0.097-0.12
	c-0.192-0.259-0.338-0.637-0.435-1.136s-0.193-1.022-0.29-1.571c0-0.031-0.008-0.072-0.024-0.12
	c-0.017-0.049-0.023-0.089-0.023-0.121c-0.097-0.611-0.202-1.168-0.314-1.667c-0.113-0.5-0.266-0.847-0.459-1.039
	c-0.646,1.159-1.757,2.118-3.335,2.875c-1.579,0.758-3.255,1.298-5.026,1.619c-0.709,0.128-1.409,0.225-2.103,0.29
	c-0.692,0.064-1.361,0.097-2.005,0.097c-0.612,0-1.185-0.032-1.716-0.097c-0.532-0.065-1.008-0.162-1.426-0.29
	c-0.935-0.354-1.611-0.838-2.03-1.45c-0.419-0.611-0.628-1.288-0.628-2.029c0-0.58,0.097-1.176,0.29-1.788s0.467-1.24,0.821-1.885
	c0.902-1.515,2.175-2.964,3.818-4.35c1.644-1.385,3.351-2.4,5.123-3.045c0.547-0.193,1.087-0.339,1.619-0.436
	c0.531-0.096,1.055-0.145,1.57-0.145c0.901,0,1.747,0.169,2.537,0.508c0.789,0.338,1.49,0.91,2.103,1.715v-0.048
	c0.193,0.032,0.411,0.048,0.652,0.048s0.475-0.016,0.701-0.048c0.257-0.031,0.499-0.072,0.725-0.121
	c0.225-0.048,0.435-0.12,0.628-0.217c0.032,0.064,0.057,0.161,0.073,0.29c0.016,0.129,0.023,0.289,0.023,0.482
	c0.064,0.58,0.129,1.37,0.193,2.368c0.064,0.999,0.161,2.03,0.29,3.094c0.161,1.579,0.419,3.028,0.773,4.35s0.87,1.981,1.547,1.981
	c0.031,0,0.056,0,0.072,0c0.016,0,0.04,0,0.072,0C445.567,314.688,445.647,314.825,445.584,314.97z M439.735,308.373
	c0-0.418-0.023-0.854-0.072-1.305c-0.048-0.451-0.104-0.901-0.169-1.354c-0.032-0.257-0.072-0.499-0.121-0.725
	c-0.048-0.226-0.089-0.451-0.121-0.677c-0.612-0.934-1.337-1.595-2.175-1.981s-1.708-0.58-2.609-0.58
	c-1.096,0-2.15,0.21-3.165,0.628c-1.016,0.42-1.861,0.887-2.538,1.402c-0.097,0.097-0.193,0.186-0.29,0.266
	c-0.096,0.081-0.192,0.169-0.289,0.266c-0.646,0.645-1.192,1.418-1.644,2.32s-0.725,1.82-0.821,2.754
	c-0.033,0.13-0.049,0.25-0.049,0.363s0,0.233,0,0.362c0,0.322,0.024,0.628,0.072,0.918c0.049,0.29,0.104,0.58,0.17,0.87
	c0.29,0.773,0.837,1.346,1.643,1.716s1.724,0.556,2.755,0.556c0.515,0,1.047-0.04,1.595-0.121c0.548-0.08,1.111-0.218,1.691-0.411
	c1.128-0.354,2.224-0.869,3.287-1.546c1.063-0.677,1.965-1.498,2.706-2.465v-0.049c0.064-0.128,0.104-0.306,0.121-0.531
	C439.727,308.825,439.735,308.599,439.735,308.373z M484.294,313.109c0.064,0.097,0.048,0.21-0.049,0.338
	c-0.032,0.065-0.097,0.138-0.193,0.218c-0.097,0.081-0.193,0.138-0.289,0.169c-1.129,0.419-2.328,0.798-3.601,1.136
	c-1.273,0.339-2.57,0.62-3.891,0.846c-0.967,0.161-1.934,0.29-2.9,0.387c-0.966,0.097-1.901,0.146-2.803,0.146
	c-2.319,0-4.277-0.347-5.872-1.039s-2.409-1.909-2.44-3.649c0-0.677,0.137-1.441,0.411-2.295c0.273-0.854,0.716-1.78,1.329-2.779
	v-0.048c1.127-1.676,2.198-2.868,3.214-3.577c1.015-0.708,1.715-1.143,2.102-1.305c0.097-0.064,0.25-0.145,0.46-0.241
	c0.209-0.097,0.475-0.177,0.797-0.242c0.548-0.193,1.216-0.362,2.006-0.507c0.789-0.146,1.603-0.233,2.44-0.267
	c0.097,0,0.201,0,0.314,0c0.112,0,0.217,0,0.313,0c1.192,0,2.248,0.193,3.166,0.58s1.426,1.112,1.522,2.175
	c0,0.549,0.04,1.008,0.121,1.378c0.08,0.37,0.185,0.669,0.313,0.894c0.097,0.259,0.186,0.459,0.266,0.604
	c0.08,0.145,0.121,0.282,0.121,0.411c0,0.064-0.032,0.145-0.097,0.241s-0.178,0.193-0.338,0.29
	c-0.483,0.097-1.458,0.274-2.924,0.531c-1.467,0.259-3.037,0.532-4.712,0.822c-1.644,0.258-3.198,0.516-4.664,0.772
	c-1.467,0.259-2.44,0.436-2.924,0.532c0.387,1.676,1.176,2.972,2.368,3.891c1.191,0.918,2.867,1.377,5.026,1.377
	c1.063,0,2.238-0.112,3.527-0.338c1.288-0.226,2.723-0.596,4.302-1.112c0.74-0.16,1.345-0.281,1.813-0.362
	c0.466-0.08,0.829-0.12,1.087-0.12C484.004,312.965,484.228,313.013,484.294,313.109z M465.514,308.033
	c2.213-0.289,4.052-0.521,5.513-0.699c1.466-0.177,2.634-0.346,3.504-0.508c1.095-0.192,1.828-0.402,2.199-0.628
	c0.37-0.225,0.556-0.611,0.556-1.16c0.032-0.128,0.056-0.249,0.072-0.362c0.016-0.112,0.024-0.217,0.024-0.313
	c0-0.773-0.314-1.418-0.942-1.934c-0.628-0.515-1.604-0.773-2.924-0.773c-0.322,0-0.887,0.105-1.691,0.314
	c-0.806,0.21-1.676,0.62-2.61,1.232c-0.709,0.516-1.401,1.16-2.078,1.933C466.471,305.897,465.93,306.865,465.514,308.033z
	 M518.027,314.173c-0.419,0-0.782-0.523-1.088-1.571c-0.307-1.046-0.572-2.198-0.797-3.455c-0.193-1.031-0.347-2.014-0.459-2.948
	c-0.113-0.934-0.218-1.563-0.314-1.885c-0.259-1.191-0.646-2.046-1.16-2.562c-0.516-0.515-1.096-0.773-1.739-0.773
	c-0.549,0-1.145,0.162-1.789,0.483c-0.645,0.322-1.289,0.742-1.933,1.257c-0.806,0.677-1.595,1.474-2.368,2.393
	c-0.773,0.918-1.482,1.845-2.127,2.778c-0.386,0.58-0.732,1.145-1.039,1.691c-0.307,0.549-0.572,1.063-0.797,1.547
	c0-0.451,0.008-0.895,0.024-1.329c0.016-0.435,0.023-0.861,0.023-1.28s0.008-0.829,0.024-1.232c0.016-0.403,0.024-0.798,0.024-1.185
	c0-1.354-0.121-2.456-0.362-3.311c-0.242-0.854-0.782-1.264-1.619-1.232c-0.355,0-0.782,0.097-1.281,0.29
	c-0.5,0.193-1.087,0.5-1.764,0.918c-0.419,0.29-0.87,0.661-1.354,1.112s-0.982,0.95-1.498,1.498
	c-0.226,0.258-0.451,0.523-0.677,0.797c-0.226,0.274-0.451,0.54-0.677,0.798c-0.612,0.709-1.184,1.41-1.715,2.103
	c-0.532,0.693-0.976,1.265-1.329,1.716c0.063-0.387,0.145-0.781,0.241-1.185c0.097-0.402,0.193-0.797,0.29-1.184
	c0.225-1.063,0.442-2.07,0.652-3.021c0.209-0.95,0.314-1.796,0.314-2.538c0-0.772-0.162-1.393-0.483-1.86
	c-0.322-0.467-0.887-0.685-1.691-0.652c-0.162,0-0.347,0.008-0.556,0.024c-0.21,0.017-0.428,0.057-0.652,0.12
	c-0.033,0.13-0.057,0.25-0.073,0.363s-0.023,0.233-0.023,0.362c0,0.161,0.007,0.354,0.023,0.58s0.04,0.516,0.073,0.869
	c0.031,0.323,0.056,0.726,0.072,1.209c0.016,0.483,0.024,1.063,0.024,1.739c0,0.999-0.033,2.256-0.097,3.77
	c-0.065,1.516-0.193,3.352-0.387,5.51v0.049c-0.097,0.193-0.049,0.33,0.145,0.41s0.419,0.121,0.677,0.121s0.499-0.041,0.725-0.121
	s0.339-0.217,0.339-0.41c0.257-0.58,0.58-1.265,0.967-2.055c0.386-0.789,0.821-1.603,1.305-2.44c0.74-1.32,1.563-2.545,2.465-3.673
	c0.901-1.128,1.804-1.885,2.706-2.271c0.193-0.064,0.378-0.112,0.556-0.145c0.177-0.032,0.346-0.049,0.508-0.049
	c0.031,0,0.056,0,0.072,0c0.016,0,0.04,0,0.072,0s0.064,0,0.097,0c0.548,0,0.942,0.226,1.185,0.677
	c0.241,0.451,0.362,1.177,0.362,2.175c0,0.741-0.065,1.66-0.193,2.755c-0.129,1.096-0.322,2.4-0.58,3.914
	c-0.032,0.033-0.048,0.073-0.048,0.121c0,0.049,0,0.089,0,0.121c0,0.29,0.12,0.556,0.362,0.797c0.241,0.242,0.507,0.411,0.797,0.508
	c0.129,0.064,0.249,0.104,0.362,0.121c0.113,0.016,0.218,0.023,0.314,0.023c0.129,0,0.233-0.017,0.314-0.048
	c0.08-0.032,0.137-0.097,0.169-0.193c0.161-0.451,0.467-1.184,0.918-2.199c0.451-1.015,0.999-2.085,1.644-3.214
	c0.708-1.191,1.481-2.319,2.319-3.383s1.691-1.804,2.562-2.223c0.226-0.129,0.442-0.218,0.652-0.267
	c0.21-0.048,0.427-0.072,0.652-0.072c0.58,0,1.079,0.621,1.499,1.86c0.418,1.241,0.821,2.699,1.208,4.374
	c0.064,0.355,0.137,0.718,0.218,1.088c0.08,0.37,0.152,0.733,0.217,1.087c0.161,0.709,0.33,1.41,0.508,2.103
	c0.177,0.693,0.362,1.36,0.556,2.006c0.064,0.16,0.177,0.273,0.338,0.338s0.322,0.08,0.483,0.049c0.161,0,0.339-0.024,0.532-0.073
	c0.193-0.048,0.387-0.104,0.58-0.169c0.354-0.129,0.7-0.307,1.039-0.531c0.338-0.226,0.587-0.452,0.749-0.677
	c0.097-0.097,0.169-0.201,0.217-0.314c0.049-0.112,0.073-0.217,0.073-0.313c0-0.129-0.049-0.242-0.146-0.339
	S518.221,314.237,518.027,314.173z M544.269,301.994c-0.548-0.935-1.329-1.587-2.344-1.958c-1.015-0.37-2.086-0.556-3.214-0.556
	c-0.032,0-0.072,0-0.121,0c-0.048,0-0.089,0-0.12,0c-0.839,0-1.66,0.065-2.465,0.193c-0.806,0.129-1.482,0.274-2.03,0.436
	c-0.645,0.258-1.377,0.604-2.199,1.039c-0.821,0.435-1.651,0.942-2.488,1.521c-0.355,0.259-0.718,0.524-1.088,0.798
	c-0.37,0.274-0.733,0.556-1.087,0.846c0.097-0.58,0.169-1.087,0.217-1.522c0.049-0.435,0.073-0.797,0.073-1.087
	c0-0.258-0.024-0.459-0.073-0.604c-0.048-0.145-0.12-0.218-0.217-0.218c-0.097-0.063-0.21-0.137-0.339-0.217
	s-0.258-0.17-0.387-0.267c-0.097-0.063-0.201-0.137-0.313-0.217c-0.113-0.08-0.218-0.137-0.314-0.169
	c-0.226-0.129-0.435-0.233-0.628-0.314c-0.193-0.08-0.387-0.121-0.58-0.121s-0.362,0.065-0.508,0.193
	c-0.145,0.129-0.25,0.355-0.313,0.677v0.048c0.097,7.024,0.12,12.203,0.072,15.538c-0.049,3.335-0.121,5.71-0.218,7.129
	c-0.064,0.805-0.113,1.426-0.145,1.86c-0.033,0.435-0.065,0.829-0.097,1.184c0,0.064,0,0.137,0,0.218c0,0.08,0,0.169,0,0.266
	s0.04,0.218,0.12,0.363c0.08,0.145,0.201,0.281,0.363,0.41c0.128,0.129,0.266,0.258,0.41,0.387c0.146,0.129,0.298,0.242,0.459,0.339
	c0.322,0.192,0.62,0.321,0.895,0.386c0.273,0.064,0.41-0.048,0.41-0.338c0.161-0.935,0.25-2.054,0.267-3.358
	c0.016-1.306,0.023-2.699,0.023-4.181c0-0.193,0-0.379,0-0.556c0-0.178,0-0.363,0-0.556c0-0.517,0-1.048,0-1.596
	s0.017-1.096,0.049-1.643c0.097-3.028,0.508-5.896,1.232-8.603c0.725-2.707,2.23-4.495,4.519-5.365
	c0.741-0.257,1.426-0.442,2.054-0.556c0.629-0.112,1.2-0.169,1.716-0.169c1.771,0,3.036,0.54,3.794,1.619
	c0.757,1.08,1.136,2.328,1.136,3.745c0,0.13,0,0.25,0,0.363s-0.017,0.233-0.048,0.362c-0.097,1.128-0.403,2.216-0.919,3.262
	c-0.516,1.048-1.192,1.861-2.029,2.44c-0.549,0.259-1.152,0.443-1.813,0.557c-0.661,0.113-1.329,0.169-2.006,0.169
	c-0.967,0-1.901-0.089-2.803-0.266c-0.902-0.177-1.644-0.363-2.224-0.557c-0.129-0.063-0.25-0.12-0.362-0.169
	c-0.113-0.048-0.218-0.088-0.314-0.12c-0.192-0.097-0.346-0.104-0.459-0.024c-0.113,0.081-0.169,0.233-0.169,0.459
	c0,0.161,0.032,0.331,0.097,0.508s0.177,0.379,0.339,0.604c0.321,0.387,0.805,0.732,1.449,1.039c0.645,0.306,1.515,0.459,2.61,0.459
	c0.45-0.032,0.918-0.072,1.401-0.12c0.483-0.049,1.015-0.153,1.595-0.314c0.515-0.097,1.079-0.29,1.691-0.58
	c0.611-0.29,1.24-0.66,1.885-1.111c1.257-0.901,2.44-2.046,3.552-3.432c1.112-1.385,1.877-2.818,2.296-4.301
	c0.064-0.29,0.121-0.597,0.169-0.919c0.049-0.321,0.073-0.644,0.073-0.966c0-0.419-0.041-0.822-0.121-1.209
	C544.599,302.767,544.463,302.38,544.269,301.994z M565.823,304.748c-0.097-0.031-0.226-0.048-0.387-0.048
	c-0.193-0.032-0.419-0.072-0.677-0.121c-0.258-0.048-0.516-0.169-0.773-0.362c-0.386-0.321-0.749-0.87-1.087-1.644
	c-0.338-0.772-0.588-1.981-0.749-3.624c-0.097-0.064-0.202-0.121-0.314-0.169c-0.113-0.049-0.234-0.073-0.362-0.073
	c-0.387,0-0.773,0.21-1.16,0.629s-0.693,0.87-0.918,1.353c-0.097,0.259-0.178,0.5-0.241,0.726c-0.065,0.226-0.097,0.435-0.097,0.628
	c0,0.065,0,0.121,0,0.169c0,0.049,0.016,0.105,0.048,0.169c-0.258,0.483-0.725,1.112-1.401,1.886
	c-0.677,0.772-1.401,1.659-2.175,2.657c-0.451,0.58-0.895,1.192-1.329,1.837s-0.83,1.321-1.185,2.03
	c0.064-0.612,0.146-1.2,0.242-1.765c0.097-0.563,0.177-1.087,0.241-1.57c0.193-1.063,0.37-1.997,0.532-2.804
	c0.16-0.805,0.241-1.481,0.241-2.029c0-0.611-0.153-1.063-0.459-1.354c-0.307-0.29-0.862-0.435-1.667-0.435
	c-0.033,0-0.081,0-0.146,0s-0.129,0-0.193,0c-0.032,0.032-0.08,0.048-0.145,0.048c-0.065,0-0.129,0-0.193,0
	c-0.032,0-0.057,0-0.072,0c-0.017,0-0.041,0-0.073,0c-0.226,0-0.379,0.153-0.459,0.459c-0.08,0.307-0.12,0.75-0.12,1.329
	c0,0.355,0.007,0.767,0.023,1.232c0.017,0.468,0.04,0.976,0.073,1.522c0.031,0.549,0.056,1.145,0.072,1.788
	c0.016,0.646,0.023,1.322,0.023,2.03c0,0.741-0.017,1.522-0.048,2.344c-0.032,0.821-0.081,1.667-0.145,2.537v0.049
	c-0.162,0.322-0.057,0.604,0.313,0.846c0.37,0.241,0.813,0.362,1.329,0.362c0.064,0,0.121,0,0.169,0c0.049,0,0.104-0.017,0.17-0.049
	c0.031,0,0.08-0.008,0.145-0.023c0.064-0.017,0.112-0.024,0.145-0.024c0.322-1.578,0.838-2.988,1.547-4.229
	c0.708-1.24,1.434-2.408,2.175-3.504c0.322-0.419,0.636-0.838,0.942-1.257c0.306-0.418,0.604-0.837,0.895-1.257
	c0.16-0.257,0.321-0.507,0.483-0.749c0.16-0.241,0.306-0.49,0.435-0.749c0.193,0.58,0.604,1.071,1.232,1.475
	s1.313,0.685,2.054,0.846c0.193,0.064,0.387,0.104,0.58,0.12c0.193,0.017,0.387,0.024,0.58,0.024c0.483,0,0.91-0.08,1.28-0.241
	s0.62-0.402,0.749-0.726C565.968,304.878,565.92,304.781,565.823,304.748z M589.31,313.109c0.064,0.097,0.048,0.21-0.049,0.338
	c-0.032,0.065-0.097,0.138-0.193,0.218c-0.097,0.081-0.193,0.138-0.289,0.169c-1.129,0.419-2.328,0.798-3.601,1.136
	c-1.273,0.339-2.57,0.62-3.891,0.846c-0.967,0.161-1.934,0.29-2.9,0.387c-0.966,0.097-1.901,0.146-2.803,0.146
	c-2.319,0-4.277-0.347-5.872-1.039s-2.409-1.909-2.44-3.649c0-0.677,0.137-1.441,0.411-2.295c0.273-0.854,0.716-1.78,1.329-2.779
	v-0.048c1.127-1.676,2.198-2.868,3.214-3.577c1.015-0.708,1.715-1.143,2.102-1.305c0.097-0.064,0.25-0.145,0.46-0.241
	c0.209-0.097,0.475-0.177,0.797-0.242c0.548-0.193,1.216-0.362,2.006-0.507c0.789-0.146,1.603-0.233,2.44-0.267
	c0.097,0,0.201,0,0.314,0c0.112,0,0.217,0,0.313,0c1.192,0,2.248,0.193,3.166,0.58s1.426,1.112,1.522,2.175
	c0,0.549,0.04,1.008,0.121,1.378c0.08,0.37,0.185,0.669,0.313,0.894c0.097,0.259,0.186,0.459,0.266,0.604
	c0.08,0.145,0.121,0.282,0.121,0.411c0,0.064-0.032,0.145-0.097,0.241s-0.178,0.193-0.338,0.29
	c-0.483,0.097-1.458,0.274-2.924,0.531c-1.467,0.259-3.037,0.532-4.712,0.822c-1.644,0.258-3.198,0.516-4.664,0.772
	c-1.467,0.259-2.44,0.436-2.924,0.532c0.387,1.676,1.176,2.972,2.368,3.891c1.191,0.918,2.867,1.377,5.026,1.377
	c1.063,0,2.238-0.112,3.527-0.338c1.288-0.226,2.723-0.596,4.302-1.112c0.74-0.16,1.345-0.281,1.813-0.362
	c0.466-0.08,0.829-0.12,1.087-0.12C589.02,312.965,589.245,313.013,589.31,313.109z M570.531,308.033
	c2.213-0.289,4.052-0.521,5.513-0.699c1.466-0.177,2.634-0.346,3.504-0.508c1.095-0.192,1.828-0.402,2.199-0.628
	c0.37-0.225,0.556-0.611,0.556-1.16c0.032-0.128,0.056-0.249,0.072-0.362c0.016-0.112,0.024-0.217,0.024-0.313
	c0-0.773-0.314-1.418-0.942-1.934c-0.628-0.515-1.604-0.773-2.924-0.773c-0.322,0-0.887,0.105-1.691,0.314
	c-0.806,0.21-1.676,0.62-2.61,1.232c-0.709,0.516-1.401,1.16-2.078,1.933C571.487,305.897,570.946,306.865,570.531,308.033z
	 M607.289,307.116c-1.386-0.387-2.916-0.659-4.591-0.821c-0.259,0-0.508-0.016-0.749-0.048c-0.242-0.032-0.476-0.049-0.701-0.049
	c-1.353-0.097-2.537-0.233-3.552-0.411c-1.015-0.176-1.571-0.556-1.668-1.136v0.049c-0.096-0.161-0.161-0.321-0.192-0.483
	c-0.033-0.161-0.049-0.306-0.049-0.435c0-0.773,0.556-1.394,1.667-1.861c1.112-0.467,2.425-0.7,3.939-0.7
	c0.321,0,0.644,0.008,0.967,0.024c0.321,0.017,0.659,0.057,1.015,0.12c0.87,0.129,1.716,0.339,2.537,0.629s1.587,0.676,2.296,1.159
	c0.225,0.065,0.394,0.017,0.507-0.145s0.17-0.37,0.17-0.629c0-0.128-0.018-0.257-0.049-0.386c-0.032-0.129-0.064-0.258-0.097-0.387
	c-0.097-0.322-0.258-0.629-0.483-0.919s-0.5-0.482-0.821-0.579c-0.097-0.032-0.226-0.064-0.387-0.097
	c-0.162-0.032-0.354-0.064-0.58-0.097c-0.419-0.064-0.918-0.121-1.498-0.17c-0.58-0.048-1.225-0.072-1.934-0.072
	s-1.458,0.041-2.247,0.121c-0.79,0.081-1.587,0.218-2.393,0.411c-0.806,0.192-1.603,0.467-2.392,0.821
	c-0.79,0.354-1.539,0.806-2.247,1.353c-0.517,0.613-0.879,1.177-1.088,1.692c-0.21,0.516-0.314,0.982-0.314,1.401
	c0,1.031,0.588,1.756,1.765,2.175c1.176,0.419,2.456,0.677,3.842,0.773c0.708,0.064,1.401,0.097,2.078,0.097
	s1.272-0.017,1.788-0.049c0.193,0,0.387,0,0.58,0s0.354,0,0.483,0c0.87,0.097,1.522,0.428,1.957,0.991
	c0.436,0.563,0.669,1.168,0.701,1.812c0,0.033,0,0.057,0,0.073s0,0.04,0,0.072c-0.032,0.612-0.202,1.184-0.508,1.716
	c-0.307,0.531-0.781,0.878-1.426,1.039c-0.419,0.097-0.846,0.161-1.28,0.193c-0.436,0.032-0.846,0.048-1.232,0.048
	c-1.16,0-2.207-0.137-3.142-0.41s-1.757-0.572-2.465-0.895c-1.257-0.548-2.183-0.958-2.778-1.232
	c-0.597-0.273-0.895,0.121-0.895,1.185c0.097,0.902,0.846,1.611,2.247,2.126s3.004,0.773,4.809,0.773
	c0.29,0,0.572-0.009,0.846-0.024c0.273-0.017,0.557-0.041,0.846-0.072c2.03-0.193,3.923-0.757,5.679-1.691s2.779-2.32,3.069-4.156
	c0.031-0.129,0.048-0.242,0.048-0.339s0-0.193,0-0.29C609.367,308.261,608.675,307.503,607.289,307.116z M636.625,314.97
	c-0.065,0.146-0.21,0.299-0.436,0.459c-0.193,0.129-0.428,0.258-0.7,0.387c-0.274,0.129-0.557,0.258-0.847,0.387
	c-0.322,0.097-0.636,0.186-0.942,0.266c-0.306,0.08-0.556,0.121-0.749,0.121c-0.129,0-0.226-0.008-0.29-0.024
	s-0.097-0.057-0.097-0.12c-0.192-0.259-0.338-0.637-0.435-1.136s-0.193-1.022-0.29-1.571c0-0.031-0.008-0.072-0.024-0.12
	c-0.017-0.049-0.023-0.089-0.023-0.121c-0.097-0.611-0.202-1.168-0.314-1.667c-0.113-0.5-0.266-0.847-0.459-1.039
	c-0.646,1.159-1.757,2.118-3.335,2.875c-1.579,0.758-3.255,1.298-5.026,1.619c-0.709,0.128-1.409,0.225-2.103,0.29
	c-0.692,0.064-1.361,0.097-2.005,0.097c-0.612,0-1.185-0.032-1.716-0.097c-0.532-0.065-1.008-0.162-1.426-0.29
	c-0.935-0.354-1.611-0.838-2.03-1.45c-0.419-0.611-0.628-1.288-0.628-2.029c0-0.58,0.097-1.176,0.29-1.788s0.467-1.24,0.821-1.885
	c0.902-1.515,2.175-2.964,3.818-4.35c1.644-1.385,3.351-2.4,5.123-3.045c0.547-0.193,1.087-0.339,1.619-0.436
	c0.531-0.096,1.055-0.145,1.57-0.145c0.901,0,1.747,0.169,2.537,0.508c0.789,0.338,1.49,0.91,2.103,1.715v-0.048
	c0.193,0.032,0.411,0.048,0.652,0.048s0.475-0.016,0.701-0.048c0.257-0.031,0.499-0.072,0.725-0.121
	c0.225-0.048,0.435-0.12,0.628-0.217c0.032,0.064,0.057,0.161,0.073,0.29c0.016,0.129,0.023,0.289,0.023,0.482
	c0.064,0.58,0.129,1.37,0.193,2.368c0.064,0.999,0.161,2.03,0.29,3.094c0.161,1.579,0.419,3.028,0.773,4.35s0.87,1.981,1.547,1.981
	c0.031,0,0.056,0,0.072,0c0.016,0,0.04,0,0.072,0C636.608,314.688,636.688,314.825,636.625,314.97z M630.776,308.373
	c0-0.418-0.023-0.854-0.072-1.305c-0.048-0.451-0.104-0.901-0.169-1.354c-0.032-0.257-0.072-0.499-0.121-0.725
	c-0.048-0.226-0.089-0.451-0.121-0.677c-0.612-0.934-1.337-1.595-2.175-1.981s-1.708-0.58-2.609-0.58
	c-1.096,0-2.15,0.21-3.165,0.628c-1.016,0.42-1.861,0.887-2.538,1.402c-0.097,0.097-0.193,0.186-0.29,0.266
	c-0.096,0.081-0.192,0.169-0.289,0.266c-0.646,0.645-1.192,1.418-1.644,2.32s-0.725,1.82-0.821,2.754
	c-0.033,0.13-0.049,0.25-0.049,0.363s0,0.233,0,0.362c0,0.322,0.024,0.628,0.072,0.918c0.049,0.29,0.104,0.58,0.17,0.87
	c0.29,0.773,0.837,1.346,1.643,1.716s1.724,0.556,2.755,0.556c0.515,0,1.047-0.04,1.595-0.121c0.548-0.08,1.111-0.218,1.691-0.411
	c1.128-0.354,2.224-0.869,3.287-1.546c1.063-0.677,1.965-1.498,2.706-2.465v-0.049c0.064-0.128,0.104-0.306,0.121-0.531
	C630.768,308.825,630.776,308.599,630.776,308.373z"/>
</svg>