<!-- Generator: Adobe Illustrator 19.0.0, SVG Export Plug-In  -->
<svg version="1.1"
	 xmlns="http://www.w3.org/2000/svg" xmlns:xlink="http://www.w3.org/1999/xlink" xmlns:a="http://ns.adobe.com/AdobeSVGViewerExtensions/3.0/"
	 x="0px" y="0px" width="615.663px" height="615.663px" viewBox="0 0 615.663 615.663"
	 style="enable-background:new 0 0 615.663 615.663;" xml:space="preserve">
<style type="text/css">
	.st0{fill:#FFFFFF;}
</style>
<defs>
</defs>
<g id="XMLID_19_">
	<circle id="XMLID_190_" class="st0" cx="307.831" cy="307.831" r="307.831"/>
	<path id="XMLID_20_" d="M376.652,173.034c0.021,0.029,0.039,0.062,0.059,0.093c-0.03-0.017-0.062-0.032-0.092-0.049l0,0
		c-0.049-0.037-0.1-0.072-0.149-0.109C376.53,172.991,376.591,173.012,376.652,173.034L376.652,173.034z M236.457,401.805
		c0-0.308,0.002-0.616,0.002-0.924c-0.053,0.316-0.106,0.633-0.16,0.949C236.352,401.822,236.405,401.814,236.457,401.805z
		 M245.048,512.833c0.064,0.049,0.127,0.099,0.19,0.148c0.087-0.219,0.173-0.439,0.26-0.658
		C245.348,512.493,245.198,512.663,245.048,512.833z M239.586,502.05L239.586,502.05
		C239.599,502.053,239.596,502.053,239.586,502.05z M424.291,186.254c0.047,0.102,0.068,0.275,0.014,0.357
		c-1.225,1.854,1.213,2.614,1.313,4.136c0.02,0.304,1.377,0.596,1.919-0.681c0.84-1.98,2.082-3.786,3.091-5.699
		c0.29-0.55,0.363-1.214,0.535-1.826c-0.061-0.016-0.122-0.031-0.183-0.047c0.349-0.701,0.699-1.402,1.046-2.097
		c1.916,0.684,4.004-0.144,5.11-1.825c0.54-0.821,1.377-1.446,2.21-2.292c-0.157-0.205-0.469-0.612-0.964-1.257
		c4.87,2.086,4.003-3.074,6.326-4.067c0.886-0.294,1.617-0.814,2.383-1.273c0.599-0.359,1.243-0.643,1.867-0.961
		c0.3,0.619,0.599,1.238,0.897,1.854c0.806-0.612,1.692-1.285,2.587-1.964c-0.034-1.077-2.917,0.019-1.842-1.744
		c1.338,0,2.605,0.331,3.55-0.079c1.341-0.583,0.16-1.711,0.163-2.607c0-0.046-0.307-0.092-0.307-0.196c0,0.516,0,0.967,0,1.559
		c-1-0.331-1.671-0.592-2.624-0.961c1.18-0.512,1.972-1.223,2.736-1.128c0.84,0.104,1.551,0.95,2.439,1.539
		c0.234-1.045,0.412-1.917,0.632-2.899c0.96,0.175,1.957,0.358,3.146,0.575c-0.176-0.797-0.301-1.343-0.417-1.868
		c0.305-0.197,0.603-0.339,0.838-0.553c0.861-0.788,1.994-2.436,2.496-2.259c2.104,0.741,1.137-1.332,1.87-1.705
		c-0.945-0.739-0.619-1.537,0.227-1.825c0.857-0.292,1.875-0.088,2.819-0.16c0.539-0.041,1.123-0.093,1.584-0.335
		c0.338-0.178,0.7-0.663,0.718-1.027c0.038-0.776-0.142-1.562-0.278-2.741c0.955,0.571,1.444,0.863,1.932,1.155
		c0.1-0.143,0.201-0.286,0.301-0.43c-0.692-0.497-1.384-0.994-2.208-1.585c1.619-0.418,3.143-0.812,4.414-1.141
		c0.376-3.535,3.612-3.6,5.633-5.029c-0.101-0.488-0.21-1.02-0.341-1.654c0.601,0.029,1.015,0.048,1.934,0.092
		c-0.64-0.684-0.93-1.224-1.348-1.356c-0.268-0.085-0.718,0.445-1.102,0.673c-0.375,0.222-0.76,0.43-1.158,0.607
		c-0.591,0.262-1.242,0.419-1.788,0.75c-1.223,0.741-2.397,1.563-3.645,2.388c0.129,0.143,0.412,0.459,0.812,0.905
		c-0.557,0.112-0.942,0.279-1.312,0.25c-2.514-0.199-4.378,1.286-5.919,2.813c-1.028,1.019-2.012,1.929-3.261,2.646
		c-2.056,1.181-4.046,2.475-5.866,3.599c-0.735,2.033-2.302,2.999-3.977,3.667c-1.785,0.712-3.69,1.124-5.387,1.621
		c0.182,0.456,0.36,0.901,0.537,1.345c-1.008,0.402-2.016,0.805-3.035,1.212c0.041,0.104,0.173,0.434,0.165,0.414
		c-1.951,0.947-3.77,1.821-5.576,2.722c-0.133,0.066-0.166,0.33-0.248,0.5c-0.971,2.022-2.519,3.323-4.613,4.188
		c-1.407,0.581-3.113,1.338-3.804,2.529c-0.871,1.501-2.125,2.489-3.261,3.6c-1.435,1.403-2.827,2.674-2.947,4.864
		c-0.017,0.303-0.837,0.563-1.532,0.996c-0.03,0.237-0.285,1.028-0.182,1.768C423.503,184.983,423.991,185.603,424.291,186.254z
		 M349.009,143.052c-0.531,0.404-0.885,0.673-1.239,0.942c0.055,0.164,0.111,0.329,0.166,0.493c0.557-0.083,1.407,0.03,1.617-0.285
		c0.625-0.935,1.057-2.015,1.454-3.08c0.505-1.355,0.901-2.75,1.37-4.212c-0.166-0.027-0.538-0.086-1.117-0.179
		c0.38-0.42,0.613-0.759,0.92-1.003c1.93-1.531,2.608-3.618,2.745-5.975c0.038-0.65,0.106-1.33,0.331-1.933
		c0.872-2.346,2.729-4.751,2.521-6.977c-0.355-3.817,1.71-5.983,3.7-8.453c0.152-0.189,0.268-0.406,0.276-0.418
		c-0.492-0.417-1.234-0.953-1.192-1.023c0.472-0.794,1.064-1.516,1.686-2.341c-0.142-0.076-0.48-0.258-0.532-0.286
		c0.913-1.719,1.767-3.32,2.606-4.929c0.049-0.095-0.004-0.263-0.047-0.384c-0.854-2.419-0.401-4.526,1.348-6.432
		c0.388-0.423,0.468-1.189,0.554-1.816c0.304-2.221,0.678-4.445,0.769-6.678c0.057-1.393,0.154-3.492-0.644-4.076
		c-2.103-1.538,0.298-1.205,0.435-1.582c-0.472-0.729-0.779-1.528-1.355-1.996c-0.532-0.432-1.357-0.499-2.039-0.764
		c-0.054-0.021,0.064-0.359,0.007-0.514c-0.577-1.558-3.989-2.222-4.993-1.011c2.114,3.021,0.857,6.989,3.041,9.946
		c-2.386,0.979-3.175,2.378-2.912,4.538c0.095,0.781-0.168,1.607-0.295,2.631c0.183,0.082,0.636,0.284,1.01,0.452
		c-4.035,1.533-0.778,4.357-1.484,6.603c-2.628-0.019-0.654,2.651-2.123,3.89c-0.525-0.249-1.212-0.574-1.899-0.899
		c-0.194,0.906-0.407,1.901-0.615,2.872c0.82-0.045,1.614-0.088,2.407-0.131c0.011,0.195,0.021,0.39,0.032,0.584
		c-2.706,0.851-2.925,1.133-2.347,2.931c0.909-0.394,1.829-0.792,2.748-1.191c-0.11,1.103-0.385,2.142-1.032,2.491
		c-0.685,0.37-1.724,0.083-2.843,0.083c0.574,1.01,1.013,1.781,1.448,2.545c-0.873,0.421-1.751,0.845-3.122,1.507
		c2.399,0.695,1.741,1.841,1.037,3.015c-0.253,0.422-0.607,0.884-0.613,1.332c-0.013,0.982,0.166,1.967,0.267,2.951
		c1.277-0.329,1.277,0.686,0.967,1.241c-0.413,0.74-1.209,1.281-1.885,1.856c-0.347,0.295-1.043,0.406-1.13,0.724
		c-0.127,0.462,0.051,1.089,0.285,1.551c0.311,0.613,0.801,1.136,1.273,1.778c-0.797,0.163-1.245,0.483-1.693,0.575
		c0.025,0.12,0.049,0.588,0.074,0.588c0.761,0,1.522,0,2.435,0c-1.05,1-1.951,2.129-2.691,3.022
		c2.009,2.713-0.535,4.578-1.122,6.771C348.05,142.651,348.468,142.761,349.009,143.052z M157.953,230.938
		c0.619,0.659,1.102,1.445,1.681,2.219c1.625-2.093,2.199-0.59,2.672,0.2c0.319-0.327,0.739-0.757,1.158-1.187
		c0.151,0.136,0.302,0.272,0.453,0.408c-0.087,0.571-0.174,1.142-0.245,1.61c0.814,0.592,1.535,1.141,2.285,1.649
		c0.369,0.25,0.853,0.671,1.177,0.589c2.251-0.569,4.1-0.18,5.526,1.802c0.235,0.326,0.896,0.398,1.379,0.481
		c1.641,0.283,3.442,0.186,4.898,0.853c1.928,0.884,3.494,0.72,5.255-0.477c0.088,0.478,0.162,0.875,0.252,1.365
		c2.697-2.193,5.412-4.172,5.656-7.937c-3.551,0.657-6.616,1.224-9.114,1.686c-1.156-0.941-2.027-2.083-3.147-2.439
		c-1.124-0.357-2.497,0.071-3.761,0.155c-0.156-1.904-0.954-2.545-2.825-2.005c-1.51,0.436-2.749,0.664-2.932-1.198
		c-0.952-0.206-1.746-0.377-2.789-0.602c0.341-0.9,0.598-1.578,0.843-2.224c-0.392-0.096-1.105-0.27-1.529-0.373
		c-0.276,0.721-0.528,1.378-0.881,2.3c-0.689-1.381-1.072-2.25-1.507-3.12c-0.169,0.102-0.454,0.203-0.454,0.305
		c0,0.92,0,1.84,0,2.806c-2-0.654-2.289-0.654-1.678-3.856c-0.811,0.36-1.5,0.654-2.18,0.956c-0.251-0.804-0.54-1.691-0.845-2.668
		c-1.193,1.224-1.195,1.217-2.608,0.473c-0.638-0.335-1.271-0.753-1.955-0.91c-0.587-0.135-1.78-0.015-1.793,0.099
		c-0.122,1.043-0.72,1.422-1.44,0.829c-0.566-0.466-0.745-1.4-1.107-2.12c-0.178-0.354-0.382-0.696-0.798-1.446
		c-0.087,1.465-0.138,2.329-0.189,3.193c-0.136,0.009-0.272,0.019-0.408,0.028c-0.287-0.678-0.573-1.356-0.855-2.021
		c-0.461,0.137-0.891,0.265-1.286,0.382c-0.111-0.43-0.205-0.796-0.299-1.162c-0.09,0.013-0.18,0.027-0.269,0.04
		c-0.048,0.653-0.095,1.307-0.164,2.246c-0.998-1.214-1.766-2.149-2.502-3.045c-1.869,1.516-3.321,0.196-4.848-1.132
		c0.145,0.902,0.25,1.557,0.356,2.212c-0.194,0.032-0.387,0.065-0.581,0.097c-0.099-0.866-0.198-1.733-0.337-2.943
		c-0.511,0.601-0.815,0.958-1.131,1.329c-0.273-0.385-0.501-0.705-1.102-1.553c-0.064,1.149-0.321,1.945-0.082,2.144
		c0.89,0.741,1.93,1.309,2.941,1.896c0.896,0.52,1.828,0.979,2.856,1.524c0.085-0.194,0.256-0.587,0.26-0.597
		c1.381,1.15,2.589,2.965,4.036,3.183c2.527,0.38,4.391,1.552,6.328,2.943c0.764,0.549,1.939,1.147,2.716,0.938
		C155.35,228.246,156.642,229.544,157.953,230.938z M454.814,402.425c-0.655-0.749-1.378-1.437-2.158-2.242
		c-0.164,0.186-0.432,0.488-0.323,0.365c-1.072-1.497-1.899-3.503-3.396-4.468c-1.169-0.753-2.094-1.511-2.952-2.557
		c-0.991-1.207-2.002-2.89-3.306-3.237c-2.338-0.623-3.274-2.038-3.933-4.032c-0.258-0.78-0.647-1.517-0.836-1.948
		c-0.706,0.12-1.593,0.438-1.708,0.259c-0.356-0.552-0.417-1.293-0.598-1.98c-0.248,0.176-0.491,0.347-0.748,0.529
		c-0.425-1.819-2.319-3.534-4.074-4.189c-0.939-0.35-2.059-1.09-2.408-1.938c-0.518-1.257-1.165-2.209-2.409-2.516
		c-2.971-0.733-4.94-4.287-8.659-2.785c0.143-0.564,0.221-0.876,0.358-1.416c-1.77,0.803-3.252,1.495-4.751,2.148
		c-0.965,0.42-2.789,3.116-2.584,3.999c0.752,0,1.538-0.083,2.3,0.016c2.223,0.288,4.437,0.648,6.708,0.988
		c-0.1,2.204,0.229,2.649,2.831,3.544c0.243,0.084,0.429,0.358,0.619,0.564c1.191,1.296,2.203,2.852,4.349,2.604
		c0.413-0.048,0.866,0.245,1.3,0.38c-0.132,0.17-0.264,0.341-0.397,0.511c0.843,0.805,1.686,1.611,2.711,2.589
		c-0.582,0.508-1.146,1.001-1.704,1.488c0.605,0.455,1.241,0.934,1.887,1.421c0.332-0.697,0.642-1.35,0.952-2.003
		c0.392,1.367-0.555,2.816,1.484,3.243c0.432-0.554,0.858-1.1,1.285-1.647c0.129,0.051,0.257,0.101,0.386,0.152
		c-0.179,0.818-0.359,1.636-0.574,2.617c0.84-0.119,1.568-0.221,2.247-0.317c-0.096,0.915-0.182,1.745-0.237,2.27
		c0.917,0.084,1.661,0.004,2.277,0.246c0.729,0.287,1.496,0.732,1.977,1.327c0.646,0.799,1.032,1.153,1.606,0.928
		c0.479-0.188,1.007-0.251,1.514-0.369c0.141,0.711,0.313,1.418,0.412,2.134c0.061,0.448,0.011,0.911,0.011,1.368
		c0.124-0.002,0.249-0.004,0.373-0.006c0.319-0.793,0.637-1.586,0.956-2.38c0.726,1.204,1.335,2.211,2.046,3.39
		c0.292-0.73,0.496-1.239,0.776-1.937c0.546,1.303,0.992,2.368,1.388,3.313c2.8-0.638,3.332,1.771,4.584,3.243
		c0.396-0.278,0.795-0.558,1.274-0.894c0.098,0.499,0.164,0.834,0.34,1.735c0.463-0.95,1.012-1.609,0.865-1.86
		C456.311,404.119,455.552,403.27,454.814,402.425z M224.324,110.226c0.135-0.073,0.432-0.234,0.942-0.509
		c-0.629,2.348-0.113,4.259,1.282,5.966c0.453,0.555,0.906,1.14,1.209,1.782c0.819,1.738,1.164,3.911,2.433,5.17
		c1.43,1.418,2.148,2.788,2.178,4.672c0.015,0.89,0.002,1.78,0.002,2.455c0.609,0,1.482-0.051,1.489,0.008
		c0.093,0.734,0.061,1.483,0.061,2.249c0.217-0.052,0.51-0.122,0.7-0.167c0.525,1.844,0.127,3.926,2.359,5.163
		c0.886,0.492,1.213,2.01,1.77,3.073c0.544,1.036,0.948,2.166,1.615,3.112c0.637,0.904,1.765,1.503,2.266,2.453
		c0.912,1.728,2.429,2.213,4.098,2.597c-0.042,0.355-0.082,0.697-0.129,1.093c3.262-0.194,6.43-0.263,8.864-2.842
		c-2.229-1.179-4.116-2.177-6.168-3.263c-0.585-0.157-1.398-0.375-2.414-0.648c1.068-2.139,0.981-3.279,0.011-3.998
		c-0.723-0.536-1.315-1.249-2.078-1.993c-0.087,0.057-0.43,0.28-1.061,0.692c1.329-1.857,1.197-2.625-0.471-3.439
		c-1.082-0.528-2.55-0.674-1.686-2.491c0.053-0.111-0.123-0.343-0.214-0.506c-0.327-0.589-0.664-1.173-0.997-1.759
		c0.646-0.323,1.292-0.646,1.903-0.952c-0.415-0.66-0.822-1.307-1.359-2.161c-0.359,0.896-0.658,1.644-0.958,2.392
		c-0.288-0.262-0.577-0.524-0.865-0.786c0.358-1.11,2.013-2.323-0.084-3.3c-0.485,0.93-0.927,1.776-1.399,2.681
		c-2.16-2.162,0.403-2.681,1.083-3.966c-0.794-0.169-1.55-0.33-2.299-0.49c0.356-0.813,0.67-1.53,1.004-2.294
		c-1.039,0.061-3.517-1.956-3.284-2.759c0.418-1.437-0.838-0.941-1.306-1.242c-0.369-0.237-0.987-0.088-1.494-0.11
		c0.093-0.717,0.15-1.441,0.292-2.147c0.093-0.458,0.311-0.891,0.473-1.336c-0.11-0.01-0.219-0.02-0.329-0.03
		c-0.572,0.644-1.144,1.289-1.681,1.894c-0.224-1.391-0.363-2.51-0.563-3.749c-0.424,0.401-0.515,0.855-1.515,1.474
		c0-1.351,0-2.49,0-3.631c-4,0.318-2.215-2.969-3.428-4.461c-1.378,1.204-1.293,0.104-1.261-0.821
		c-1.17,0.62-1.284,2.582-0.401,4.014C223.468,108.213,223.839,109.215,224.324,110.226z M196.925,335.98
		c-0.147-0.281-0.675-0.592-0.934-0.525c-0.31,0.08-0.594,0.514-0.761,0.858c-1.124,2.318-2.215,4.652-3.125,6.577
		c-1.326,0.206-3.107-0.017-3.585,0.668c-0.809,1.161-1.957,1.524-2.917,2.28c-0.647,0.509-1.328,1.008-1.847,1.634
		c-0.44,0.531-0.669,1.236-1.111,2.096c-1.668-2.127-1.98,0.972-3.507,0.567c-0.217-0.499-0.498-1.148-0.779-1.797
		c-0.62,0.365-1.246,0.734-1.96,1.154c0.607,0.533,1.153,1.012,1.7,1.492c-1.238,0.261-2.363-1.338-3.293,0.45
		c0.875,0.569,1.661,1.08,2.622,1.705c-0.827,0.357-1.346,0.581-1.817,0.784c-0.749-0.68-1.406-1.275-2.194-1.99
		c-0.21,0.859-0.365,1.492-0.52,2.123c-0.751-0.345-1.462-0.672-2.478-1.139c0.616,1.676-0.055,2.339-1.376,2.835
		c-0.856,0.321-2.257,0.327-2.144,1.882c0.038,0.53,0.039,1.063,0.057,1.594c-0.731-0.113-1.476-0.173-2.188-0.359
		c-0.414-0.109-0.775-0.421-1.159-0.642c-0.209,0.245-0.419,0.49-0.628,0.736c0.851,0.423,1.702,0.846,2.553,1.268
		c-0.151,0.147-0.302,0.294-0.452,0.441c-2.085-0.304-2.678,0.226-2.203,1.531c-1.056,0.432-2.726,0.61-3.012,1.336
		c-0.603,1.529-1.365,1.856-2.811,1.678c-0.499-0.061-1.057,0.353-1.585,0.548c0.795,2.186,1.832,2.51,3.702,1.324
		c0.626-0.397,1.367-0.612,2.131-0.943c-0.06-0.165-0.191-0.529-0.223-0.617c1.223-0.167,2.411-0.095,3.375-0.525
		c1.05-0.468,1.789-1.744,2.846-2.063c2.513-0.758,4.688-1.838,6.827-3.459c1.615-1.224,4.105-1.292,6.126-1.852
		c-0.008-0.05-0.092-0.542-0.175-1.033c0.739-0.041,1.478-0.082,2.235-0.123c-0.05-0.177-0.131-0.463-0.262-0.926
		c1.591,0.65,2.401-0.003,2.517-1.538c0.34,0.418,0.66,1.046,0.864,1.011c0.408-0.072,0.939-0.431,1.089-0.804
		c0.563-1.401,1.841-2.445,2.984-2.378c1.686,0.099,2.484-0.733,3.424-1.703c0.755-0.78,1.418-1.751,2.333-2.251
		c1.718-0.939,2.332-2.359,2.465-4.219c0.334,0.149,0.648,0.289,1.185,0.527c-0.274-1.944-0.43-3.692-0.796-5.394
		C197.905,337.815,197.399,336.882,196.925,335.98z M290.096,481.097L290.096,481.097
		C290.099,481.086,290.098,481.088,290.096,481.097z M252.581,482.028c0.008-0.131,0.017-0.261,0.025-0.391
		c-0.594-0.099-1.188-0.205-1.784-0.294c-0.532-0.08-1.066-0.141-1.587-0.499c2.206-0.099,4.296-1.338,6.566-0.432
		c0.301,0.12,0.858-0.493,1.217-0.412c1.106,0.25,2.44-0.533,3.353,0.884c0.268,0.416,1.352,0.411,2.064,0.419
		c3.902,0.046,7.805,0.02,11.706,0.067c0.473,0.006,0.932,0.379,1.417,0.451c0.566,0.084,1.162-0.035,1.73,0.042
		c0.528,0.072,1.089,0.195,1.545,0.454c1.187,0.674,1.59,0.54,1.924-0.646c1.914-0.137,3.777-0.267,5.638-0.411
		c0.194-0.015,0.382-0.153,0.574-0.156c1.008-0.016,2.017-0.008,3.126-0.008c-0.014,0.05-0.111,0.408-0.245,0.901
		c0.654-0.416,1.137-0.723,1.679-1.068c0.354,1.832,1.661,2.004,3.063,1.815c0.378-0.051,0.693-0.577,1.369-1.182
		c2.605,0.877,5.498-0.841,8.564-1.449c2.679-0.532,5.42-0.758,8.086-1.339c1.368-0.298,2.624-1.098,3.945-1.636
		c3.906-1.59,7.82-3.158,11.724-4.752c0.232-0.095,0.399-0.348,0.597-0.528c0.192,0.126,0.384,0.252,0.575,0.378
		c-0.38,0.576-0.629,1.423-1.162,1.682c-2.822,1.368-5.737,2.543-8.577,3.875c-1.972,0.925-3.805,2.18-5.829,2.946
		c-1.884,0.713-3.944,0.952-5.915,1.442c-1.141,0.284-2.263,0.648-3.392,0.981c-1.711,0.506-3.421,1.017-5.331,1.584
		c0.424,0.453,0.698,0.745,0.711,0.759c-2.375,0.396-4.876,0.812-7.256,1.209c0.09-0.151,0.339-0.567,0.588-0.983
		c-0.136-0.08-0.272-0.161-0.409-0.241c-0.279,0.503-0.559,1.007-0.785,1.416c-1.545-0.269-3.06-0.622-4.595-0.774
		c-1.278-0.127-1.39,0.568-0.616,1.585c-1.494-0.172-2.838-0.327-4.254-0.49c0.056-0.449,0.107-0.854,0.184-1.469
		c-1.525,0.74-3.219-0.306-4.484,1.336c-0.392,0.508-2,0.079-3.052,0.079c-0.002-0.179-0.004-0.358-0.006-0.538
		c0.246-0.072,0.491-0.143,0.737-0.215c-0.073-0.134-0.146-0.268-0.218-0.402c-0.688,0.374-1.377,0.748-2.189,1.189
		c-0.915-0.679-3.89-0.992-5.33-0.401c-0.165,0.068-0.532,0.062-0.552,0.003c-0.834-2.423-2.118,0.144-3.299-0.359
		c0.103-0.349,0.211-0.716,0.402-1.363c-1.865,0.189-3.615,0.44-5.373,0.52c-1.314,0.06-2.669,0.171-3.663-1.174
		c-0.167-0.226-1.455,0.376-2.169,0.579c0.061-0.111,0.225-0.413,0.314-0.576c-1.646-0.259-3.357-0.529-5.068-0.798
		c0.003-0.278,0.007-0.556,0.01-0.835C250.109,482.547,251.345,482.288,252.581,482.028z M265.813,483.887
		c4.042,0.356,8.077,0.711,12.119,1.067c0.044-0.267,0.073-0.535,0.118-0.802c-0.772-0.186-1.568-0.402-2.347-0.547
		c-0.429-0.08-0.934,0.041-1.345-0.077c-0.447-0.129-0.352-0.431-1.352-0.658c0,0.394,0,0.788,0,0.828
		c-1-0.246-2.045-0.628-3.041-0.633c-1.4-0.006-2.696,0.268-4.097,0.423C265.857,483.62,265.824,483.753,265.813,483.887z
		 M489.019,281.782c-0.23,0.451-0.386,0.755-0.669,1.309c-0.794-2.136-2.533-3.098-4.168-2.954
		c-1.368,0.121-2.272-0.258-3.327-0.772c-1.579-0.769-3.283-0.786-4.974-1.039c-2.108-0.315-4.011-2.007-5.891-3.043
		c-0.06,0.087-0.341,0.499-0.622,0.911c-0.497-0.463-0.994-0.926-1.472-1.371c-0.292,0.061-0.654,0.263-0.856,0.158
		c-1.437-0.75-2.562-2.164-4.586-1.427c-0.817,0.297-2.282,0.145-2.828-0.414c-1.205-1.233-2.395-1.256-3.89-0.982
		c-0.913,0.167-1.901-0.123-2.839-0.038c-1.467,0.132-2.922,0.408-4.381,0.623c0.014,0.206,0.028,0.413,0.043,0.619
		c-0.201-0.289-0.401-0.578-0.614-0.884c-4.039,5.33-4.707,7.01-3.477,8.416c2.621-1.077,5.2-2.137,7.424-3.052
		c0.982,0.701,2.048,2.053,2.912,1.934c1.183-0.162,2.343-0.195,3.176,0.338c1.168,0.748,2.028,0.437,3.055-0.027
		c0.517-0.233,1.099-0.325,1.533-0.447c0.391,0.586,0.799,1.46,0.969,1.416c3.164-0.822,1.956,0.937,1.348,2.352
		c0.761,0.149,2.12,0.287,2.12,0.435c0-0.804,0-1.527,0-2.249c1,2.459,1.178,2.526,2.63,1.797c-0.268-0.861-0.485-1.714-0.751-2.567
		c0.127-0.109,0.279-0.217,0.407-0.326c0.463,0.396,1.175,0.713,1.342,1.209c0.23,0.682,0.064,1.5,0.064,2.503
		c0.836-0.526,1.401-0.879,1.986-1.247c0.32,0.769,0.614,1.473,0.676,1.623c1.127-0.101,1.842-0.179,2.559-0.227
		c1.035-0.068,2.087-0.028,3.1-0.21c0.452-0.081,0.827-0.592,1.237-0.908c0.445,0.588,0.913,1.16,1.327,1.769
		c0.286,0.421,0.497,0.893,0.742,1.342c0.095-0.058,0.19-0.116,0.285-0.175c-0.121-0.88-0.242-1.761-0.365-2.653
		c1.103,0.759,2.004,1.379,3.024,2.08c-0.067-0.694-0.128-1.322-0.243-2.502c1.16,1.135,1.96,1.919,2.662,2.606
		c1.901-2.256,3.385,0.086,5.069,0.608c0.169-0.378,0.326-0.726,0.514-1.148c0.315,0.246,0.592,0.461,0.869,0.676
		c0.148-0.199,0.296-0.399,0.445-0.598C493.905,282.521,490.501,283.47,489.019,281.782z M252.032,464.019
		c1.291-0.327,2.582-0.654,3.873-0.981c-0.009-0.1-0.018-0.2-0.027-0.3c-1.266-0.11-2.532-0.22-3.799-0.33
		c-0.013-0.193-0.025-0.386-0.038-0.58c1.063-0.124,2.125-0.253,3.188-0.37c1.853-0.204,3.703-0.484,5.561-0.556
		c0.711-0.028,1.427,0.503,2.166,0.644c0.777,0.148,1.592,0.227,2.379,0.175c3.741-0.247,7.476-0.571,11.217-0.808
		c0.538-0.034,1.152,0.16,1.633,0.426c0.886,0.49,1.646,0.909,1.72-0.684c0.698,0.481,1.132,0.86,1.633,1.095
		c0.286,0.135,0.786,0.182,1.011,0.02c2.114-1.523,5.302-2.063,7.81-1.536c1.215,0.255,2.529,0.044,3.885,0.044
		c0.371,0.852,3.014,1.674,4.537,1.384c1.314-0.25,2.671-0.269,4.001-0.446c1.401-0.187,2.785-0.53,4.19-0.64
		c1.619-0.126,3.256,0.002,4.877-0.108c4.892-0.331,9.528-1.772,13.955-3.751c1.8-0.804,3.272-2.34,4.952-3.587
		c0.872,0.692,0.963,1.057-0.026,1.989c-2.426,2.289-5.117,4.094-8.422,4.984c-1.961,0.528-3.751,1.712-5.717,2.204
		c-2.027,0.507-4.173,0.541-6.27,0.758c-0.247,0.026-0.527-0.188-0.763-0.143c-2.55,0.481-5.094,0.992-7.8,1.527
		c0.141,0.371,0.275,0.723,0.409,1.075c-2.056-2.148-3.976-1.294-5.964,0.023c-1.403,0.929-2.668,0.114-4.024-0.391
		c-0.852-0.318-1.93-0.032-2.907-0.017c0.03,0.436,0.061,0.871,0.081,1.158c-1.061,0.058-2.136,0.113-3.212,0.172
		c-0.286-0.507-0.572-1.019-0.884-1.572c-0.699,0.096-1.576,0.058-2.313,0.364c-0.499,0.207-0.802,0.339-1.193,1.339
		c-1.317,0-2.634,0-3.951,0c-0.025,0-0.05-0.24-0.074-0.37c0.322-0.13,0.643-0.241,0.965-0.372
		c-0.078-0.108-0.155-0.216-0.233-0.324c-0.565,0.423-1.13,0.845-1.783,1.334c-0.064-0.26-0.155-0.634-0.211-0.862
		c-1.104,0.182-2.265,0.356-3.421,0.568c-1.137,0.209-2.464,1.233-2.911-0.945c-0.949,0.488-1.737,0.893-2.865,1.473
		c0.188-0.745,0.285-1.128,0.449-1.783c-1.952,0.331-3.784,0.801-5.636,0.895c-1.041,0.053-2.099-0.63-3.177-0.776
		c-1.201-0.163-2.437-0.042-3.651-0.137c-1.091-0.086-2.172-0.299-3.257-0.456C252.01,464.571,252.021,464.295,252.032,464.019z
		 M268.551,463.602c3.958,0,7.916,0,11.874,0c0.016,0,0.033-0.15,0.049-0.329c-1.607-0.34-3.215-0.524-4.927-0.886
		c0.208,0.448,0.346,0.763,0.385,0.847c-1.321-0.252-3.533-0.92-3.65-0.658c-0.731,1.648-2.024,0.468-2.93,0.838
		c-0.219,0.089-0.522-0.182-0.787-0.204C268.56,463.409,268.555,463.602,268.551,463.602z M276.787,506.197
		c0.441-0.411,0.726-0.68,1.01-0.945c-0.051-0.069-0.102-0.143-0.152-0.212c-0.516,0.429-1.032,0.812-1.668,1.341
		c-0.064-0.286-0.13-0.779-0.161-0.779c-1.574,0-3.172,0-4.771,0c-0.006,0-0.012,0.311-0.018,0.438
		c0.533,0.077,1.067,0.194,1.6,0.271c-0.049,0.167-0.099,0.341-0.148,0.508c-0.936-0.296-1.871-0.587-2.807-0.883
		c0.025-0.177,0.051-0.352,0.076-0.529c-0.683,0.433-1.366,0.868-2.379,1.511c0.146-0.76,0.22-1.14,0.304-1.579
		c-2.496,0.263-4.976,0.526-7.457,0.787c-1.738-2.713-5.129,0.858-7.111-2.123c1.202-0.339,2.274-0.642,3.347-0.944
		c0.009-0.103,0.018-0.207,0.027-0.31c-0.526-0.082-1.05-0.185-1.578-0.241c-0.595-0.062-1.194-0.082-1.787-0.414
		c2.06-0.167,3.884-1.671,6.1-0.787c0.544,0.217,1.389-0.463,2.087-0.443c0.632,0.018,1.245,0.453,1.881,0.659
		c0.433,0.14,0.909,0.338,1.334,0.278c1.692-0.239,3.363-0.635,5.058-0.849c2.238-0.283,4.488-0.52,6.74-0.616
		c0.559-0.024,1.448,0.978,1.666,0.814c1.195-0.895,1.972-0.271,2.797,0.474c0.278-0.31,0.556-0.62,0.834-0.93
		c-0.067-0.143-0.134-0.285-0.201-0.428c3.012-0.31,6.023-0.62,9.134-0.941c-0.001,0.005-0.056,0.367-0.134,0.88
		c0.495-0.301,0.945-0.574,1.441-0.876c0.887,2.292,2.735,1.38,4.119,1.134c2.959-0.527,5.834-1.517,8.792-2.059
		c2.138-0.392,4.371-0.246,6.527-0.572c1.258-0.19,2.444-0.846,3.668-1.276c3.894-1.368,7.79-2.729,12.249-4.291
		c-0.575,0.924-0.793,1.77-1.285,1.983c-2.714,1.176-5.512,2.156-8.245,3.289c-1.705,0.707-3.306,1.679-5.031,2.32
		c-1.399,0.52-2.912,0.739-4.38,1.066c-3.017,0.674-6.038,1.331-9.364,2.063c0.444,0.564,0.629,0.799,0.912,1.158
		c-1.222,0.397-2.391,0.777-3.886,1.262c0.301-0.709,0.478-1.128,0.844-1.99c-0.736,0.225-1.335,0.22-1.529,0.497
		c-1.518,2.165-3.16,1.605-5.077,0.554c-0.63-0.346-1.717,0.071-2.562,0.276c-0.108,0.026-0.015,0.883-0.015,1.125
		c-0.976,0.126-1.985,0.257-2.995,0.388c-0.004-0.01-0.008-0.019-0.012-0.029c-2.532,0.915-4.033,0.6-5.42-1.298
		c-0.028,0.566-0.048,0.962-0.073,1.461C278.362,506.333,277.723,506.276,276.787,506.197z M280.204,504.872
		c0.518,0.399,0.887,0.893,1.343,0.993c0.985,0.215,2.01,0.241,3.021,0.338c-0.251-0.6-0.5-1.196-0.68-1.626
		C282.721,504.671,281.579,504.762,280.204,504.872z M279.411,503.602c0.023,0,0.046-0.586,0.069-0.855
		c-2.17-0.169-4.342-0.242-6.51-0.439c-1.169-0.106-1.795,0.294-1.841,1.294C273.888,503.602,276.649,503.602,279.411,503.602z
		 M205.777,233.797c-0.399,1.288-0.798,2.577-1.197,3.865c0.189,0.066,0.378,0.132,0.567,0.198c0.508-1.333,1.114-2.638,1.504-4.005
		c1.066-3.738,1.686-7.539,4.032-10.914c2.177-3.132,3.43-6.888,5.392-10.19c3.241-5.452,6.544-10.886,10.178-16.078
		c2.055-2.936,4.895-5.311,7.246-8.054c2.031-2.369,3.711-5.054,5.858-7.302c1.216-1.272,3.168-1.805,4.594-2.919
		c2.003-1.564,3.761-3.438,5.742-5.032c2.019-1.624,4.182-3.069,6.282-4.593c-0.173-0.175-0.347-0.349-0.52-0.524
		c-26.324,16.159-42.516,39.998-51.706,69.109c0.619-1.204,1.239-2.408,1.858-3.612
		C205.665,233.764,205.721,233.781,205.777,233.797z M285.349,526.106C285.357,526.112,285.362,526.113,285.349,526.106
		L285.349,526.106z M307.403,517.738c-2.758,2.464-6.174,3.81-9.462,5.364c-0.181,0.085-0.531,0.157-0.53,0.231
		c0.027,1.719-1.598,1.601-2.495,1.965c-1.223,0.496-2.679,0.436-4.039,0.574c-1.304,0.133-2.612,0.216-4.142,0.339
		c0.269-0.229,0.437-0.372,0.606-0.516c-0.041-0.126-0.081-0.252-0.122-0.378c-0.557,0.186-1.124,0.376-1.904,0.636
		c-0.041-0.262-0.07-0.502-0.08-0.573c-1.198,0.174-2.372,0.352-3.55,0.484c-0.046,0.005-0.141-0.435-0.139-0.428
		c-0.853-0.324-1.63-0.619-2.406-0.914c0.37-0.541,0.739-1.081,1.193-1.744c-0.369-0.152-0.833-0.344-1.297-0.535
		c1.472-0.484,2.451-2.912,4.417-1.022c0.199,0.192,1.021-0.3,1.565-0.425c2.929-0.674,5.861-1.339,8.798-1.978
		c0.172-0.038,0.52,0.12,0.581,0.27c0.89,2.169,2.523,1.093,3.717,0.661c2.866-1.039,5.623-2.374,8.446-3.538
		c0.779-0.321,1.633-0.461,2.452-0.683C308.483,516.272,308.067,517.145,307.403,517.738z M290.297,523.223
		c-1.895-2.275-3.304-1.089-4.66,0.238C287.096,523.387,288.555,523.312,290.297,523.223z M285.349,526.106
		c-0.005-0.004-0.011-0.011-0.013-0.018c-0.008-0.045-0.014-0.089-0.021-0.133c-0.059,0.02-0.109,0.036-0.17,0.057
		C285.281,526.068,285.332,526.095,285.349,526.106z M275.368,161.433L275.368,161.433L275.368,161.433c0,0-0.066-0.057-0.067-0.058
		c0.649-0.108,1.304-0.19,1.947-0.328c6.214-1.333,12.426-2.673,18.637-4.018c1.845-0.4,3.685-0.823,5.528-1.236
		c-0.017-0.169-0.033-0.338-0.05-0.507c-2.285,0-4.607-0.257-6.847,0.063c-2.955,0.423-5.847,1.851-8.764,1.848
		c-4.289-0.004-7.725,1.858-11.356,3.496c0.361,0.274,0.634,0.481,0.9,0.683c-0.087,0.048-0.175,0.095-0.262,0.143
		C275.145,161.491,275.257,161.463,275.368,161.433L275.368,161.433z M198.744,263.342c0.085,0.019,0.262,0.037,0.262,0.056
		c0,2.719,0,5.438,0,7.595c1-6.533,1.843-13.597,2.823-20.658c0.464-3.34,0.97-6.674,1.459-10.011
		c-0.9,1.843-1.749,3.727-1.837,5.646c-0.142,3.079-1.041,5.886-1.872,8.799c-0.893,3.132-1.032,6.479-1.499,9.733
		c0.103,0.009,0.21,0.019,0.312,0.028C198.509,264.134,198.628,263.738,198.744,263.342z M199.797,293.509
		c0.258-7.881-0.973-15.653-1.853-22.309C197.567,277.948,197.803,285.793,199.797,293.509z M369.678,170.416
		c2.162,1.058,4.516,1.725,6.792,2.552c-6.611-4.963-14.793-8.685-18.014-8.511C361.864,166.283,365.71,168.475,369.678,170.416z
		 M267.6,445.819c2.775,0.583,5.55,1.062,8.326,1.645c0.027-0.115,0.055-0.283,0.082-0.398c-0.329-0.279-0.659-0.585-1.137-0.99
		c3.846,0.259,7.43,0.487,11.014,0.729c0.014-0.168,0.027-0.343,0.041-0.511c-5.51-0.813-11.021-1.63-16.531-2.443
		c-0.043,0.157-0.085,0.52-0.128,0.677c0.334,0.234,0.668,0.073,1.237,1.073c-1.163,0-2,0-2.837,0
		C267.644,445.602,267.622,445.678,267.6,445.819z M417.731,317.852c-1.155,6.317-5.302,11.055-8.562,16.261
		c-0.695,1.276-1.39,2.552-2.202,4.045c-1.593-1.903,0.831-2.697,0.439-4.306c-1.016,1.525-2.053,3.036-3.044,4.577
		c-1.311,2.039-2.628,4.076-3.862,6.161c-1.032,1.743-1.934,3.563-2.931,5.328c-0.22,0.39-0.597,0.692-0.902,1.034
		c0.264-0.776,0.527-1.551,0.791-2.327c-0.121-0.059-0.241-0.117-0.362-0.176c-1.208,2.138-2.416,4.276-3.624,6.414
		c0.959-0.749,1.918-1.497,2.878-2.246c-1.785,2.675-3.569,5.349-5.354,8.024c-0.308-0.179-0.616-0.358-0.924-0.536
		c0.754-1.396,1.508-2.792,2.261-4.188c-0.374-0.015-0.932-0.197-1.092-0.019c-1.432,1.585-2.948,3.13-4.139,4.889
		c-1.505,2.224-2.724,4.642-4.079,6.969c-0.264,0.453-0.585,0.873-1.122,1.206c0.256-0.598,0.512-1.196,0.768-1.794
		c-0.117-0.075-0.234-0.15-0.351-0.225c-1.554,2.265-3.122,4.521-4.655,6.8c-0.439,0.652-0.799,1.361-1.157,2.063
		c-1.131,2.219-2.156,4.498-3.39,6.657c-0.931,1.629-2.146,3.093-3.189,4.661c-3.559,5.348-7.082,10.689-8.331,17.191
		c-0.702,3.659-1.812,7.239-2.685,10.868c-0.763,3.169-1.451,6.357-2.172,9.536c-0.214-0.042-0.427-0.085-0.641-0.128
		c0.361-2.472,0.722-4.944,1.084-7.415c-0.091-0.025-0.181-0.049-0.272-0.074c-0.953,3.904-1.906,7.808-2.859,11.712
		c0.203,0.08,0.406,0.16,0.609,0.24c-1.082,2.425-2.164,4.85-3.246,7.276c-0.15-0.064-0.3-0.128-0.45-0.193
		c0.907-2.201,1.814-4.403,2.721-6.604c-0.546,0.347-1.357,0.566-1.597,1.062c-1.597,3.304-3.073,6.667-4.585,10.013
		c-0.079,0.174-0.226,0.481-0.17,0.529c1.648,1.441-0.298,2.265-0.634,3.544c2.648,1.578,1.91,4.073,1.341,6.366
		c-0.583,2.351-1.981,4.201-4.857,5.036c0.919,1.887,1.758,3.702,2.678,5.474c1.621,3.121,1.044,6.052-1.737,8.184
		c-0.898,0.688-1.884,1.268-2.863,1.841c-0.969,0.567-1.069,1.106-0.121,1.791c4.322,3.124,4.442,8.852,0.29,12.016
		c-1.161,0.884-2.238,1.878-3.487,2.933c0.597,0.738,1.15,1.465,1.747,2.153c2.58,2.971,2.34,7.687-0.587,10.271
		c-1.043,0.921-2.254,1.655-3.262,2.607c-0.36,0.339-0.656,1.247-0.457,1.597c1.441,2.533,1.055,5.001,0.227,7.734
		c0.276-0.468,0.552-0.936,0.828-1.404c0.196,0.112,0.392,0.224,0.588,0.336c-0.376,0.89-0.54,1.991-1.171,2.626
		c-1.527,1.538-3.276,2.854-4.929,4.268c-0.659,0.564-1.278,1.175-1.952,1.721c-4.512,3.661-9.009,7.341-13.582,10.926
		c-0.631,0.495-1.712,0.371-2.479,0.748c-2.483,1.222-4.852,2.695-7.39,3.781c-2.117,0.906-4.409,1.404-6.931,2.176
		c1.282-2.48,3.039-2.771,5.225-2.87c1.464-0.067,2.876-1.276,3.898-2.298c0.246-0.504,0.379-1.329,0.755-1.46
		c2.303-0.806,4.623-1.692,7.013-2.084c2.138-0.351,3.767-1.077,4.582-3.42c-2.018,1.04-4.036,2.08-6.053,3.12
		c-0.101-0.153-0.202-0.306-0.304-0.459c0.398-0.284,0.787-0.581,1.195-0.849c4.129-2.706,8.27-5.393,12.383-8.123
		c0.644-0.427,1.722-0.729,1.009-1.99c-0.072-0.127,0.795-1.057,1.34-1.209c1.455-0.405,2.336-1.034,2.647-2.687
		c0.233-1.24,1.198-2.328,1.7-3.54c0.201-0.484,0.033-1.121-0.216-1.727c-0.169,0.462-0.337,0.924-0.605,1.659
		c-0.318-1.808-0.509-3.35-0.871-4.852c-0.562-2.329,0.457-3.792,2.3-5.049c1.047-0.714,2.156-1.604,2.737-2.684
		c1.658-3.084,1.098-4.903-2.321-7.515c0.747,1.715,1.275,2.927,1.812,4.16c-1.649,0.27-2.48-0.596-2.584-2.531
		c-0.071-1.313-0.424-2.663-0.214-3.924c0.215-1.29,0.883-2.534,1.504-3.719c0.453-0.865,1.149-1.602,1.737-2.396
		c1.4,0.078,2.599-0.291,2.911-1.818c0.47-2.3-0.554-4.063-2.374-5.506c0.022,1.313,0.363,2.573,0.44,3.848
		c0.051,0.837-0.279,1.698-0.438,2.548c-0.29-1.048-0.529-2.113-0.881-3.139c-0.65-1.893-1.366-3.762-2.054-5.642
		c0.224-0.099,0.448-0.198,0.672-0.297c0.236,0.322,0.473,0.644,0.825,1.123c0.04-2.984,2.1-4.176,4.256-5.33
		c2.461-1.317,2.709-2.203,1.326-4.631c-1.074-1.886-2.215-3.733-3.363-5.658c-0.09,0.611-0.182,1.231-0.274,1.852
		c-0.156-0.022-0.312-0.045-0.468-0.067c0.273-1.688,0.828-3.392,0.746-5.063c-0.098-2.01,0.757-3.162,2.523-3.945
		c-0.123-0.168-0.246-0.341-0.369-0.509c-0.992,0.519-1.985,1.026-3.115,1.617c0.487-0.775,0.876-1.417,1.314-2.115
		c-3.756,0.698-7.308,1.13-10.859,1.79c0.006,0.133,0.012,0.126,0.018,0.126c2.228,0,4.456,0,6.683,0
		c-0.015,1-0.03,0.783-0.045,1.039c-2.662-0.159-5.333-0.05-7.984-0.315c-4.371-0.438-8.721-1.058-13.097-1.42
		c-2.046-0.17-4.448,0.847-6.114,0.075c-1.743-0.807-3.398-1.531-5.277-1.747c-1.52-0.174-3.055-0.204-4.582-0.319
		c-1.109-0.084-2.216-0.194-3.323-0.295c0.018-0.175,0.036-0.349,0.054-0.524c1.388,0.179,2.774,0.475,4.164,0.494
		c0.849,0.012,1.704-0.399,2.558-0.622c-0.92,0.048-1.842,0.15-2.759,0.111c-0.312-0.013-0.816-0.338-0.877-0.603
		c-0.428-1.855-1.921-1.942-3.359-2.13c-1.578-0.207-3.159-0.387-5.055-0.617c0.611,0.513,1.017,0.854,1.526,1.282
		c-0.314,0.039-0.492,0.094-0.663,0.077c-1.329-0.133-2.653-0.351-3.984-0.408c-4.154-0.176-8.295-1.121-11.425-3.639
		c-2.132-1.715-4.262-0.611-6.202-1.507c-0.3-0.139-0.838,0.236-1.257,0.37c1.988,0.782,3.904,1.536,5.82,2.29
		c-0.08,0.241-0.159,0.482-0.239,0.723c-1.454-0.426-2.892-0.919-4.365-1.262c-2.132-0.496-4.285-0.91-6.439-1.309
		c-2.114-0.392-4.239-0.721-6.359-1.078c0.057-0.279,0.114-0.557,0.171-0.836c1.338,0.364,2.677,0.728,4.015,1.092
		c0.13-0.201,0.261-0.403,0.391-0.604c-0.691-0.588-1.293-1.482-2.088-1.711c-3.53-1.018-7.096-1.938-10.69-2.695
		c-1.37-0.289-2.852-0.047-4.517-0.047c0.024-0.116-0.057,0.273-0.245,1.168c-0.135-0.918-0.195-1.324-0.27-1.835
		c-1.741,2.168-1.412,4.584-1.422,6.95c-0.004,0.774-0.26,1.543-0.314,2.321c-0.049,0.697,0.013,1.404,0.049,2.105
		c0.006,0.116,0.218,0.261,0.189,0.332c-1.115,2.721,1.936,4.02,2.118,6.212c0.125,1.511-0.061,3.171-0.593,4.582
		c-0.733,1.943-1.987,3.684-2.878,5.577c-0.236,0.501-0.109,1.305,0.117,1.862c0.446,1.099,1.078,2.123,1.45,3.372
		c-0.365-0.339-0.731-0.678-0.923-0.856c-0.293,1.589-0.601,3.266-0.902,4.901c0.198-0.121,0.799-0.49,1.628-0.999
		c0.203,1.602-0.659,2.406-1.76,3.036c-2.159,1.237-2.569,3.421-0.931,5.32c1.391,1.612,2.526,3.303,2.245,5.584
		c-0.192,1.563-0.587,2.886-2.121,3.826c-1.063,0.652-1.782,1.865-2.73,2.909c0.751,0.807,1.524,1.539,2.179,2.364
		c0.944,1.188,1.746,2.268,1.284,4.13c-0.35,1.415,0.377,3.096,0.634,4.721c-0.046-0.011-0.334-0.077-0.886-0.206
		c0.215,0.966,0.2,1.938,0.631,2.631c1.118,1.796,1.648,4.1,4.066,4.903c0.345,0.115,0.377,1.197,0.54,1.833
		c0.204,0.795,0.394,1.605,1.053,2.42c0.083-0.209,0.166-0.397,0.248-0.606c2.93,2.284,5.859,4.542,8.789,6.826
		c-0.195,0.244-0.389,0.751-0.584,0.751c-0.301,0-0.602,0-1.561,0c1.119,1,1.818,1.357,2.748,2.06
		c0.066-0.694,0.098-1.085,0.136-1.478c1.041,0.424,2.24,0.641,3.038,1.316c1.494,1.262,2.806,2.543,4.982,2.667
		c1.024,0.058,1.958,1.108,3.001,1.541c2.61,1.082,5.206,2.713,7.905,2.935c3.395,0.279,5.338,2.935,8.35,3.589
		c-0.532,0.995-0.532,0.996-3.82,0.742c0.367,0.405,0.652,0.719,1.357,1.496c-1.631,0.225-2.933,0.743-4.03,0.462
		c-1.151-0.295-2.105-1.356-3.237-2.146c-0.096,1.108-0.158,1.829-0.216,2.493c-4.282-1.231-8.312-2.39-12.342-3.549
		c0.038-0.19,0.076-0.38,0.114-0.57c0.382-0.049,0.763-0.098,1.727-0.221c-1.14-0.545-1.797-0.808-2.401-1.163
		c-0.557-0.327-1.038-0.78-1.584-1.128c-0.571-0.365-1.21-0.995-1.767-0.943c-1.782,0.165-3.119-0.549-4.385-1.639
		c-4.025-3.467-8.072-6.907-12.08-10.393c-0.435-0.378-0.749-0.952-0.982-1.494c-1.605-3.735-3.06-7.539-4.792-11.213
		c-1.264-2.682-1.518-5.702-4.175-7.96c-2.084-1.771-1.76-5.042-0.788-7.773c0.355-0.997,0.821-1.955,1.289-3.055
		c-0.442,0.139-0.78,0.245-1.654,0.52c0.58-0.834,0.819-1.45,1.269-1.775c1.463-1.058,1.277-2.175,0.784-3.771
		c-1.411-4.565-1.373-8.985,2.454-12.62c0.284-0.27,0.433-0.985,0.291-1.357c-1.697-4.422-0.376-8.296,2.173-11.896
		c0.823-1.162,0.973-2.262,0.182-3.309c-1.709-2.262-1.951-4.56-1.218-7.317c0.499-1.878,0.096-3.995,0.098-6.005
		c0-0.133,0.024-0.267,0.032-0.4c0.227-4.237,1.54-7.778,5.887-9.484c0.786-0.309,1.455-0.917,2.328-1.484
		c-3.859-8.163-6.139-16.637-6.05-25.678c-0.016,0.095-0.032,0.189-0.048,0.284c0.007-4.264,0.053-8.529-0.036-12.792
		c-0.033-1.583-0.49-3.154-0.679-4.739c-0.11-0.922-0.262-1.901-0.071-2.786c1.167-5.419-0.601-10.458-1.879-15.568
		c-1.348-5.391-3.015-10.668-5.927-15.445c-2.296-3.766-4.739-7.441-7.104-11.165c-0.823-1.296-1.605-2.618-2.406-3.928
		c0.564,0.609,1.165,1.189,1.685,1.835c0.777,0.965,1.498,1.975,2.243,2.966c0.125-0.098,0.25-0.196,0.375-0.293
		c-1.443-2.043-2.886-4.086-4.329-6.129c-1.457-2.738-2.537-5.796-4.496-8.108c-1.484-1.752-2.794-3.495-3.516-5.572
		c-2.849-8.191-5.7-16.385-7.007-25.02c-0.5-3.302-1.198-6.584-2.003-9.827c-1.345-5.42-1.317-10.875-0.548-16.332
		c0.366-2.594,1.31-5.104,1.691-7.697c0.291-1.981,0.113-4.032,0.133-6.052c0.003-0.329-0.139-0.681-0.063-0.985
		c1.129-4.516,2.155-9.063,3.472-13.523c1.038-3.515,2.176-7.047,3.735-10.352c4.093-8.678,8.571-17.161,13.875-25.183
		c2.139-3.235,4.045-6.631,6.287-9.791c2.764-3.895,5.915-7.271,10.063-10.022c3.196-2.12,5.482-5.732,8.953-7.84
		c0.958-0.582,1.738-1.463,2.707-2.022c5.477-3.163,10.986-6.27,16.672-9.503c-0.601-0.072-1.293-0.347-1.868-0.191
		c-1.95,0.532-3.859,1.216-5.889,1.551c1.846-0.873,3.22-2.381,5.684-2.358c2.276,0.022,4.563-1.26,6.849-1.953
		c0.651-0.197,1.31-0.364,1.968-0.537c-0.868,0.474-1.738,0.948-2.606,1.422c0.05,0.175,0.097,0.35,0.148,0.524
		c6.725-1.636,13.374-3.711,20.188-4.784c6.867-1.082,13.878-1.169,20.833-1.691c-0.009-0.196,0.076-0.391,0.067-0.587
		c-2.908,0.134-5.656,0.269-8.656,0.403c0-0.229,0-0.458,0-0.686c3,0,6.217-0.201,9.323,0.081c3.026,0.274,5.986-1.212,9.075,0.057
		c2.888,1.186,6.351-0.657,9.212,1.343c-3.661,0-7.281,0-10.901,0c-0.013,0-0.027,0.656-0.04,0.929
		c4.076,0.318,8.152,0.665,12.228,0.983c0.014-0.147,0.027-0.282,0.041-0.429c-0.352-0.101-0.704-0.238-1.133-0.361
		c4.19-1.785,7.999-0.122,11.942,0.878c-0.827,0-1.654,0-2.48,0c-0.019,1-0.038,0.364-0.057,0.489
		c3.498,0.981,7.047,1.929,10.469,3.127c1.422,0.498,2.511,1.876,3.861,2.666c1.753,1.025,3.585,1.927,5.437,2.765
		c3.74,1.693,7.599,3.142,11.254,4.997c3.908,1.983,7.638,4.317,11.445,6.497c0.193-0.223,0.387-0.446,0.58-0.67
		c-0.61-0.741-1.088-1.69-1.857-2.184c-2.02-1.296-4.172-2.384-6.255-3.583c-0.194-0.112-0.306-0.365-0.441-0.58
		c3.516,1.937,7.357,3.48,10.404,5.988c1.875,1.543,3.305,3.68,5.628,4.838c0.722,0.36,1.284,1.118,1.804,1.784
		c0.42,0.538,0.548,1.324,1.009,1.804c2.264,2.354,4.611,4.628,6.897,6.963c0.687,0.702,1.269,1.507,1.898,2.265
		c0.602,0.326,1.419,0.502,1.772,1.003c2.639,3.747,5.228,7.531,7.752,11.357c3.926,5.95,6.958,12.382,9.044,19.157
		c1.461,4.746,2.096,9.747,3.078,14.638c0.208,1.037,0.321,2.093,0.527,3.466c-0.822-1.183-1.456-2.096-2.091-3.01
		c0.333,2.62,0.667,5.24,1,7.86c0.203,0.032,0.406,0.063,0.61,0.095c0.226-1.065,0.453-2.13,0.679-3.194
		c0.09-0.03,0.18-0.061,0.269-0.091c0.888,5.565,1.776,11.13,2.664,16.696c-0.172,0.029-0.343,0.059-0.515,0.088
		c-0.205-1.827-0.41-3.654-0.615-5.482c-0.1,0.01-0.201,0.02-0.301,0.03c0.21,4.783,0.421,9.565,0.631,14.348
		c-0.251,0.015-0.502,0.029-0.752,0.044c-0.356-6.451-0.713-12.902-1.069-19.353c-0.182,0.01-0.367,0.02-0.549,0.03
		c0.153,3.49,0.316,6.979,0.451,10.469c0.059,1.538,0.216,3.098,0.039,4.614c-0.379,3.24,0.678,6.162,1.48,9.2
		c0.423,1.603-0.015,3.427-0.064,5.155c-0.165-0.392-0.606-0.787-0.798-1.243c-0.413,1.222-0.586,2.27-1.586,3.721
		c0-2.111,0-3.757,0-5.402c0-0.023-0.025-0.046-0.202-0.069c-0.15,0.586-0.221,1.175-0.207,1.756c0.044,1.79,0.258,3.4,0.372,5.188
		c0,0,0.075-0.24,0.075-0.24c0,0,0.014,0,0.014,0h0.007c-0.005,0-0.007,0.261-0.012,0.304c-0.002-0.005-0.003,0.079-0.005,0.074
		c-0.786,3.807-1.376,7.713-2.427,11.445c-1.116,3.966-2.4,7.957-4.117,11.691c-2.521,5.485-5.516,10.763-8.251,16.152
		c-0.532,1.048-0.796,2.236-1.183,3.356c1.149-1.41,2.612-2.666,3.385-4.259c1.891-3.894,3.449-7.948,5.183-11.921
		c0.236-0.54,0.709-0.976,1.072-1.46c0.236,0.156,0.473,0.312,0.709,0.468c-0.765,1.161-1.538,2.316-2.288,3.487
		C417.954,317.217,417.789,317.533,417.731,317.852z M404.73,197.384c0.385,0.67,0.722,1.374,1.164,2.004
		c1.386,1.976,2.812,3.924,4.223,5.882c-0.145,0.111-0.289,0.221-0.434,0.332c-1.271-1.348-2.542-2.695-3.813-4.043
		c-0.199,0.104-0.398,0.208-0.597,0.313c0.248,0.677,0.375,1.436,0.765,2.019c2.89,4.331,5.875,8.599,8.718,12.961
		c0.542,0.831,0.456,2.048,0.891,2.979c0.59,1.265,1.65,2.347,2.07,3.648c1.287,3.99,2.261,8.082,3.564,12.066
		c0.794,2.427,1.969,4.729,2.974,7.087c-1.157-4.04-2.315-8.081-3.472-12.121c0.163-0.053,0.326-0.106,0.489-0.159
		c1.272,3.707,2.543,7.413,3.815,11.12c-2.179-11.411-5.617-22.309-12.632-31.798c0.461,0.387,0.922,0.774,1.384,1.161
		c-1.485-3.099-3.143-6.045-5.049-8.82C407.634,200.335,406.096,198.919,404.73,197.384z M421.288,268.234
		c-0.143-0.014-0.286-0.029-0.429-0.043c-0.21,1.685-0.419,3.37-0.57,4.585c-0.705,0.544-1.498,0.852-1.532,1.229
		c-0.339,3.756-0.553,7.522-0.803,11.286c0.079,0.006,0.158,0.012,0.237,0.018c0.534-2.686,1.067-5.372,1.596-8.034
		c0.182,0.561,0.366,1.129,0.551,1.697C420.655,275.392,420.972,271.813,421.288,268.234z M418.177,240.406
		c-0.222,0.086-0.444,0.171-0.666,0.257c0.554,1.763,1.108,3.526,1.662,5.289c0.229-0.075,0.458-0.15,0.687-0.225
		C419.299,243.953,418.738,242.18,418.177,240.406z M399.331,201.982c5.52,9.569,11.039,19.138,16.107,27.924
		c-0.051-0.882,0.158-2.724-0.334-4.354c-0.602-1.992-1.792-3.807-2.698-5.639c-0.54,0.311-0.884,0.509-1.235,0.712
		c-0.611-2.124-1.179-4.095-1.877-6.519c-0.413,0.847-0.548,1.126-0.909,1.868c-2.222-5.426-4.501-10.435-8.599-14.255
		C399.634,201.807,399.483,201.894,399.331,201.982z M391.414,194.46c2.071,2.271,4.142,4.541,6.318,6.927
		C398.332,198.955,395.606,195.917,391.414,194.46z M372.794,176.411c4.575,3.728,8.51,8.372,14.636,10.199
		c-2.527-1.826-4.879-3.574-7.283-5.248C377.723,179.673,375.248,178.058,372.794,176.411z M304.521,163.016
		c3.542-0.307,7.073-0.612,10.605-0.918c0.014,0.152,0.027,0.305,0.041,0.457c-0.765,0.054-1.531,0.108-2.296,0.162
		c0.001,0.037,0.002,0.074,0.003,0.111c5.646,0.446,11.291,0.892,17.242,1.362C323.912,161.605,306.916,160.889,304.521,163.016z
		 M289.541,442.369c-1.709,0.097-3,0.171-4.292,0.244C286.613,443.792,287.948,444.468,289.541,442.369z M286.156,442.064
		c0.025-0.193,0.051-0.386,0.076-0.579c-1.803,0.412-3.27-1.854-5.133-0.965c-0.036,0.282-0.073,0.565-0.109,0.847
		C282.712,441.599,284.434,441.832,286.156,442.064z M300.744,438.342c0.279-2.505,0.566-5.013,0.721-7.528
		c0.275-4.458,0.239-8.947,0.733-13.378c0.578-5.183,0.83-10.376,2.15-15.531c1.211-4.728,0.994-9.815,1.48-14.737
		c0.354-3.587,0.885-7.157,1.214-10.746c0.093-1.011-0.248-2.063-0.39-3.096c-0.225-0.017-0.451-0.033-0.676-0.05
		c-0.302,0.47-0.755,0.905-0.878,1.418c-0.369,1.537-0.659,3.098-0.889,4.663c-0.791,5.376-1.574,10.754-2.297,16.14
		c-0.379,2.824-0.587,5.671-0.948,8.498c-0.269,2.109-0.64,4.206-1.003,6.301c-0.316,1.822-0.687,3.634-1.034,5.45
		c-0.474-1.433-1.025-3.319-0.34-4.058c0.932-1.005,0.713-1.831,0.731-2.796c0.035-1.898-0.473-3.826,0.383-5.682
		c0.077-0.166-0.259-0.522-0.404-0.789c-0.228-0.012-0.457-0.023-0.685-0.035c-0.459,3.444-0.882,6.893-1.384,10.331
		c-0.884,6.048-1.792,12.092-2.763,18.127c-0.112,0.693-0.689,1.312-1.051,1.965c-0.235-0.082-0.469-0.164-0.704-0.246
		c2.669-19.379,5.633-38.719,8.088-58.268c-1.209-0.172-2.402-0.341-3.709-0.526c0,1.035,0.111,1.997-0.02,2.924
		c-0.442,3.11-1.003,6.203-1.459,9.312c-0.67,4.559-1.202,9.141-1.956,13.685c-0.618,3.721-1.627,7.378-2.19,11.105
		c-0.943,6.236-1.633,12.51-2.526,18.754c-0.122,0.854-0.805,1.627-1.228,2.438c-0.178-0.096-0.355-0.191-0.533-0.287
		c0.501-4.384,1.039-8.763,1.465-13.154c0.071-0.735-0.35-1.519-0.543-2.28c0.075-0.031,0.15-0.062,0.226-0.093
		c0.112,0.325,0.224,0.65,0.337,0.975c0.216-0.131,0.432-0.261,0.648-0.392c-0.132-1.625-0.301-3.248-0.376-4.875
		c-0.031-0.665,0.09-1.35,0.238-2.005c0.126-0.557,0.531-1.072,0.571-1.623c0.25-3.416-0.76-6.981,1.243-10.128
		c-0.379-0.261-1.07-0.519-1.07-0.776c0.001-1.392,0.171-2.784,0.301-4.175c0.004-0.041,0.213-0.064,0.34-0.099
		c0.338,0.457,0.674,0.912,1.01,1.367c-0.028-0.87-0.589-1.639-0.538-2.364c0.19-2.699,0.529-5.39,0.911-8.071
		c0.43-3.011,0.979-6.005,1.439-9.012c0.052-0.34-0.041-0.785-0.234-1.064c-0.764-1.102-0.694-2.099,0.181-3.091
		c0.106-0.12,0.078-0.358,0.131-0.643c-0.506-0.187-0.983-0.363-1.505-0.555c-1.276,9.202-2.517,18.28-3.801,27.353
		c-0.795,5.619-1.701,11.222-2.477,16.844c-0.886,6.416-1.626,12.853-2.565,19.261c-0.215,1.467,0.397,2.216,1.505,2.57
		c2.067,0.659,4.198,1.118,6.308,1.636c3.078,0.756,6.161,1.491,9.423,2.278C300.4,439.422,300.682,438.894,300.744,438.342z
		 M287.428,365.212c0.248-0.343,0.707-0.682,0.713-1.029c0.055-3.228,0.033-6.457,0.033-9.686c-0.218-0.017-0.435-0.035-0.653-0.052
		c-0.39,1.507-0.77,3.016-1.174,4.519c-0.609,2.266-1.107,4.504,1.084,6.256C287.43,365.217,287.429,365.214,287.428,365.212z
		 M290.596,350.146c2.967-0.69,4.692-1.964,4.962-5.141c0.565-6.651,1.296-13.304,2.377-19.888c0.414-2.523-0.581-3.66-2.335-4.769
		c-0.169-0.107-0.329-0.241-0.513-0.311c-1.317-0.504-1.605-1.595-0.94-2.584c0.905-1.346,2.149-2.464,3.656-4.133
		c-2.443-8.442-5.092-17.593-7.778-26.871c-4.994,3.689-10.962,4.812-17.315,5.192C278.718,311.295,284.633,330.642,290.596,350.146
		z M290.931,284.177c0.478-0.894,0.864-1.616,1.314-2.457c-0.665-1.049-1.431-2.255-2.419-3.813
		C290.245,280.282,290.58,282.184,290.931,284.177z M319.52,291.68c0.219-0.449,0.466-0.957,0.69-1.416
		c-0.801,0.432-1.533,1.128-2.319,1.195c-2.5,0.213-5.019,0.192-7.531,0.259c-0.064,0.002-0.128-0.036-0.193-0.052
		c-2.271-0.553-4.598-0.944-6.801-1.696c-3.1-1.059-6.108-2.386-9.249-3.636c2.517,9.119,5.093,18.454,7.632,27.655
		c6.43,0.604,7.062,0.852,8.009,3.156c-2.775,0.184-6.003-1.271-8.083,2.003c4.151,1.788,8.133,1.683,12.341,0.624
		c-0.736-1.422-1.891-2.451-0.951-4.264c1.804-3.477,3.256-7.137,4.857-10.72c0.481-1.077,0.913-2.182,1.471-3.219
		c1.125-2.089,2.406-4.098,3.457-6.222c0.71-1.436,1.21-2.993,1.636-4.542c0.1-0.364-0.476-0.914-0.736-1.369
		c-0.474,0.785-0.635,1.425-0.971,1.537C321.762,291.312,320.677,291.446,319.52,291.68z M326.941,291.308
		c0.008-0.059,0.082-0.596,0.156-1.133c-0.624,0.472-0.866,1.054-1.092,1.643c-0.91,2.364-1.696,4.786-2.757,7.08
		c-1.071,2.314-2.522,4.45-3.612,6.756c-1.542,3.261-2.847,6.634-4.376,9.902c-0.56,1.196-0.772,2.079,0.085,3.291
		c0.464,0.656,0.544,2.057,0.14,2.723c-0.432,0.712-1.625,0.983-2.509,1.396c-1.146,0.534-2.855,0.717-3.343,1.595
		c-0.674,1.212-0.406,2.936-0.595,4.434c-0.122,0.968-0.34,1.924-0.516,2.885c-1.53-0.287-1.173,0.877-1.236,1.655
		c-0.328,4.051-0.661,8.102-0.915,12.157c-0.06,0.954-0.127,2.122,0.34,2.854c1.33,2.084,3.323,3.403,5.794,3.961
		c3.969-9.637,7.917-19.224,12.046-29.247c0.178,0.892,0.246,1.234,0.376,1.886c1.837-3.499,3.522-6.708,5.436-10.353
		c-1.096,0.206-1.487,0.279-1.819,0.342c2.783-5.762,5.535-11.461,8.02-16.607c-2.824-2.171-5.373-4.137-7.932-6.089
		C328.163,292.081,327.651,291.78,326.941,291.308z M327.92,288.6c-0.147,0.141-0.294,0.282-0.441,0.423
		c1.094,1.472,2.187,2.944,3.281,4.416c0.155-0.122,0.309-0.243,0.464-0.365C330.122,291.583,329.021,290.092,327.92,288.6z
		 M328.337,284.781c0.696-1.213,1.204-2.096,1.803-3.14C328.35,281.052,328.189,281.339,328.337,284.781z M307.137,370.044
		c0.405-0.034,0.932-0.8,1.079-1.318c0.45-1.586,0.684-3.232,1.109-4.827c0.682-2.554,1.45-5.085,2.113-7.388
		c-2.127-1.196-4.004-2.251-5.928-3.334c-0.233,1.515-0.379,3.119-0.77,4.661c-0.138,0.544-0.819,1.18-1.361,1.307
		c-0.322,0.075-1.147-0.706-1.238-1.196c-0.2-1.082-0.192-2.238-0.062-3.339c0.191-1.615,0.563-3.209,0.857-4.801
		c-3.595-0.711-5.713,0.831-5.92,4.046c-0.086,1.331-0.154,2.662-0.242,3.993c-0.071,1.081-0.351,2.1-1.714,1.882
		c-1.25-0.2-1.735-1.072-1.54-2.357c0.228-1.501,0.377-3.014,0.582-4.705c-1.077,0.361-1.94,0.651-2.709,0.908
		c0.216,4.631,0.411,9.155,0.674,13.675c0.018,0.316,0.481,0.72,0.83,0.887C297.432,370.309,302.262,370.449,307.137,370.044z
		 M296.395,371.148c0.716,2.199,3.197,2.52,5.279,0.881C299.899,371.733,298.292,371.465,296.395,371.148z M303.581,345.666
		c0.13-1.253,0.082-2.681,0.449-3.992c1.23-4.399,0.141-9.217,2.523-13.42c0.421-0.743,0.129-1.858,0.353-2.755
		c0.357-1.426-0.492-2.03-1.56-2.298c-1.141-0.286-2.353-0.288-3.408-0.4c-1.309,7.908-2.6,15.711-3.9,23.569
		C299.961,346.125,301.669,345.909,303.581,345.666z M305.561,397.754c-0.926,8.07-1.923,16.132-2.889,24.197
		c0.255,0.034,0.51,0.068,0.764,0.101c0.414-2.325,0.903-4.641,1.229-6.978c1.043-7.47,2.017-14.95,3.046-22.422
		c0.103-0.747,0.39-1.468,0.598-2.201c-0.009,0.002-0.018,0.005-0.027,0.007c0.443-4.168,0.889-8.335,1.327-12.504
		c0.129-1.227,0.32-2.458,0.296-3.684c-0.008-0.401-0.605-0.79-0.933-1.184c-0.239,0.077-0.478,0.155-0.718,0.232
		C307.36,381.465,306.496,389.613,305.561,397.754z M303.671,437.321c1.046,0.152,1.789,0.26,2.773,0.404
		c0.255-3.356,0.356-6.478,0.762-9.56c0.531-4.035,1.29-8.041,1.977-12.055c0.213-1.243,0.601-2.461,0.753-3.71
		c1.057-8.68,2.211-17.353,3.01-26.057c0.216-2.351-0.682-4.805-1.069-7.212c-0.266,0.017-0.531,0.034-0.797,0.051
		c-0.535,3.64-1.069,7.28-1.612,10.975c-0.194,0.049-0.655,0.166-1.127,0.287c0.438,1.268,0.814,2.473,0.537,3.926
		c-0.449,2.355-0.275,4.843-0.844,7.158c-1.099,4.475-0.792,9.109-2.182,13.61c-1.11,3.593-0.714,7.642-1.06,11.482
		C304.474,430.149,304.057,433.669,303.671,437.321z M314.809,362.536c2.427-3.55,3.285-3.369-1.738-5.738
		c-0.049-0.023-0.124,0.006-0.391,0.025c-1.119,4.273-2.254,8.605-3.388,12.938c0.165,0.048,0.329,0.096,0.494,0.144
		C311.46,367.448,313.132,364.99,314.809,362.536z M311.176,446.041c-0.899-0.182-1.829-0.747-2.692-0.639
		c-2.46,0.306-4.893,1.2-7.336,1.2c3.306,0,6.61,0,9.914,0C311.1,446.602,311.138,446.296,311.176,446.041z M374.377,372.731
		c-0.6,0.649-1.215,1.286-1.77,1.971c-2.725,3.368-5.426,6.756-8.199,10.215c-0.056-0.051-0.313-0.287-0.689-0.633
		c-0.539,0.789-1.09,1.53-1.571,2.314c-0.869,1.415-1.568,2.955-2.582,4.253c-0.823,1.054-0.346,2.58-2.039,3.513
		c-1.099,0.605-1.136,3.14-1.648,4.81c0.207,0.058,0.414,0.115,0.622,0.173c0.346-0.718,0.693-1.437,1.12-2.323
		c0.1,0.73,0.17,1.24,0.245,1.786c2.575-4.457,5.077-8.812,7.61-13.149c0.434-0.743,1.014-1.398,1.502-2.111
		C369.448,379.947,371.911,376.338,374.377,372.731z M385.095,357.345c-0.103-0.074-0.205-0.147-0.308-0.221
		c-1.018,1.088-2.036,2.177-3.054,3.265c0.173-1.883,2.832-2.567,2.109-5.181c-0.792,0.696-1.377,1.211-1.963,1.725
		c0.06,0.077,0.12,0.154,0.18,0.231c0.415-0.209,0.83-0.418,1.199-0.603c-1.83,2.691-3.923,5.176-5.322,8.004
		c-1.236,2.499-3.309,4.727-3.29,7.772c2.774-4.022,5.543-8.047,8.325-12.064C383.658,359.283,384.386,358.321,385.095,357.345z
		 M394.663,338.139c1.456-2.471,3.141-4.81,4.784-7.166c2.259-3.24,2.757-7.636,6.517-9.908c0.339-0.205,0.472-0.795,0.639-1.231
		c1.795-4.674,3.447-9.408,5.413-14.008c1.149-2.689,1.891-5.349,2.029-8.285c0.086-1.829,0.819-3.636,1.325-5.435
		c0.303-1.078,0.922-2.095,1.069-3.185c0.991-7.303,1.94-14.612,2.803-21.931c0.36-3.054,0.649-6.137,0.646-9.206
		c-0.002-2.057-0.576-4.113-0.894-6.17c-0.149-0.004-0.298-0.007-0.447-0.011c-0.141,0.428-0.282,0.855-0.477,1.446
		c-0.904-2.455-1.814-4.636-1.239-7.24c0.317-1.437-0.06-3.065-0.301-4.578c-0.219-1.368-0.678-2.698-1.032-4.044
		c0.111-0.021,0.223-0.042,0.334-0.064c0.203,0.225,0.406,0.449,0.609,0.674c-1.296-5.827-3.483-11.199-7.297-15.848
		c1.076,2.816,2.152,5.632,3.228,8.447c-1.301-2.099-2.275-4.332-3.352-6.514c-1.004-2.034-2.097-4.025-3.189-6.013
		c-1.478-2.692-2.677-5.615-4.565-7.985c-2.899-3.638-6.287-6.886-9.455-10.31c-0.453-0.489-0.817-1.06-1.257-1.562
		c-2.038-2.323-3.813-4.983-6.2-6.867c-3.442-2.717-7.31-4.9-11.039-7.242c-1.401-0.88-3.133-1.329-4.345-2.395
		c-2.803-2.464-5.777-4.554-9.267-5.919c-1.221-0.478-2.31-1.303-3.541-1.744c-0.799-0.286-1.75-0.26-2.622-0.206
		c-1.652,0.104-3.158,0.962-4.971-0.073c-1.992-1.137-4.324-1.68-6.507-2.481c0.005-0.104,0.009-0.208,0.014-0.312
		c2.692,0.315,5.384,0.631,8.077,0.946c0.039-0.25,0.077-0.5,0.116-0.751c-1.943-0.404-3.872-0.894-5.831-1.192
		c-3.415-0.52-6.842-0.972-10.275-1.346c-1.372-0.15-2.872-0.775-4.077,0.643c-0.228,0.268-0.888,0.249-1.344,0.233
		c-3.786-0.131-7.573-0.254-11.356-0.453c-10.237-0.538-20.445-0.843-30.463,2.041c-1.695,0.488-3.531,0.483-5.302,0.706
		c-0.064-0.346-0.128-0.693-0.193-1.039c1.467-0.32,2.919-0.753,4.403-0.94c3.395-0.428,6.809-0.71,10.208-1.109
		c2.294-0.269,4.58-0.628,6.863-0.98c1.104-0.17,2.671-0.065,3.198-0.732c1.282-1.623,2.908-1.225,4.351-1.155
		c1.469,0.071,2.907,0.588,4.359,1.015c0.007,0.064,0.014-0.057,0.021-0.057c-1.982,0-3.965,0-5.947,0
		c5.634,1,11.253,1.657,16.873,1.655c2.554-0.001,5.108-1.332,8.144-2.316c-0.986-0.242-1.43-0.376-1.887-0.423
		c-7.916-0.815-15.82-1.815-23.756-2.314c-4.219-0.266-8.495,0.378-12.745,0.607l0.061-0.042c-0.728,0.038-1.484-0.039-2.178,0.134
		c-5.558,1.379-11.236,2.431-16.618,4.321c-5.806,2.039-11.329,4.884-16.983,7.361c-0.82,0.359-1.729,0.539-2.509,0.963
		c-1.132,0.616-2.223,1.328-3.256,2.1c-0.666,0.498-1.103,1.332-1.801,1.749c-3.892,2.329-7.383,5.069-9.883,8.934
		c-0.358,0.553-0.899,0.985-1.347,1.482c-3.091,3.428-6.165,6.87-9.277,10.279c-0.885,0.969-1.943,1.784-2.801,2.774
		c-1.036,1.196-2.339,2.368-2.83,3.791c-1.244,3.598-2.606,7.084-5.122,9.994c-2.665,3.082-4.575,6.544-5.788,10.445
		c-0.711,2.287-1.859,4.438-2.596,6.719c-1.909,5.915-4.041,11.791-5.419,17.834c-0.91,3.988-0.673,8.237-0.956,12.369
		c-0.078,1.132-0.197,2.263-0.293,3.394c-0.124-0.011-0.267-0.022-0.391-0.033c-0.096-0.604-0.151-1.208-0.247-1.811
		c-0.093,0.009-0.275,0.018-0.275,0.027c0,1.047,0,2.093,0,3.537c0-0.64-0.474-0.916-0.615-1.192
		c-0.206,1.069,0.036,2.031,0.106,3.003c0.305,4.221,0.421,8.459,0.886,12.661c0.231,2.082,1.168,4.074,1.555,6.15
		c0.889,4.761,1.232,9.658,2.51,14.305c2.998,10.902,8.938,20.56,13.904,30.596c2.915,5.89,7.398,10.983,9.676,17.284
		c1.5,4.149,3.511,8.212,4.297,12.496c1.081,5.895,1.46,11.953,1.699,17.958c0.266,6.698-0.219,13.429,0.118,20.12
		c0.215,4.278,1.119,8.56,2.099,12.75c0.943,4.028,2.565,7.853,5.297,11.081c0.216,0.255,0.56,0.477,0.882,0.553
		c3.717,0.884,7.474,1.621,11.152,2.643c1.994,0.554,3.857,1.581,6.075,2.52c-0.235-0.844-0.327-1.177-0.533-1.917
		c4.996,2.146,9.744,3.982,14.997,4.656c0.213-2.592,0.28-4.889,0.609-7.147c1.163-7.995,2.387-15.982,3.642-23.963
		c1.122-7.137,2.316-14.262,3.469-21.394c0.096-0.592,0.399-1.488,0.13-1.747c-1.611-1.551-0.132-3.106-0.02-4.667
		c0.113,0.561,0.226,1.123,0.339,1.684c0.561-3.548,0.842-7.057,0.941-10.57c0.026-0.906-0.497-1.827-0.783-2.745
		c-2.102-0.996-3.398-4.412-2.419-6.41c0.533-1.089,1.05-2.186,1.568-3.282c0.192-0.405,0.404-0.806,0.54-1.23
		c0.178-0.555,0.291-1.131,0.432-1.699c-0.667-0.113-1.617-0.551-1.94-0.27c-0.664,0.579-1.227,1.496-1.402,2.36
		c-0.248,1.225,0.1,2.575-0.175,3.788c-0.57,2.51,0.073,4.601,1.289,6.809c1.338,2.43,2.243,4.87,0.505,7.886
		c-1.931,3.35-3.404,7.082-4.381,10.83c-1,3.836-1.155,7.891-1.684,11.85c-1.089,8.149-2.11,16.308-3.31,24.441
		c-0.386,2.615-0.4,5.416-2.497,8.179c0.334-3.47,0.539-6.374,0.906-9.257c0.727-5.707,1.568-11.4,2.316-17.104
		c0.606-4.625,1.421-9.244,1.648-13.891c0.308-6.318,2.548-11.811,6.2-16.797c1.019-1.391,1.054-2.584,0.147-3.816
		c-2.913-3.96-3.382-8.355-2.146-12.921c0.325-1.2,1.448-2.475,2.552-3.096c1.252-0.705,1.378-1.264,0.987-2.484
		c-3.036-9.48-6.048-18.968-9.006-28.472c-3.121-10.025-6.176-20.071-9.255-30.109c-0.512-1.67,0.195-2.473,2.126-2.599
		c4.901-0.321,9.801-0.249,14.429-2.606c4.194-2.136,4.463-2.235,3.303-6.65c-0.216-0.824,0.326-1.847,0.519-2.779
		c0.922,0.466,2.233,0.692,2.694,1.442c1.345,2.187,3.09,3.804,5.112,5.374c8.422,6.54,17.787,7.041,27.671,4.778
		c1.694-0.388,2.399-1.447,2.286-3.218c-0.066-1.038,0.008-2.175,0.375-3.13c0.572-1.49,1.877-1.885,3.303-1.24
		c1.475,0.667,1.662,1.888,0.752,3.122c-1.548,2.098-1.665,4.211-0.464,6.486c1.539,2.914,2.988,5.853,6.602,6.794
		c1.966,0.512,2.219,1.392,1.277,3.233c-1.919,3.751-3.927,7.463-5.69,11.286c-4.812,10.435-9.539,20.91-14.249,31.392
		c-1.605,3.572-3.057,7.213-4.571,10.804c1.047,0.653,1.709,1.097,2.399,1.49c3.681,2.094,3.539,5.992,1.888,8.78
		c-0.648,1.094-1.456,2.118-1.944,3.278c-2.129,5.062-3.52,10.205-1.418,15.682c0.347,0.905,0.5,1.985,0.396,2.947
		c-0.621,5.704-1.336,11.398-2.035,17.093c-0.511,4.17-1.057,8.336-1.565,12.506c-0.39,3.2-0.628,6.424-1.149,9.602
		c-0.578,3.525-1.383,7.014-2.126,10.511c-0.285,1.342-0.67,2.663-1.005,3.974c-1.622-0.124-3.261,0.21-4.174-0.455
		c-0.846-0.616-0.916-2.299-1.386-3.685c-0.142,1.594-0.269,3.013-0.399,4.477c9.326,2.923,18.948,2.256,28.621,3.68
		c-0.439-0.662-0.625-0.943-0.905-1.364c1.584,0.168,2.984,0.284,4.374,0.471c2.948,0.396,4.515-0.629,5.786-3.229
		c1.836-3.757,3.913-7.396,5.887-11.086c0.094,0.039,0.188,0.078,0.282,0.117c-0.106,0.653-0.212,1.307-0.317,1.96
		c1.751-3.241,3.185-6.399,3.444-10.268c0.327-4.872,1.891-9.656,2.841-14.494c1.008-5.138,2.319-10.158,5.08-14.684
		c0.333-0.545,0.678-1.083,1.017-1.625c0.099,0.074,0.198,0.148,0.297,0.222c-0.241,0.648-0.481,1.296-0.721,1.945
		c0.139,0.078,0.278,0.157,0.418,0.235c10.013-14.349,20.025-28.698,30.222-43.31c0.256,0.9,0.384,1.348,0.567,1.991
		c0.761-1.209,1.458-2.193,2.028-3.246C391.702,343.759,393.052,340.873,394.663,338.139z M410.423,322.664
		c2.454-4.452,4.374-9.12,4.852-14.295c0.145-1.566,0.898-3.076,1.372-4.612c0.185,0.059,0.37,0.118,0.555,0.177
		c-0.289,1.003-0.579,2.006-0.868,3.01c0.212,0.026,0.424,0.053,0.637,0.079c8.023-20.64,10.285-41.713,4.103-63.706
		c0.13,11.797,2.201,23.242,1.026,34.765c-0.17-1.096-0.339-2.192-0.509-3.288c-0.074,0.013-0.148,0.026-0.222,0.039
		c-0.258,1.936-0.516,3.871-0.773,5.807c-0.148-0.01-0.295-0.02-0.442-0.03c0.059-0.456,0.113-0.915,0.157-1.382
		c-0.268,0.6-0.647,1.189-0.706,1.809c-0.216,2.244,0.002,4.572-0.507,6.735c-0.693,2.945-0.199,5.961-1.375,8.933
		c-2.072,5.234-3.481,10.731-5.189,16.11c-0.158,0.498-0.386,1.022-0.726,1.406c-2.421,2.737-4.051,5.823-4.506,10.014
		c0.848-1.315,1.432-2.221,2.017-3.127c0.109,0.058,0.218,0.116,0.326,0.173c-1.369,2.838-2.737,5.677-4.106,8.515
		c-1.225,1.322-2.63,2.522-3.628,3.998c-1.141,1.689-1.75,3.736-2.892,5.424c-1.973,2.918-4.204,5.66-6.263,8.521
		c-0.402,0.558-0.51,1.327-0.754,1.999c2.04-1.975,3.824-4.051,5.285-6.334c2.858-4.465,5.536-9.044,8.288-13.577
		C407.206,327.451,409.037,325.18,410.423,322.664z M290.732,448.073c-1.057-0.43-1.675-1.275-3.035-0.285
		c-0.676,0.492-2.171-0.242-3.291-0.219c-0.646,0.013-1.284,0.431-1.926,0.667c0.091,0.24,0.182,0.48,0.273,0.721
		c5.023,0.291,10.047,0.582,15.07,0.873c0.013-0.191,0.025-0.383,0.038-0.574c-1.39-0.088-2.781-0.175-4.585-0.289
		c0.715-0.187,1.008-0.264,1.364-0.357C293.28,448.449,291.89,448.544,290.732,448.073z M428.22,285.024
		c0.091-0.342,0.181-0.682,0.271-1.021c-0.016-0.037-0.032-0.076-0.048-0.113c-0.001,0.019-0.002,0.039-0.003,0.058
		C428.366,284.306,428.294,284.665,428.22,285.024z M426.057,288.082c-0.516,4.146-1.033,8.292-1.549,12.438
		c0.606-1.652,1.152-3.337,1.532-5.059c0.766-3.47,1.464-6.956,2.181-10.437c-0.383,1.444-0.784,2.952-1.275,4.802
		C426.484,288.921,426.265,288.49,426.057,288.082z M264.873,442.839c-4.073-1.151-8.146-2.302-12.218-3.453
		c-0.065,0.156-0.131,0.312-0.196,0.469C256.521,441.12,260.146,443.955,264.873,442.839z M303.355,465.67
		c2.945-0.346,5.994-0.123,8.745-1.327C309.066,464.281,306.022,464.082,303.355,465.67z M309.946,482.938
		c-0.103-0.087-0.206-0.173-0.308-0.26c-2.879,0.848-5.758,1.695-8.638,2.543c0.079,0.258,0.158,0.516,0.236,0.774
		c2.632-0.681,5.272-1.335,7.887-2.076C309.462,483.823,309.674,483.276,309.946,482.938z M300.798,504.217
		c3.464-0.137,7.451-1.355,7.949-2.681c-2.816,0.741-5.46,1.436-8.104,2.132C300.695,503.85,300.746,504.033,300.798,504.217z
		 M297.705,480.833c1.792-0.889,3.583-1.778,5.399-2.68C300.946,476.997,298.806,477.819,297.705,480.833z M305.977,458.266
		c-1.219-1.34-3.525-0.855-5.549,1.715c0.589,0.09,1.09,0.332,1.434,0.191C303.283,459.589,304.656,458.889,305.977,458.266z
		 M297.523,498.965c0.651,0.01,1.269-0.12,1.797-0.412c1.008-0.559,1.965-1.211,3.064-1.9
		C301.252,495.373,298.715,496.221,297.523,498.965z M297.73,516.578c-0.57,0.22-0.777,1.377-1.336,2.505
		c2.053-0.555,2.01-0.568,2.474-2.09c0.069-0.225,0.766-0.258,1.383-0.443C299.66,514.675,298.397,516.32,297.73,516.578z
		 M300.006,458.602c-1.726,0-3.452,0-5.716,0C296.654,460.602,298.288,458.602,300.006,458.602z M281.402,538.602
		c1.899,0,3.798,0,5.698,0c0.007,0,0.014-0.167,0.022-0.223c-1.889-0.137-3.777-0.247-5.666-0.383
		C281.438,538.189,281.42,537.602,281.402,538.602z M300.197,524.033c1.32-0.66,2.641-1.321,3.961-1.981
		c-0.114-0.204-0.227-0.407-0.341-0.611c-1.33,0.613-2.661,1.226-3.991,1.839C299.95,523.531,300.073,523.782,300.197,524.033z
		 M293.769,480.609c1.387-0.522,2.328-0.876,3.269-1.23c-0.029-0.105-0.057-0.211-0.086-0.316c-1.535,0.184-3.07,0.368-4.996,0.598
		C293.002,480.208,293.633,480.538,293.769,480.609z M276.439,170.621c-2.594-0.52-4.599,0.623-6.434,1.777
		c-4.622,2.907-9.192,5.953-13.465,9.343c-4.698,3.726-9.041,7.899-13.538,11.877c-0.25,0.221-0.587,0.682-0.738,0.628
		c-1.853-0.666-1.972,1.105-2.575,1.939c-0.801,1.106-1.265,2.456-1.874,3.701c-0.179-0.087-0.358-0.174-0.537-0.261
		c0.218-0.458,0.437-0.916,0.655-1.374c-0.097-0.055-0.193-0.11-0.29-0.165c-0.579,0.774-1.158,1.547-1.737,2.321
		c0.114,0.255,0.229,0.509,0.343,0.764c1.402-0.855,3.127-1.431,4.151-2.614c4.754-5.495,10.253-10.041,16.412-13.86
		c8.029-4.977,16.006-10.038,24.005-15.064C279.325,169.873,277.754,170.884,276.439,170.621z M220.619,228.265
		c-0.079-0.073-0.158-0.146-0.237-0.219c1.138-2.898,2.275-5.796,3.413-8.694c-0.232-0.1-0.465-0.199-0.697-0.299
		c-1.487,3.18-3.021,6.339-4.438,9.55c-0.617,1.397-1.094,2.877-1.428,4.366c-0.129,0.577,0.313,1.282,0.495,1.929
		c0.611-0.367,1.487-0.59,1.782-1.13c0.763-1.396,1.322-2.914,1.853-4.421c0.211-0.599,0.134-1.3,0.188-1.955
		c-0.178-0.089-0.356-0.179-0.534-0.268C220.883,227.505,220.751,227.885,220.619,228.265z M240.33,193.982
		c5.677-4.71,11.354-9.42,17.428-14.459C251.474,182.391,240.886,191.29,240.33,193.982z M223.88,223.699
		c3.742-6.423,7.484-12.846,11.502-19.743c-5.232,6.144-9.001,12.556-12.086,19.385C223.49,223.461,223.685,223.58,223.88,223.699z
		 M290.347,166.074c4.209-0.45,9.326-0.997,14.444-1.545c-1.707-0.352-3.402-0.337-5.076-0.14c-1.474,0.173-2.926,0.571-4.199-0.572
		c0,0,0.061-0.046,0.059-0.044C293.539,164.669,291.505,165.564,290.347,166.074z M233.243,202.036
		c-0.902,1.216-1.804,2.433-2.706,3.649c0.216,0.169,0.432,0.337,0.648,0.506C232.686,205.457,232.526,203.409,233.243,202.036z
		 M420.856,285.167c-0.842,3.977-1.684,7.954-2.526,11.931C419.818,293.26,422.048,289.583,420.856,285.167z"/>
</g>
</svg>