<!-- Generator: Adobe Illustrator 19.0.0, SVG Export Plug-In  -->
<svg version="1.1"
	 xmlns="http://www.w3.org/2000/svg" xmlns:xlink="http://www.w3.org/1999/xlink" xmlns:a="http://ns.adobe.com/AdobeSVGViewerExtensions/3.0/"
	 x="0px" y="0px" width="615.663px" height="615.663px" viewBox="0 0 615.663 615.663"
	 style="enable-background:new 0 0 615.663 615.663;" xml:space="preserve">
<style type="text/css">
	.st0{fill:#FFFFFF;}
	.st1{fill:none;stroke:#000000;stroke-width:5.6693;stroke-miterlimit:10;}
</style>
<defs>
</defs>
<g id="XMLID_27_">
	<circle id="XMLID_28_" class="st0" cx="307.831" cy="307.831" r="307.831"/>
</g>
<g id="XMLID_15_">
	<path id="XMLID_24_" class="st1" d="M143.487,393.3c-0.668-0.324-0.849-0.495-1.009-0.477c-16.61,1.829-33.149,4.19-48.987,9.711
		c-5.202,1.814-10.2,4.602-14.779,7.701c-4.059,2.746-4.686,6.602-2.997,10.397c1.628,3.658,5.503,5.81,10.053,5.106
		c3.457-0.535,6.969-1.241,10.221-2.485c13.197-5.049,24.72-13.024,36.076-21.233C135.878,399.262,139.552,396.312,143.487,393.3z
		 M453.731,247.101c0.041,4.848,4.085,9.004,8.803,9.05c4.817,0.046,9.256-4.265,9.289-9.021c0.035-5.021-4.268-9.158-9.429-9.066
		C457.47,238.151,453.688,242.097,453.731,247.101z"/>
	<path id="XMLID_16_" class="st1" d="M309.388,531.933c-8.306-3.275-10.229-10.505-9.791-18.058
		c0.754-13.007,2.436-25.964,3.867-38.927c0.989-8.959,2.506-17.868,3.206-26.845c0.341-4.37-0.288-8.913-1.125-13.253
		c-1.04-5.388-4.366-8.288-8.844-8.718c-5.068-0.487-8.872,1.513-10.814,6.994c-2.17,6.125-3.391,12.581-5.168,18.852
		c-1.07,3.774-2.049,7.644-3.727,11.157c-2.057,4.304-5.571,5.628-10.102,4.688c-4.626-0.959-7.038-3.513-6.604-8.279
		c0.4-4.39,1.596-8.725,2.653-13.033c1.356-5.528,3.201-10.949,4.328-16.519c1.302-6.435-1.153-11.274-7.198-13.899
		c-4.32-1.876-8.926-3.641-13.55-4.159c-11.097-1.243-18.493,5.124-23.128,14.171c-4.608,8.994-8.13,18.578-11.699,28.064
		c-3.43,9.116-6.061,18.534-9.545,27.628c-1.569,4.095-4.029,7.967-6.668,11.505c-3.609,4.839-8.916,6.373-14.421,4.046
		c-3.753-1.586-7.362-3.865-10.491-6.484c-4.098-3.43-4.718-8.103-2.486-13.019c2.865-6.311,7.772-10.98,12.889-15.384
		c9.353-8.05,18.943-15.827,28.247-23.934c7.687-6.698,14.785-13.98,19.599-23.142c5.088-9.683,5.119-19.266-0.728-28.67
		c-3.724-5.991-8.384-6.733-13.145-1.625c-3.729,4-6.852,8.563-10.267,12.858c-4.059,5.105-7.753,10.573-12.303,15.198
		c-7.236,7.356-15.507,6.191-21.212-2.366c-2.64-3.959-2.424-7.541,1.392-10.412c3.364-2.531,7.157-4.555,10.932-6.463
		c5.087-2.571,10.449-4.611,15.482-7.277c3.168-1.678,6.216-3.797,8.841-6.232c3.918-3.634,4.694-8.21,1.923-12.727
		c-2.132-3.475-4.908-6.683-7.904-9.465c-3.317-3.081-7.361-2.069-10.682,0.149c-3.857,2.576-7.382,5.674-10.913,8.706
		c-3.065,2.631-5.848,5.592-8.919,8.216c-3.976,3.398-6.951,3.834-9.072,1.649c-2.814-2.899-3.343-9.296-0.315-12
		c2.951-2.634,6.479-4.813,10.082-6.481c5.73-2.653,11.75-4.675,17.61-7.056c1.622-0.659,3.176-1.544,4.651-2.495
		c7.054-4.551,9.232-10.066,7.483-18.721c-1.483-7.337-6.106-11.573-14.007-13.025c-8.067-1.482-15.972-0.134-23.718,1.73
		c-14.314,3.444-28.47,7.548-42.79,10.963c-5.598,1.335-11.444,1.93-17.207,2.189c-6.98,0.314-10.738-2.64-11.716-8.181
		c-1.169-6.624,1.799-12.344,7.803-14.595c6.573-2.464,13.449-2.458,20.284-1.737c15.253,1.609,30.469,3.583,45.731,5.086
		c7.443,0.733,14.937,0.423,22.208-1.741c6.705-1.995,11.527-5.978,13.457-12.965c1.379-4.993,0.459-8.171-4.397-9.766
		c-6.847-2.249-13.933-4.182-21.064-5.07c-18.196-2.266-36.492-3.72-54.705-5.859c-4.878-0.573-9.663-2.26-14.375-3.792
		c-2.358-0.767-4.663-2.317-4.4-5.348c0.266-3.079,2.458-5.22,5.233-5.389c5.836-0.356,11.876-0.854,17.543,0.226
		c13.638,2.598,27.071,6.258,40.665,9.119c7.481,1.575,15.105,2.523,22.698,3.489c2.31,0.294,4.793-0.016,7.09-0.529
		c6.325-1.411,9.195-7.158,6.058-12.833c-1.654-2.992-4.142-5.77-6.85-7.88c-6.128-4.774-12.666-9.018-18.945-13.603
		c-1.564-1.142-2.95-2.635-4.116-4.193c-2.614-3.492-2.551-7.154-0.076-10.665c2.518-3.572,5.912-5.04,10.039-3.452
		c3.539,1.362,6.807,3.472,10.107,5.4c4.203,2.455,8.217,5.253,12.506,7.539c3.503,1.867,7.278,2.336,11.02,0.219
		c5.163-2.921,7.383-8.692,4.404-13.767c-2.489-4.239-5.971-7.902-9.062-11.78c-2-2.51-4.294-4.81-6.09-7.452
		c-2.496-3.671-2.158-7.487,0.481-10.276c3.38-3.572,7.296-4.568,11.161-1.879c3.349,2.33,6.312,5.355,9.004,8.456
		c3.529,4.066,6.605,8.523,9.917,12.78c0.953,1.225,1.999,2.387,3.084,3.498c3.574,3.657,7.481,7.217,13.024,5.304
		c6.004-2.072,9.605-6.744,10.914-12.968c1.353-6.432-0.364-12.556-3.459-17.97c-5.185-9.072-10.921-17.842-16.69-26.563
		c-5.661-8.559-11.821-16.789-17.429-25.381c-2.889-4.426-5.129-9.328-4.706-14.884c0.114-1.504,0.477-3.133,1.22-4.42
		c4.517-7.831,17.503-8.745,22.526-1.314c2.443,3.614,4.353,7.892,5.324,12.139c2.677,11.715,4.684,23.581,7.049,35.369
		c1.758,8.764,3.851,17.441,8.452,25.255c4.486,7.618,10.948,11.698,20.026,11.076c6.439-0.441,9.431-3.295,8.889-9.733
		c-0.431-5.125-1.902-10.156-2.794-15.25c-0.837-4.78-1.846-9.564-2.174-14.387c-0.294-4.32,2.207-6.57,6.622-6.994
		c4.316-0.414,7.891,1.741,8.055,5.889c0.235,5.965-0.452,11.965-0.687,17.952c-0.159,4.034-0.48,8.086-0.254,12.104
		c0.272,4.833,2.906,7.924,6.897,8.947c4.953,1.27,9.22,0.078,11.513-4.431c2.271-4.467,3.594-9.438,5.121-14.255
		c1.501-4.736,2.395-9.688,4.173-14.307c2.119-5.506,6.713-7.173,11.868-4.956c3.77,1.621,5.143,4.879,5.02,8.568
		c-0.119,3.592-0.769,7.206-1.559,10.727c-1.7,7.581-3.751,15.085-5.404,22.675c-0.423,1.943-0.194,4.159,0.245,6.135
		c1.454,6.539,8.253,9.517,13.755,5.679c3.059-2.134,5.762-5.121,7.839-8.247c4.357-6.557,8.072-13.537,12.298-20.186
		c1.987-3.126,4.319-6.108,6.901-8.76c3.156-3.242,7.401-3.652,10.83-1.636c3.526,2.073,5.138,5.372,3.653,9.903
		c-1.469,4.483-3.648,8.787-5.947,12.93c-3.268,5.89-7.232,11.406-10.308,17.386c-1.803,3.505-2.842,7.533-3.518,11.448
		c-0.608,3.523,1.208,6.546,4.364,8.307c2.94,1.641,5.966,0.578,8.05-1.486c5.8-5.744,11.383-11.719,16.855-17.782
		c7.22-7.999,14.108-16.302,21.426-24.208c3.676-3.971,8.18-7.045,13.626-8.332c5.881-1.389,11.773,1.625,15.47,7.879
		c2.939,4.971,2.655,10.211-1.822,14.485c-3.781,3.609-8.086,6.883-12.654,9.412c-9.702,5.371-19.799,10.024-29.579,15.262
		c-3.428,1.836-6.677,4.231-9.51,6.899c-3.813,3.593-3.458,7.345,0.274,11.087c4.143,4.154,9.181,5.319,14.612,3.826
		c4.371-1.202,8.533-3.165,12.786-4.795c1.935-0.741,3.826-1.63,5.807-2.212c4.993-1.468,8.107-0.211,10.169,3.925
		c2.481,4.976,1.86,9.318-2.608,11.995c-4.318,2.587-9.105,4.419-13.763,6.403c-4.098,1.745-8.37,3.09-12.431,4.911
		c-2.139,0.959-4.199,2.331-5.925,3.919c-2.845,2.617-4.165,5.964-2.952,9.859c0.766,2.461,1.5,4.998,2.733,7.234
		c2.997,5.435,7.997,7.777,13.885,6.571c5.733-1.174,11.451-2.964,16.806-5.323c8.153-3.592,15.925-8.038,23.985-11.856
		c3.629-1.719,7.476-3.16,11.376-4.088c7.301-1.736,10.785,0.115,12.734,7.389c1.318,4.918,1.929,10.187,1.832,15.28
		c-0.122,6.388-4.251,10.524-10.691,10.788c-6.272,0.257-12.583-0.498-18.879-0.77c-7.736-0.334-15.501-1.172-23.202-0.785
		c-7.508,0.377-13.565,4.205-17.499,10.903c-3.107,5.289-2.246,9.964,2.579,13.714c5.296,4.115,11.546,6.153,17.905,7.634
		c13.227,3.08,26.57,5.662,39.793,8.759c5.525,1.294,11.001,3.049,16.249,5.202c5.212,2.139,6.507,4.879,5.299,8.742
		c-1.578,5.049-5.31,7.783-10.384,6.711c-4.316-0.912-8.699-2.221-12.603-4.228c-9.957-5.118-19.628-10.79-29.482-16.115
		c-7.218-3.9-14.549-7.625-22.87-8.583c-9.457-1.089-15.404,2.725-18.833,11.633c-0.827,2.148-2.121,4.205-3.568,6.009
		c-3.568,4.453-4.447,9.29-0.785,13.645c3.746,4.454,8.175,8.58,12.991,11.836c9.184,6.21,18.943,11.561,28.281,17.554
		c3.81,2.445,7.35,5.413,10.639,8.537c3.59,3.409,4.468,7.852,2.756,10.685c-1.398,2.314-6.022,3.609-10.32,1.585
		c-5.082-2.394-10.096-5.372-14.328-9.035c-7.438-6.439-14.144-13.715-21.386-20.391c-3.642-3.357-7.656-6.362-11.747-9.168
		c-4.105-2.815-8.755-4.192-13.855-3.673c-9.042,0.92-14.109,9.536-10.227,17.743c3.658,7.733,10.126,13.048,16.524,18.342
		c7.67,6.347,15.65,12.335,23.117,18.908c4.237,3.73,8.124,8.027,11.426,12.604c3.616,5.012,2.832,9.932-1.122,13.817
		c-5.465,5.371-11.871,6.865-16.784,3.149c-3.148-2.381-6.149-5.444-8.082-8.845c-4.605-8.1-8.479-16.611-12.761-24.899
		c-2.71-5.246-5.478-10.475-8.507-15.54c-1.417-2.368-3.346-4.502-5.335-6.443c-6.23-6.08-14.756-5.815-20.777,0.515
		c-2.229,2.344-3.358,5.283-2.287,8.293c1.797,5.049,4.061,9.939,6.254,14.84c1.607,3.592,3.641,7.005,5.081,10.656
		c2.172,5.509,0.903,9.27-3.413,11.434c-5.02,2.517-9.6,1.458-12.554-3.594c-2.499-4.273-4.281-8.963-6.409-13.454
		c-1.862-3.931-3.479-8.014-5.713-11.724c-3.454-5.735-8.217-7.641-13.946-6.209c-5.553,1.387-9.39,5.593-9.47,12.001
		c-0.077,6.164,0.223,12.515,1.64,18.479c3.257,13.713,7.496,27.191,10.921,40.868c1.5,5.992,2.529,12.214,2.815,18.376
		c0.542,11.668-1.691,14.626-12.392,18.929C313.538,531.933,311.463,531.933,309.388,531.933z M374.751,83.729
		c-6.12,3.318-9.253,8.968-11.753,15.099c-4.409,10.808-6.821,22.149-8.773,33.594c-1.101,6.453-1.915,12.954-2.858,19.434
		c0.412,0.19,0.825,0.379,1.237,0.569c7.53-10.984,15.442-21.731,22.44-33.044c3.986-6.443,7.289-13.57,9.436-20.821
		c2.557-8.635,0.905-11.49-5.372-14.83C377.656,83.729,376.203,83.729,374.751,83.729z M542.205,337.089
		c-3.501,6.73-9.741,7.347-16.072,6.507c-7.06-0.937-14.211-2.092-20.956-4.28c-11.516-3.736-22.748-8.35-34.095-12.608
		c-0.467-0.175-0.887-0.477-2.195-1.197c5.691-0.755,10.508-1.683,15.362-1.977c10.436-0.632,20.894-1.29,31.339-1.233
		c5.518,0.03,11.082,1.289,16.526,2.456c4.51,0.967,8.174,3.488,10.091,7.976C542.205,334.184,542.205,335.637,542.205,337.089z
		 M73.458,259.898c0.407-0.714,0.811-1.43,1.221-2.143c2.122-3.684,6.054-5.56,9.9-4.727c4.023,0.872,7.06,4.45,7.281,8.577
		c0.197,3.677-2.394,7.405-6.131,8.823c-3.756,1.424-7.638,0.163-10.351-3.395c-0.681-0.894-1.282-1.85-1.92-2.777
		C73.458,262.803,73.458,261.351,73.458,259.898z M143.487,393.3c-3.934,3.012-7.609,5.962-11.422,8.719
		c-11.356,8.21-22.88,16.185-36.076,21.233c-3.252,1.244-6.764,1.95-10.221,2.485c-4.55,0.704-8.426-1.448-10.053-5.106
		c-1.689-3.795-1.062-7.651,2.997-10.397c4.58-3.098,9.577-5.887,14.779-7.701c15.838-5.521,32.377-7.882,48.987-9.711
		C142.637,392.805,142.818,392.976,143.487,393.3z M453.731,247.101c-0.043-5.004,3.74-8.95,8.662-9.038
		c5.161-0.092,9.464,4.045,9.429,9.066c-0.033,4.756-4.472,9.067-9.289,9.021C457.815,256.105,453.772,251.949,453.731,247.101z"/>
</g>
</svg>