<!-- Generator: Adobe Illustrator 20.1.0, SVG Export Plug-In  -->
<svg version="1.1"
	 xmlns="http://www.w3.org/2000/svg" xmlns:xlink="http://www.w3.org/1999/xlink" xmlns:a="http://ns.adobe.com/AdobeSVGViewerExtensions/3.0/"
	 x="0px" y="0px" width="176.578px" height="176.578px" viewBox="0 0 176.578 176.578"
	 style="overflow:scroll;enable-background:new 0 0 176.578 176.578;" xml:space="preserve">
<style type="text/css">
	.st0{fill:#C20D19;stroke:#FFFFFF;stroke-width:5.6693;stroke-miterlimit:10;}
	.st1{fill:#FFFFFF;}
</style>
<defs>
</defs>
<g>
	<circle class="st0" cx="88.289" cy="88.289" r="85.455"/>
	<g>
		<path class="st1" d="M42.099,79.022c-1.158,0.579-3.475,1.158-6.442,1.158c-6.877,0-12.053-4.343-12.053-12.342
			c0-7.637,5.176-12.813,12.74-12.813c3.041,0,4.959,0.652,5.791,1.086l-0.76,2.57c-1.194-0.579-2.896-1.013-4.922-1.013
			c-5.719,0-9.519,3.655-9.519,10.062c0,5.972,3.438,9.809,9.374,9.809c1.918,0,3.873-0.398,5.14-1.013L42.099,79.022z"/>
		<path class="st1" d="M50.135,72.146l-2.534,7.673h-3.257l8.289-24.395h3.8l8.325,24.395h-3.366l-2.606-7.673H50.135z
			 M58.134,69.684l-2.389-7.021c-0.543-1.593-0.905-3.041-1.267-4.452h-0.072c-0.362,1.448-0.76,2.932-1.23,4.416l-2.389,7.058
			H58.134z"/>
		<path class="st1" d="M68.342,55.75c1.592-0.326,3.873-0.507,6.044-0.507c3.366,0,5.538,0.615,7.058,1.991
			c1.23,1.086,1.918,2.751,1.918,4.633c0,3.221-2.027,5.356-4.596,6.226V68.2c1.882,0.651,3.004,2.389,3.583,4.922
			c0.796,3.402,1.375,5.755,1.882,6.696h-3.257c-0.398-0.688-0.941-2.787-1.628-5.827c-0.724-3.366-2.027-4.633-4.886-4.741h-2.968
			v10.568h-3.148V55.75z M71.491,66.861h3.222c3.366,0,5.501-1.846,5.501-4.633c0-3.149-2.28-4.524-5.61-4.56
			c-1.52,0-2.606,0.145-3.113,0.289V66.861z"/>
		<path class="st1" d="M92.773,58.102h-7.419v-2.678h18.061v2.678h-7.456v21.716h-3.186V58.102z"/>
		<path class="st1" d="M126.001,67.368c0,8.397-5.104,12.849-11.329,12.849c-6.442,0-10.967-4.995-10.967-12.378
			c0-7.746,4.814-12.813,11.329-12.813C121.694,55.026,126.001,60.129,126.001,67.368z M107.071,67.766
			c0,5.212,2.823,9.881,7.782,9.881c4.995,0,7.818-4.596,7.818-10.134c0-4.85-2.534-9.917-7.782-9.917
			C109.677,57.595,107.071,62.409,107.071,67.766z M120.137,49.814l-4.597,4.199h-2.606l3.366-4.199H120.137z"/>
		<path class="st1" d="M130.092,79.818V55.424h3.438l7.818,12.342c1.81,2.859,3.222,5.429,4.38,7.927l0.072-0.036
			c-0.29-3.258-0.362-6.226-0.362-10.026V55.424h2.968v24.395h-3.185l-7.746-12.378c-1.701-2.714-3.33-5.501-4.561-8.144
			l-0.108,0.036c0.181,3.077,0.253,6.008,0.253,10.062v10.424H130.092z"/>
		<path class="st1" d="M34.806,99.149c1.521-0.253,3.511-0.471,6.044-0.471c3.113,0,5.393,0.724,6.841,2.027
			c1.339,1.158,2.135,2.932,2.135,5.104c0,2.208-0.651,3.945-1.882,5.212c-1.665,1.773-4.379,2.678-7.456,2.678
			c-0.941,0-1.81-0.036-2.534-0.217v9.772h-3.149V99.149z M37.955,110.912c0.688,0.181,1.557,0.253,2.606,0.253
			c3.801,0,6.117-1.846,6.117-5.212c0-3.221-2.28-4.777-5.755-4.777c-1.375,0-2.425,0.108-2.968,0.253V110.912z"/>
		<path class="st1" d="M54.063,98.86h3.148v21.752h10.424v2.642H54.063V98.86z"/>
		<path class="st1" d="M72.993,98.86v14.441c0,5.465,2.425,7.781,5.683,7.781c3.619,0,5.936-2.389,5.936-7.781V98.86h3.186v14.224
			c0,7.492-3.945,10.568-9.229,10.568c-4.995,0-8.759-2.859-8.759-10.424V98.86H72.993z"/>
		<path class="st1" d="M113.821,112.541c-0.181-3.402-0.398-7.492-0.362-10.532h-0.108c-0.833,2.859-1.846,5.899-3.077,9.266
			l-4.307,11.835h-2.389l-3.945-11.619c-1.158-3.438-2.135-6.587-2.823-9.482h-0.073c-0.072,3.04-0.253,7.13-0.47,10.786
			l-0.651,10.46h-3.004l1.701-24.395h4.018l4.162,11.799c1.014,3.004,1.846,5.683,2.461,8.216h0.108
			c0.615-2.461,1.484-5.14,2.57-8.216l4.343-11.799h4.018l1.52,24.395h-3.076L113.821,112.541z"/>
		<path class="st1" d="M125.947,115.581l-2.534,7.673h-3.257l8.289-24.395h3.8l8.324,24.395h-3.366l-2.606-7.673H125.947z
			 M133.946,113.12l-2.389-7.021c-0.543-1.593-0.905-3.041-1.267-4.452h-0.072c-0.362,1.448-0.76,2.932-1.23,4.416l-2.389,7.058
			H133.946z"/>
	</g>
</g>
</svg>