<!-- Generator: Adobe Illustrator 19.0.0, SVG Export Plug-In  -->
<svg version="1.1"
	 xmlns="http://www.w3.org/2000/svg" xmlns:xlink="http://www.w3.org/1999/xlink" xmlns:a="http://ns.adobe.com/AdobeSVGViewerExtensions/3.0/"
	 x="0px" y="0px" width="281.269px" height="281.268px" viewBox="0 0 281.269 281.268"
	 style="enable-background:new 0 0 281.269 281.268;" xml:space="preserve">
<style type="text/css">
	.st0{fill:#C20B19;}
	.st1{fill:#FFFFFF;}
</style>
<defs>
</defs>
<g id="XMLID_51_">
	<g id="XMLID_82_">
		<circle id="XMLID_86_" class="st0" cx="140.634" cy="140.634" r="134.965"/>
		<path id="XMLID_83_" class="st1" d="M140.634,281.268C63.088,281.268,0,218.18,0,140.634S63.088,0,140.634,0
			s140.634,63.088,140.634,140.634S218.18,281.268,140.634,281.268z M140.634,11.339c-71.294,0-129.295,58.001-129.295,129.295
			S69.34,269.93,140.634,269.93S269.93,211.928,269.93,140.634S211.928,11.339,140.634,11.339z"/>
	</g>
	<g id="XMLID_52_">
		<path id="XMLID_80_" class="st1" d="M40.834,124.503V85.186h5.542l12.6,19.892c2.917,4.608,5.192,8.751,7.059,12.775l0.117-0.058
			c-0.467-5.251-0.584-10.034-0.584-16.159v-16.45h4.783v39.317h-5.133l-12.484-19.95c-2.742-4.375-5.367-8.867-7.35-13.125
			l-0.175,0.058c0.292,4.959,0.408,9.684,0.408,16.217v16.801H40.834z"/>
		<path id="XMLID_78_" class="st1" d="M84.289,85.186v39.317h-5.075V85.186H84.289z"/>
		<path id="XMLID_75_" class="st1" d="M93.154,85.711c3.092-0.467,6.767-0.817,10.792-0.817c7.291,0,12.483,1.692,15.925,4.9
			c3.5,3.208,5.542,7.759,5.542,14.117c0,6.417-1.983,11.667-5.658,15.283c-3.676,3.675-9.742,5.658-17.384,5.658
			c-3.617,0-6.65-0.175-9.217-0.466V85.711z M98.229,120.478c1.283,0.233,3.149,0.292,5.133,0.292
			c10.851,0,16.742-6.066,16.742-16.684c0.059-9.275-5.191-15.167-15.925-15.167c-2.625,0-4.608,0.233-5.95,0.525V120.478z"/>
		<path id="XMLID_72_" class="st1" d="M165.601,104.436c0,13.534-8.226,20.709-18.259,20.709c-10.384,0-17.676-8.05-17.676-19.95
			c0-12.483,7.759-20.65,18.259-20.65C158.658,84.544,165.601,92.769,165.601,104.436z M135.092,105.077
			c0,8.4,4.55,15.926,12.542,15.926c8.05,0,12.6-7.408,12.6-16.334c0-7.816-4.083-15.983-12.542-15.983
			C139.292,88.686,135.092,96.444,135.092,105.077z"/>
		<path id="XMLID_69_" class="st1" d="M184.554,85.711c3.092-0.467,6.767-0.817,10.792-0.817c7.291,0,12.483,1.692,15.925,4.9
			c3.5,3.208,5.542,7.759,5.542,14.117c0,6.417-1.983,11.667-5.658,15.283c-3.676,3.675-9.742,5.658-17.384,5.658
			c-3.617,0-6.65-0.175-9.217-0.466V85.711z M189.629,120.478c1.283,0.233,3.149,0.292,5.133,0.292
			c10.851,0,16.742-6.066,16.742-16.684c0.059-9.275-5.191-15.167-15.925-15.167c-2.625,0-4.608,0.233-5.95,0.525V120.478z"/>
		<path id="XMLID_67_" class="st1" d="M243.759,106.069h-15.283v14.175h17.033v4.259H223.4V85.186h21.233v4.259h-16.158v12.425
			h15.283V106.069z"/>
		<path id="XMLID_64_" class="st1" d="M51.085,178.541l-5.556,16.828h-7.144l18.177-53.5h8.334l18.257,53.5h-7.382l-5.716-16.828
			H51.085z M68.627,173.144l-5.238-15.398c-1.191-3.493-1.985-6.668-2.778-9.764h-0.159c-0.793,3.175-1.667,6.43-2.699,9.684
			l-5.239,15.479H68.627z"/>
		<path id="XMLID_60_" class="st1" d="M91.007,142.584c3.017-0.635,7.779-1.111,12.621-1.111c6.906,0,11.351,1.19,14.685,3.89
			c2.778,2.063,4.445,5.238,4.445,9.445c0,5.16-3.413,9.685-9.049,11.748v0.158c5.08,1.271,11.033,5.478,11.033,13.415
			c0,4.604-1.826,8.097-4.524,10.716c-3.73,3.413-9.764,5.001-18.495,5.001c-4.763,0-8.413-0.317-10.716-0.636V142.584z
			 M97.913,164.492h6.271c7.303,0,11.589-3.811,11.589-8.97c0-6.271-4.763-8.731-11.747-8.731c-3.176,0-5.001,0.238-6.112,0.477
			V164.492z M97.913,190.13c1.35,0.238,3.334,0.318,5.794,0.318c7.145,0,13.732-2.62,13.732-10.398
			c0-7.303-6.271-10.319-13.812-10.319h-5.715V190.13z"/>
		<path id="XMLID_58_" class="st1" d="M161.729,170.286h-20.797v19.288h23.178v5.795h-30.084v-53.5h28.894v5.795h-21.987v16.907
			h20.797V170.286z"/>
		<path id="XMLID_56_" class="st1" d="M185.456,141.869h6.906v35.799c0,14.209-6.985,18.574-16.193,18.574
			c-2.54,0-5.636-0.556-7.382-1.27l1.032-5.636c1.429,0.556,3.492,1.031,5.794,1.031c6.191,0,9.843-2.778,9.843-13.256V141.869z"/>
		<path id="XMLID_53_" class="st1" d="M212.521,178.541l-5.557,16.828h-7.144l18.177-53.5h8.335l18.257,53.5h-7.382l-5.716-16.828
			H212.521z M230.063,173.144l-5.238-15.398c-1.191-3.493-1.984-6.668-2.778-9.764h-0.159c-0.794,3.175-1.667,6.43-2.698,9.684
			l-5.239,15.479H230.063z"/>
	</g>
</g>
</svg>